<svg width="21" height="20" viewBox="0 0 21 20" fill="none" xmlns="http://www.w3.org/2000/svg">
<path d="M11.1668 12.5L10.3335 14.1667M14.9168 12.5L14.0835 14.1667M12.0002 15.8333L11.1668 17.5M7.41683 12.5L6.5835 14.1667M8.25016 15.8333L7.41683 17.5" stroke="#5E6E78" stroke-width="1.5" stroke-linecap="round" stroke-linejoin="round"/>
<path d="M15.3145 7.41501L15.3332 7.41496C17.4043 7.41496 19.0832 9.06533 19.0832 11.1012C19.0832 12.3793 18.4215 13.5054 17.4165 14.1667M15.3145 7.41501C15.3268 7.28009 15.3332 7.14347 15.3332 7.00538C15.3332 4.51712 13.2812 2.5 10.7498 2.5C8.35254 2.5 6.38511 4.30922 6.18352 6.6144M15.3145 7.41501C15.2293 8.34433 14.857 9.19225 14.2855 9.87242M6.18352 6.6144C4.06982 6.81212 2.4165 8.56208 2.4165 10.6916C2.4165 12.0315 3.07121 13.221 4.08317 13.9683M6.18352 6.6144C6.31505 6.60209 6.44836 6.5958 6.58317 6.5958C7.52135 6.5958 8.38712 6.9006 9.08359 7.41496" stroke="#5E6E78" stroke-width="1.5" stroke-linecap="round" stroke-linejoin="round"/>
</svg>
