<svg width="20" height="20" viewBox="0 0 20 20" fill="none" xmlns="http://www.w3.org/2000/svg">
<g id="Google logo" clip-path="url(#clip0_12026_1393)">
<g id="XMLID_28_">
<path id="XMLID_30_" d="M6.93071 0.548585C4.49477 1.38296 2.41704 3.20835 1.26352 5.50991C0.860396 6.30522 0.56899 7.15054 0.395552 8.02437C-0.046635 10.197 0.261177 12.5099 1.26352 14.4919C1.91313 15.7853 2.84829 16.9334 3.97954 17.8294C5.04907 18.6806 6.29204 19.308 7.61391 19.6607C9.27719 20.1087 11.0522 20.0974 12.7319 19.7166C14.2495 19.3693 15.6831 18.6416 16.8252 17.5888C18.0346 16.4744 18.8971 15.013 19.3565 13.4396C19.8549 11.7205 19.9221 9.88921 19.6084 8.13101C16.4725 8.13101 13.3366 8.13101 10.1952 8.13101C10.1952 9.43023 10.1952 10.7349 10.1952 12.0341C12.0096 12.0341 13.8295 12.0341 15.6436 12.0341C15.4307 13.283 14.6916 14.4197 13.6389 15.1251C12.978 15.5673 12.2221 15.8587 11.4381 15.9931C10.6487 16.1275 9.83657 16.1443 9.05258 15.9876C8.2518 15.831 7.49008 15.4947 6.82407 15.0244C5.76001 14.2794 4.94829 13.1822 4.53383 11.9556C4.10844 10.7068 4.10258 9.31265 4.53383 8.06382C4.83071 7.18452 5.32915 6.36694 5.98422 5.7064C6.79047 4.87749 7.83774 4.2896 8.96899 4.04898C9.93774 3.84194 10.9569 3.88101 11.9034 4.16655C12.7096 4.41304 13.4491 4.84976 14.0592 5.43218C14.6752 4.82163 15.2854 4.20601 15.9014 3.59546C16.2206 3.26499 16.5623 2.95132 16.8756 2.60991C15.9459 1.74741 14.8487 1.05327 13.6557 0.616553C11.5166 -0.185009 9.09204 -0.201806 6.93071 0.548585Z" fill="white"/>
<path id="XMLID_31_" d="M6.93086 0.548329C9.09219 -0.202061 11.5172 -0.185265 13.6672 0.610048C14.8598 1.04677 15.952 1.7413 16.8871 2.60341C16.5734 2.93934 16.2375 3.25848 15.9129 3.58895C15.2969 4.1995 14.6867 4.81512 14.0707 5.42567C13.4602 4.84325 12.7211 4.40106 11.9148 4.16005C10.9684 3.8745 9.94922 3.83544 8.98047 4.04247C7.84922 4.28309 6.80234 4.87684 5.9957 5.69989C5.34063 6.36083 4.84219 7.17841 4.54531 8.05731C3.45352 7.21161 2.36133 6.36044 1.26953 5.51512C2.41719 3.20809 4.49492 1.3827 6.93086 0.548329Z" fill="#E94435"/>
<path id="XMLID_32_" d="M0.395552 8.02388C0.56899 7.15045 0.865865 6.30474 1.26352 5.50943C2.35532 6.35513 3.4475 7.20631 4.5393 8.05162C4.10805 9.30045 4.11391 10.6946 4.5393 11.9434C3.4475 12.7891 2.35532 13.6403 1.26352 14.4856C0.261177 12.5149 -0.046635 10.1965 0.395552 8.02388Z" fill="#F8BB15"/>
<path id="XMLID_33_" d="M10.1994 8.12482C13.3354 8.12482 16.4713 8.12482 19.6127 8.12482C19.9264 9.88302 19.8592 11.7143 19.3608 13.4334C18.9018 15.0068 18.0393 16.474 16.8295 17.5826C15.7713 16.7596 14.7072 15.9361 13.6545 15.1131C14.7072 14.4131 15.4463 13.2709 15.6592 12.0221C13.8447 12.0221 12.0248 12.0221 10.2108 12.0221C10.194 10.7287 10.1994 9.4295 10.1994 8.12482Z" fill="#547DBE"/>
<path id="XMLID_34_" d="M1.26303 14.4912C2.35483 13.6455 3.44702 12.7943 4.53881 11.949C4.95327 13.1811 5.76498 14.2729 6.82905 15.0178C7.49545 15.4881 8.25678 15.8186 9.05756 15.9811C9.84155 16.1377 10.6591 16.1209 11.4431 15.9865C12.2271 15.8522 12.983 15.5611 13.6439 15.1186C14.7021 15.9416 15.7662 16.7651 16.8189 17.5881C15.6767 18.6463 14.2431 19.369 12.7255 19.7158C11.0513 20.0967 9.27592 20.1076 7.60756 19.66C6.28608 19.3072 5.04272 18.6799 3.97319 17.8287C2.8478 16.9272 1.91264 15.7791 1.26303 14.4912Z" fill="#34A751"/>
</g>
</g>
<defs>
<clipPath id="clip0_12026_1393">
<rect width="20" height="20" fill="white"/>
</clipPath>
</defs>
</svg>
