<svg width="210" height="57" viewBox="0 0 210 57" fill="none" xmlns="http://www.w3.org/2000/svg">
<g clip-path="url(#clip0_116_4)">
<path d="M80.5489 35.385H71.0914L69.4664 40H65.5989L73.6914 17.38H77.9814L86.0739 40H82.1739L80.5489 35.385ZM79.5089 32.3625L75.8364 21.865L72.1314 32.3625H79.5089ZM96.0925 40.2925C94.6842 40.2925 93.4167 40.0433 92.29 39.545C91.185 39.025 90.3075 38.3317 89.6575 37.465C89.0075 36.5767 88.6609 35.5908 88.6175 34.5075H92.4525C92.5175 35.2658 92.875 35.905 93.525 36.425C94.1967 36.9233 95.0309 37.1725 96.0275 37.1725C97.0675 37.1725 97.8692 36.9775 98.4325 36.5875C99.0175 36.1758 99.31 35.6558 99.31 35.0275C99.31 34.3558 98.985 33.8575 98.335 33.5325C97.7067 33.2075 96.6992 32.85 95.3125 32.46C93.9692 32.0917 92.875 31.7342 92.03 31.3875C91.185 31.0408 90.4484 30.51 89.82 29.795C89.2134 29.08 88.91 28.1375 88.91 26.9675C88.91 26.0142 89.1917 25.1475 89.755 24.3675C90.3184 23.5658 91.12 22.9375 92.16 22.4825C93.2217 22.0275 94.435 21.8 95.8 21.8C97.8367 21.8 99.4725 22.32 100.708 23.36C101.964 24.3783 102.636 25.7758 102.723 27.5525H99.0175C98.9525 26.7508 98.6275 26.1117 98.0425 25.635C97.4575 25.1583 96.6667 24.92 95.67 24.92C94.695 24.92 93.9475 25.1042 93.4275 25.4725C92.9075 25.8408 92.6475 26.3283 92.6475 26.935C92.6475 27.4117 92.8209 27.8125 93.1675 28.1375C93.5142 28.4625 93.9367 28.7225 94.435 28.9175C94.9334 29.0908 95.67 29.3183 96.645 29.6C97.945 29.9467 99.0067 30.3042 99.83 30.6725C100.675 31.0192 101.401 31.5392 102.008 32.2325C102.614 32.9258 102.928 33.8467 102.95 34.995C102.95 36.0133 102.668 36.9233 102.105 37.725C101.542 38.5267 100.74 39.155 99.7 39.61C98.6817 40.065 97.4792 40.2925 96.0925 40.2925ZM114.038 31.0625L122.293 40H117.288L110.658 32.2975V40H106.953V15.95H110.658V29.925L117.158 22.0925H122.293L114.038 31.0625ZM145.481 28.3975C146.695 28.6142 147.724 29.2533 148.569 30.315C149.414 31.3767 149.836 32.5792 149.836 33.9225C149.836 35.0708 149.533 36.1108 148.926 37.0425C148.341 37.9525 147.486 38.6783 146.359 39.22C145.232 39.74 143.921 40 142.426 40H133.391V17.4125H142.004C143.542 17.4125 144.864 17.6725 145.969 18.1925C147.074 18.7125 147.908 19.4167 148.471 20.305C149.035 21.1717 149.316 22.1467 149.316 23.23C149.316 24.53 148.97 25.6133 148.276 26.48C147.583 27.3467 146.651 27.9858 145.481 28.3975ZM137.096 26.9025H141.679C142.892 26.9025 143.835 26.6317 144.506 26.09C145.2 25.5267 145.546 24.725 145.546 23.685C145.546 22.6667 145.2 21.8758 144.506 21.3125C143.835 20.7275 142.892 20.435 141.679 20.435H137.096V26.9025ZM142.101 36.9775C143.358 36.9775 144.344 36.6742 145.059 36.0675C145.774 35.4608 146.131 34.6158 146.131 33.5325C146.131 32.4275 145.752 31.55 144.994 30.9C144.236 30.25 143.228 29.925 141.971 29.925H137.096V36.9775H142.101ZM155.748 19.72C155.076 19.72 154.513 19.4925 154.058 19.0375C153.603 18.5825 153.375 18.0192 153.375 17.3475C153.375 16.6758 153.603 16.1125 154.058 15.6575C154.513 15.2025 155.076 14.975 155.748 14.975C156.398 14.975 156.95 15.2025 157.405 15.6575C157.86 16.1125 158.088 16.6758 158.088 17.3475C158.088 18.0192 157.86 18.5825 157.405 19.0375C156.95 19.4925 156.398 19.72 155.748 19.72ZM157.568 22.0925V40H153.863V22.0925H157.568ZM165.714 36.9775H173.839V40H161.424V36.9775L169.582 25.115H161.424V22.0925H173.839V25.115L165.714 36.9775ZM181.012 36.9775H189.137V40H176.722V36.9775L184.88 25.115H176.722V22.0925H189.137V25.115L181.012 36.9775ZM209.148 22.0925L198.163 48.4175H194.328L197.968 39.7075L190.915 22.0925H195.043L200.08 35.7425L205.313 22.0925H209.148Z" fill="url(#paint0_linear_116_4)"/>
<g clip-path="url(#clip1_116_4)">
<path d="M40.4167 4.95381C37.3523 3.18121 33.7946 2.16669 30 2.16669C18.4941 2.16669 9.16667 11.4941 9.16667 23C9.16667 26.3327 9.94921 29.4825 11.3405 32.2761C11.7103 33.0184 11.8334 33.8669 11.619 34.6679L10.3782 39.3056C9.83948 41.3188 11.6813 43.1604 13.6945 42.6219L18.3321 41.3811C19.1332 41.1667 19.9817 41.2898 20.724 41.6594C23.5174 43.0509 26.6673 43.8334 30 43.8334C41.5058 43.8334 50.8333 34.5059 50.8333 23C50.8333 19.2054 49.8188 15.6477 48.0463 12.5834" stroke="url(#paint1_linear_116_4)" stroke-width="4" stroke-linecap="round"/>
<path d="M26.4091 29V17.3636H30.4773C31.2879 17.3636 31.9564 17.5038 32.483 17.7841C33.0095 18.0606 33.4015 18.4337 33.6591 18.9034C33.9167 19.3693 34.0455 19.8864 34.0455 20.4545C34.0455 20.9545 33.9564 21.3674 33.7784 21.6932C33.6042 22.0189 33.3731 22.2765 33.0852 22.4659C32.8011 22.6553 32.4924 22.7955 32.1591 22.8864V23C32.5152 23.0227 32.8731 23.1477 33.233 23.375C33.5928 23.6023 33.8939 23.928 34.1364 24.3523C34.3788 24.7765 34.5 25.2955 34.5 25.9091C34.5 26.4924 34.3674 27.017 34.1023 27.483C33.8371 27.9489 33.4186 28.3182 32.8466 28.5909C32.2746 28.8636 31.5303 29 30.6136 29H26.4091ZM27.8182 27.75H30.6136C31.5341 27.75 32.1875 27.572 32.5739 27.2159C32.964 26.8561 33.1591 26.4205 33.1591 25.9091C33.1591 25.5152 33.0587 25.1515 32.858 24.8182C32.6572 24.4811 32.3712 24.2121 32 24.0114C31.6288 23.8068 31.1894 23.7045 30.6818 23.7045H27.8182V27.75ZM27.8182 22.4773H30.4318C30.8561 22.4773 31.2386 22.3939 31.5795 22.2273C31.9242 22.0606 32.197 21.8258 32.3977 21.5227C32.6023 21.2197 32.7045 20.8636 32.7045 20.4545C32.7045 19.9432 32.5265 19.5095 32.1705 19.1534C31.8144 18.7936 31.25 18.6136 30.4773 18.6136H27.8182V22.4773ZM36.3835 29V27.9773L41.3381 21.6136V21.5227H36.5426V20.2727H43.0653V21.3409L38.2472 27.6591V27.75H43.2244V29H36.3835Z" fill="url(#paint2_linear_116_4)"/>
</g>
</g>
<defs>
<linearGradient id="paint0_linear_116_4" x1="64" y1="28.5" x2="210" y2="28.5" gradientUnits="userSpaceOnUse">
<stop stop-color="#AC45F2"/>
<stop offset="1" stop-color="#33A8FF"/>
</linearGradient>
<linearGradient id="paint1_linear_116_4" x1="30" y1="2.16669" x2="30" y2="43.8334" gradientUnits="userSpaceOnUse">
<stop stop-color="#33A8FF"/>
<stop offset="1" stop-color="#AC45F2"/>
</linearGradient>
<linearGradient id="paint2_linear_116_4" x1="45" y1="14" x2="45" y2="32" gradientUnits="userSpaceOnUse">
<stop offset="0.09" stop-color="#33A8FF"/>
<stop offset="1" stop-color="#AC45F2"/>
</linearGradient>
<clipPath id="clip0_116_4">
<rect width="210" height="57" fill="white"/>
</clipPath>
<clipPath id="clip1_116_4">
<rect width="50" height="50" fill="white" transform="translate(5 -2)"/>
</clipPath>
</defs>
</svg>
