<svg width="24" height="24" viewBox="0 0 24 24" fill="none" xmlns="http://www.w3.org/2000/svg">
<path d="M3.625 14.025L2 12.85L7 4.85L10 8.35L14 1.85L17 6.35L20.375 1L22 2.175L17.05 10.025L14.075 5.55L10.275 11.725L7.25 8.2L3.625 14.025ZM15.5 18C16.2 18 16.7917 17.7583 17.275 17.275C17.7583 16.7917 18 16.2 18 15.5C18 14.8 17.7583 14.2083 17.275 13.725C16.7917 13.2417 16.2 13 15.5 13C14.8 13 14.2083 13.2417 13.725 13.725C13.2417 14.2083 13 14.8 13 15.5C13 16.2 13.2417 16.7917 13.725 17.275C14.2083 17.7583 14.8 18 15.5 18ZM20.6 22L17.9 19.3C17.55 19.5333 17.1708 19.7083 16.7625 19.825C16.3542 19.9417 15.9333 20 15.5 20C14.25 20 13.1875 19.5625 12.3125 18.6875C11.4375 17.8125 11 16.75 11 15.5C11 14.25 11.4375 13.1875 12.3125 12.3125C13.1875 11.4375 14.25 11 15.5 11C16.75 11 17.8125 11.4375 18.6875 12.3125C19.5625 13.1875 20 14.25 20 15.5C20 15.9333 19.9417 16.3542 19.825 16.7625C19.7083 17.1708 19.5333 17.55 19.3 17.9L22 20.6L20.6 22Z" fill="#5F6368"/>
</svg>
