<svg width="25" height="25" viewBox="0 0 24 24" xmlns="http://www.w3.org/2000/svg">
  <defs>
    <linearGradient id="gradient" x1="0%" y1="50%" x2="100%" y2="50%" gradientUnits="userSpaceOnUse">
      <stop offset="0%" stop-color="#33A8FF" />
      <stop offset="100%" stop-color="#D699FF" />
    </linearGradient>
    <clipPath id="clip0_28_579">
      <rect width="24" height="24" fill="white" />
    </clipPath>
  </defs>
  <g clip-path="url(#clip0_28_579)">
    <path fill-rule="evenodd" clip-rule="evenodd" d="M19.2351 4.37931C17.9456 3.08984 17.6144 0 17.6144 0C17.6144 0 17.2831 3.08984 15.9937 4.37931C14.7042 5.66878 11.6144 6 11.6144 6C11.6144 6 14.7042 6.33122 15.9937 7.62069C17.2831 8.91016 17.6144 12 17.6144 12C17.6144 12 17.9456 8.91016 19.2351 7.62069C20.5245 6.33122 23.6144 6 23.6144 6C23.6144 6 20.5245 5.66878 19.2351 4.37931ZM11.431 11.6956C9.49683 9.76142 9 5.12665 9 5.12665C9 5.12665 8.50317 9.76142 6.56897 11.6956C4.63476 13.6298 0 14.1267 0 14.1267C0 14.1267 4.63476 14.6235 6.56897 16.5577C8.50317 18.4919 9 23.1267 9 23.1267C9 23.1267 9.49683 18.4919 11.431 16.5577C13.3652 14.6235 18 14.1267 18 14.1267C18 14.1267 13.3652 13.6298 11.431 11.6956ZM20 16C20 16 20.2208 18.0599 21.0805 18.9195C21.9401 19.7792 24 20 24 20C24 20 21.9401 20.2208 21.0805 21.0805C20.2208 21.9401 20 24 20 24C20 24 19.7792 21.9401 18.9195 21.0805C18.0599 20.2208 16 20 16 20C16 20 18.0599 19.7792 18.9195 18.9195C19.7792 18.0599 20 16 20 16ZM4.67235 5.63767C4.02761 4.99294 3.862 3.44802 3.862 3.44802C3.862 3.44802 3.69639 4.99294 3.05166 5.63767C2.40692 6.28241 0.862004 6.44802 0.862004 6.44802C0.862004 6.44802 2.40692 6.61362 3.05166 7.25836C3.69639 7.90309 3.862 9.44802 3.862 9.44802C3.862 9.44802 4.02761 7.90309 4.67235 7.25836C5.31708 6.61362 6.862 6.44802 6.862 6.44802C6.862 6.44802 5.31708 6.28241 4.67235 5.63767Z" fill="url(#gradient)" />
  </g>
</svg>
