<svg width="210" height="57" viewBox="0 0 210 57" fill="none" xmlns="http://www.w3.org/2000/svg">
<g clip-path="url(#clip0_1_5403)">
<path fill-rule="evenodd" clip-rule="evenodd" d="M44.8818 10.7184C41.873 7.70963 41.1002 0.5 41.1002 0.5C41.1002 0.5 40.3273 7.70963 37.3186 10.7184C34.3098 13.7272 27.1002 14.5 27.1002 14.5C27.1002 14.5 34.3098 15.2728 37.3186 18.2816C40.3273 21.2904 41.1002 28.5 41.1002 28.5C41.1002 28.5 41.873 21.2904 44.8818 18.2816C47.8906 15.2728 55.1002 14.5 55.1002 14.5C55.1002 14.5 47.8906 13.7272 44.8818 10.7184ZM26.6724 27.7898C22.1593 23.2766 21 12.4622 21 12.4622C21 12.4622 19.8407 23.2766 15.3276 27.7898C10.8144 32.3029 0 33.4622 0 33.4622C0 33.4622 10.8144 34.6215 15.3276 39.1346C19.8407 43.6477 21 54.4622 21 54.4622C21 54.4622 22.1593 43.6477 26.6724 39.1346C31.1856 34.6215 42 33.4622 42 33.4622C42 33.4622 31.1856 32.3029 26.6724 27.7898ZM46.6667 37.8333C46.6667 37.8333 47.1819 42.6398 49.1877 44.6456C51.1936 46.6514 56 47.1667 56 47.1667C56 47.1667 51.1936 47.6819 49.1877 49.6877C47.1819 51.6936 46.6667 56.5 46.6667 56.5C46.6667 56.5 46.1514 51.6936 44.1456 49.6877C42.1398 47.6819 37.3333 47.1667 37.3333 47.1667C37.3333 47.1667 42.1398 46.6514 44.1456 44.6456C46.1514 42.6398 46.6667 37.8333 46.6667 37.8333ZM10.9021 13.6546C9.39776 12.1502 9.01134 8.54537 9.01134 8.54537C9.01134 8.54537 8.62492 12.1502 7.12054 13.6546C5.61616 15.1589 2.01134 15.5454 2.01134 15.5454C2.01134 15.5454 5.61616 15.9318 7.12054 17.4362C8.62492 18.9406 9.01134 22.5454 9.01134 22.5454C9.01134 22.5454 9.39776 18.9406 10.9021 17.4362C12.4065 15.9318 16.0113 15.5454 16.0113 15.5454C16.0113 15.5454 12.4065 15.1589 10.9021 13.6546Z" fill="url(#paint0_linear_1_5403)"/>
</g>
<path d="M80.5489 35.385H71.0914L69.4664 40H65.5989L73.6914 17.38H77.9814L86.0739 40H82.1739L80.5489 35.385ZM79.5089 32.3625L75.8364 21.865L72.1314 32.3625H79.5089ZM96.0925 40.2925C94.6842 40.2925 93.4167 40.0433 92.29 39.545C91.185 39.025 90.3075 38.3317 89.6575 37.465C89.0075 36.5767 88.6609 35.5908 88.6175 34.5075H92.4525C92.5175 35.2658 92.875 35.905 93.525 36.425C94.1967 36.9233 95.0309 37.1725 96.0275 37.1725C97.0675 37.1725 97.8692 36.9775 98.4325 36.5875C99.0175 36.1758 99.31 35.6558 99.31 35.0275C99.31 34.3558 98.985 33.8575 98.335 33.5325C97.7067 33.2075 96.6992 32.85 95.3125 32.46C93.9692 32.0917 92.875 31.7342 92.03 31.3875C91.185 31.0408 90.4484 30.51 89.82 29.795C89.2134 29.08 88.91 28.1375 88.91 26.9675C88.91 26.0142 89.1917 25.1475 89.755 24.3675C90.3184 23.5658 91.12 22.9375 92.16 22.4825C93.2217 22.0275 94.435 21.8 95.8 21.8C97.8367 21.8 99.4725 22.32 100.708 23.36C101.964 24.3783 102.636 25.7758 102.723 27.5525H99.0175C98.9525 26.7508 98.6275 26.1117 98.0425 25.635C97.4575 25.1583 96.6667 24.92 95.67 24.92C94.695 24.92 93.9475 25.1042 93.4275 25.4725C92.9075 25.8408 92.6475 26.3283 92.6475 26.935C92.6475 27.4117 92.8209 27.8125 93.1675 28.1375C93.5142 28.4625 93.9367 28.7225 94.435 28.9175C94.9334 29.0908 95.67 29.3183 96.645 29.6C97.945 29.9467 99.0067 30.3042 99.83 30.6725C100.675 31.0192 101.401 31.5392 102.008 32.2325C102.614 32.9258 102.928 33.8467 102.95 34.995C102.95 36.0133 102.668 36.9233 102.105 37.725C101.542 38.5267 100.74 39.155 99.7 39.61C98.6817 40.065 97.4792 40.2925 96.0925 40.2925ZM114.038 31.0625L122.293 40H117.288L110.658 32.2975V40H106.953V15.95H110.658V29.925L117.158 22.0925H122.293L114.038 31.0625ZM145.481 28.3975C146.695 28.6142 147.724 29.2533 148.569 30.315C149.414 31.3767 149.836 32.5792 149.836 33.9225C149.836 35.0708 149.533 36.1108 148.926 37.0425C148.341 37.9525 147.486 38.6783 146.359 39.22C145.232 39.74 143.921 40 142.426 40H133.391V17.4125H142.004C143.542 17.4125 144.864 17.6725 145.969 18.1925C147.074 18.7125 147.908 19.4167 148.471 20.305C149.035 21.1717 149.316 22.1467 149.316 23.23C149.316 24.53 148.97 25.6133 148.276 26.48C147.583 27.3467 146.651 27.9858 145.481 28.3975ZM137.096 26.9025H141.679C142.892 26.9025 143.835 26.6317 144.506 26.09C145.2 25.5267 145.546 24.725 145.546 23.685C145.546 22.6667 145.2 21.8758 144.506 21.3125C143.835 20.7275 142.892 20.435 141.679 20.435H137.096V26.9025ZM142.101 36.9775C143.358 36.9775 144.344 36.6742 145.059 36.0675C145.774 35.4608 146.131 34.6158 146.131 33.5325C146.131 32.4275 145.752 31.55 144.994 30.9C144.236 30.25 143.228 29.925 141.971 29.925H137.096V36.9775H142.101ZM155.748 19.72C155.076 19.72 154.513 19.4925 154.058 19.0375C153.603 18.5825 153.375 18.0192 153.375 17.3475C153.375 16.6758 153.603 16.1125 154.058 15.6575C154.513 15.2025 155.076 14.975 155.748 14.975C156.398 14.975 156.95 15.2025 157.405 15.6575C157.86 16.1125 158.088 16.6758 158.088 17.3475C158.088 18.0192 157.86 18.5825 157.405 19.0375C156.95 19.4925 156.398 19.72 155.748 19.72ZM157.568 22.0925V40H153.863V22.0925H157.568ZM165.714 36.9775H173.839V40H161.424V36.9775L169.582 25.115H161.424V22.0925H173.839V25.115L165.714 36.9775ZM181.012 36.9775H189.137V40H176.722V36.9775L184.88 25.115H176.722V22.0925H189.137V25.115L181.012 36.9775ZM209.148 22.0925L198.163 48.4175H194.328L197.968 39.7075L190.915 22.0925H195.043L200.08 35.7425L205.313 22.0925H209.148Z" fill="url(#paint1_linear_1_5403)"/>
<defs>
<linearGradient id="paint0_linear_1_5403" x1="0" y1="28.5" x2="56" y2="28.5" gradientUnits="userSpaceOnUse">
<stop stop-color="#0077CC"/>
<stop offset="1" stop-color="#802BC2"/>
</linearGradient>
<linearGradient id="paint1_linear_1_5403" x1="64" y1="28.5" x2="210" y2="28.5" gradientUnits="userSpaceOnUse">
<stop stop-color="#0077CC"/>
<stop offset="1" stop-color="#802BC2"/>
</linearGradient>
<clipPath id="clip0_1_5403">
<rect width="56" height="56" fill="white" transform="translate(0 0.5)"/>
</clipPath>
</defs>
</svg>
