<svg width="54" height="54" viewBox="0 0 24 24" fill="none" xmlns="http://www.w3.org/2000/svg">
<path d="M6 21C5.45 21 4.97917 20.8042 4.5875 20.4125C4.19583 20.0208 4 19.55 4 19V10.45C3.38333 10.0833 2.89583 9.59583 2.5375 8.9875C2.17917 8.37917 2 7.71667 2 7C2 5.9 2.39167 4.95833 3.175 4.175C3.95833 3.39167 4.9 3 6 3H18C19.1 3 20.0417 3.39167 20.825 4.175C21.6083 4.95833 22 5.9 22 7C22 7.71667 21.8208 8.37917 21.4625 8.9875C21.1042 9.59583 20.6167 10.0833 20 10.45V19C20 19.55 19.8042 20.0208 19.4125 20.4125C19.0208 20.8042 18.55 21 18 21H6ZM6 19H18V9.3L19 8.7C19.3 8.51667 19.5417 8.275 19.725 7.975C19.9083 7.675 20 7.35 20 7C20 6.45 19.8042 5.97917 19.4125 5.5875C19.0208 5.19583 18.55 5 18 5H6C5.45 5 4.97917 5.19583 4.5875 5.5875C4.19583 5.97917 4 6.45 4 7C4 7.36667 4.0875 7.70417 4.2625 8.0125C4.4375 8.32083 4.68333 8.56667 5 8.75L6 9.3V19ZM11.3 16.7C11.5 16.8833 11.7375 16.975 12.0125 16.975C12.2875 16.975 12.5167 16.8833 12.7 16.7L15.7 13.7C15.9 13.5 16 13.2625 16 12.9875C16 12.7125 15.9 12.4833 15.7 12.3L12.7 9.3C12.5167 9.1 12.2875 9 12.0125 9C11.7375 9 11.5 9.1 11.3 9.3L8.3 12.3C8.11667 12.4833 8.025 12.7125 8.025 12.9875C8.025 13.2625 8.11667 13.5 8.3 13.7L11.3 16.7ZM12 14.6L10.4 13L12 11.4L13.6 13L12 14.6Z" fill="#dfe1e4"/>
</svg>
