<svg width="30" height="30" viewBox="0 0 37 37" fill="none" xmlns="http://www.w3.org/2000/svg">
<path d="M9.5 33.5C8.25 33.5 7.1875 33.0625 6.3125 32.1875C5.4375 31.3125 5 30.25 5 29V24.5H9.5V3.5L11.75 5.75L14 3.5L16.25 5.75L18.5 3.5L20.75 5.75L23 3.5L25.25 5.75L27.5 3.5L29.75 5.75L32 3.5V29C32 30.25 31.5625 31.3125 30.6875 32.1875C29.8125 33.0625 28.75 33.5 27.5 33.5H9.5ZM27.5 30.5C27.925 30.5 28.2812 30.3563 28.5688 30.0688C28.8563 29.7813 29 29.425 29 29V8H12.5V24.5H26V29C26 29.425 26.1438 29.7813 26.4313 30.0688C26.7188 30.3563 27.075 30.5 27.5 30.5ZM14 14V11H23V14H14ZM14 18.5V15.5H23V18.5H14ZM26 14C25.575 14 25.2188 13.8563 24.9313 13.5688C24.6438 13.2812 24.5 12.925 24.5 12.5C24.5 12.075 24.6438 11.7188 24.9313 11.4313C25.2188 11.1438 25.575 11 26 11C26.425 11 26.7812 11.1438 27.0688 11.4313C27.3563 11.7188 27.5 12.075 27.5 12.5C27.5 12.925 27.3563 13.2812 27.0688 13.5688C26.7812 13.8563 26.425 14 26 14ZM26 18.5C25.575 18.5 25.2188 18.3563 24.9313 18.0688C24.6438 17.7813 24.5 17.425 24.5 17C24.5 16.575 24.6438 16.2188 24.9313 15.9313C25.2188 15.6438 25.575 15.5 26 15.5C26.425 15.5 26.7812 15.6438 27.0688 15.9313C27.3563 16.2188 27.5 16.575 27.5 17C27.5 17.425 27.3563 17.7813 27.0688 18.0688C26.7812 18.3563 26.425 18.5 26 18.5ZM9.5 30.5H23V27.5H8V29C8 29.425 8.14375 29.7813 8.43125 30.0688C8.71875 30.3563 9.075 30.5 9.5 30.5Z" fill="url(#paint0_linear_1_5549)"/>
<defs>
<linearGradient id="paint0_linear_1_5549" x1="5" y1="18.5" x2="32" y2="18.5" gradientUnits="userSpaceOnUse">
<stop stop-color="#0077CC"/>
<stop offset="1" stop-color="#802BC2"/>
</linearGradient>
</defs>
</svg>
