<svg width="210" height="57" viewBox="0 0 210 57" fill="none" xmlns="http://www.w3.org/2000/svg">
<g clip-path="url(#clip0_59_72)">
<path d="M80.5489 35.385H71.0914L69.4664 40H65.5989L73.6914 17.38H77.9814L86.0739 40H82.1739L80.5489 35.385ZM79.5089 32.3625L75.8364 21.865L72.1314 32.3625H79.5089ZM96.0925 40.2925C94.6842 40.2925 93.4167 40.0433 92.29 39.545C91.185 39.025 90.3075 38.3317 89.6575 37.465C89.0075 36.5767 88.6609 35.5908 88.6175 34.5075H92.4525C92.5175 35.2658 92.875 35.905 93.525 36.425C94.1967 36.9233 95.0309 37.1725 96.0275 37.1725C97.0675 37.1725 97.8692 36.9775 98.4325 36.5875C99.0175 36.1758 99.31 35.6558 99.31 35.0275C99.31 34.3558 98.985 33.8575 98.335 33.5325C97.7067 33.2075 96.6992 32.85 95.3125 32.46C93.9692 32.0917 92.875 31.7342 92.03 31.3875C91.185 31.0408 90.4484 30.51 89.82 29.795C89.2134 29.08 88.91 28.1375 88.91 26.9675C88.91 26.0142 89.1917 25.1475 89.755 24.3675C90.3184 23.5658 91.12 22.9375 92.16 22.4825C93.2217 22.0275 94.435 21.8 95.8 21.8C97.8367 21.8 99.4725 22.32 100.708 23.36C101.964 24.3783 102.636 25.7758 102.723 27.5525H99.0175C98.9525 26.7508 98.6275 26.1117 98.0425 25.635C97.4575 25.1583 96.6667 24.92 95.67 24.92C94.695 24.92 93.9475 25.1042 93.4275 25.4725C92.9075 25.8408 92.6475 26.3283 92.6475 26.935C92.6475 27.4117 92.8209 27.8125 93.1675 28.1375C93.5142 28.4625 93.9367 28.7225 94.435 28.9175C94.9334 29.0908 95.67 29.3183 96.645 29.6C97.945 29.9467 99.0067 30.3042 99.83 30.6725C100.675 31.0192 101.401 31.5392 102.008 32.2325C102.614 32.9258 102.928 33.8467 102.95 34.995C102.95 36.0133 102.668 36.9233 102.105 37.725C101.542 38.5267 100.74 39.155 99.7 39.61C98.6817 40.065 97.4792 40.2925 96.0925 40.2925ZM114.038 31.0625L122.293 40H117.288L110.658 32.2975V40H106.953V15.95H110.658V29.925L117.158 22.0925H122.293L114.038 31.0625ZM145.481 28.3975C146.695 28.6142 147.724 29.2533 148.569 30.315C149.414 31.3767 149.836 32.5792 149.836 33.9225C149.836 35.0708 149.533 36.1108 148.926 37.0425C148.341 37.9525 147.486 38.6783 146.359 39.22C145.232 39.74 143.921 40 142.426 40H133.391V17.4125H142.004C143.542 17.4125 144.864 17.6725 145.969 18.1925C147.074 18.7125 147.908 19.4167 148.471 20.305C149.035 21.1717 149.316 22.1467 149.316 23.23C149.316 24.53 148.97 25.6133 148.276 26.48C147.583 27.3467 146.651 27.9858 145.481 28.3975ZM137.096 26.9025H141.679C142.892 26.9025 143.835 26.6317 144.506 26.09C145.2 25.5267 145.546 24.725 145.546 23.685C145.546 22.6667 145.2 21.8758 144.506 21.3125C143.835 20.7275 142.892 20.435 141.679 20.435H137.096V26.9025ZM142.101 36.9775C143.358 36.9775 144.344 36.6742 145.059 36.0675C145.774 35.4608 146.131 34.6158 146.131 33.5325C146.131 32.4275 145.752 31.55 144.994 30.9C144.236 30.25 143.228 29.925 141.971 29.925H137.096V36.9775H142.101ZM155.748 19.72C155.076 19.72 154.513 19.4925 154.058 19.0375C153.603 18.5825 153.375 18.0192 153.375 17.3475C153.375 16.6758 153.603 16.1125 154.058 15.6575C154.513 15.2025 155.076 14.975 155.748 14.975C156.398 14.975 156.95 15.2025 157.405 15.6575C157.86 16.1125 158.088 16.6758 158.088 17.3475C158.088 18.0192 157.86 18.5825 157.405 19.0375C156.95 19.4925 156.398 19.72 155.748 19.72ZM157.568 22.0925V40H153.863V22.0925H157.568ZM165.714 36.9775H173.839V40H161.424V36.9775L169.582 25.115H161.424V22.0925H173.839V25.115L165.714 36.9775ZM181.012 36.9775H189.137V40H176.722V36.9775L184.88 25.115H176.722V22.0925H189.137V25.115L181.012 36.9775ZM209.148 22.0925L198.163 48.4175H194.328L197.968 39.7075L190.915 22.0925H195.043L200.08 35.7425L205.313 22.0925H209.148Z" fill="url(#paint0_linear_59_72)"/>
<g clip-path="url(#clip1_59_72)">
<rect width="46" height="42.9836" transform="translate(20 -1.86884)" fill="white" fill-opacity="0.77"/>
<g clip-path="url(#clip2_59_72)">
<path d="M34.3462 13.6354C26.2295 13.6354 19.6262 19.8057 19.6262 27.3901C19.6262 34.9744 26.2295 41.1449 34.3462 41.1449C42.4629 41.1449 49.0662 34.9744 49.0662 27.3901C49.0662 19.8057 42.4628 13.6354 34.3462 13.6354ZM34.3462 39.2972C27.3197 39.2972 21.6035 33.9558 21.6035 27.3901C21.6035 20.8245 27.3197 15.483 34.3462 15.483C41.3726 15.483 47.0889 20.8245 47.0889 27.3901C47.0887 33.9558 41.3725 39.2972 34.3462 39.2972Z" fill="url(#paint1_linear_59_72)"/>
<path d="M22.5346 27.3901C21.9445 27.3901 21.4662 27.9115 21.4662 28.5549C21.4662 29.1982 21.9445 29.7196 22.5346 29.7196C26.8547 29.7196 30.3694 33.5512 30.3694 38.2608C30.3694 38.9042 30.8477 39.4255 31.4378 39.4255C32.0278 39.4255 32.5062 38.9042 32.5062 38.2608C32.5062 32.2667 28.0329 27.3901 22.5346 27.3901Z" fill="url(#paint2_linear_59_72)"/>
<path d="M57.4119 6.42633C52.8825 6.42633 49.1976 9.86963 49.1976 14.102C49.1976 18.3343 52.8825 21.7775 57.4119 21.7775C61.9412 21.7775 65.6262 18.3342 65.6262 14.102C65.6262 9.86963 61.9414 6.42633 57.4119 6.42633ZM57.4119 20.0024C53.9301 20.0024 51.0974 17.3556 51.0974 14.1021C51.0974 10.8486 53.9301 8.20171 57.4119 8.20171C60.8937 8.20171 63.7263 10.8486 63.7263 14.1021C63.7263 17.3556 60.8938 20.0024 57.4119 20.0024Z" fill="url(#paint3_linear_59_72)"/>
<path d="M62.9483 12.0696C61.2905 12.0696 59.9418 10.8093 59.9418 9.26025C59.9418 8.82778 59.5667 8.47736 59.104 8.47736C58.6413 8.47736 58.2662 8.82778 58.2662 9.26025C58.2662 11.6727 60.3666 13.6354 62.9483 13.6354C63.411 13.6354 63.7862 13.285 63.7862 12.8525C63.7862 12.42 63.411 12.0696 62.9483 12.0696Z" fill="url(#paint4_linear_59_72)"/>
<path d="M33.3645 9.19355C36.07 9.19355 38.271 7.13144 38.271 4.59677C38.271 2.0621 36.07 0 33.3645 0C30.659 0 28.4579 2.0621 28.4579 4.59677C28.4579 7.13144 30.659 9.19355 33.3645 9.19355ZM33.3645 1.54906C35.1583 1.54906 36.6176 2.91625 36.6176 4.59677C36.6176 6.27729 35.1583 7.64449 33.3645 7.64449C31.5707 7.64449 30.1114 6.27729 30.1114 4.59677C30.1114 2.91625 31.5707 1.54906 33.3645 1.54906Z" fill="url(#paint5_linear_59_72)"/>
<path d="M30.8591 31.7842V21.6024H34.4188C35.1281 21.6024 35.7131 21.7251 36.1738 21.9703C36.6345 22.2123 36.9775 22.5387 37.2029 22.9497C37.4283 23.3574 37.5409 23.8098 37.5409 24.307C37.5409 24.7445 37.4631 25.1057 37.3073 25.3908C37.1548 25.6758 36.9526 25.9012 36.7007 26.0669C36.4522 26.2326 36.182 26.3553 35.8904 26.4348V26.5342C36.2019 26.5541 36.5151 26.6635 36.83 26.8624C37.1449 27.0612 37.4084 27.3463 37.6205 27.7175C37.8326 28.0887 37.9387 28.5428 37.9387 29.0797C37.9387 29.5901 37.8227 30.0492 37.5907 30.4568C37.3587 30.8645 36.9924 31.1876 36.4919 31.4263C35.9915 31.6649 35.3402 31.7842 34.5381 31.7842H30.8591ZM32.0921 30.6905H34.5381C35.3435 30.6905 35.9152 30.5347 36.2533 30.2232C36.5947 29.9083 36.7654 29.5271 36.7654 29.0797C36.7654 28.735 36.6775 28.4168 36.5019 28.1251C36.3262 27.8302 36.076 27.5948 35.7512 27.4192C35.4264 27.2402 35.0419 27.1507 34.5978 27.1507H32.0921V30.6905ZM32.0921 26.0769H34.379C34.7502 26.0769 35.085 26.0039 35.3833 25.8581C35.6849 25.7123 35.9235 25.5068 36.0992 25.2416C36.2782 24.9765 36.3677 24.6649 36.3677 24.307C36.3677 23.8595 36.2119 23.48 35.9003 23.1685C35.5888 22.8536 35.0949 22.6962 34.4188 22.6962H32.0921V26.0769ZM39.5868 31.7842V30.8894L43.922 25.3212V25.2416H39.726V24.1479H45.4333V25.0825L41.2174 30.6109V30.6905H45.5726V31.7842H39.5868Z" fill="url(#paint6_linear_59_72)"/>
</g>
<path d="M30.7767 4.5968C30.58 4.5968 30.4206 4.74575 30.4206 4.92958C30.4206 5.1134 30.58 5.26235 30.7767 5.26235C32.2167 5.26235 33.3883 6.3571 33.3883 7.70271C33.3883 7.88654 33.5478 8.03549 33.7444 8.03549C33.9411 8.03549 34.1006 7.88654 34.1006 7.70271C34.1006 5.99011 32.6095 4.5968 30.7767 4.5968Z" fill="url(#paint7_linear_59_72)"/>
</g>
</g>
<defs>
<linearGradient id="paint0_linear_59_72" x1="64" y1="28.5" x2="210" y2="28.5" gradientUnits="userSpaceOnUse">
<stop stop-color="#AC45F2"/>
<stop offset="1" stop-color="#33A8FF"/>
</linearGradient>
<linearGradient id="paint1_linear_59_72" x1="34.3462" y1="13.6354" x2="34.3462" y2="41.1449" gradientUnits="userSpaceOnUse">
<stop offset="0.09" stop-color="#33A8FF"/>
<stop offset="1" stop-color="#AC45F2"/>
</linearGradient>
<linearGradient id="paint2_linear_59_72" x1="26.9862" y1="27.3901" x2="26.9862" y2="39.4255" gradientUnits="userSpaceOnUse">
<stop offset="0.09" stop-color="#33A8FF"/>
<stop offset="1" stop-color="#AC45F2"/>
</linearGradient>
<linearGradient id="paint3_linear_59_72" x1="57.4119" y1="6.42633" x2="57.4119" y2="21.7775" gradientUnits="userSpaceOnUse">
<stop offset="0.09" stop-color="#33A8FF"/>
<stop offset="1" stop-color="#AC45F2"/>
</linearGradient>
<linearGradient id="paint4_linear_59_72" x1="61.0262" y1="8.47736" x2="61.0262" y2="13.6354" gradientUnits="userSpaceOnUse">
<stop offset="0.09" stop-color="#33A8FF"/>
<stop offset="1" stop-color="#AC45F2"/>
</linearGradient>
<linearGradient id="paint5_linear_59_72" x1="33.3645" y1="0" x2="33.3645" y2="9.19355" gradientUnits="userSpaceOnUse">
<stop offset="0.09" stop-color="#33A8FF"/>
<stop offset="1" stop-color="#AC45F2"/>
</linearGradient>
<linearGradient id="paint6_linear_59_72" x1="48.9462" y1="17.7842" x2="48.9462" y2="33.4133" gradientUnits="userSpaceOnUse">
<stop offset="0.09" stop-color="#33A8FF"/>
<stop offset="1" stop-color="#AC45F2"/>
</linearGradient>
<linearGradient id="paint7_linear_59_72" x1="32.2606" y1="4.5968" x2="32.2606" y2="8.03549" gradientUnits="userSpaceOnUse">
<stop offset="0.09" stop-color="#33A8FF"/>
<stop offset="1" stop-color="#AC45F2"/>
</linearGradient>
<clipPath id="clip0_59_72">
<rect width="210" height="57" fill="white"/>
</clipPath>
<clipPath id="clip1_59_72">
<rect width="46" height="42.9836" fill="white" transform="translate(20 -1.86884)"/>
</clipPath>
<clipPath id="clip2_59_72">
<rect width="46" height="42.9836" fill="white" transform="translate(19.6262 -1.83868)"/>
</clipPath>
</defs>
</svg>
