<svg width="30" height="30" viewBox="0 0 37 37" fill="none" xmlns="http://www.w3.org/2000/svg">
<path d="M9.5 29C9.075 29 8.71875 28.8563 8.43125 28.5688C8.14375 28.2813 8 27.925 8 27.5C8 27.075 8.14375 26.7188 8.43125 26.4313C8.71875 26.1438 9.075 26 9.5 26C9.925 26 10.2813 26.1438 10.5688 26.4313C10.8563 26.7188 11 27.075 11 27.5C11 27.925 10.8563 28.2813 10.5688 28.5688C10.2813 28.8563 9.925 29 9.5 29ZM27.5 29C27.075 29 26.7188 28.8563 26.4313 28.5688C26.1438 28.2813 26 27.925 26 27.5C26 27.075 26.1438 26.7188 26.4313 26.4313C26.7188 26.1438 27.075 26 27.5 26C27.925 26 28.2813 26.1438 28.5688 26.4313C28.8563 26.7188 29 27.075 29 27.5C29 27.925 28.8563 28.2813 28.5688 28.5688C28.2813 28.8563 27.925 29 27.5 29ZM14 35C13.575 35 13.2188 34.8563 12.9313 34.5688C12.6438 34.2813 12.5 33.925 12.5 33.5C12.5 33.075 12.6438 32.7188 12.9313 32.4313C13.2188 32.1438 13.575 32 14 32C14.425 32 14.7812 32.1438 15.0688 32.4313C15.3563 32.7188 15.5 33.075 15.5 33.5C15.5 33.925 15.3563 34.2813 15.0688 34.5688C14.7812 34.8563 14.425 35 14 35ZM18.5 29C18.075 29 17.7188 28.8563 17.4313 28.5688C17.1438 28.2813 17 27.925 17 27.5C17 27.075 17.1438 26.7188 17.4313 26.4313C17.7188 26.1438 18.075 26 18.5 26C18.925 26 19.2813 26.1438 19.5688 26.4313C19.8563 26.7188 20 27.075 20 27.5C20 27.925 19.8563 28.2813 19.5688 28.5688C19.2813 28.8563 18.925 29 18.5 29ZM23 35C22.575 35 22.2188 34.8563 21.9313 34.5688C21.6438 34.2813 21.5 33.925 21.5 33.5C21.5 33.075 21.6438 32.7188 21.9313 32.4313C22.2188 32.1438 22.575 32 23 32C23.425 32 23.7812 32.1438 24.0688 32.4313C24.3563 32.7188 24.5 33.075 24.5 33.5C24.5 33.925 24.3563 34.2813 24.0688 34.5688C23.7812 34.8563 23.425 35 23 35ZM11.75 24.5C9.475 24.5 7.53125 23.6938 5.91875 22.0813C4.30625 20.4688 3.5 18.525 3.5 16.25C3.5 14.175 4.1875 12.3625 5.5625 10.8125C6.9375 9.2625 8.6375 8.35 10.6625 8.075C11.4625 6.65 12.5563 5.53125 13.9438 4.71875C15.3313 3.90625 16.85 3.5 18.5 3.5C20.75 3.5 22.7063 4.21875 24.3688 5.65625C26.0312 7.09375 27.0375 8.8875 27.3875 11.0375C29.1125 11.1875 30.5625 11.9 31.7375 13.175C32.9125 14.45 33.5 15.975 33.5 17.75C33.5 19.625 32.8438 21.2188 31.5313 22.5312C30.2188 23.8438 28.625 24.5 26.75 24.5H11.75ZM11.75 21.5H26.75C27.8 21.5 28.6875 21.1375 29.4125 20.4125C30.1375 19.6875 30.5 18.8 30.5 17.75C30.5 16.7 30.1375 15.8125 29.4125 15.0875C28.6875 14.3625 27.8 14 26.75 14H24.5V12.5C24.5 10.85 23.9125 9.4375 22.7375 8.2625C21.5625 7.0875 20.15 6.5 18.5 6.5C17.3 6.5 16.2063 6.825 15.2188 7.475C14.2313 8.125 13.4875 9 12.9875 10.1L12.6125 11H11.675C10.25 11.05 9.03125 11.5813 8.01875 12.5938C7.00625 13.6063 6.5 14.825 6.5 16.25C6.5 17.7 7.0125 18.9375 8.0375 19.9625C9.0625 20.9875 10.3 21.5 11.75 21.5Z" fill="url(#paint0_linear_1_5554)"/>
<defs>
<linearGradient id="paint0_linear_1_5554" x1="3.5" y1="19.25" x2="33.5" y2="19.25" gradientUnits="userSpaceOnUse">
<stop stop-color="#0077CC"/>
<stop offset="1" stop-color="#802BC2"/>
</linearGradient>
</defs>
</svg>
