<svg width="210" height="57" viewBox="0 0 210 57" fill="none" xmlns="http://www.w3.org/2000/svg">
<path d="M80.5489 35.385H71.0914L69.4664 40H65.5989L73.6914 17.38H77.9814L86.0739 40H82.1739L80.5489 35.385ZM79.5089 32.3625L75.8364 21.865L72.1314 32.3625H79.5089ZM96.0925 40.2925C94.6842 40.2925 93.4167 40.0433 92.29 39.545C91.185 39.025 90.3075 38.3317 89.6575 37.465C89.0075 36.5767 88.6609 35.5908 88.6175 34.5075H92.4525C92.5175 35.2658 92.875 35.905 93.525 36.425C94.1967 36.9233 95.0309 37.1725 96.0275 37.1725C97.0675 37.1725 97.8692 36.9775 98.4325 36.5875C99.0175 36.1758 99.31 35.6558 99.31 35.0275C99.31 34.3558 98.985 33.8575 98.335 33.5325C97.7067 33.2075 96.6992 32.85 95.3125 32.46C93.9692 32.0917 92.875 31.7342 92.03 31.3875C91.185 31.0408 90.4484 30.51 89.82 29.795C89.2134 29.08 88.91 28.1375 88.91 26.9675C88.91 26.0142 89.1917 25.1475 89.755 24.3675C90.3184 23.5658 91.12 22.9375 92.16 22.4825C93.2217 22.0275 94.435 21.8 95.8 21.8C97.8367 21.8 99.4725 22.32 100.708 23.36C101.964 24.3783 102.636 25.7758 102.723 27.5525H99.0175C98.9525 26.7508 98.6275 26.1117 98.0425 25.635C97.4575 25.1583 96.6667 24.92 95.67 24.92C94.695 24.92 93.9475 25.1042 93.4275 25.4725C92.9075 25.8408 92.6475 26.3283 92.6475 26.935C92.6475 27.4117 92.8209 27.8125 93.1675 28.1375C93.5142 28.4625 93.9367 28.7225 94.435 28.9175C94.9334 29.0908 95.67 29.3183 96.645 29.6C97.945 29.9467 99.0067 30.3042 99.83 30.6725C100.675 31.0192 101.401 31.5392 102.008 32.2325C102.614 32.9258 102.928 33.8467 102.95 34.995C102.95 36.0133 102.668 36.9233 102.105 37.725C101.542 38.5267 100.74 39.155 99.7 39.61C98.6817 40.065 97.4792 40.2925 96.0925 40.2925ZM114.038 31.0625L122.293 40H117.288L110.658 32.2975V40H106.953V15.95H110.658V29.925L117.158 22.0925H122.293L114.038 31.0625ZM145.481 28.3975C146.695 28.6142 147.724 29.2533 148.569 30.315C149.414 31.3767 149.836 32.5792 149.836 33.9225C149.836 35.0708 149.533 36.1108 148.926 37.0425C148.341 37.9525 147.486 38.6783 146.359 39.22C145.232 39.74 143.921 40 142.426 40H133.391V17.4125H142.004C143.542 17.4125 144.864 17.6725 145.969 18.1925C147.074 18.7125 147.908 19.4167 148.471 20.305C149.035 21.1717 149.316 22.1467 149.316 23.23C149.316 24.53 148.97 25.6133 148.276 26.48C147.583 27.3467 146.651 27.9858 145.481 28.3975ZM137.096 26.9025H141.679C142.892 26.9025 143.835 26.6317 144.506 26.09C145.2 25.5267 145.546 24.725 145.546 23.685C145.546 22.6667 145.2 21.8758 144.506 21.3125C143.835 20.7275 142.892 20.435 141.679 20.435H137.096V26.9025ZM142.101 36.9775C143.358 36.9775 144.344 36.6742 145.059 36.0675C145.774 35.4608 146.131 34.6158 146.131 33.5325C146.131 32.4275 145.752 31.55 144.994 30.9C144.236 30.25 143.228 29.925 141.971 29.925H137.096V36.9775H142.101ZM155.748 19.72C155.076 19.72 154.513 19.4925 154.058 19.0375C153.603 18.5825 153.375 18.0192 153.375 17.3475C153.375 16.6758 153.603 16.1125 154.058 15.6575C154.513 15.2025 155.076 14.975 155.748 14.975C156.398 14.975 156.95 15.2025 157.405 15.6575C157.86 16.1125 158.088 16.6758 158.088 17.3475C158.088 18.0192 157.86 18.5825 157.405 19.0375C156.95 19.4925 156.398 19.72 155.748 19.72ZM157.568 22.0925V40H153.863V22.0925H157.568ZM165.714 36.9775H173.839V40H161.424V36.9775L169.582 25.115H161.424V22.0925H173.839V25.115L165.714 36.9775ZM181.012 36.9775H189.137V40H176.722V36.9775L184.88 25.115H176.722V22.0925H189.137V25.115L181.012 36.9775ZM209.148 22.0925L198.163 48.4175H194.328L197.968 39.7075L190.915 22.0925H195.043L200.08 35.7425L205.313 22.0925H209.148Z" fill="url(#paint0_linear_116_4)"/>
<g clip-path="url(#clip0_116_4)">
<path d="M41.4167 8.95381C38.3523 7.18121 34.7946 6.16669 31 6.16669C19.4941 6.16669 10.1667 15.4941 10.1667 27C10.1667 30.3327 10.9492 33.4825 12.3405 36.2761C12.7103 37.0184 12.8334 37.8669 12.619 38.6679L11.3782 43.3056C10.8395 45.3188 12.6813 47.1604 14.6945 46.6219L19.3321 45.3811C20.1332 45.1667 20.9817 45.2898 21.724 45.6594C24.5174 47.0509 27.6673 47.8334 31 47.8334C42.5058 47.8334 51.8333 38.5059 51.8333 27C51.8333 23.2054 50.8188 19.6477 49.0463 16.5834" stroke="url(#paint1_linear_116_4)" stroke-width="4" stroke-linecap="round"/>
<path d="M27.4091 33V21.3636H31.4773C32.2879 21.3636 32.9564 21.5038 33.483 21.7841C34.0095 22.0606 34.4015 22.4337 34.6591 22.9034C34.9167 23.3693 35.0455 23.8864 35.0455 24.4545C35.0455 24.9545 34.9564 25.3674 34.7784 25.6932C34.6042 26.0189 34.3731 26.2765 34.0852 26.4659C33.8011 26.6553 33.4924 26.7955 33.1591 26.8864V27C33.5152 27.0227 33.8731 27.1477 34.233 27.375C34.5928 27.6023 34.8939 27.928 35.1364 28.3523C35.3788 28.7765 35.5 29.2955 35.5 29.9091C35.5 30.4924 35.3674 31.017 35.1023 31.483C34.8371 31.9489 34.4186 32.3182 33.8466 32.5909C33.2746 32.8636 32.5303 33 31.6136 33H27.4091ZM28.8182 31.75H31.6136C32.5341 31.75 33.1875 31.572 33.5739 31.2159C33.964 30.8561 34.1591 30.4205 34.1591 29.9091C34.1591 29.5152 34.0587 29.1515 33.858 28.8182C33.6572 28.4811 33.3712 28.2121 33 28.0114C32.6288 27.8068 32.1894 27.7045 31.6818 27.7045H28.8182V31.75ZM28.8182 26.4773H31.4318C31.8561 26.4773 32.2386 26.3939 32.5795 26.2273C32.9242 26.0606 33.197 25.8258 33.3977 25.5227C33.6023 25.2197 33.7045 24.8636 33.7045 24.4545C33.7045 23.9432 33.5265 23.5095 33.1705 23.1534C32.8144 22.7936 32.25 22.6136 31.4773 22.6136H28.8182V26.4773ZM37.3835 33V31.9773L42.3381 25.6136V25.5227H37.5426V24.2727H44.0653V25.3409L39.2472 31.6591V31.75H44.2244V33H37.3835Z" fill="url(#paint2_linear_116_4)"/>
</g>
<defs>
<linearGradient id="paint0_linear_116_4" x1="64" y1="28.5" x2="210" y2="28.5" gradientUnits="userSpaceOnUse">
<stop stop-color="#AC45F2"/>
<stop offset="1" stop-color="#33A8FF"/>
</linearGradient>
<linearGradient id="paint1_linear_116_4" x1="31" y1="6.16669" x2="31" y2="47.8334" gradientUnits="userSpaceOnUse">
<stop stop-color="#33A8FF"/>
<stop offset="1" stop-color="#AC45F2"/>
</linearGradient>
<linearGradient id="paint2_linear_116_4" x1="46" y1="18" x2="46" y2="36" gradientUnits="userSpaceOnUse">
<stop offset="0.09" stop-color="#33A8FF"/>
<stop offset="1" stop-color="#AC45F2"/>
</linearGradient>
<clipPath id="clip0_116_4">
<rect width="50" height="50" fill="white" transform="translate(6 2)"/>
</clipPath>
</defs>
</svg>
