<svg width="54" height="54" viewBox="0 0 59 60" fill="none" xmlns="http://www.w3.org/2000/svg">
<g clip-path="url(#clip0_28_573)">
<path d="M0 45V41.0625C0 39.2708 0.901389 37.8125 2.70417 36.6875C4.50694 35.5625 6.88333 35 9.83333 35C10.366 35 10.8781 35.0104 11.3698 35.0312C11.8615 35.0521 12.3326 35.1042 12.7833 35.1875C12.2097 36.0625 11.7795 36.9792 11.4927 37.9375C11.2059 38.8958 11.0625 39.8958 11.0625 40.9375V45H0ZM14.75 45V40.9375C14.75 39.6042 15.1085 38.3854 15.8255 37.2812C16.5425 36.1771 17.5566 35.2083 18.8677 34.375C20.1788 33.5417 21.746 32.9167 23.5693 32.5C25.3925 32.0833 27.3694 31.875 29.5 31.875C31.6715 31.875 33.6689 32.0833 35.4922 32.5C37.3155 32.9167 38.8826 33.5417 40.1938 34.375C41.5049 35.2083 42.5087 36.1771 43.2052 37.2812C43.9017 38.3854 44.25 39.6042 44.25 40.9375V45H14.75ZM47.9375 45V40.9375C47.9375 39.8542 47.8043 38.8333 47.538 37.875C47.2717 36.9167 46.8722 36.0208 46.3396 35.1875C46.7903 35.1042 47.2512 35.0521 47.7224 35.0312C48.1936 35.0104 48.675 35 49.1667 35C52.1167 35 54.4931 35.5521 56.2958 36.6562C58.0986 37.7604 59 39.2292 59 41.0625V45H47.9375ZM19.974 40H39.0875C38.6778 39.1667 37.5408 38.4375 35.6766 37.8125C33.8123 37.1875 31.7535 36.875 29.5 36.875C27.2465 36.875 25.1877 37.1875 23.3234 37.8125C21.4592 38.4375 20.3427 39.1667 19.974 40ZM9.83333 32.5C8.48125 32.5 7.32378 32.0104 6.36094 31.0312C5.39809 30.0521 4.91667 28.875 4.91667 27.5C4.91667 26.0833 5.39809 24.8958 6.36094 23.9375C7.32378 22.9792 8.48125 22.5 9.83333 22.5C11.2264 22.5 12.3941 22.9792 13.3365 23.9375C14.2788 24.8958 14.75 26.0833 14.75 27.5C14.75 28.875 14.2788 30.0521 13.3365 31.0312C12.3941 32.0104 11.2264 32.5 9.83333 32.5ZM49.1667 32.5C47.8146 32.5 46.6571 32.0104 45.6943 31.0312C44.7314 30.0521 44.25 28.875 44.25 27.5C44.25 26.0833 44.7314 24.8958 45.6943 23.9375C46.6571 22.9792 47.8146 22.5 49.1667 22.5C50.5597 22.5 51.7274 22.9792 52.6698 23.9375C53.6122 24.8958 54.0833 26.0833 54.0833 27.5C54.0833 28.875 53.6122 30.0521 52.6698 31.0312C51.7274 32.0104 50.5597 32.5 49.1667 32.5ZM29.5 30C27.4514 30 25.7101 29.2708 24.276 27.8125C22.842 26.3542 22.125 24.5833 22.125 22.5C22.125 20.375 22.842 18.5938 24.276 17.1562C25.7101 15.7188 27.4514 15 29.5 15C31.5896 15 33.3411 15.7188 34.7547 17.1562C36.1682 18.5938 36.875 20.375 36.875 22.5C36.875 24.5833 36.1682 26.3542 34.7547 27.8125C33.3411 29.2708 31.5896 30 29.5 30ZM29.5 25C30.1965 25 30.7804 24.7604 31.2516 24.2812C31.7227 23.8021 31.9583 23.2083 31.9583 22.5C31.9583 21.7917 31.7227 21.1979 31.2516 20.7188C30.7804 20.2396 30.1965 20 29.5 20C28.8035 20 28.2196 20.2396 27.7484 20.7188C27.2773 21.1979 27.0417 21.7917 27.0417 22.5C27.0417 23.2083 27.2773 23.8021 27.7484 24.2812C28.2196 24.7604 28.8035 25 29.5 25Z" fill="#dfe1e4"/>
</g>
<defs>
<clipPath id="clip0_28_573">
<rect width="59" height="60" fill="white"/>
</clipPath>
</defs>
</svg>
