<svg width="54" height="54" viewBox="0 0 60 60" fill="none" xmlns="http://www.w3.org/2000/svg">
<path d="M45 35V27.5H37.5V22.5H45V15H50V22.5H57.5V27.5H50V35H45ZM22.5 30C19.75 30 17.3958 29.0208 15.4375 27.0625C13.4792 25.1042 12.5 22.75 12.5 20C12.5 17.25 13.4792 14.8958 15.4375 12.9375C17.3958 10.9792 19.75 10 22.5 10C25.25 10 27.6042 10.9792 29.5625 12.9375C31.5208 14.8958 32.5 17.25 32.5 20C32.5 22.75 31.5208 25.1042 29.5625 27.0625C27.6042 29.0208 25.25 30 22.5 30ZM2.5 50V43C2.5 41.5833 2.86458 40.2812 3.59375 39.0938C4.32292 37.9062 5.29167 37 6.5 36.375C9.08333 35.0833 11.7083 34.1146 14.375 33.4688C17.0417 32.8229 19.75 32.5 22.5 32.5C25.25 32.5 27.9583 32.8229 30.625 33.4688C33.2917 34.1146 35.9167 35.0833 38.5 36.375C39.7083 37 40.6771 37.9062 41.4062 39.0938C42.1354 40.2812 42.5 41.5833 42.5 43V50H2.5ZM7.5 45H37.5V43C37.5 42.5417 37.3854 42.125 37.1562 41.75C36.9271 41.375 36.625 41.0833 36.25 40.875C34 39.75 31.7292 38.9062 29.4375 38.3438C27.1458 37.7812 24.8333 37.5 22.5 37.5C20.1667 37.5 17.8542 37.7812 15.5625 38.3438C13.2708 38.9062 11 39.75 8.75 40.875C8.375 41.0833 8.07292 41.375 7.84375 41.75C7.61458 42.125 7.5 42.5417 7.5 43V45ZM22.5 25C23.875 25 25.0521 24.5104 26.0312 23.5312C27.0104 22.5521 27.5 21.375 27.5 20C27.5 18.625 27.0104 17.4479 26.0312 16.4688C25.0521 15.4896 23.875 15 22.5 15C21.125 15 19.9479 15.4896 18.9688 16.4688C17.9896 17.4479 17.5 18.625 17.5 20C17.5 21.375 17.9896 22.5521 18.9688 23.5312C19.9479 24.5104 21.125 25 22.5 25Z" fill="#dfe1e4"/>
</svg>
