<svg width="48" height="48" viewBox="0 0 48 48" fill="none" xmlns="http://www.w3.org/2000/svg">
<path d="M4.5 43.5H34.5" stroke="black" stroke-opacity="0.25" stroke-width="2" stroke-miterlimit="10" stroke-linecap="round" stroke-linejoin="round"/>
<path d="M6 16.5V25.8C6 33 12 39 19.5 39C27 39 33 33 33 25.8V16.5H6Z" stroke="black" stroke-opacity="0.25" stroke-width="2" stroke-miterlimit="10" stroke-linecap="round" stroke-linejoin="round"/>
<path d="M37.5 31.5C34.95 31.5 33 29.55 33 27V22.5C33 20.1 34.95 18 37.5 18C39.9 18 42 19.95 42 22.5V27C42 29.55 40.05 31.5 37.5 31.5Z" stroke="black" stroke-opacity="0.25" stroke-width="2" stroke-miterlimit="10" stroke-linecap="round" stroke-linejoin="round"/>
<path d="M19.5004 3C17.7004 5.7 17.7004 9.3 19.5004 12" stroke="black" stroke-opacity="0.25" stroke-width="2" stroke-miterlimit="10" stroke-linecap="round" stroke-linejoin="round"/>
<path d="M13.5004 3C11.7004 5.7 11.7004 9.3 13.5004 12" stroke="black" stroke-opacity="0.25" stroke-width="2" stroke-miterlimit="10" stroke-linecap="round" stroke-linejoin="round"/>
<path d="M25.5004 3C23.7004 5.7 23.7004 9.3 25.5004 12" stroke="black" stroke-opacity="0.25" stroke-width="2" stroke-miterlimit="10" stroke-linecap="round" stroke-linejoin="round"/>
</svg>
