<svg width="48" height="53" viewBox="0 0 48 53" fill="none" xmlns="http://www.w3.org/2000/svg">
<path d="M46.3772 35.1553C44.6927 32.7556 42.0449 31.3794 39.113 31.3794H38.4117C38.8001 30.4274 39.7348 29.7539 40.8249 29.7539C41.3667 29.7539 41.8058 29.3148 41.8058 28.773C41.8058 28.2313 41.3667 27.7921 40.8249 27.7921C39.6512 27.7921 38.5798 28.2373 37.7698 28.9673C37.1782 27.6386 36.047 26.602 34.6557 26.1365L35.2551 17.8484H36.4256C36.7175 17.8484 36.9944 17.7183 37.1808 17.4936C37.3672 17.2688 37.4436 16.9727 37.3895 16.6857L36.1856 10.3034C36.0981 9.84004 35.6934 9.50429 35.2217 9.50429H30.8385L32.0304 2.7079C32.0798 2.42554 32.2551 2.18974 32.511 2.06081C32.7668 1.93198 33.0606 1.93137 33.3169 2.05949L38.6592 4.73052C39.144 4.97282 39.733 4.77638 39.9753 4.29187C40.2176 3.80727 40.0212 3.21813 39.5367 2.97593L34.1942 0.305005C33.3781 -0.103037 32.4429 -0.101613 31.628 0.30897C30.8132 0.719554 30.2555 1.47046 30.0979 2.36921L28.8466 9.50449H9.37417C8.90258 9.50449 8.49769 9.84014 8.41025 10.3036L7.20636 16.6859C7.15226 16.9729 7.22873 17.269 7.41511 17.4938C7.60149 17.7186 7.87836 17.8486 8.17028 17.8486H9.34082L10.2867 30.9491H6.20857C2.78511 30.9491 0 33.7342 0 37.1577V38.5675C0 38.965 0.236711 39.3064 0.576525 39.4606C0.211087 40.0558 0 40.7554 0 41.5035C0 42.2515 0.211087 42.9512 0.576525 43.5463C0.236711 43.7005 0 44.0419 0 44.4394V47.5312C0 50.0272 2.03055 52.0579 4.52659 52.0579H16.3218C16.3268 52.0579 16.3318 52.0575 16.3368 52.0575H34.6535L34.6311 52.0415C34.6687 52.0387 34.7064 52.0382 34.7439 52.0346C35.1955 51.9928 35.6439 51.8942 36.0766 51.7414C36.4507 51.6093 36.8412 51.5423 37.2374 51.5423C37.4244 51.5423 37.6112 51.5573 37.7917 51.5865C37.9999 51.6205 38.2038 51.6726 38.3972 51.741C38.999 51.954 39.6189 52.0601 40.233 52.0601C40.9863 52.0601 41.7311 51.9004 42.4236 51.583C42.9391 51.3459 43.4194 51.0431 43.8514 50.6824C43.8591 50.6764 43.8665 50.6701 43.8742 50.6638C44.3657 50.2507 44.7903 49.7682 45.1362 49.2299C45.3945 48.828 45.6077 48.396 45.7703 47.9461L47.4599 43.2701C48.4565 40.5126 48.0616 37.555 46.3772 35.1553ZM36.2567 31.0795V31.3794H35.9566C34.1647 31.3794 32.7069 29.9216 32.7069 28.1297V27.8298H33.0069C34.7989 27.8298 36.2567 29.2874 36.2567 31.0795ZM10.2535 15.8864C10.2511 15.8864 10.2485 15.8868 10.2461 15.8868H9.35363L10.1874 11.4663H34.4084L35.2422 15.8868H34.3499C34.3475 15.8868 34.345 15.8864 34.3425 15.8864H10.2535ZM1.96181 37.1577C1.96181 34.816 3.86689 32.9109 6.20857 32.9109H14.6399C16.9816 32.9109 18.8866 34.816 18.8866 37.1577V37.5866H16.9316H3.91681H1.96181V37.1577ZM18.8867 47.5312C18.8867 48.9454 17.7362 50.0961 16.3219 50.0961H4.52669C3.11252 50.096 1.96181 48.9455 1.96181 47.5312V45.4203H3.91681H16.9317H18.8867V47.5312ZM16.9317 43.4585H3.91681C2.8389 43.4585 1.96181 42.5814 1.96181 41.5035C1.96181 40.4255 2.8389 39.5485 3.91681 39.5485H16.9317C18.0096 39.5485 18.8867 40.4255 18.8867 41.5035C18.8867 42.5814 18.0096 43.4585 16.9317 43.4585ZM20.0493 50.0955C20.5529 49.366 20.8485 48.4826 20.8485 47.531V44.4392C20.8485 44.0417 20.6118 43.7003 20.272 43.5461C20.6375 42.9509 20.8485 42.2513 20.8485 41.5033C20.8485 40.7552 20.6375 40.0555 20.272 39.4604C20.6118 39.3063 20.8485 38.9648 20.8485 38.5673V37.1575C20.8485 33.734 18.0634 30.9489 14.64 30.9489H12.2537L11.3078 17.8485H33.2882L32.7083 25.8678H31.7262C31.1843 25.8678 30.7453 26.307 30.7453 26.8487V28.1297C30.7453 29.6077 31.3648 30.9429 32.3566 31.8923C30.6597 32.4955 29.18 33.6138 28.0982 35.1551C26.4137 37.5547 26.019 40.5125 27.0152 43.2698L28.7051 47.9458C28.9939 48.745 29.4426 49.4756 30.0121 50.0954L20.0493 50.0955ZM45.6151 42.6033L43.9254 47.2796C43.8128 47.5916 43.665 47.8909 43.4862 48.1692C43.2514 48.5346 42.9639 48.8631 42.6314 49.1459C42.6242 49.1515 42.6174 49.1573 42.6104 49.1631C42.3076 49.4185 41.9693 49.6329 41.6053 49.8001C40.8156 50.1624 39.9088 50.195 39.0522 49.8915C38.749 49.7843 38.4314 49.7032 38.1075 49.6502C37.8223 49.6039 37.5296 49.5804 37.2377 49.5804C36.6186 49.5804 36.0083 49.685 35.4239 49.8912C35.1435 49.9903 34.8541 50.054 34.5627 50.081C33.9753 50.1361 33.39 50.0386 32.87 49.8C31.7809 49.3006 30.9569 48.4053 30.55 47.2793L28.8601 42.6034C28.084 40.4555 28.3917 38.1516 29.7036 36.2824C31.0158 34.4132 33.0781 33.3411 35.3617 33.3411H39.1131C41.397 33.3411 43.4594 34.4131 44.7717 36.2824C46.0836 38.1516 46.3912 40.4555 45.6151 42.6033Z" fill="black" fill-opacity="0.25"/>
<path d="M43.7013 37.0339C43.3851 36.5834 43.0101 36.1845 42.5868 35.8482C42.1627 35.5113 41.5456 35.582 41.2085 36.0062C40.8717 36.4305 40.9424 37.0474 41.3665 37.3845C41.6424 37.6035 41.8876 37.8647 42.0956 38.1611C42.787 39.1462 42.9491 40.3604 42.5401 41.4924L40.8506 46.1682C40.6666 46.6777 40.9302 47.24 41.4399 47.4241C41.55 47.4639 41.6624 47.4827 41.7733 47.4827C42.1747 47.4827 42.5514 47.2343 42.6958 46.8349L44.3853 42.1591C45.0144 40.4175 44.765 38.5493 43.7013 37.0339Z" fill="black" fill-opacity="0.25"/>
<path d="M39.1127 36.6098C39.6545 36.6098 40.0936 36.1706 40.0936 35.6289C40.0936 35.0871 39.6545 34.6479 39.1127 34.6479C38.571 34.6479 38.1318 35.0871 38.1318 35.6289C38.1318 36.1706 38.571 36.6098 39.1127 36.6098Z" fill="black" fill-opacity="0.25"/>
</svg>
