<svg width="48" height="48" viewBox="0 0 48 48" fill="none" xmlns="http://www.w3.org/2000/svg">
<g clip-path="url(#clip0_675_985)">
<path d="M44.6969 39.7244H44.6686C44.3109 30.6904 38.069 23.131 29.7931 20.6935C29.7931 20.6921 29.7931 20.691 29.7931 20.6898C29.7931 17.4959 27.1943 14.8967 24 14.8967C20.8057 14.8967 18.2069 17.4959 18.2069 20.6898C18.2069 20.691 18.2077 20.6921 18.2077 20.6935C9.86447 23.131 3.68906 30.6903 3.33141 39.7244H3.30309C1.48181 39.7244 0 41.209 0 43.0347C0 44.8604 1.48181 46.345 3.30309 46.345H44.697C46.5183 46.345 48.0001 44.8604 48.0001 43.0347C48 41.209 46.5182 39.7244 44.6969 39.7244ZM24 16.5519C26.1382 16.5519 27.8822 18.1883 28.0956 20.2709C26.7712 20.004 25.4018 19.8622 24 19.8622C22.5981 19.8622 21.2288 20.004 19.9044 20.2709C20.1178 18.1883 21.8618 16.5519 24 16.5519ZM24 21.5174C34.2184 21.5174 42.5819 29.6114 43.0167 39.7244H9.14541C9.5775 32.3524 15.6939 26.483 23.1725 26.483C23.6295 26.483 24.0001 26.1129 24.0001 25.6554C24.0001 25.1979 23.6295 24.8278 23.1725 24.8278C14.7816 24.8278 7.92469 31.4398 7.49025 39.7244H4.98337C5.41809 29.6114 13.7816 21.5174 24 21.5174ZM44.6969 44.6898H3.30309C2.39428 44.6898 1.65516 43.9471 1.65516 43.0347C1.65516 42.1222 2.39428 41.3795 3.30309 41.3795H4.13794H43.8621H44.6969C45.6057 41.3795 46.3448 42.1222 46.3448 43.0347C46.3448 43.9471 45.6057 44.6898 44.6969 44.6898Z" fill="black" fill-opacity="0.35"/>
<path d="M13.5675 16.7944C13.5477 16.7741 11.5794 14.769 12.8434 12.873C14.7822 9.96432 12.9234 7.10982 12.8434 6.98935C12.5896 6.60948 12.076 6.50682 11.6958 6.75985C11.3155 7.01363 11.2129 7.52682 11.4663 7.90745C11.4796 7.9276 12.7998 9.95457 11.4663 11.9548C9.85923 14.3649 11.3725 16.9397 12.3973 17.9645C12.5589 18.1261 12.7707 18.2069 12.9824 18.2069C13.1941 18.2069 13.4059 18.1261 13.5675 17.9645C13.8908 17.6414 13.8908 17.1177 13.5675 16.7944Z" fill="black" fill-opacity="0.35"/>
<path d="M25.1544 11.8288C25.1346 11.8086 23.1663 9.80347 24.4303 7.90747C26.3691 4.99878 24.5103 2.14428 24.4303 2.02381C24.1761 1.64319 23.6625 1.54053 23.2827 1.79431C22.9025 2.04809 22.7998 2.56128 23.0532 2.94191C23.0665 2.96206 24.3867 4.98903 23.0532 6.98928C21.4461 9.39931 22.9595 11.9742 23.9842 12.9989C24.1459 13.1606 24.3576 13.2414 24.5693 13.2414C24.781 13.2414 24.9928 13.1606 25.1544 12.9989C25.4778 12.6758 25.4778 12.1521 25.1544 11.8288Z" fill="black" fill-opacity="0.35"/>
<path d="M36.7404 18.4495C36.7206 18.4292 34.7522 16.4241 36.0162 14.5281C37.9551 11.6194 36.0962 8.76489 36.0162 8.64442C35.7621 8.26379 35.248 8.16114 34.8686 8.41492C34.4884 8.6687 34.3857 9.18189 34.6391 9.56251C34.6525 9.58267 35.9726 11.6096 34.6391 13.6099C33.0321 16.0199 34.5454 18.5948 35.5702 19.6195C35.7318 19.7812 35.9436 19.862 36.1553 19.862C36.367 19.862 36.5787 19.7812 36.7404 19.6195C37.0637 19.2964 37.0637 18.7727 36.7404 18.4495Z" fill="black" fill-opacity="0.35"/>
</g>
<defs>
<clipPath id="clip0_675_985">
<rect width="48" height="48" fill="white"/>
</clipPath>
</defs>
</svg>
