<?xml version="1.0" encoding="UTF-8"?>
<!DOCTYPE svg PUBLIC "-//W3C//DTD SVG 1.1//EN" "http://www.w3.org/Graphics/SVG/1.1/DTD/svg11.dtd">
<svg xmlns="http://www.w3.org/2000/svg" version="1.1" width="136px" height="146px" style="shape-rendering:geometricPrecision; text-rendering:geometricPrecision; image-rendering:optimizeQuality; fill-rule:evenodd; clip-rule:evenodd" xmlns:xlink="http://www.w3.org/1999/xlink">
<g><path style="opacity:0.947" fill="#0f994b" d="M 67.5,5.5 C 70.4245,5.45982 73.0912,6.29315 75.5,8C 78.7084,12.2471 81.5417,16.7471 84,21.5C 88.0135,11.8431 94.0135,10.1765 102,16.5C 110.116,32.8506 113.616,50.1839 112.5,68.5C 113.528,86.0014 110.362,102.668 103,118.5C 94.8708,126.97 88.5374,125.637 84,114.5C 81.746,118.007 79.746,121.673 78,125.5C 72.9581,131.602 67.6248,131.935 62,126.5C 54.9088,114.144 50.9088,100.811 50,86.5C 48.4014,66.607 49.7347,46.9403 54,27.5C 55.7581,18.2861 60.2581,10.9527 67.5,5.5 Z M 74.5,23.5 C 77.982,23.0679 80.3154,24.4012 81.5,27.5C 73.5244,54.6628 73.5244,81.8294 81.5,109C 77.9603,113.761 74.4603,113.594 71,108.5C 65.2199,95.6639 62.3866,82.1639 62.5,68C 62.3866,53.8361 65.2199,40.3361 71,27.5C 72.3756,26.2949 73.5423,24.9616 74.5,23.5 Z M 99.5,37.5 C 103.721,40.2459 106.221,44.2459 107,49.5C 110.4,65.1045 109.4,80.4378 104,95.5C 101.966,98.859 99.6324,99.1924 97,96.5C 92.5428,87.7135 90.7095,78.3802 91.5,68.5C 90.8326,58.3381 92.6659,48.6714 97,39.5C 97.9947,38.9341 98.828,38.2674 99.5,37.5 Z"/></g>
<g><path style="opacity:0.948" fill="#0f994a" d="M 51.5,12.5 C 52.552,12.3505 53.552,12.5172 54.5,13C 39.2584,27.8748 31.9251,46.0415 32.5,67.5C 32.106,89.1671 39.4393,107.667 54.5,123C 29.2604,113.602 15.5937,95.2689 13.5,68C 15.4015,42.0032 28.0681,23.5032 51.5,12.5 Z"/></g>
<g><path style="opacity:0.917" fill="#109a4a" d="M 120.5,50.5 C 123.238,49.9648 125.072,50.9648 126,53.5C 129.047,62.5482 129.047,71.5482 126,80.5C 124.56,84.7321 122.227,85.3988 119,82.5C 115.271,71.5247 115.771,60.858 120.5,50.5 Z"/></g>
</svg>
