<svg width="21" height="20" viewBox="0 0 21 20" fill="none" xmlns="http://www.w3.org/2000/svg">
<path d="M3.83319 18.1812C4.33534 18.3334 5.01358 18.3334 6.1665 18.3334H14.8332C15.9861 18.3334 16.6643 18.3334 17.1665 18.1812M3.83319 18.1812C3.72552 18.1486 3.62595 18.109 3.53153 18.0609C3.06112 17.8212 2.67867 17.4387 2.43899 16.9683C2.1665 16.4336 2.1665 15.7335 2.1665 14.3334V5.66669C2.1665 4.26656 2.1665 3.56649 2.43899 3.03171C2.67867 2.56131 3.06112 2.17885 3.53153 1.93917C4.06631 1.66669 4.76637 1.66669 6.1665 1.66669H14.8332C16.2333 1.66669 16.9334 1.66669 17.4681 1.93917C17.9386 2.17885 18.321 2.56131 18.5607 3.03171C18.8332 3.56649 18.8332 4.26656 18.8332 5.66669V14.3334C18.8332 15.7335 18.8332 16.4336 18.5607 16.9683C18.321 17.4387 17.9386 17.8212 17.4681 18.0609C17.3737 18.109 17.2742 18.1486 17.1665 18.1812M3.83319 18.1812C3.83346 17.5068 3.83751 17.1499 3.89722 16.8497C4.16024 15.5274 5.1939 14.4938 6.5162 14.2307C6.8382 14.1667 7.22541 14.1667 7.99984 14.1667H12.9998C13.7743 14.1667 14.1615 14.1667 14.4835 14.2307C15.8058 14.4938 16.8394 15.5274 17.1025 16.8497C17.1622 17.1499 17.1662 17.5068 17.1665 18.1812M13.8332 7.91669C13.8332 9.75764 12.3408 11.25 10.4998 11.25C8.65889 11.25 7.1665 9.75764 7.1665 7.91669C7.1665 6.07574 8.65889 4.58335 10.4998 4.58335C12.3408 4.58335 13.8332 6.07574 13.8332 7.91669Z" stroke="#5E6E78" stroke-width="1.5" stroke-linecap="round" stroke-linejoin="round"/>
</svg>
