<svg width="21" height="20" viewBox="0 0 21 20" fill="none" xmlns="http://www.w3.org/2000/svg">
<path d="M11.9168 1.8913V5.33341C11.9168 5.80012 11.9168 6.03348 12.0077 6.21174C12.0876 6.36854 12.215 6.49602 12.3718 6.57592C12.5501 6.66675 12.7835 6.66675 13.2502 6.66675H16.6923M11.9168 14.1667H6.91683M13.5835 10.8334H6.91683M16.9168 8.32354V14.3334C16.9168 15.7335 16.9168 16.4336 16.6443 16.9683C16.4047 17.4387 16.0222 17.8212 15.5518 18.0609C15.017 18.3334 14.317 18.3334 12.9168 18.3334H7.5835C6.18336 18.3334 5.4833 18.3334 4.94852 18.0609C4.47811 17.8212 4.09566 17.4387 3.85598 16.9683C3.5835 16.4336 3.5835 15.7335 3.5835 14.3334V5.66669C3.5835 4.26656 3.5835 3.56649 3.85598 3.03171C4.09566 2.56131 4.47811 2.17885 4.94852 1.93917C5.4833 1.66669 6.18336 1.66669 7.5835 1.66669H10.26C10.8715 1.66669 11.1772 1.66669 11.4649 1.73576C11.72 1.797 11.9639 1.89801 12.1875 2.03509C12.4398 2.18969 12.656 2.40588 13.0884 2.83826L15.7453 5.49511C16.1776 5.92749 16.3938 6.14368 16.5484 6.39597C16.6855 6.61966 16.7865 6.86352 16.8478 7.11861C16.9168 7.40633 16.9168 7.71206 16.9168 8.32354Z" stroke="#5E6E78" stroke-width="1.5" stroke-linecap="round" stroke-linejoin="round"/>
</svg>
