<svg width="18" height="18" viewBox="0 0 18 18" fill="none" xmlns="http://www.w3.org/2000/svg">
<g clip-path="url(#clip0_622_1006)">
<path d="M16.8747 2.98206H14.5602C14.4119 2.98209 14.2669 3.02609 14.1436 3.1085C14.0203 3.19092 13.9242 3.30804 13.8674 3.44506C13.8107 3.58209 13.7958 3.73286 13.8247 3.87833C13.8537 4.02379 13.9251 4.15742 14.0299 4.26231L14.8444 5.07681L12.1549 7.76556C12.012 7.90213 11.822 7.97834 11.6243 7.97834C11.4266 7.97834 11.2366 7.90213 11.0937 7.76556L10.9662 7.63731C10.5376 7.22786 9.96775 6.99937 9.37505 6.99937C8.78235 6.99937 8.21246 7.22786 7.78392 7.63731L3.95892 11.4623C3.81799 11.6036 3.73898 11.7952 3.73926 11.9947C3.73954 12.1943 3.81909 12.3856 3.96042 12.5266C4.10175 12.6675 4.29327 12.7465 4.49286 12.7462C4.69244 12.7459 4.88374 12.6664 5.02467 12.5251L8.84967 8.70006C8.99248 8.56331 9.18257 8.48698 9.3803 8.48698C9.57802 8.48698 9.76811 8.56331 9.91092 8.70006L10.0384 8.82831C10.4671 9.23741 11.037 9.46566 11.6295 9.46566C12.2221 9.46566 12.792 9.23741 13.2207 8.82831L15.9102 6.13881L16.7247 6.95331C16.8299 7.05647 16.9632 7.12634 17.1079 7.15419C17.2526 7.18204 17.4024 7.16665 17.5384 7.10992C17.6744 7.05319 17.7907 6.95765 17.8727 6.83523C17.9548 6.71281 17.9989 6.56893 17.9997 6.42156V4.10706C17.9997 3.80869 17.8811 3.52254 17.6702 3.31156C17.4592 3.10058 17.173 2.98206 16.8747 2.98206Z" fill="#454848" fill-opacity="0.75"/>
<path d="M17.25 16.482H3.75C3.15326 16.482 2.58097 16.2449 2.15901 15.823C1.73705 15.401 1.5 14.8287 1.5 14.232V0.75C1.5 0.551088 1.42098 0.360322 1.28033 0.21967C1.13968 0.0790176 0.948912 0 0.75 0C0.551088 0 0.360322 0.0790176 0.21967 0.21967C0.0790176 0.360322 0 0.551088 0 0.75L0 14.232C0.00119089 15.2262 0.396661 16.1793 1.09966 16.8823C1.80267 17.5853 2.7558 17.9808 3.75 17.982H17.25C17.4489 17.982 17.6397 17.903 17.7803 17.7623C17.921 17.6217 18 17.4309 18 17.232C18 17.0331 17.921 16.8423 17.7803 16.7017C17.6397 16.561 17.4489 16.482 17.25 16.482Z" fill="#454848" fill-opacity="0.75"/>
</g>
<defs>
<clipPath id="clip0_622_1006">
<rect width="18" height="18" fill="white"/>
</clipPath>
</defs>
</svg>
