<svg width="18" height="18" viewBox="0 0 18 18" fill="none" xmlns="http://www.w3.org/2000/svg">
<path d="M16.2 2.7H12.7881C12.2292 1.134 10.7556 0 9 0C7.2444 0 5.77079 1.134 5.21191 2.7H1.8C0.807609 2.7 0 3.50761 0 4.5V16.2C0 17.1924 0.807609 18 1.8 18H16.2C17.1924 18 18 17.1924 18 16.2V4.5C18 3.50761 17.1924 2.7 16.2 2.7ZM9 0.9C10.2531 0.9 11.3184 1.63979 11.8239 2.7H6.17611C6.68159 1.63979 7.74689 0.9 9 0.9ZM17.1 16.2C17.1 16.6971 16.6971 17.1 16.2 17.1H1.8C1.30289 17.1 0.9 16.6971 0.9 16.2V8.1H3.6V8.55C3.6 8.7987 3.8013 9 4.05 9C4.2987 9 4.5 8.7987 4.5 8.55V8.1H13.5V8.55C13.5 8.7987 13.7013 9 13.95 9C14.1987 9 14.4 8.7987 14.4 8.55V8.1H17.1V16.2ZM17.1 7.2H14.4V6.75C14.4 6.5013 14.1987 6.3 13.95 6.3C13.7013 6.3 13.5 6.5013 13.5 6.75V7.2H4.5V6.75C4.5 6.5013 4.2987 6.3 4.05 6.3C3.8013 6.3 3.6 6.5013 3.6 6.75V7.2H0.9V4.5C0.9 4.00289 1.30289 3.6 1.8 3.6H16.2C16.6971 3.6 17.1 4.00289 17.1 4.5V7.2Z" fill="#454848" fill-opacity="0.75"/>
</svg>
