<svg width="18" height="18" viewBox="0 0 18 18" fill="none" xmlns="http://www.w3.org/2000/svg">
<path d="M2.03391 3.23508H2.33006V2.90045C2.33006 1.87742 3.16536 1.04211 4.18818 1.04211H15.9658C16.9886 1.04211 17.8239 1.87742 17.8239 2.90045V14.3237C17.8239 14.5673 17.6262 14.7648 17.3826 14.7648H15.6694V16.5164C15.6694 16.7601 15.4717 16.9578 15.2281 16.9578H0.617139C0.373287 16.9578 0.175781 16.7601 0.175781 16.5164V5.09321C0.175781 4.07018 1.01087 3.23508 2.03391 3.23508ZM2.61367 9.5525C2.03306 9.5525 2.03306 8.66978 2.61367 8.66978H6.1913C6.77191 8.66978 6.77191 9.5525 6.1913 9.5525H2.61367ZM2.61367 13.2843C2.03306 13.2843 2.03306 12.4016 2.61367 12.4016H6.1913C6.77191 12.4016 6.77191 13.2843 6.1913 13.2843H2.61367ZM2.61367 11.4185C2.03306 11.4185 2.03306 10.5358 2.61367 10.5358H6.1913C6.77191 10.5358 6.77191 11.4185 6.1913 11.4185H2.61367ZM8.53819 8.66978H13.2316C13.4754 8.66978 13.6729 8.8675 13.6729 9.11114V12.8429C13.6729 13.0868 13.4754 13.2843 13.2316 13.2843H8.53819C8.29455 13.2843 8.09684 13.0868 8.09684 12.8429V9.11114C8.09684 8.8675 8.29455 8.66978 8.53819 8.66978ZM12.7902 9.5525H8.97955V12.4016H12.7902V9.5525ZM2.47888 5.11128H13.3663C13.61 5.11128 13.8077 5.309 13.8077 5.55264V7.09144C13.8077 7.33508 13.61 7.5328 13.3663 7.5328H2.47888C2.23524 7.5328 2.03752 7.33508 2.03752 7.09144V5.55264C2.03752 5.309 2.23524 5.11128 2.47888 5.11128ZM12.925 5.994H2.92024V6.65008H12.925V5.994ZM3.21277 3.23508H13.8113C14.8343 3.23508 15.6694 4.07039 15.6694 5.09321V13.8823H16.9412V2.90045C16.9412 2.36491 16.5013 1.92483 15.9658 1.92483H4.18818C3.65264 1.92483 3.21277 2.36491 3.21277 2.90045V3.23508ZM13.8113 4.1178H2.03391C1.49837 4.1178 1.05828 4.55767 1.05828 5.09321V16.0751H14.7867V5.09321C14.7867 4.55767 14.3469 4.1178 13.8113 4.1178Z" fill="#454848" fill-opacity="0.75"/>
</svg>
