<svg width="18" height="18" viewBox="0 0 18 18" fill="none" xmlns="http://www.w3.org/2000/svg">
<g clip-path="url(#clip0_622_1010)">
<path d="M6.75 17.9995H0.75C0.551088 17.9995 0.360322 17.9205 0.21967 17.7798C0.0790176 17.6392 0 17.4484 0 17.2495C0 17.0506 0.0790176 16.8598 0.21967 16.7192C0.360322 16.5785 0.551088 16.4995 0.75 16.4995H6.75C6.94891 16.4995 7.13968 16.5785 7.28033 16.7192C7.42098 16.8598 7.5 17.0506 7.5 17.2495C7.5 17.4484 7.42098 17.6392 7.28033 17.7798C7.13968 17.9205 6.94891 17.9995 6.75 17.9995Z" fill="#454848" fill-opacity="0.75"/>
<path d="M5.25 15H0.75C0.551088 15 0.360322 14.921 0.21967 14.7803C0.0790176 14.6397 0 14.4489 0 14.25C0 14.0511 0.0790176 13.8603 0.21967 13.7197C0.360322 13.579 0.551088 13.5 0.75 13.5H5.25C5.44891 13.5 5.63968 13.579 5.78033 13.7197C5.92098 13.8603 6 14.0511 6 14.25C6 14.4489 5.92098 14.6397 5.78033 14.7803C5.63968 14.921 5.44891 15 5.25 15Z" fill="#454848" fill-opacity="0.75"/>
<path d="M3.75 12.0005H0.75C0.551088 12.0005 0.360322 11.9215 0.21967 11.7808C0.0790176 11.6402 0 11.4494 0 11.2505C0 11.0516 0.0790176 10.8608 0.21967 10.7202C0.360322 10.5795 0.551088 10.5005 0.75 10.5005H3.75C3.94891 10.5005 4.13968 10.5795 4.28033 10.7202C4.42098 10.8608 4.5 11.0516 4.5 11.2505C4.5 11.4494 4.42098 11.6402 4.28033 11.7808C4.13968 11.9215 3.94891 12.0005 3.75 12.0005Z" fill="#454848" fill-opacity="0.75"/>
<path d="M9.75046 17.9659C9.55155 17.9748 9.35727 17.9042 9.21036 17.7698C9.06345 17.6354 8.97594 17.4482 8.96709 17.2493C8.95824 17.0504 9.02877 16.8561 9.16316 16.7092C9.29755 16.5623 9.4848 16.4748 9.68371 16.4659C11.1031 16.336 12.456 15.8044 13.5841 14.9333C14.7122 14.0623 15.5687 12.8878 16.0534 11.5474C16.538 10.2071 16.6307 8.75639 16.3206 7.36527C16.0105 5.97414 15.3105 4.70017 14.3024 3.69259C13.2944 2.685 12.0201 1.9855 10.6288 1.67604C9.23753 1.36657 7.78689 1.45993 6.44677 1.9452C5.10665 2.43047 3.93256 3.28755 3.06199 4.41605C2.19142 5.54456 1.66044 6.89776 1.53122 8.31716C1.51332 8.51528 1.41745 8.69817 1.2647 8.8256C1.11195 8.95303 0.914841 9.01456 0.716724 8.99666C0.518608 8.97876 0.335717 8.88289 0.208287 8.73014C0.0808558 8.57739 0.0193232 8.38027 0.0372253 8.18216C0.246392 5.87464 1.33743 3.73668 3.08322 2.21333C4.82901 0.689982 7.09505 -0.101393 9.40963 0.00394282C11.7242 0.109279 13.909 1.10321 15.5092 2.77883C17.1094 4.45446 18.0017 6.68268 18.0005 8.99966C18.0119 11.2484 17.1765 13.4191 15.6604 15.0799C14.1442 16.7407 12.0585 17.77 9.81796 17.9629C9.79546 17.9652 9.77221 17.9659 9.75046 17.9659Z" fill="#454848" fill-opacity="0.75"/>
<path d="M9 4.5C8.80109 4.5 8.61032 4.57902 8.46967 4.71967C8.32902 4.86032 8.25 5.05109 8.25 5.25V9C8.25004 9.1989 8.32909 9.38963 8.46975 9.53025L10.7198 11.7803C10.8612 11.9169 11.0507 11.9925 11.2473 11.9908C11.4439 11.989 11.6321 11.9102 11.7711 11.7711C11.9102 11.6321 11.989 11.4439 11.9908 11.2473C11.9925 11.0507 11.9169 10.8612 11.7802 10.7198L9.75 8.6895V5.25C9.75 5.05109 9.67098 4.86032 9.53033 4.71967C9.38968 4.57902 9.19891 4.5 9 4.5Z" fill="#454848" fill-opacity="0.75"/>
</g>
<defs>
<clipPath id="clip0_622_1010">
<rect width="18" height="18" fill="white"/>
</clipPath>
</defs>
</svg>
