<svg width="218" height="144" viewBox="0 0 218 144" fill="none" xmlns="http://www.w3.org/2000/svg">
<rect x="0.5" y="0.5" width="217" height="143" rx="8.5" fill="white"/>
<rect x="0.5" y="0.5" width="217" height="143" rx="8.5" stroke="#EEF0F1"/>
<path d="M14.3003 20.1085V21.7779H13.6057V17.4765H15.0679C15.5635 17.4765 15.9351 17.5943 16.1829 17.8299C16.4347 18.0655 16.5606 18.3884 16.5606 18.7986C16.5606 19.2048 16.4327 19.5257 16.1768 19.7612C15.9209 19.9928 15.5513 20.1085 15.0679 20.1085H14.3003ZM14.9948 19.5419C15.5675 19.5419 15.8539 19.2941 15.8539 18.7986C15.8539 18.5549 15.7848 18.3701 15.6467 18.2442C15.5127 18.1142 15.2954 18.0492 14.9948 18.0492H14.3003V19.5419H14.9948ZM17.7423 19.0789C17.8561 18.8595 18.0185 18.6869 18.2298 18.561C18.441 18.431 18.6847 18.366 18.9609 18.366V19.1215H18.7537C18.4491 19.1215 18.2034 19.1967 18.0165 19.3469C17.8337 19.4932 17.7423 19.7369 17.7423 20.0781V21.7779H17.0478V18.4209H17.7423V19.0789ZM20.8948 18.3782C21.2197 18.3782 21.5121 18.4473 21.7721 18.5854C22.032 18.7235 22.2351 18.9225 22.3814 19.1824C22.5276 19.4424 22.6007 19.747 22.6007 20.0963C22.6007 20.4497 22.5276 20.7564 22.3814 21.0163C22.2351 21.2763 22.032 21.4753 21.7721 21.6134C21.5121 21.7515 21.2197 21.8205 20.8948 21.8205C20.5698 21.8205 20.2774 21.7515 20.0174 21.6134C19.7615 21.4753 19.5584 21.2763 19.4082 21.0163C19.2619 20.7523 19.1888 20.4456 19.1888 20.0963C19.1888 19.747 19.2619 19.4424 19.4082 19.1824C19.5584 18.9225 19.7615 18.7235 20.0174 18.5854C20.2774 18.4473 20.5698 18.3782 20.8948 18.3782ZM20.8948 18.9814C20.716 18.9814 20.5515 19.022 20.4013 19.1032C20.251 19.1845 20.1291 19.3104 20.0357 19.481C19.9463 19.6475 19.9017 19.8526 19.9017 20.0963C19.9017 20.3441 19.9463 20.5512 20.0357 20.7178C20.1291 20.8843 20.251 21.0082 20.4013 21.0894C20.5515 21.1707 20.716 21.2113 20.8948 21.2113C21.0735 21.2113 21.238 21.1707 21.3883 21.0894C21.5385 21.0082 21.6584 20.8843 21.7477 20.7178C21.8411 20.5512 21.8879 20.3441 21.8879 20.0963C21.8879 19.8526 21.8411 19.6475 21.7477 19.481C21.6584 19.3104 21.5385 19.1845 21.3883 19.1032C21.238 19.022 21.0735 18.9814 20.8948 18.9814ZM23.5243 17.8421C23.3903 17.8421 23.2806 17.8055 23.1953 17.7324C23.1141 17.6593 23.0735 17.5638 23.0735 17.446C23.0735 17.3282 23.1141 17.2308 23.1953 17.1536C23.2806 17.0764 23.3903 17.0378 23.5243 17.0378C23.6584 17.0378 23.766 17.0764 23.8473 17.1536C23.9285 17.2308 23.9691 17.3282 23.9691 17.446C23.9691 17.5638 23.9285 17.6593 23.8473 17.7324C23.766 17.8055 23.6584 17.8421 23.5243 17.8421ZM22.5495 22.7649H22.7871C22.9212 22.7649 23.0187 22.7344 23.0796 22.6735C23.1446 22.6166 23.1771 22.5171 23.1771 22.375V18.4209H23.8777V22.3811C23.8777 23.0431 23.5447 23.3742 22.8785 23.3742H22.5495V22.7649ZM27.703 19.9379C27.703 20.0516 27.6949 20.1512 27.6787 20.2365H25.0954C25.1076 20.5817 25.203 20.8376 25.3817 21.0041C25.5605 21.1707 25.7818 21.2539 26.0458 21.2539C26.2774 21.2539 26.4723 21.195 26.6307 21.0772C26.7932 20.9595 26.8927 20.8031 26.9293 20.6081H27.6726C27.6279 20.8437 27.5345 21.0529 27.3923 21.2356C27.2501 21.4184 27.0653 21.5626 26.8379 21.6682C26.6104 21.7698 26.3566 21.8205 26.0763 21.8205C25.7514 21.8205 25.463 21.7515 25.2111 21.6134C24.9634 21.4753 24.7684 21.2763 24.6263 21.0163C24.4841 20.7564 24.413 20.4497 24.413 20.0963C24.413 19.747 24.4841 19.4424 24.6263 19.1824C24.7684 18.9225 24.9634 18.7235 25.2111 18.5854C25.463 18.4473 25.7514 18.3782 26.0763 18.3782C26.4053 18.3782 26.6917 18.4473 26.9354 18.5854C27.1831 18.7194 27.372 18.9062 27.502 19.1459C27.636 19.3815 27.703 19.6455 27.703 19.9379ZM27.0024 19.9196C27.0105 19.7003 26.9719 19.5175 26.8866 19.3713C26.8054 19.221 26.6917 19.1114 26.5454 19.0423C26.4033 18.9692 26.2469 18.9326 26.0763 18.9326C25.8042 18.9326 25.5767 19.0159 25.3939 19.1824C25.2111 19.349 25.1116 19.5947 25.0954 19.9196H27.0024ZM29.7445 18.3782C30.1791 18.3782 30.5386 18.494 30.8229 18.7255C31.1072 18.9529 31.2839 19.2637 31.3529 19.6577H30.6157C30.5751 19.4464 30.4756 19.2819 30.3172 19.1642C30.1628 19.0423 29.9679 18.9814 29.7323 18.9814C29.4642 18.9814 29.2408 19.0768 29.0621 19.2677C28.8834 19.4546 28.794 19.7308 28.794 20.0963C28.794 20.4619 28.8834 20.7401 29.0621 20.931C29.2408 21.1219 29.4642 21.2174 29.7323 21.2174C29.9679 21.2174 30.1628 21.1564 30.3172 21.0346C30.4756 20.9127 30.5751 20.7462 30.6157 20.535H31.3529C31.2839 20.929 31.1072 21.2417 30.8229 21.4733C30.5386 21.7048 30.1791 21.8205 29.7445 21.8205C29.4195 21.8205 29.1312 21.7515 28.8793 21.6134C28.6316 21.4753 28.4366 21.2763 28.2944 21.0163C28.1523 20.7564 28.0812 20.4497 28.0812 20.0963C28.0812 19.747 28.1523 19.4424 28.2944 19.1824C28.4366 18.9225 28.6316 18.7235 28.8793 18.5854C29.1312 18.4473 29.4195 18.3782 29.7445 18.3782ZM33.5898 21.1747V21.7779H33.1633C32.8059 21.7779 32.5337 21.6926 32.3469 21.522C32.1641 21.3473 32.0727 21.059 32.0727 20.6568V19.0118H31.5914V18.4209H32.0727V17.5862H32.7734V18.4209H33.5837V19.0118H32.7734V20.669C32.7734 20.8599 32.8079 20.9919 32.877 21.0651C32.9501 21.1382 33.076 21.1747 33.2547 21.1747H33.5898ZM37.238 19.9379C37.238 20.0516 37.2299 20.1512 37.2136 20.2365H34.6303C34.6425 20.5817 34.738 20.8376 34.9167 21.0041C35.0954 21.1707 35.3168 21.2539 35.5808 21.2539C35.8123 21.2539 36.0073 21.195 36.1657 21.0772C36.3282 20.9595 36.4277 20.8031 36.4642 20.6081H37.2075C37.1628 20.8437 37.0694 21.0529 36.9273 21.2356C36.7851 21.4184 36.6003 21.5626 36.3728 21.6682C36.1454 21.7698 35.8915 21.8205 35.6113 21.8205C35.2863 21.8205 34.9979 21.7515 34.7461 21.6134C34.4983 21.4753 34.3034 21.2763 34.1612 21.0163C34.0191 20.7564 33.948 20.4497 33.948 20.0963C33.948 19.747 34.0191 19.4424 34.1612 19.1824C34.3034 18.9225 34.4983 18.7235 34.7461 18.5854C34.9979 18.4473 35.2863 18.3782 35.6113 18.3782C35.9403 18.3782 36.2266 18.4473 36.4703 18.5854C36.7181 18.7194 36.907 18.9062 37.0369 19.1459C37.171 19.3815 37.238 19.6455 37.238 19.9379ZM36.5373 19.9196C36.5455 19.7003 36.5069 19.5175 36.4216 19.3713C36.3403 19.221 36.2266 19.1114 36.0804 19.0423C35.9382 18.9692 35.7819 18.9326 35.6113 18.9326C35.3391 18.9326 35.1117 19.0159 34.9289 19.1824C34.7461 19.349 34.6466 19.5947 34.6303 19.9196H36.5373ZM39.1332 18.3782C39.4379 18.3782 39.6978 18.4533 39.9131 18.6036C40.1284 18.7539 40.2786 18.9529 40.3639 19.2007V17.2693H41.0646V21.7779H40.3639V20.998C40.2786 21.2458 40.1284 21.4448 39.9131 21.5951C39.6978 21.7454 39.4379 21.8205 39.1332 21.8205C38.8408 21.8205 38.5788 21.7515 38.3473 21.6134C38.1198 21.4753 37.9411 21.2763 37.8111 21.0163C37.6811 20.7564 37.6162 20.4497 37.6162 20.0963C37.6162 19.747 37.6811 19.4424 37.8111 19.1824C37.9411 18.9225 38.1198 18.7235 38.3473 18.5854C38.5788 18.4473 38.8408 18.3782 39.1332 18.3782ZM39.3465 18.9875C39.0378 18.9875 38.79 19.087 38.6032 19.286C38.4204 19.481 38.329 19.7511 38.329 20.0963C38.329 20.4416 38.4204 20.7137 38.6032 20.9127C38.79 21.1077 39.0378 21.2052 39.3465 21.2052C39.5414 21.2052 39.7161 21.1605 39.8704 21.0711C40.0248 20.9777 40.1466 20.8478 40.236 20.6812C40.3253 20.5147 40.37 20.3197 40.37 20.0963C40.37 19.877 40.3253 19.6841 40.236 19.5175C40.1466 19.3469 40.0248 19.217 39.8704 19.1276C39.7161 19.0342 39.5414 18.9875 39.3465 18.9875ZM45.8484 17.4765V18.037H44.6481V21.7779H43.9475V18.037H42.7533V17.4765H45.8484ZM47.7801 18.3782C48.1051 18.3782 48.3975 18.4473 48.6575 18.5854C48.9174 18.7235 49.1205 18.9225 49.2667 19.1824C49.413 19.4424 49.4861 19.747 49.4861 20.0963C49.4861 20.4497 49.413 20.7564 49.2667 21.0163C49.1205 21.2763 48.9174 21.4753 48.6575 21.6134C48.3975 21.7515 48.1051 21.8205 47.7801 21.8205C47.4552 21.8205 47.1628 21.7515 46.9028 21.6134C46.6469 21.4753 46.4438 21.2763 46.2935 21.0163C46.1473 20.7523 46.0742 20.4456 46.0742 20.0963C46.0742 19.747 46.1473 19.4424 46.2935 19.1824C46.4438 18.9225 46.6469 18.7235 46.9028 18.5854C47.1628 18.4473 47.4552 18.3782 47.7801 18.3782ZM47.7801 18.9814C47.6014 18.9814 47.4369 19.022 47.2866 19.1032C47.1364 19.1845 47.0145 19.3104 46.9211 19.481C46.8317 19.6475 46.787 19.8526 46.787 20.0963C46.787 20.3441 46.8317 20.5512 46.9211 20.7178C47.0145 20.8843 47.1364 21.0082 47.2866 21.0894C47.4369 21.1707 47.6014 21.2113 47.7801 21.2113C47.9589 21.2113 48.1234 21.1707 48.2736 21.0894C48.4239 21.0082 48.5437 20.8843 48.6331 20.7178C48.7265 20.5512 48.7732 20.3441 48.7732 20.0963C48.7732 19.8526 48.7265 19.6475 48.6331 19.481C48.5437 19.3104 48.4239 19.1845 48.2736 19.1032C48.1234 19.022 47.9589 18.9814 47.7801 18.9814ZM51.9573 18.3782C52.2497 18.3782 52.5097 18.4473 52.7371 18.5854C52.9686 18.7235 53.1494 18.9225 53.2794 19.1824C53.4093 19.4424 53.4743 19.747 53.4743 20.0963C53.4743 20.4497 53.4093 20.7564 53.2794 21.0163C53.1494 21.2763 52.9686 21.4753 52.7371 21.6134C52.5097 21.7515 52.2497 21.8205 51.9573 21.8205C51.6526 21.8205 51.3927 21.7454 51.1774 21.5951C50.9621 21.4448 50.8118 21.2458 50.7265 20.998V23.3742H50.032V18.4209H50.7265V19.2007C50.8118 18.9529 50.9621 18.7539 51.1774 18.6036C51.3927 18.4533 51.6526 18.3782 51.9573 18.3782ZM51.744 18.9875C51.549 18.9875 51.3744 19.0342 51.22 19.1276C51.0657 19.217 50.9438 19.3469 50.8545 19.5175C50.7651 19.6841 50.7204 19.877 50.7204 20.0963C50.7204 20.3197 50.7651 20.5147 50.8545 20.6812C50.9438 20.8478 51.0657 20.9777 51.22 21.0711C51.3744 21.1605 51.549 21.2052 51.744 21.2052C52.0527 21.2052 52.3005 21.1077 52.4873 20.9127C52.6742 20.7137 52.7676 20.4416 52.7676 20.0963C52.7676 19.7551 52.6742 19.485 52.4873 19.286C52.3005 19.087 52.0527 18.9875 51.744 18.9875ZM56.735 17.3425C57.0193 17.3425 57.263 17.3932 57.4661 17.4948C57.6692 17.5923 57.8215 17.7283 57.923 17.903C58.0286 18.0776 58.0814 18.2726 58.0814 18.4879C58.0814 18.76 58.0043 18.9875 57.8499 19.1702C57.6996 19.349 57.4864 19.4566 57.2102 19.4932V19.5236C57.5067 19.6089 57.7382 19.7369 57.9047 19.9075C58.0753 20.074 58.1606 20.3055 58.1606 20.602C58.1606 20.9635 58.0408 21.258 57.8012 21.4854C57.5615 21.7088 57.2183 21.8205 56.7715 21.8205C56.3125 21.8205 55.9429 21.7048 55.6627 21.4733C55.3824 21.2377 55.222 20.8904 55.1813 20.4314H55.8698C55.8942 20.6751 55.9815 20.8701 56.1318 21.0163C56.2821 21.1585 56.4852 21.2296 56.7411 21.2296C56.9807 21.2296 57.1635 21.1666 57.2894 21.0407C57.4194 20.9148 57.4844 20.7523 57.4844 20.5533C57.4844 20.3136 57.3909 20.1309 57.2041 20.0049C57.0213 19.879 56.7553 19.8161 56.406 19.8161H56.2415V19.2434H56.406C57.068 19.2515 57.3991 19.0261 57.3991 18.5671C57.3991 18.3681 57.3381 18.2117 57.2163 18.0979C57.0944 17.9842 56.9279 17.9274 56.7167 17.9274C56.5055 17.9274 56.3288 17.9923 56.1866 18.1223C56.0445 18.2482 55.9592 18.433 55.9307 18.6767H55.2484C55.2768 18.2543 55.419 17.9274 55.6748 17.6958C55.9307 17.4603 56.2841 17.3425 56.735 17.3425ZM60.8239 20.1085V21.7779H60.1293V17.4765H61.5915C62.0871 17.4765 62.4587 17.5943 62.7065 17.8299C62.9583 18.0655 63.0842 18.3884 63.0842 18.7986C63.0842 19.2048 62.9563 19.5257 62.7004 19.7612C62.4445 19.9928 62.0749 20.1085 61.5915 20.1085H60.8239ZM61.5184 19.5419C62.0911 19.5419 62.3775 19.2941 62.3775 18.7986C62.3775 18.5549 62.3084 18.3701 62.1703 18.2442C62.0363 18.1142 61.819 18.0492 61.5184 18.0492H60.8239V19.5419H61.5184ZM66.6908 19.9379C66.6908 20.0516 66.6827 20.1512 66.6665 20.2365H64.0832C64.0954 20.5817 64.1908 20.8376 64.3695 21.0041C64.5483 21.1707 64.7696 21.2539 65.0336 21.2539C65.2652 21.2539 65.4601 21.195 65.6185 21.0772C65.781 20.9595 65.8805 20.8031 65.9171 20.6081H66.6604C66.6157 20.8437 66.5223 21.0529 66.3801 21.2356C66.238 21.4184 66.0531 21.5626 65.8257 21.6682C65.5982 21.7698 65.3444 21.8205 65.0641 21.8205C64.7392 21.8205 64.4508 21.7515 64.199 21.6134C63.9512 21.4753 63.7562 21.2763 63.6141 21.0163C63.4719 20.7564 63.4008 20.4497 63.4008 20.0963C63.4008 19.747 63.4719 19.4424 63.6141 19.1824C63.7562 18.9225 63.9512 18.7235 64.199 18.5854C64.4508 18.4473 64.7392 18.3782 65.0641 18.3782C65.3931 18.3782 65.6795 18.4473 65.9232 18.5854C66.1709 18.7194 66.3598 18.9062 66.4898 19.1459C66.6238 19.3815 66.6908 19.6455 66.6908 19.9379ZM65.9902 19.9196C65.9983 19.7003 65.9597 19.5175 65.8744 19.3713C65.7932 19.221 65.6795 19.1114 65.5332 19.0423C65.3911 18.9692 65.2347 18.9326 65.0641 18.9326C64.792 18.9326 64.5645 19.0159 64.3817 19.1824C64.199 19.349 64.0994 19.5947 64.0832 19.9196H65.9902ZM68.5861 18.3782C68.8907 18.3782 69.1507 18.4533 69.3659 18.6036C69.5812 18.7539 69.7335 18.9529 69.8229 19.2007V18.4209H70.5174V21.7779H69.8229V20.998C69.7335 21.2458 69.5812 21.4448 69.3659 21.5951C69.1507 21.7454 68.8907 21.8205 68.5861 21.8205C68.2936 21.8205 68.0316 21.7515 67.8001 21.6134C67.5727 21.4753 67.394 21.2763 67.264 21.0163C67.134 20.7564 67.069 20.4497 67.069 20.0963C67.069 19.747 67.134 19.4424 67.264 19.1824C67.394 18.9225 67.5727 18.7235 67.8001 18.5854C68.0316 18.4473 68.2936 18.3782 68.5861 18.3782ZM68.7993 18.9875C68.4906 18.9875 68.2429 19.087 68.056 19.286C67.8732 19.481 67.7818 19.7511 67.7818 20.0963C67.7818 20.4416 67.8732 20.7137 68.056 20.9127C68.2429 21.1077 68.4906 21.2052 68.7993 21.2052C68.9943 21.2052 69.1689 21.1605 69.3233 21.0711C69.4776 20.9777 69.5995 20.8478 69.6888 20.6812C69.7782 20.5147 69.8229 20.3197 69.8229 20.0963C69.8229 19.877 69.7782 19.6841 69.6888 19.5175C69.5995 19.3469 69.4776 19.217 69.3233 19.1276C69.1689 19.0342 68.9943 18.9875 68.7993 18.9875ZM73.13 21.7779L71.9236 20.2852V21.7779H71.2291V17.2693H71.9236V19.8526L73.1178 18.4209H73.9525L72.4903 20.0902L73.989 21.7779H73.13ZM78.4532 20.6325C78.4532 20.8437 78.4025 21.0407 78.3009 21.2235C78.1994 21.4022 78.045 21.5464 77.8379 21.656C77.6307 21.7657 77.3769 21.8205 77.0763 21.8205C76.7838 21.8205 76.5219 21.7698 76.2903 21.6682C76.0588 21.5626 75.874 21.4164 75.7359 21.2296C75.5978 21.0427 75.5186 20.8274 75.4983 20.5837H76.2416C76.2619 20.7706 76.3411 20.931 76.4792 21.0651C76.6214 21.1991 76.8102 21.2661 77.0458 21.2661C77.257 21.2661 77.4195 21.2092 77.5332 21.0955C77.651 20.9818 77.7099 20.8356 77.7099 20.6568C77.7099 20.5025 77.6673 20.3766 77.582 20.2791C77.4967 20.1776 77.3911 20.0984 77.2652 20.0415C77.1392 19.9846 76.9666 19.9196 76.7473 19.8465C76.4792 19.7612 76.2599 19.6759 76.0893 19.5906C75.9228 19.5053 75.7806 19.3815 75.6628 19.219C75.545 19.0565 75.4861 18.8433 75.4861 18.5793C75.4861 18.3477 75.543 18.1447 75.6567 17.97C75.7704 17.7953 75.9329 17.6613 76.1441 17.5679C76.3553 17.4704 76.599 17.4217 76.8752 17.4217C77.3139 17.4217 77.6612 17.5273 77.9171 17.7385C78.177 17.9497 78.3253 18.2259 78.3618 18.5671H77.6124C77.584 18.4046 77.5068 18.2665 77.3809 18.1528C77.2591 18.035 77.0905 17.9761 76.8752 17.9761C76.6803 17.9761 76.5239 18.0269 76.4061 18.1284C76.2883 18.2259 76.2294 18.3681 76.2294 18.5549C76.2294 18.7011 76.27 18.823 76.3513 18.9205C76.4325 19.0139 76.534 19.089 76.6559 19.1459C76.7818 19.1987 76.9524 19.2616 77.1677 19.3347C77.4398 19.42 77.6612 19.5074 77.8318 19.5967C78.0064 19.682 78.1527 19.8079 78.2704 19.9745C78.3923 20.141 78.4532 20.3603 78.4532 20.6325ZM80.3732 18.3782C80.6778 18.3782 80.9377 18.4533 81.153 18.6036C81.3683 18.7539 81.5206 18.9529 81.61 19.2007V18.4209H82.3045V21.7779H81.61V20.998C81.5206 21.2458 81.3683 21.4448 81.153 21.5951C80.9377 21.7454 80.6778 21.8205 80.3732 21.8205C80.0807 21.8205 79.8187 21.7515 79.5872 21.6134C79.3598 21.4753 79.181 21.2763 79.0511 21.0163C78.9211 20.7564 78.8561 20.4497 78.8561 20.0963C78.8561 19.747 78.9211 19.4424 79.0511 19.1824C79.181 18.9225 79.3598 18.7235 79.5872 18.5854C79.8187 18.4473 80.0807 18.3782 80.3732 18.3782ZM80.5864 18.9875C80.2777 18.9875 80.0299 19.087 79.8431 19.286C79.6603 19.481 79.5689 19.7511 79.5689 20.0963C79.5689 20.4416 79.6603 20.7137 79.8431 20.9127C80.0299 21.1077 80.2777 21.2052 80.5864 21.2052C80.7814 21.2052 80.956 21.1605 81.1104 21.0711C81.2647 20.9777 81.3866 20.8478 81.4759 20.6812C81.5653 20.5147 81.61 20.3197 81.61 20.0963C81.61 19.877 81.5653 19.6841 81.4759 19.5175C81.3866 19.3469 81.2647 19.217 81.1104 19.1276C80.956 19.0342 80.7814 18.9875 80.5864 18.9875ZM83.7107 17.2693V21.7779H83.0162V17.2693H83.7107ZM87.5488 19.9379C87.5488 20.0516 87.5407 20.1512 87.5244 20.2365H84.9412C84.9533 20.5817 85.0488 20.8376 85.2275 21.0041C85.4062 21.1707 85.6276 21.2539 85.8916 21.2539C86.1231 21.2539 86.3181 21.195 86.4765 21.0772C86.639 20.9595 86.7385 20.8031 86.775 20.6081H87.5183C87.4737 20.8437 87.3802 21.0529 87.2381 21.2356C87.0959 21.4184 86.9111 21.5626 86.6837 21.6682C86.4562 21.7698 86.2023 21.8205 85.9221 21.8205C85.5971 21.8205 85.3087 21.7515 85.0569 21.6134C84.8092 21.4753 84.6142 21.2763 84.472 21.0163C84.3299 20.7564 84.2588 20.4497 84.2588 20.0963C84.2588 19.747 84.3299 19.4424 84.472 19.1824C84.6142 18.9225 84.8092 18.7235 85.0569 18.5854C85.3087 18.4473 85.5971 18.3782 85.9221 18.3782C86.2511 18.3782 86.5374 18.4473 86.7811 18.5854C87.0289 18.7194 87.2178 18.9062 87.3477 19.1459C87.4818 19.3815 87.5488 19.6455 87.5488 19.9379ZM86.8482 19.9196C86.8563 19.7003 86.8177 19.5175 86.7324 19.3713C86.6512 19.221 86.5374 19.1114 86.3912 19.0423C86.249 18.9692 86.0927 18.9326 85.9221 18.9326C85.6499 18.9326 85.4225 19.0159 85.2397 19.1824C85.0569 19.349 84.9574 19.5947 84.9412 19.9196H86.8482ZM89.2003 18.3782C89.5943 18.3782 89.9091 18.4798 90.1447 18.6828C90.3843 18.8819 90.5306 19.1499 90.5834 19.4871H89.9254C89.8969 19.3043 89.8177 19.1581 89.6877 19.0484C89.5618 18.9347 89.3933 18.8778 89.1821 18.8778C89.0074 18.8778 88.8713 18.9205 88.7739 19.0057C88.6804 19.087 88.6337 19.1987 88.6337 19.3408C88.6337 19.4464 88.6682 19.5317 88.7373 19.5967C88.8063 19.6617 88.8916 19.7125 88.9932 19.749C89.0988 19.7856 89.247 19.8262 89.4379 19.8709C89.6898 19.9278 89.8929 19.9867 90.0472 20.0476C90.2056 20.1085 90.3397 20.206 90.4493 20.34C90.5631 20.47 90.6199 20.6487 90.6199 20.8762C90.6199 21.1564 90.5123 21.3839 90.297 21.5586C90.0858 21.7332 89.7994 21.8205 89.4379 21.8205C89.0196 21.8205 88.6804 21.7231 88.4205 21.5281C88.1646 21.3331 88.0102 21.061 87.9574 20.7117H88.6337C88.654 20.8945 88.7353 21.0427 88.8774 21.1564C89.0196 21.2702 89.2064 21.327 89.4379 21.327C89.6045 21.327 89.7345 21.2844 89.8279 21.1991C89.9254 21.1097 89.9741 20.998 89.9741 20.864C89.9741 20.7462 89.9375 20.6528 89.8644 20.5837C89.7913 20.5147 89.6999 20.4619 89.5903 20.4253C89.4806 20.3847 89.3303 20.3441 89.1394 20.3035C88.8957 20.2466 88.6967 20.1897 88.5423 20.1329C88.392 20.076 88.2621 19.9846 88.1524 19.8587C88.0468 19.7287 87.994 19.5541 87.994 19.3347C87.994 19.0504 88.0996 18.8209 88.3108 18.6463C88.5261 18.4676 88.8226 18.3782 89.2003 18.3782ZM96.1928 19.6211C96.1928 20.0557 96.1034 20.4355 95.9247 20.7604C95.7501 21.0813 95.4922 21.3311 95.151 21.5098C94.8138 21.6885 94.4097 21.7779 93.9385 21.7779H92.5007V17.4765H93.9385C94.4097 17.4765 94.8138 17.5659 95.151 17.7446C95.4922 17.9192 95.7501 18.167 95.9247 18.4879C96.1034 18.8088 96.1928 19.1865 96.1928 19.6211ZM93.8837 21.1504C94.3995 21.1504 94.7956 21.0163 95.0718 20.7482C95.348 20.4802 95.4861 20.1045 95.4861 19.6211C95.4861 19.1378 95.348 18.762 95.0718 18.494C94.7956 18.2259 94.3995 18.0919 93.8837 18.0919H93.1952V21.1504H93.8837ZM98.1163 18.3782C98.4209 18.3782 98.6809 18.4533 98.8961 18.6036C99.1114 18.7539 99.2637 18.9529 99.3531 19.2007V18.4209H100.048V21.7779H99.3531V20.998C99.2637 21.2458 99.1114 21.4448 98.8961 21.5951C98.6809 21.7454 98.4209 21.8205 98.1163 21.8205C97.8238 21.8205 97.5618 21.7515 97.3303 21.6134C97.1029 21.4753 96.9241 21.2763 96.7942 21.0163C96.6642 20.7564 96.5992 20.4497 96.5992 20.0963C96.5992 19.747 96.6642 19.4424 96.7942 19.1824C96.9241 18.9225 97.1029 18.7235 97.3303 18.5854C97.5618 18.4473 97.8238 18.3782 98.1163 18.3782ZM98.3295 18.9875C98.0208 18.9875 97.7731 19.087 97.5862 19.286C97.4034 19.481 97.312 19.7511 97.312 20.0963C97.312 20.4416 97.4034 20.7137 97.5862 20.9127C97.7731 21.1077 98.0208 21.2052 98.3295 21.2052C98.5245 21.2052 98.6991 21.1605 98.8535 21.0711C99.0078 20.9777 99.1297 20.8478 99.219 20.6812C99.3084 20.5147 99.3531 20.3197 99.3531 20.0963C99.3531 19.877 99.3084 19.6841 99.219 19.5175C99.1297 19.3469 99.0078 19.217 98.8535 19.1276C98.6991 19.0342 98.5245 18.9875 98.3295 18.9875ZM101.155 18.4209L102.161 20.8884L103.093 18.4209H103.867L101.838 23.3742H101.064L101.789 21.6987L100.375 18.4209H101.155ZM105.304 18.3782C105.698 18.3782 106.013 18.4798 106.248 18.6828C106.488 18.8819 106.634 19.1499 106.687 19.4871H106.029C106.001 19.3043 105.922 19.1581 105.792 19.0484C105.666 18.9347 105.497 18.8778 105.286 18.8778C105.111 18.8778 104.975 18.9205 104.878 19.0057C104.784 19.087 104.738 19.1987 104.738 19.3408C104.738 19.4464 104.772 19.5317 104.841 19.5967C104.91 19.6617 104.995 19.7125 105.097 19.749C105.203 19.7856 105.351 19.8262 105.542 19.8709C105.794 19.9278 105.997 19.9867 106.151 20.0476C106.309 20.1085 106.443 20.206 106.553 20.34C106.667 20.47 106.724 20.6487 106.724 20.8762C106.724 21.1564 106.616 21.3839 106.401 21.5586C106.19 21.7332 105.903 21.8205 105.542 21.8205C105.123 21.8205 104.784 21.7231 104.524 21.5281C104.268 21.3331 104.114 21.061 104.061 20.7117H104.738C104.758 20.8945 104.839 21.0427 104.981 21.1564C105.123 21.2702 105.31 21.327 105.542 21.327C105.708 21.327 105.838 21.2844 105.932 21.1991C106.029 21.1097 106.078 20.998 106.078 20.864C106.078 20.7462 106.041 20.6528 105.968 20.5837C105.895 20.5147 105.804 20.4619 105.694 20.4253C105.584 20.3847 105.434 20.3441 105.243 20.3035C105 20.2466 104.8 20.1897 104.646 20.1329C104.496 20.076 104.366 19.9846 104.256 19.8587C104.151 19.7287 104.098 19.5541 104.098 19.3347C104.098 19.0504 104.203 18.8209 104.415 18.6463C104.63 18.4676 104.926 18.3782 105.304 18.3782ZM108.416 19.3226C108.416 18.5427 108.564 17.8461 108.86 17.2328C109.161 16.6195 109.555 16.1239 110.042 15.7462H110.719V15.8193C109.634 16.7048 109.092 17.8725 109.092 19.3226C109.092 20.7726 109.634 21.9444 110.719 22.838V22.905H110.042C109.555 22.5232 109.161 22.0277 108.86 21.4184C108.564 20.8051 108.416 20.1065 108.416 19.3226ZM113.69 20.6325C113.69 20.8437 113.639 21.0407 113.537 21.2235C113.436 21.4022 113.281 21.5464 113.074 21.656C112.867 21.7657 112.613 21.8205 112.313 21.8205C112.02 21.8205 111.758 21.7698 111.527 21.6682C111.295 21.5626 111.11 21.4164 110.972 21.2296C110.834 21.0427 110.755 20.8274 110.735 20.5837H111.478C111.498 20.7706 111.577 20.931 111.716 21.0651C111.858 21.1991 112.047 21.2661 112.282 21.2661C112.493 21.2661 112.656 21.2092 112.77 21.0955C112.887 20.9818 112.946 20.8356 112.946 20.6568C112.946 20.5025 112.904 20.3766 112.818 20.2791C112.733 20.1776 112.627 20.0984 112.501 20.0415C112.376 19.9846 112.203 19.9196 111.984 19.8465C111.716 19.7612 111.496 19.6759 111.326 19.5906C111.159 19.5053 111.017 19.3815 110.899 19.219C110.781 19.0565 110.722 18.8433 110.722 18.5793C110.722 18.3477 110.779 18.1447 110.893 17.97C111.007 17.7953 111.169 17.6613 111.38 17.5679C111.592 17.4704 111.835 17.4217 112.112 17.4217C112.55 17.4217 112.898 17.5273 113.153 17.7385C113.413 17.9497 113.562 18.2259 113.598 18.5671H112.849C112.82 18.4046 112.743 18.2665 112.617 18.1528C112.495 18.035 112.327 17.9761 112.112 17.9761C111.917 17.9761 111.76 18.0269 111.642 18.1284C111.525 18.2259 111.466 18.3681 111.466 18.5549C111.466 18.7011 111.506 18.823 111.588 18.9205C111.669 19.0139 111.77 19.089 111.892 19.1459C112.018 19.1987 112.189 19.2616 112.404 19.3347C112.676 19.42 112.898 19.5074 113.068 19.5967C113.243 19.682 113.389 19.8079 113.507 19.9745C113.629 20.141 113.69 20.3603 113.69 20.6325ZM117.382 19.9379C117.382 20.0516 117.374 20.1512 117.358 20.2365H114.775C114.787 20.5817 114.882 20.8376 115.061 21.0041C115.24 21.1707 115.461 21.2539 115.725 21.2539C115.957 21.2539 116.152 21.195 116.31 21.0772C116.473 20.9595 116.572 20.8031 116.609 20.6081H117.352C117.307 20.8437 117.214 21.0529 117.072 21.2356C116.93 21.4184 116.745 21.5626 116.517 21.6682C116.29 21.7698 116.036 21.8205 115.756 21.8205C115.431 21.8205 115.142 21.7515 114.891 21.6134C114.643 21.4753 114.448 21.2763 114.306 21.0163C114.163 20.7564 114.092 20.4497 114.092 20.0963C114.092 19.747 114.163 19.4424 114.306 19.1824C114.448 18.9225 114.643 18.7235 114.891 18.5854C115.142 18.4473 115.431 18.3782 115.756 18.3782C116.085 18.3782 116.371 18.4473 116.615 18.5854C116.863 18.7194 117.051 18.9062 117.181 19.1459C117.315 19.3815 117.382 19.6455 117.382 19.9379ZM116.682 19.9196C116.69 19.7003 116.651 19.5175 116.566 19.3713C116.485 19.221 116.371 19.1114 116.225 19.0423C116.083 18.9692 115.926 18.9326 115.756 18.9326C115.484 18.9326 115.256 19.0159 115.073 19.1824C114.891 19.349 114.791 19.5947 114.775 19.9196H116.682ZM119.856 18.3782C120.149 18.3782 120.409 18.4473 120.636 18.5854C120.868 18.7235 121.049 18.9225 121.179 19.1824C121.309 19.4424 121.374 19.747 121.374 20.0963C121.374 20.4497 121.309 20.7564 121.179 21.0163C121.049 21.2763 120.868 21.4753 120.636 21.6134C120.409 21.7515 120.149 21.8205 119.856 21.8205C119.552 21.8205 119.292 21.7454 119.077 21.5951C118.861 21.4448 118.711 21.2458 118.626 20.998V23.3742H117.931V18.4209H118.626V19.2007C118.711 18.9529 118.861 18.7539 119.077 18.6036C119.292 18.4533 119.552 18.3782 119.856 18.3782ZM119.643 18.9875C119.448 18.9875 119.274 19.0342 119.119 19.1276C118.965 19.217 118.843 19.3469 118.754 19.5175C118.664 19.6841 118.62 19.877 118.62 20.0963C118.62 20.3197 118.664 20.5147 118.754 20.6812C118.843 20.8478 118.965 20.9777 119.119 21.0711C119.274 21.1605 119.448 21.2052 119.643 21.2052C119.952 21.2052 120.2 21.1077 120.387 20.9127C120.573 20.7137 120.667 20.4416 120.667 20.0963C120.667 19.7551 120.573 19.485 120.387 19.286C120.2 19.087 119.952 18.9875 119.643 18.9875ZM122.886 18.1284V17.4765H124.263V21.7779H123.531V18.1284H122.886ZM124.766 20.8518V20.2669L126.905 17.4399H127.648V20.2426H128.251V20.8518H127.648V21.7779H126.947V20.8518H124.766ZM126.996 18.2685L125.485 20.2426H126.996V18.2685ZM130.754 19.2799V19.8648H128.243V19.2799H130.754ZM134.506 20.6325C134.506 20.8437 134.455 21.0407 134.354 21.2235C134.252 21.4022 134.098 21.5464 133.891 21.656C133.683 21.7657 133.429 21.8205 133.129 21.8205C132.836 21.8205 132.574 21.7698 132.343 21.6682C132.111 21.5626 131.927 21.4164 131.789 21.2296C131.65 21.0427 131.571 20.8274 131.551 20.5837H132.294C132.315 20.7706 132.394 20.931 132.532 21.0651C132.674 21.1991 132.863 21.2661 133.098 21.2661C133.31 21.2661 133.472 21.2092 133.586 21.0955C133.704 20.9818 133.763 20.8356 133.763 20.6568C133.763 20.5025 133.72 20.3766 133.635 20.2791C133.549 20.1776 133.444 20.0984 133.318 20.0415C133.192 19.9846 133.019 19.9196 132.8 19.8465C132.532 19.7612 132.313 19.6759 132.142 19.5906C131.975 19.5053 131.833 19.3815 131.715 19.219C131.598 19.0565 131.539 18.8433 131.539 18.5793C131.539 18.3477 131.596 18.1447 131.709 17.97C131.823 17.7953 131.986 17.6613 132.197 17.5679C132.408 17.4704 132.652 17.4217 132.928 17.4217C133.367 17.4217 133.714 17.5273 133.97 17.7385C134.23 17.9497 134.378 18.2259 134.414 18.5671H133.665C133.637 18.4046 133.559 18.2665 133.434 18.1528C133.312 18.035 133.143 17.9761 132.928 17.9761C132.733 17.9761 132.577 18.0269 132.459 18.1284C132.341 18.2259 132.282 18.3681 132.282 18.5549C132.282 18.7011 132.323 18.823 132.404 18.9205C132.485 19.0139 132.587 19.089 132.709 19.1459C132.834 19.1987 133.005 19.2616 133.22 19.3347C133.492 19.42 133.714 19.5074 133.884 19.5967C134.059 19.682 134.205 19.8079 134.323 19.9745C134.445 20.141 134.506 20.3603 134.506 20.6325ZM138.199 19.9379C138.199 20.0516 138.191 20.1512 138.174 20.2365H135.591C135.603 20.5817 135.699 20.8376 135.877 21.0041C136.056 21.1707 136.278 21.2539 136.542 21.2539C136.773 21.2539 136.968 21.195 137.126 21.0772C137.289 20.9595 137.388 20.8031 137.425 20.6081H138.168C138.124 20.8437 138.03 21.0529 137.888 21.2356C137.746 21.4184 137.561 21.5626 137.334 21.6682C137.106 21.7698 136.852 21.8205 136.572 21.8205C136.247 21.8205 135.959 21.7515 135.707 21.6134C135.459 21.4753 135.264 21.2763 135.122 21.0163C134.98 20.7564 134.909 20.4497 134.909 20.0963C134.909 19.747 134.98 19.4424 135.122 19.1824C135.264 18.9225 135.459 18.7235 135.707 18.5854C135.959 18.4473 136.247 18.3782 136.572 18.3782C136.901 18.3782 137.187 18.4473 137.431 18.5854C137.679 18.7194 137.868 18.9062 137.998 19.1459C138.132 19.3815 138.199 19.6455 138.199 19.9379ZM137.498 19.9196C137.506 19.7003 137.468 19.5175 137.382 19.3713C137.301 19.221 137.187 19.1114 137.041 19.0423C136.899 18.9692 136.743 18.9326 136.572 18.9326C136.3 18.9326 136.072 19.0159 135.89 19.1824C135.707 19.349 135.607 19.5947 135.591 19.9196H137.498ZM140.673 18.3782C140.965 18.3782 141.225 18.4473 141.453 18.5854C141.684 18.7235 141.865 18.9225 141.995 19.1824C142.125 19.4424 142.19 19.747 142.19 20.0963C142.19 20.4497 142.125 20.7564 141.995 21.0163C141.865 21.2763 141.684 21.4753 141.453 21.6134C141.225 21.7515 140.965 21.8205 140.673 21.8205C140.368 21.8205 140.108 21.7454 139.893 21.5951C139.678 21.4448 139.527 21.2458 139.442 20.998V23.3742H138.748V18.4209H139.442V19.2007C139.527 18.9529 139.678 18.7539 139.893 18.6036C140.108 18.4533 140.368 18.3782 140.673 18.3782ZM140.46 18.9875C140.265 18.9875 140.09 19.0342 139.936 19.1276C139.781 19.217 139.659 19.3469 139.57 19.5175C139.481 19.6841 139.436 19.877 139.436 20.0963C139.436 20.3197 139.481 20.5147 139.57 20.6812C139.659 20.8478 139.781 20.9777 139.936 21.0711C140.09 21.1605 140.265 21.2052 140.46 21.2052C140.768 21.2052 141.016 21.1077 141.203 20.9127C141.39 20.7137 141.483 20.4416 141.483 20.0963C141.483 19.7551 141.39 19.485 141.203 19.286C141.016 19.087 140.768 18.9875 140.46 18.9875ZM143.866 21.2356C144.524 20.7848 145.05 20.3441 145.444 19.9135C145.842 19.4789 146.041 19.0768 146.041 18.7072C146.041 18.4879 145.987 18.3132 145.877 18.1832C145.771 18.0533 145.599 17.9883 145.359 17.9883C145.111 17.9883 144.925 18.0695 144.799 18.232C144.673 18.3904 144.602 18.6179 144.585 18.9144H143.909C143.937 18.4229 144.088 18.0472 144.36 17.7872C144.636 17.5273 144.987 17.3973 145.414 17.3973C145.832 17.3973 146.159 17.509 146.395 17.7324C146.634 17.9517 146.754 18.2564 146.754 18.6463C146.754 18.959 146.657 19.2759 146.462 19.5967C146.271 19.9176 146.027 20.2141 145.731 20.4863C145.434 20.7543 145.128 20.9859 144.811 21.1808H146.852V21.7474H143.866V21.2356ZM149.888 17.9761L148.286 21.7779H147.555L149.182 18.0553H147.049V17.4521H149.888V17.9761ZM150.771 21.3027C150.844 21.4895 150.88 21.6824 150.88 21.8815C150.88 22.1089 150.821 22.2937 150.704 22.4359C150.586 22.5821 150.407 22.6552 150.168 22.6552V22.375C150.269 22.375 150.344 22.3486 150.393 22.2958C150.442 22.243 150.466 22.1536 150.466 22.0277V21.9729H150.113V21.3027H150.771ZM152.53 21.2356C153.188 20.7848 153.714 20.3441 154.108 19.9135C154.506 19.4789 154.705 19.0768 154.705 18.7072C154.705 18.4879 154.65 18.3132 154.54 18.1832C154.435 18.0533 154.262 17.9883 154.023 17.9883C153.775 17.9883 153.588 18.0695 153.462 18.232C153.336 18.3904 153.265 18.6179 153.249 18.9144H152.573C152.601 18.4229 152.751 18.0472 153.023 17.7872C153.3 17.5273 153.651 17.3973 154.077 17.3973C154.496 17.3973 154.823 17.509 155.058 17.7324C155.298 17.9517 155.418 18.2564 155.418 18.6463C155.418 18.959 155.32 19.2759 155.125 19.5967C154.934 19.9176 154.691 20.2141 154.394 20.4863C154.098 20.7543 153.791 20.9859 153.474 21.1808H155.515V21.7474H152.53V21.2356ZM156.304 21.2113C156.06 20.8214 155.938 20.2832 155.938 19.5967C155.938 18.9144 156.06 18.3802 156.304 17.9944C156.547 17.6085 156.953 17.4156 157.522 17.4156C158.091 17.4156 158.497 17.6105 158.741 18.0005C158.984 18.3863 159.106 18.9184 159.106 19.5967C159.106 20.2791 158.984 20.8153 158.741 21.2052C158.497 21.5951 158.091 21.7901 157.522 21.7901C156.953 21.7901 156.547 21.5971 156.304 21.2113ZM158.229 20.7361C158.351 20.472 158.412 20.0923 158.412 19.5967C158.412 19.1093 158.351 18.7356 158.229 18.4757C158.107 18.2117 157.871 18.0797 157.522 18.0797C157.169 18.0797 156.931 18.2096 156.809 18.4696C156.687 18.7295 156.626 19.1053 156.626 19.5967C156.626 20.0923 156.687 20.472 156.809 20.7361C156.931 21.0001 157.169 21.1321 157.522 21.1321C157.871 21.1321 158.107 21.0001 158.229 20.7361ZM159.539 21.2356C160.197 20.7848 160.723 20.3441 161.117 19.9135C161.515 19.4789 161.714 19.0768 161.714 18.7072C161.714 18.4879 161.659 18.3132 161.55 18.1832C161.444 18.0533 161.271 17.9883 161.032 17.9883C160.784 17.9883 160.597 18.0695 160.471 18.232C160.345 18.3904 160.274 18.6179 160.258 18.9144H159.582C159.61 18.4229 159.76 18.0472 160.032 17.7872C160.309 17.5273 160.66 17.3973 161.087 17.3973C161.505 17.3973 161.832 17.509 162.067 17.7324C162.307 17.9517 162.427 18.2564 162.427 18.6463C162.427 18.959 162.329 19.2759 162.134 19.5967C161.944 19.9176 161.7 20.2141 161.403 20.4863C161.107 20.7543 160.8 20.9859 160.483 21.1808H162.524V21.7474H159.539V21.2356ZM162.844 20.8518V20.2669L164.982 17.4399H165.725V20.2426H166.329V20.8518H165.725V21.7779H165.025V20.8518H162.844ZM165.073 18.2685L163.562 20.2426H165.073V18.2685ZM168.533 19.3226C168.533 20.1024 168.382 20.801 168.082 21.4184C167.785 22.0318 167.393 22.5273 166.906 22.905H166.23V22.838C167.314 21.9485 167.856 20.7767 167.856 19.3226C167.856 17.8685 167.314 16.7007 166.23 15.8193V15.7462H166.906C167.393 16.1199 167.785 16.6154 168.082 17.2328C168.382 17.8461 168.533 18.5427 168.533 19.3226Z" fill="#061722"/>
<g clip-path="url(#clip0_12130_5110)">
<path d="M175.278 20.2933V19.2779M175.278 18.2624H175.28M177.816 19.2779C177.816 20.6799 176.68 21.8164 175.278 21.8164C173.876 21.8164 172.739 20.6799 172.739 19.2779C172.739 17.8758 173.876 16.7393 175.278 16.7393C176.68 16.7393 177.816 17.8758 177.816 19.2779Z" stroke="#919BA1" stroke-width="0.571184" stroke-linecap="round" stroke-linejoin="round"/>
</g>
<ellipse cx="109.217" cy="81.0774" rx="34.1976" ry="33.9812" stroke="#EEF0F1" stroke-width="6.49322"/>
<path d="M109 47.003C109 45.1418 110.512 43.6173 112.365 43.7846C116.939 44.1973 121.408 45.4488 125.544 47.4863C130.691 50.0212 135.186 53.7049 138.684 58.253C142.181 62.8011 144.586 68.0919 145.714 73.7172C146.841 79.3424 146.661 85.1515 145.188 90.6962C143.714 96.2408 140.986 101.373 137.214 105.695C133.442 110.018 128.727 113.417 123.433 115.628C118.139 117.839 112.408 118.805 106.682 118.45C102.079 118.164 97.5791 117.032 93.4042 115.119C91.7121 114.344 91.1568 112.27 92.0809 110.654C93.0051 109.039 95.0583 108.497 96.7654 109.239C100.031 110.658 103.528 111.501 107.099 111.723C111.794 112.014 116.494 111.222 120.835 109.409C125.176 107.596 129.042 104.809 132.135 101.264C135.228 97.7194 137.465 93.5114 138.674 88.9648C139.882 84.4182 140.03 79.6547 139.105 75.042C138.18 70.4293 136.208 66.0908 133.341 62.3613C130.473 58.6319 126.787 55.6113 122.566 53.5326C119.356 51.9517 115.903 50.9478 112.363 50.5577C110.513 50.3539 109 48.8642 109 47.003Z" fill="#8FD9FF"/>
<ellipse cx="109.649" cy="81.5104" rx="25.1071" ry="24.8907" stroke="#EEF0F1" stroke-width="6.20049"/>
<path d="M109.433 56.6641C109.433 54.966 110.814 53.5719 112.501 53.7585C117.338 54.2934 121.971 56.0859 125.926 58.9817C130.712 62.4853 134.257 67.4217 136.049 73.0756C137.841 78.7295 137.786 84.8071 135.891 90.4275C133.997 96.0479 130.362 100.919 125.514 104.335C120.665 107.751 114.855 109.534 108.925 109.427C102.995 109.319 97.2535 107.325 92.5324 103.735C87.8114 100.145 84.3561 95.1452 82.6675 89.4596C81.2718 84.7604 81.1429 79.7948 82.2672 75.0599C82.6595 73.4078 84.437 72.5768 86.036 73.1483C87.635 73.7198 88.4447 75.4781 88.1039 77.1417C87.3889 80.6328 87.5387 84.2627 88.5622 87.7089C89.8789 92.1423 92.5732 96.0412 96.2545 98.8405C99.9358 101.64 104.413 103.194 109.037 103.278C113.661 103.362 118.192 101.972 121.972 99.3082C125.753 96.6445 128.587 92.8461 130.064 88.4636C131.541 84.081 131.584 79.3419 130.187 74.9333C128.79 70.5246 126.025 66.6753 122.294 63.9433C119.393 61.8197 116.025 60.457 112.497 59.9554C110.816 59.7164 109.433 58.3621 109.433 56.6641Z" fill="#AD83FF"/>
<circle cx="109.649" cy="81.294" r="16.4495" stroke="#EEF0F1" stroke-width="4.10137"/>
<path d="M109.65 64.7859C109.65 63.6228 110.595 62.6676 111.751 62.7989C113.854 63.0379 115.906 63.6344 117.817 64.5676C120.361 65.8097 122.588 67.6155 124.328 69.8478C126.069 72.08 127.278 74.6799 127.862 77.4495C128.447 80.2192 128.392 83.0857 127.702 85.831C127.012 88.5763 125.705 91.128 123.88 93.2922C122.056 95.4563 119.762 97.1758 117.172 98.3198C114.583 99.4638 111.767 100.002 108.939 99.8941C106.813 99.8129 104.723 99.3682 102.757 98.5845C101.677 98.1538 101.295 96.865 101.845 95.8401C102.394 94.8152 103.668 94.4464 104.762 94.8411C106.152 95.3425 107.615 95.6285 109.099 95.6853C111.288 95.7689 113.467 95.3523 115.47 94.4672C117.473 93.582 119.248 92.2516 120.66 90.5772C122.072 88.9028 123.083 86.9284 123.617 84.8043C124.151 82.6802 124.193 80.4623 123.741 78.3194C123.289 76.1764 122.354 74.1649 121.007 72.4378C119.66 70.7106 117.937 69.3134 115.969 68.3524C114.634 67.7004 113.21 67.2608 111.748 67.0455C110.597 66.876 109.65 65.9489 109.65 64.7859Z" fill="#FDBA74"/>
<circle cx="57.5457" cy="127.614" r="1.56721" fill="#8FD9FF"/>
<path d="M61.6396 129.294C62.1575 128.947 62.5718 128.603 62.8825 128.262C63.1933 127.917 63.3486 127.598 63.3486 127.302C63.3486 127.119 63.3014 126.973 63.207 126.863C63.1156 126.751 62.9663 126.694 62.7592 126.694C62.5459 126.694 62.3845 126.763 62.2748 126.9C62.1651 127.034 62.1042 127.22 62.092 127.457H61.6808C61.7021 127.098 61.8133 126.822 62.0143 126.63C62.2154 126.435 62.4743 126.338 62.7911 126.338C63.0927 126.338 63.3319 126.419 63.5085 126.58C63.6852 126.742 63.7736 126.97 63.7736 127.265C63.7736 127.509 63.6944 127.757 63.536 128.01C63.3806 128.26 63.1841 128.493 62.9465 128.709C62.7119 128.923 62.4698 129.104 62.22 129.253H63.8558V129.596H61.6396V129.294ZM64.4653 129.194C64.2947 128.904 64.2094 128.501 64.2094 127.983C64.2094 127.468 64.2947 127.067 64.4653 126.781C64.6359 126.492 64.9314 126.347 65.3518 126.347C65.7722 126.347 66.0677 126.492 66.2383 126.781C66.4119 127.071 66.4987 127.471 66.4987 127.983C66.4987 128.501 66.4119 128.904 66.2383 129.194C66.0677 129.483 65.7722 129.628 65.3518 129.628C64.9314 129.628 64.6359 129.483 64.4653 129.194ZM66.0281 128.65C66.0677 128.47 66.0875 128.248 66.0875 127.983C66.0875 127.721 66.0677 127.502 66.0281 127.325C65.9915 127.148 65.9199 127.008 65.8133 126.905C65.7067 126.798 65.5529 126.745 65.3518 126.745C65.1538 126.745 65.0015 126.798 64.8948 126.905C64.7882 127.008 64.7151 127.148 64.6755 127.325C64.639 127.502 64.6207 127.721 64.6207 127.983C64.6207 128.248 64.639 128.47 64.6755 128.65C64.7151 128.827 64.7882 128.968 64.8948 129.075C65.0015 129.182 65.1538 129.235 65.3518 129.235C65.5529 129.235 65.7067 129.182 65.8133 129.075C65.9199 128.968 65.9915 128.827 66.0281 128.65ZM66.8563 129.294C67.3742 128.947 67.7885 128.603 68.0992 128.262C68.4099 127.917 68.5653 127.598 68.5653 127.302C68.5653 127.119 68.5181 126.973 68.4237 126.863C68.3323 126.751 68.183 126.694 67.9758 126.694C67.7626 126.694 67.6012 126.763 67.4915 126.9C67.3818 127.034 67.3209 127.22 67.3087 127.457H66.8975C66.9188 127.098 67.03 126.822 67.231 126.63C67.4321 126.435 67.691 126.338 68.0078 126.338C68.3094 126.338 68.5486 126.419 68.7252 126.58C68.9019 126.742 68.9903 126.97 68.9903 127.265C68.9903 127.509 68.9111 127.757 68.7527 128.01C68.5973 128.26 68.4008 128.493 68.1632 128.709C67.9286 128.923 67.6864 129.104 67.4366 129.253H69.0725V129.596H66.8563V129.294ZM69.3073 128.874V128.527L70.9615 126.37H71.4093V128.513H71.8845V128.874H71.4093V129.614H70.9889V128.874H69.3073ZM71.0163 126.877L69.746 128.513H71.0163V126.877ZM73.6671 127.764V128.115H71.8393V127.764H73.6671ZM74.7922 128.709C74.8196 128.901 74.8866 129.049 74.9932 129.153C75.0999 129.256 75.2461 129.308 75.4319 129.308C75.6878 129.308 75.8812 129.209 76.0122 129.011C76.1432 128.813 76.2087 128.499 76.2087 128.07C76.2087 127.987 76.2072 127.925 76.2041 127.882C76.1615 128.065 76.0579 128.211 75.8934 128.321C75.7289 128.431 75.5355 128.486 75.3131 128.486C74.9932 128.486 74.7419 128.39 74.5591 128.198C74.3764 128.006 74.285 127.738 74.285 127.393C74.285 127.192 74.3246 127.01 74.4038 126.845C74.483 126.681 74.6033 126.551 74.7648 126.457C74.9293 126.359 75.1318 126.31 75.3725 126.31C75.8355 126.31 76.1524 126.454 76.3229 126.74C76.4966 127.023 76.5834 127.413 76.5834 127.91C76.5834 128.476 76.4951 128.909 76.3184 129.208C76.1417 129.503 75.8462 129.651 75.4319 129.651C75.1242 129.651 74.882 129.564 74.7054 129.39C74.5317 129.214 74.4297 128.987 74.3992 128.709H74.7922ZM76.163 127.457C76.163 127.238 76.0975 127.052 75.9665 126.9C75.8386 126.748 75.6451 126.671 75.3862 126.671C75.173 126.671 75.0024 126.735 74.8744 126.863C74.7465 126.991 74.6825 127.17 74.6825 127.398C74.6825 127.642 74.7465 127.829 74.8744 127.96C75.0024 128.091 75.1775 128.157 75.3999 128.157C75.5279 128.157 75.6497 128.131 75.7655 128.079C75.8843 128.027 75.9802 127.948 76.0533 127.841C76.1265 127.735 76.163 127.607 76.163 127.457ZM78.509 127.764V128.115H76.6812V127.764H78.509ZM78.9623 126.781V126.393H79.8853V129.614H79.4467V126.781H78.9623ZM80.2651 128.874V128.527L81.9193 126.37H82.3671V128.513H82.8423V128.874H82.3671V129.614H81.9467V128.874H80.2651ZM81.9741 126.877L80.7038 128.513H81.9741V126.877Z" fill="#5E6E78"/>
<circle cx="96.9549" cy="127.614" r="1.56721" fill="#AD83FF"/>
<path d="M101.049 129.294C101.567 128.947 101.981 128.603 102.292 128.262C102.603 127.917 102.758 127.598 102.758 127.302C102.758 127.119 102.711 126.973 102.616 126.863C102.525 126.751 102.376 126.694 102.169 126.694C101.955 126.694 101.794 126.763 101.684 126.9C101.575 127.034 101.514 127.22 101.501 127.457H101.09C101.112 127.098 101.223 126.822 101.424 126.63C101.625 126.435 101.884 126.338 102.201 126.338C102.502 126.338 102.741 126.419 102.918 126.58C103.095 126.742 103.183 126.97 103.183 127.265C103.183 127.509 103.104 127.757 102.945 128.01C102.79 128.26 102.594 128.493 102.356 128.709C102.121 128.923 101.879 129.104 101.629 129.253H103.265V129.596H101.049V129.294ZM103.875 129.194C103.704 128.904 103.619 128.501 103.619 127.983C103.619 127.468 103.704 127.067 103.875 126.781C104.045 126.492 104.341 126.347 104.761 126.347C105.182 126.347 105.477 126.492 105.648 126.781C105.821 127.071 105.908 127.471 105.908 127.983C105.908 128.501 105.821 128.904 105.648 129.194C105.477 129.483 105.182 129.628 104.761 129.628C104.341 129.628 104.045 129.483 103.875 129.194ZM105.437 128.65C105.477 128.47 105.497 128.248 105.497 127.983C105.497 127.721 105.477 127.502 105.437 127.325C105.401 127.148 105.329 127.008 105.223 126.905C105.116 126.798 104.962 126.745 104.761 126.745C104.563 126.745 104.411 126.798 104.304 126.905C104.198 127.008 104.125 127.148 104.085 127.325C104.048 127.502 104.03 127.721 104.03 127.983C104.03 128.248 104.048 128.47 104.085 128.65C104.125 128.827 104.198 128.968 104.304 129.075C104.411 129.182 104.563 129.235 104.761 129.235C104.962 129.235 105.116 129.182 105.223 129.075C105.329 128.968 105.401 128.827 105.437 128.65ZM106.266 129.294C106.784 128.947 107.198 128.603 107.509 128.262C107.819 127.917 107.975 127.598 107.975 127.302C107.975 127.119 107.928 126.973 107.833 126.863C107.742 126.751 107.592 126.694 107.385 126.694C107.172 126.694 107.011 126.763 106.901 126.9C106.791 127.034 106.73 127.22 106.718 127.457H106.307C106.328 127.098 106.439 126.822 106.64 126.63C106.842 126.435 107.1 126.338 107.417 126.338C107.719 126.338 107.958 126.419 108.135 126.58C108.311 126.742 108.4 126.97 108.4 127.265C108.4 127.509 108.32 127.757 108.162 128.01C108.007 128.26 107.81 128.493 107.573 128.709C107.338 128.923 107.096 129.104 106.846 129.253H108.482V129.596H106.266V129.294ZM108.717 128.874V128.527L110.371 126.37H110.819V128.513H111.294V128.874H110.819V129.614H110.398V128.874H108.717ZM110.426 126.877L109.155 128.513H110.426V126.877ZM113.077 127.764V128.115H111.249V127.764H113.077ZM114.202 128.709C114.229 128.901 114.296 129.049 114.403 129.153C114.509 129.256 114.655 129.308 114.841 129.308C115.097 129.308 115.291 129.209 115.422 129.011C115.553 128.813 115.618 128.499 115.618 128.07C115.618 127.987 115.617 127.925 115.614 127.882C115.571 128.065 115.467 128.211 115.303 128.321C115.138 128.431 114.945 128.486 114.723 128.486C114.403 128.486 114.151 128.39 113.969 128.198C113.786 128.006 113.694 127.738 113.694 127.393C113.694 127.192 113.734 127.01 113.813 126.845C113.892 126.681 114.013 126.551 114.174 126.457C114.339 126.359 114.541 126.31 114.782 126.31C115.245 126.31 115.562 126.454 115.732 126.74C115.906 127.023 115.993 127.413 115.993 127.91C115.993 128.476 115.904 128.909 115.728 129.208C115.551 129.503 115.256 129.651 114.841 129.651C114.534 129.651 114.291 129.564 114.115 129.39C113.941 129.214 113.839 128.987 113.809 128.709H114.202ZM115.572 127.457C115.572 127.238 115.507 127.052 115.376 126.9C115.248 126.748 115.055 126.671 114.796 126.671C114.582 126.671 114.412 126.735 114.284 126.863C114.156 126.991 114.092 127.17 114.092 127.398C114.092 127.642 114.156 127.829 114.284 127.96C114.412 128.091 114.587 128.157 114.809 128.157C114.937 128.157 115.059 128.131 115.175 128.079C115.294 128.027 115.39 127.948 115.463 127.841C115.536 127.735 115.572 127.607 115.572 127.457ZM117.918 127.764V128.115H116.091V127.764H117.918ZM118.372 126.781V126.393H119.295V129.614H118.856V126.781H118.372ZM119.675 128.874V128.527L121.329 126.37H121.776V128.513H122.252V128.874H121.776V129.614H121.356V128.874H119.675ZM121.384 126.877L120.113 128.513H121.384V126.877Z" fill="#5E6E78"/>
<circle cx="136.364" cy="127.614" r="1.56721" fill="#FDBA74"/>
<path d="M140.458 129.294C140.976 128.947 141.391 128.603 141.701 128.262C142.012 127.917 142.167 127.598 142.167 127.302C142.167 127.119 142.12 126.973 142.026 126.863C141.934 126.751 141.785 126.694 141.578 126.694C141.365 126.694 141.203 126.763 141.094 126.9C140.984 127.034 140.923 127.22 140.911 127.457H140.5C140.521 127.098 140.632 126.822 140.833 126.63C141.034 126.435 141.293 126.338 141.61 126.338C141.912 126.338 142.151 126.419 142.327 126.58C142.504 126.742 142.592 126.97 142.592 127.265C142.592 127.509 142.513 127.757 142.355 128.01C142.199 128.26 142.003 128.493 141.765 128.709C141.531 128.923 141.289 129.104 141.039 129.253H142.675V129.596H140.458V129.294ZM143.284 129.194C143.114 128.904 143.028 128.501 143.028 127.983C143.028 127.468 143.114 127.067 143.284 126.781C143.455 126.492 143.75 126.347 144.171 126.347C144.591 126.347 144.887 126.492 145.057 126.781C145.231 127.071 145.318 127.471 145.318 127.983C145.318 128.501 145.231 128.904 145.057 129.194C144.887 129.483 144.591 129.628 144.171 129.628C143.75 129.628 143.455 129.483 143.284 129.194ZM144.847 128.65C144.887 128.47 144.906 128.248 144.906 127.983C144.906 127.721 144.887 127.502 144.847 127.325C144.81 127.148 144.739 127.008 144.632 126.905C144.526 126.798 144.372 126.745 144.171 126.745C143.973 126.745 143.82 126.798 143.714 126.905C143.607 127.008 143.534 127.148 143.494 127.325C143.458 127.502 143.44 127.721 143.44 127.983C143.44 128.248 143.458 128.47 143.494 128.65C143.534 128.827 143.607 128.968 143.714 129.075C143.82 129.182 143.973 129.235 144.171 129.235C144.372 129.235 144.526 129.182 144.632 129.075C144.739 128.968 144.81 128.827 144.847 128.65ZM145.675 129.294C146.193 128.947 146.607 128.603 146.918 128.262C147.229 127.917 147.384 127.598 147.384 127.302C147.384 127.119 147.337 126.973 147.243 126.863C147.151 126.751 147.002 126.694 146.795 126.694C146.581 126.694 146.42 126.763 146.31 126.9C146.201 127.034 146.14 127.22 146.128 127.457H145.716C145.738 127.098 145.849 126.822 146.05 126.63C146.251 126.435 146.51 126.338 146.827 126.338C147.128 126.338 147.367 126.419 147.544 126.58C147.721 126.742 147.809 126.97 147.809 127.265C147.809 127.509 147.73 127.757 147.572 128.01C147.416 128.26 147.22 128.493 146.982 128.709C146.747 128.923 146.505 129.104 146.255 129.253H147.891V129.596H145.675V129.294ZM148.126 128.874V128.527L149.78 126.37H150.228V128.513H150.703V128.874H150.228V129.614H149.808V128.874H148.126ZM149.835 126.877L148.565 128.513H149.835V126.877ZM152.486 127.764V128.115H150.658V127.764H152.486ZM153.611 128.709C153.638 128.901 153.705 129.049 153.812 129.153C153.919 129.256 154.065 129.308 154.251 129.308C154.507 129.308 154.7 129.209 154.831 129.011C154.962 128.813 155.028 128.499 155.028 128.07C155.028 127.987 155.026 127.925 155.023 127.882C154.98 128.065 154.877 128.211 154.712 128.321C154.548 128.431 154.354 128.486 154.132 128.486C153.812 128.486 153.561 128.39 153.378 128.198C153.195 128.006 153.104 127.738 153.104 127.393C153.104 127.192 153.143 127.01 153.223 126.845C153.302 126.681 153.422 126.551 153.584 126.457C153.748 126.359 153.951 126.31 154.191 126.31C154.654 126.31 154.971 126.454 155.142 126.74C155.315 127.023 155.402 127.413 155.402 127.91C155.402 128.476 155.314 128.909 155.137 129.208C154.961 129.503 154.665 129.651 154.251 129.651C153.943 129.651 153.701 129.564 153.524 129.39C153.351 129.214 153.249 128.987 153.218 128.709H153.611ZM154.982 127.457C154.982 127.238 154.916 127.052 154.785 126.9C154.657 126.748 154.464 126.671 154.205 126.671C153.992 126.671 153.821 126.735 153.693 126.863C153.565 126.991 153.501 127.17 153.501 127.398C153.501 127.642 153.565 127.829 153.693 127.96C153.821 128.091 153.996 128.157 154.219 128.157C154.347 128.157 154.469 128.131 154.584 128.079C154.703 128.027 154.799 127.948 154.872 127.841C154.945 127.735 154.982 127.607 154.982 127.457ZM157.328 127.764V128.115H155.5V127.764H157.328ZM157.781 126.781V126.393H158.704V129.614H158.266V126.781H157.781ZM159.084 128.874V128.527L160.738 126.37H161.186V128.513H161.661V128.874H161.186V129.614H160.766V128.874H159.084ZM160.793 126.877L159.523 128.513H160.793V126.877Z" fill="#5E6E78"/>
<defs>
<clipPath id="clip0_12130_5110">
<rect width="6.09263" height="6.09263" fill="white" transform="translate(172.232 16.2316)"/>
</clipPath>
</defs>
</svg>
