<svg width="218" height="144" viewBox="0 0 218 144" fill="none" xmlns="http://www.w3.org/2000/svg">
<rect x="0.5" y="0.5" width="217" height="143" rx="8.5" fill="white"/>
<rect x="0.5" y="0.5" width="217" height="143" rx="8.5" stroke="#EEF0F1"/>
<path d="M19.0525 17.4765L17.9802 21.7779H17.1272L16.2194 18.4513L15.3116 21.7779H14.4587L13.3864 17.4765H14.1479L14.8912 20.9737L15.8356 17.4765H16.6033L17.5476 20.9737L18.2909 17.4765H19.0525ZM22.6721 19.9379C22.6721 20.0516 22.664 20.1512 22.6477 20.2365H20.0644C20.0766 20.5817 20.1721 20.8376 20.3508 21.0041C20.5295 21.1707 20.7509 21.2539 21.0149 21.2539C21.2464 21.2539 21.4414 21.195 21.5998 21.0772C21.7623 20.9595 21.8618 20.8031 21.8983 20.6081H22.6416C22.597 20.8437 22.5035 21.0529 22.3614 21.2356C22.2192 21.4184 22.0344 21.5626 21.8069 21.6682C21.5795 21.7698 21.3256 21.8205 21.0454 21.8205C20.7204 21.8205 20.432 21.7515 20.1802 21.6134C19.9324 21.4753 19.7375 21.2763 19.5953 21.0163C19.4532 20.7564 19.3821 20.4497 19.3821 20.0963C19.3821 19.747 19.4532 19.4424 19.5953 19.1824C19.7375 18.9225 19.9324 18.7235 20.1802 18.5854C20.432 18.4473 20.7204 18.3782 21.0454 18.3782C21.3744 18.3782 21.6607 18.4473 21.9044 18.5854C22.1522 18.7194 22.3411 18.9062 22.471 19.1459C22.6051 19.3815 22.6721 19.6455 22.6721 19.9379ZM21.9714 19.9196C21.9796 19.7003 21.941 19.5175 21.8557 19.3713C21.7744 19.221 21.6607 19.1114 21.5145 19.0423C21.3723 18.9692 21.216 18.9326 21.0454 18.9326C20.7732 18.9326 20.5458 19.0159 20.363 19.1824C20.1802 19.349 20.0807 19.5947 20.0644 19.9196H21.9714ZM26.3403 19.9379C26.3403 20.0516 26.3322 20.1512 26.3159 20.2365H23.7326C23.7448 20.5817 23.8403 20.8376 24.019 21.0041C24.1977 21.1707 24.4191 21.2539 24.6831 21.2539C24.9146 21.2539 25.1096 21.195 25.268 21.0772C25.4305 20.9595 25.53 20.8031 25.5665 20.6081H26.3098C26.2651 20.8437 26.1717 21.0529 26.0296 21.2356C25.8874 21.4184 25.7026 21.5626 25.4751 21.6682C25.2477 21.7698 24.9938 21.8205 24.7136 21.8205C24.3886 21.8205 24.1002 21.7515 23.8484 21.6134C23.6006 21.4753 23.4057 21.2763 23.2635 21.0163C23.1213 20.7564 23.0503 20.4497 23.0503 20.0963C23.0503 19.747 23.1213 19.4424 23.2635 19.1824C23.4057 18.9225 23.6006 18.7235 23.8484 18.5854C24.1002 18.4473 24.3886 18.3782 24.7136 18.3782C25.0426 18.3782 25.3289 18.4473 25.5726 18.5854C25.8204 18.7194 26.0092 18.9062 26.1392 19.1459C26.2733 19.3815 26.3403 19.6455 26.3403 19.9379ZM25.6396 19.9196C25.6478 19.7003 25.6092 19.5175 25.5239 19.3713C25.4426 19.221 25.3289 19.1114 25.1827 19.0423C25.0405 18.9692 24.8841 18.9326 24.7136 18.9326C24.4414 18.9326 24.214 19.0159 24.0312 19.1824C23.8484 19.349 23.7489 19.5947 23.7326 19.9196H25.6396ZM28.7899 21.7779L27.5836 20.2852V21.7779H26.889V17.2693H27.5836V19.8526L28.7778 18.4209H29.6125L28.1502 20.0902L29.649 21.7779H28.7899ZM30.6747 17.2693V21.7779H29.9801V17.2693H30.6747ZM31.7893 18.4209L32.7946 20.8884L33.7268 18.4209H34.5005L32.4717 23.3742H31.6979L32.423 21.6987L31.0095 18.4209H31.7893ZM37.2443 18.3782C37.6383 18.3782 37.953 18.4798 38.1886 18.6828C38.4283 18.8819 38.5745 19.1499 38.6273 19.4871H37.9693C37.9409 19.3043 37.8617 19.1581 37.7317 19.0484C37.6058 18.9347 37.4372 18.8778 37.226 18.8778C37.0513 18.8778 36.9153 18.9205 36.8178 19.0057C36.7244 19.087 36.6777 19.1987 36.6777 19.3408C36.6777 19.4464 36.7122 19.5317 36.7812 19.5967C36.8503 19.6617 36.9356 19.7125 37.0371 19.749C37.1427 19.7856 37.291 19.8262 37.4819 19.8709C37.7337 19.9278 37.9368 19.9867 38.0911 20.0476C38.2496 20.1085 38.3836 20.206 38.4933 20.34C38.607 20.47 38.6639 20.6487 38.6639 20.8762C38.6639 21.1564 38.5562 21.3839 38.3409 21.5586C38.1297 21.7332 37.8434 21.8205 37.4819 21.8205C37.0635 21.8205 36.7244 21.7231 36.4644 21.5281C36.2085 21.3331 36.0542 21.061 36.0014 20.7117H36.6777C36.698 20.8945 36.7792 21.0427 36.9214 21.1564C37.0635 21.2702 37.2504 21.327 37.4819 21.327C37.6484 21.327 37.7784 21.2844 37.8718 21.1991C37.9693 21.1097 38.018 20.998 38.018 20.864C38.018 20.7462 37.9815 20.6528 37.9084 20.5837C37.8353 20.5147 37.7439 20.4619 37.6342 20.4253C37.5245 20.3847 37.3742 20.3441 37.1833 20.3035C36.9396 20.2466 36.7406 20.1897 36.5863 20.1329C36.436 20.076 36.306 19.9846 36.1963 19.8587C36.0907 19.7287 36.0379 19.5541 36.0379 19.3347C36.0379 19.0504 36.1435 18.8209 36.3548 18.6463C36.57 18.4676 36.8665 18.3782 37.2443 18.3782ZM42.3579 19.9379C42.3579 20.0516 42.3498 20.1512 42.3336 20.2365H39.7503C39.7625 20.5817 39.8579 20.8376 40.0366 21.0041C40.2154 21.1707 40.4367 21.2539 40.7007 21.2539C40.9323 21.2539 41.1272 21.195 41.2856 21.0772C41.4481 20.9595 41.5476 20.8031 41.5842 20.6081H42.3275C42.2828 20.8437 42.1894 21.0529 42.0472 21.2356C41.9051 21.4184 41.7202 21.5626 41.4928 21.6682C41.2653 21.7698 41.0115 21.8205 40.7312 21.8205C40.4063 21.8205 40.1179 21.7515 39.8661 21.6134C39.6183 21.4753 39.4233 21.2763 39.2812 21.0163C39.139 20.7564 39.0679 20.4497 39.0679 20.0963C39.0679 19.747 39.139 19.4424 39.2812 19.1824C39.4233 18.9225 39.6183 18.7235 39.8661 18.5854C40.1179 18.4473 40.4063 18.3782 40.7312 18.3782C41.0602 18.3782 41.3466 18.4473 41.5903 18.5854C41.838 18.7194 42.0269 18.9062 42.1569 19.1459C42.2909 19.3815 42.3579 19.6455 42.3579 19.9379ZM41.6573 19.9196C41.6654 19.7003 41.6268 19.5175 41.5415 19.3713C41.4603 19.221 41.3466 19.1114 41.2003 19.0423C41.0582 18.9692 40.9018 18.9326 40.7312 18.9326C40.4591 18.9326 40.2316 19.0159 40.0488 19.1824C39.8661 19.349 39.7665 19.5947 39.7503 19.9196H41.6573ZM44.7832 18.366C45.1732 18.366 45.4859 18.4919 45.7215 18.7438C45.9571 18.9956 46.0749 19.3551 46.0749 19.8222V21.7779H45.3803V19.8953C45.3803 19.5947 45.3031 19.3632 45.1488 19.2007C44.9944 19.0342 44.7832 18.9509 44.5152 18.9509C44.239 18.9509 44.0176 19.0403 43.8511 19.219C43.6845 19.3936 43.6013 19.6516 43.6013 19.9928V21.7779H42.9067V18.4209H43.6013V19.1581C43.6906 18.9062 43.8409 18.7113 44.0521 18.5732C44.2633 18.4351 44.507 18.366 44.7832 18.366ZM48.4529 21.1747V21.7779H48.0265C47.669 21.7779 47.3969 21.6926 47.21 21.522C47.0273 21.3473 46.9359 21.059 46.9359 20.6568V19.0118H46.4546V18.4209H46.9359V17.5862H47.6365V18.4209H48.4469V19.0118H47.6365V20.669C47.6365 20.8599 47.6711 20.9919 47.7401 21.0651C47.8132 21.1382 47.9391 21.1747 48.1178 21.1747H48.4529ZM48.8842 17.446C48.8842 17.3282 48.9249 17.2308 49.0061 17.1536C49.0873 17.0764 49.195 17.0378 49.329 17.0378C49.463 17.0378 49.5707 17.0764 49.6519 17.1536C49.7372 17.2308 49.7799 17.3282 49.7799 17.446C49.7799 17.5638 49.7372 17.6593 49.6519 17.7324C49.5707 17.8055 49.463 17.8421 49.329 17.8421C49.195 17.8421 49.0873 17.8055 49.0061 17.7324C48.9249 17.6593 48.8842 17.5638 48.8842 17.446ZM49.6763 18.4209V21.7779H48.9817V18.4209H49.6763ZM54.5927 18.366C54.9908 18.366 55.3076 18.4919 55.5432 18.7438C55.7828 18.9956 55.9027 19.3551 55.9027 19.8222V21.7779H55.2081V19.8953C55.2081 19.6028 55.135 19.3774 54.9888 19.219C54.8425 19.0565 54.6415 18.9753 54.3856 18.9753C54.1135 18.9753 53.8961 19.0626 53.7337 19.2373C53.5753 19.4079 53.4961 19.6597 53.4961 19.9928V21.7779H52.8015V19.8953C52.8015 19.6028 52.7284 19.3774 52.5822 19.219C52.436 19.0565 52.2349 18.9753 51.979 18.9753C51.7069 18.9753 51.4896 19.0626 51.3271 19.2373C51.1687 19.4079 51.0895 19.6597 51.0895 19.9928V21.7779H50.3949V18.4209H51.0895V19.1215C51.1748 18.8778 51.3169 18.691 51.516 18.561C51.715 18.431 51.9485 18.366 52.2166 18.366C52.4969 18.366 52.7386 18.4351 52.9416 18.5732C53.1488 18.7113 53.2991 18.9103 53.3925 19.1702C53.49 18.9184 53.6464 18.7214 53.8616 18.5793C54.0769 18.4371 54.3206 18.366 54.5927 18.366ZM59.7112 19.9379C59.7112 20.0516 59.7031 20.1512 59.6868 20.2365H57.1036C57.1158 20.5817 57.2112 20.8376 57.3899 21.0041C57.5686 21.1707 57.79 21.2539 58.054 21.2539C58.2855 21.2539 58.4805 21.195 58.6389 21.0772C58.8014 20.9595 58.9009 20.8031 58.9375 20.6081H59.6808C59.6361 20.8437 59.5427 21.0529 59.4005 21.2356C59.2583 21.4184 59.0735 21.5626 58.8461 21.6682C58.6186 21.7698 58.3647 21.8205 58.0845 21.8205C57.7595 21.8205 57.4712 21.7515 57.2193 21.6134C56.9716 21.4753 56.7766 21.2763 56.6344 21.0163C56.4923 20.7564 56.4212 20.4497 56.4212 20.0963C56.4212 19.747 56.4923 19.4424 56.6344 19.1824C56.7766 18.9225 56.9716 18.7235 57.2193 18.5854C57.4712 18.4473 57.7595 18.3782 58.0845 18.3782C58.4135 18.3782 58.6998 18.4473 58.9435 18.5854C59.1913 18.7194 59.3802 18.9062 59.5102 19.1459C59.6442 19.3815 59.7112 19.6455 59.7112 19.9379ZM59.0106 19.9196C59.0187 19.7003 58.9801 19.5175 58.8948 19.3713C58.8136 19.221 58.6998 19.1114 58.5536 19.0423C58.4115 18.9692 58.2551 18.9326 58.0845 18.9326C57.8123 18.9326 57.5849 19.0159 57.4021 19.1824C57.2193 19.349 57.1198 19.5947 57.1036 19.9196H59.0106ZM62.1365 18.366C62.5264 18.366 62.8392 18.4919 63.0748 18.7438C63.3104 18.9956 63.4281 19.3551 63.4281 19.8222V21.7779H62.7336V19.8953C62.7336 19.5947 62.6564 19.3632 62.5021 19.2007C62.3477 19.0342 62.1365 18.9509 61.8684 18.9509C61.5922 18.9509 61.3709 19.0403 61.2043 19.219C61.0378 19.3936 60.9545 19.6516 60.9545 19.9928V21.7779H60.26V18.4209H60.9545V19.1581C61.0439 18.9062 61.1942 18.7113 61.4054 18.5732C61.6166 18.4351 61.8603 18.366 62.1365 18.366ZM65.8062 21.1747V21.7779H65.3797C65.0223 21.7779 64.7502 21.6926 64.5633 21.522C64.3805 21.3473 64.2892 21.059 64.2892 20.6568V19.0118H63.8078V18.4209H64.2892V17.5862H64.9898V18.4209H65.8001V19.0118H64.9898V20.669C64.9898 20.8599 65.0243 20.9919 65.0934 21.0651C65.1665 21.1382 65.2924 21.1747 65.4711 21.1747H65.8062ZM68.7439 18.3782C69.1379 18.3782 69.4526 18.4798 69.6882 18.6828C69.9279 18.8819 70.0741 19.1499 70.1269 19.4871H69.4689C69.4405 19.3043 69.3612 19.1581 69.2313 19.0484C69.1054 18.9347 68.9368 18.8778 68.7256 18.8778C68.5509 18.8778 68.4149 18.9205 68.3174 19.0057C68.224 19.087 68.1772 19.1987 68.1772 19.3408C68.1772 19.4464 68.2118 19.5317 68.2808 19.5967C68.3499 19.6617 68.4352 19.7125 68.5367 19.749C68.6423 19.7856 68.7906 19.8262 68.9815 19.8709C69.2333 19.9278 69.4364 19.9867 69.5907 20.0476C69.7491 20.1085 69.8832 20.206 69.9929 20.34C70.1066 20.47 70.1634 20.6487 70.1634 20.8762C70.1634 21.1564 70.0558 21.3839 69.8405 21.5586C69.6293 21.7332 69.343 21.8205 68.9815 21.8205C68.5631 21.8205 68.224 21.7231 67.964 21.5281C67.7081 21.3331 67.5538 21.061 67.501 20.7117H68.1772C68.1976 20.8945 68.2788 21.0427 68.421 21.1564C68.5631 21.2702 68.75 21.327 68.9815 21.327C69.148 21.327 69.278 21.2844 69.3714 21.1991C69.4689 21.1097 69.5176 20.998 69.5176 20.864C69.5176 20.7462 69.4811 20.6528 69.408 20.5837C69.3348 20.5147 69.2435 20.4619 69.1338 20.4253C69.0241 20.3847 68.8738 20.3441 68.6829 20.3035C68.4392 20.2466 68.2402 20.1897 68.0859 20.1329C67.9356 20.076 67.8056 19.9846 67.6959 19.8587C67.5903 19.7287 67.5375 19.5541 67.5375 19.3347C67.5375 19.0504 67.6431 18.8209 67.8543 18.6463C68.0696 18.4676 68.3661 18.3782 68.7439 18.3782ZM72.2308 18.3782C72.6654 18.3782 73.0249 18.494 73.3092 18.7255C73.5935 18.9529 73.7702 19.2637 73.8393 19.6577H73.102C73.0614 19.4464 72.9619 19.2819 72.8035 19.1642C72.6492 19.0423 72.4542 18.9814 72.2186 18.9814C71.9505 18.9814 71.7271 19.0768 71.5484 19.2677C71.3697 19.4546 71.2803 19.7308 71.2803 20.0963C71.2803 20.4619 71.3697 20.7401 71.5484 20.931C71.7271 21.1219 71.9505 21.2174 72.2186 21.2174C72.4542 21.2174 72.6492 21.1564 72.8035 21.0346C72.9619 20.9127 73.0614 20.7462 73.102 20.535H73.8393C73.7702 20.929 73.5935 21.2417 73.3092 21.4733C73.0249 21.7048 72.6654 21.8205 72.2308 21.8205C71.9059 21.8205 71.6175 21.7515 71.3656 21.6134C71.1179 21.4753 70.9229 21.2763 70.7808 21.0163C70.6386 20.7564 70.5675 20.4497 70.5675 20.0963C70.5675 19.747 70.6386 19.4424 70.7808 19.1824C70.9229 18.9225 71.1179 18.7235 71.3656 18.5854C71.6175 18.4473 71.9059 18.3782 72.2308 18.3782ZM75.9238 18.3782C76.2487 18.3782 76.5412 18.4473 76.8011 18.5854C77.0611 18.7235 77.2642 18.9225 77.4104 19.1824C77.5566 19.4424 77.6297 19.747 77.6297 20.0963C77.6297 20.4497 77.5566 20.7564 77.4104 21.0163C77.2642 21.2763 77.0611 21.4753 76.8011 21.6134C76.5412 21.7515 76.2487 21.8205 75.9238 21.8205C75.5988 21.8205 75.3064 21.7515 75.0464 21.6134C74.7906 21.4753 74.5875 21.2763 74.4372 21.0163C74.291 20.7523 74.2178 20.4456 74.2178 20.0963C74.2178 19.747 74.291 19.4424 74.4372 19.1824C74.5875 18.9225 74.7906 18.7235 75.0464 18.5854C75.3064 18.4473 75.5988 18.3782 75.9238 18.3782ZM75.9238 18.9814C75.7451 18.9814 75.5806 19.022 75.4303 19.1032C75.28 19.1845 75.1581 19.3104 75.0647 19.481C74.9754 19.6475 74.9307 19.8526 74.9307 20.0963C74.9307 20.3441 74.9754 20.5512 75.0647 20.7178C75.1581 20.8843 75.28 21.0082 75.4303 21.0894C75.5806 21.1707 75.7451 21.2113 75.9238 21.2113C76.1025 21.2113 76.267 21.1707 76.4173 21.0894C76.5676 21.0082 76.6874 20.8843 76.7768 20.7178C76.8702 20.5512 76.9169 20.3441 76.9169 20.0963C76.9169 19.8526 76.8702 19.6475 76.7768 19.481C76.6874 19.3104 76.5676 19.1845 76.4173 19.1032C76.267 19.022 76.1025 18.9814 75.9238 18.9814ZM78.8702 19.0789C78.9839 18.8595 79.1464 18.6869 79.3576 18.561C79.5688 18.431 79.8125 18.366 80.0887 18.366V19.1215H79.8816C79.5769 19.1215 79.3312 19.1967 79.1444 19.3469C78.9616 19.4932 78.8702 19.7369 78.8702 20.0781V21.7779H78.1756V18.4209H78.8702V19.0789ZM83.6067 19.9379C83.6067 20.0516 83.5986 20.1512 83.5823 20.2365H80.999C81.0112 20.5817 81.1067 20.8376 81.2854 21.0041C81.4641 21.1707 81.6855 21.2539 81.9495 21.2539C82.181 21.2539 82.376 21.195 82.5344 21.0772C82.6968 20.9595 82.7964 20.8031 82.8329 20.6081H83.5762C83.5315 20.8437 83.4381 21.0529 83.296 21.2356C83.1538 21.4184 82.969 21.5626 82.7415 21.6682C82.5141 21.7698 82.2602 21.8205 81.9799 21.8205C81.655 21.8205 81.3666 21.7515 81.1148 21.6134C80.867 21.4753 80.6721 21.2763 80.5299 21.0163C80.3877 20.7564 80.3167 20.4497 80.3167 20.0963C80.3167 19.747 80.3877 19.4424 80.5299 19.1824C80.6721 18.9225 80.867 18.7235 81.1148 18.5854C81.3666 18.4473 81.655 18.3782 81.9799 18.3782C82.309 18.3782 82.5953 18.4473 82.839 18.5854C83.0868 18.7194 83.2756 18.9062 83.4056 19.1459C83.5397 19.3815 83.6067 19.6455 83.6067 19.9379ZM82.906 19.9196C82.9142 19.7003 82.8756 19.5175 82.7903 19.3713C82.709 19.221 82.5953 19.1114 82.4491 19.0423C82.3069 18.9692 82.1505 18.9326 81.9799 18.9326C81.7078 18.9326 81.4804 19.0159 81.2976 19.1824C81.1148 19.349 81.0153 19.5947 80.999 19.9196H82.906ZM85.2582 18.3782C85.6522 18.3782 85.967 18.4798 86.2026 18.6828C86.4422 18.8819 86.5884 19.1499 86.6412 19.4871H85.9832C85.9548 19.3043 85.8756 19.1581 85.7456 19.0484C85.6197 18.9347 85.4511 18.8778 85.2399 18.8778C85.0653 18.8778 84.9292 18.9205 84.8317 19.0057C84.7383 19.087 84.6916 19.1987 84.6916 19.3408C84.6916 19.4464 84.7261 19.5317 84.7952 19.5967C84.8642 19.6617 84.9495 19.7125 85.0511 19.749C85.1567 19.7856 85.3049 19.8262 85.4958 19.8709C85.7477 19.9278 85.9507 19.9867 86.1051 20.0476C86.2635 20.1085 86.3975 20.206 86.5072 20.34C86.6209 20.47 86.6778 20.6487 86.6778 20.8762C86.6778 21.1564 86.5702 21.3839 86.3549 21.5586C86.1437 21.7332 85.8573 21.8205 85.4958 21.8205C85.0775 21.8205 84.7383 21.7231 84.4784 21.5281C84.2225 21.3331 84.0681 21.061 84.0153 20.7117H84.6916C84.7119 20.8945 84.7931 21.0427 84.9353 21.1564C85.0775 21.2702 85.2643 21.327 85.4958 21.327C85.6624 21.327 85.7923 21.2844 85.8858 21.1991C85.9832 21.1097 86.032 20.998 86.032 20.864C86.032 20.7462 85.9954 20.6528 85.9223 20.5837C85.8492 20.5147 85.7578 20.4619 85.6481 20.4253C85.5385 20.3847 85.3882 20.3441 85.1973 20.3035C84.9536 20.2466 84.7546 20.1897 84.6002 20.1329C84.4499 20.076 84.3199 19.9846 84.2103 19.8587C84.1047 19.7287 84.0519 19.5541 84.0519 19.3347C84.0519 19.0504 84.1575 18.8209 84.3687 18.6463C84.584 18.4676 84.8805 18.3782 85.2582 18.3782ZM90.2462 21.1747V21.7779H89.8197C89.4623 21.7779 89.1902 21.6926 89.0033 21.522C88.8205 21.3473 88.7292 21.059 88.7292 20.6568V19.0118H88.2478V18.4209H88.7292V17.5862H89.4298V18.4209H90.2401V19.0118H89.4298V20.669C89.4298 20.8599 89.4643 20.9919 89.5334 21.0651C89.6065 21.1382 89.7324 21.1747 89.9111 21.1747H90.2462ZM91.4695 19.0789C91.5833 18.8595 91.7457 18.6869 91.957 18.561C92.1682 18.431 92.4119 18.366 92.6881 18.366V19.1215H92.4809C92.1763 19.1215 91.9306 19.1967 91.7437 19.3469C91.5609 19.4932 91.4695 19.7369 91.4695 20.0781V21.7779H90.775V18.4209H91.4695V19.0789ZM96.206 19.9379C96.206 20.0516 96.1979 20.1512 96.1817 20.2365H93.5984C93.6106 20.5817 93.706 20.8376 93.8848 21.0041C94.0635 21.1707 94.2848 21.2539 94.5489 21.2539C94.7804 21.2539 94.9753 21.195 95.1337 21.0772C95.2962 20.9595 95.3957 20.8031 95.4323 20.6081H96.1756C96.1309 20.8437 96.0375 21.0529 95.8953 21.2356C95.7532 21.4184 95.5684 21.5626 95.3409 21.6682C95.1134 21.7698 94.8596 21.8205 94.5793 21.8205C94.2544 21.8205 93.966 21.7515 93.7142 21.6134C93.4664 21.4753 93.2714 21.2763 93.1293 21.0163C92.9871 20.7564 92.916 20.4497 92.916 20.0963C92.916 19.747 92.9871 19.4424 93.1293 19.1824C93.2714 18.9225 93.4664 18.7235 93.7142 18.5854C93.966 18.4473 94.2544 18.3782 94.5793 18.3782C94.9083 18.3782 95.1947 18.4473 95.4384 18.5854C95.6861 18.7194 95.875 18.9062 96.005 19.1459C96.139 19.3815 96.206 19.6455 96.206 19.9379ZM95.5054 19.9196C95.5135 19.7003 95.4749 19.5175 95.3896 19.3713C95.3084 19.221 95.1947 19.1114 95.0484 19.0423C94.9063 18.9692 94.7499 18.9326 94.5793 18.9326C94.3072 18.9326 94.0797 19.0159 93.8969 19.1824C93.7142 19.349 93.6146 19.5947 93.5984 19.9196H95.5054ZM98.6313 18.366C99.0213 18.366 99.334 18.4919 99.5696 18.7438C99.8052 18.9956 99.923 19.3551 99.923 19.8222V21.7779H99.2284V19.8953C99.2284 19.5947 99.1512 19.3632 98.9969 19.2007C98.8426 19.0342 98.6313 18.9509 98.3633 18.9509C98.0871 18.9509 97.8657 19.0403 97.6992 19.219C97.5326 19.3936 97.4494 19.6516 97.4494 19.9928V21.7779H96.7548V18.4209H97.4494V19.1581C97.5387 18.9062 97.689 18.7113 97.9002 18.5732C98.1114 18.4351 98.3551 18.366 98.6313 18.366ZM101.96 18.3782C102.264 18.3782 102.524 18.4533 102.74 18.6036C102.955 18.7539 103.105 18.9529 103.191 19.2007V17.2693H103.891V21.7779H103.191V20.998C103.105 21.2458 102.955 21.4448 102.74 21.5951C102.524 21.7454 102.264 21.8205 101.96 21.8205C101.667 21.8205 101.405 21.7515 101.174 21.6134C100.946 21.4753 100.768 21.2763 100.638 21.0163C100.508 20.7564 100.443 20.4497 100.443 20.0963C100.443 19.747 100.508 19.4424 100.638 19.1824C100.768 18.9225 100.946 18.7235 101.174 18.5854C101.405 18.4473 101.667 18.3782 101.96 18.3782ZM102.173 18.9875C101.864 18.9875 101.617 19.087 101.43 19.286C101.247 19.481 101.156 19.7511 101.156 20.0963C101.156 20.4416 101.247 20.7137 101.43 20.9127C101.617 21.1077 101.864 21.2052 102.173 21.2052C102.368 21.2052 102.543 21.1605 102.697 21.0711C102.851 20.9777 102.973 20.8478 103.063 20.6812C103.152 20.5147 103.197 20.3197 103.197 20.0963C103.197 19.877 103.152 19.6841 103.063 19.5175C102.973 19.3469 102.851 19.217 102.697 19.1276C102.543 19.0342 102.368 18.9875 102.173 18.9875Z" fill="#061722"/>
<g clip-path="url(#clip0_12130_4972)">
<path d="M111.278 20.2933V19.2779M111.278 18.2624H111.28M113.816 19.2779C113.816 20.6799 112.68 21.8164 111.278 21.8164C109.876 21.8164 108.739 20.6799 108.739 19.2779C108.739 17.8758 109.876 16.7393 111.278 16.7393C112.68 16.7393 113.816 17.8758 113.816 19.2779Z" stroke="#919BA1" stroke-width="0.571184" stroke-linecap="round" stroke-linejoin="round"/>
</g>
<rect x="13.1853" y="28.1089" width="4.56947" height="4.56947" rx="2.28473" fill="#5AC2FF"/>
<path d="M23.5678 30.9181C23.5678 31.0958 23.5252 31.2611 23.4399 31.4139C23.3546 31.5667 23.2249 31.6911 23.0507 31.7871C22.8766 31.883 22.6616 31.931 22.4057 31.931C22.1569 31.931 21.9348 31.8866 21.7393 31.7977C21.5474 31.7053 21.3928 31.5809 21.2755 31.4245C21.1618 31.2646 21.096 31.0834 21.0782 30.8808H21.5954C21.606 30.9874 21.6416 31.0922 21.702 31.1953C21.7659 31.2948 21.8548 31.3783 21.9685 31.4459C22.0858 31.5098 22.2262 31.5418 22.3897 31.5418C22.6029 31.5418 22.7664 31.485 22.8801 31.3712C22.9939 31.2575 23.0507 31.1118 23.0507 30.9341C23.0507 30.7813 23.0099 30.6569 22.9281 30.5609C22.8499 30.465 22.7522 30.3903 22.6349 30.337C22.5176 30.2801 22.3577 30.2197 22.1551 30.1558C21.917 30.0776 21.7251 30.0047 21.5794 29.9372C21.4372 29.8661 21.3146 29.7613 21.2115 29.6227C21.112 29.484 21.0622 29.301 21.0622 29.0736C21.0622 28.8781 21.1084 28.7057 21.2009 28.5564C21.2968 28.4072 21.4319 28.2917 21.606 28.2099C21.7837 28.1282 21.9916 28.0873 22.2297 28.0873C22.5994 28.0873 22.8926 28.1779 23.1094 28.3592C23.3262 28.5369 23.4523 28.7644 23.4879 29.0416H22.9654C22.937 28.8923 22.8606 28.7608 22.7362 28.6471C22.6118 28.5333 22.443 28.4765 22.2297 28.4765C22.0343 28.4765 21.8779 28.528 21.7606 28.6311C21.6433 28.7306 21.5847 28.8727 21.5847 29.0576C21.5847 29.2033 21.622 29.3223 21.6966 29.4147C21.7748 29.5036 21.8708 29.5747 21.9845 29.628C22.0982 29.6777 22.2546 29.7346 22.4537 29.7986C22.6953 29.8768 22.889 29.9514 23.0347 30.0225C23.184 30.0936 23.3102 30.202 23.4132 30.3477C23.5163 30.4898 23.5678 30.68 23.5678 30.9181ZM25.313 28.9296C25.5973 28.9296 25.8372 29.0007 26.0327 29.1429C26.2317 29.285 26.3703 29.4752 26.4485 29.7133V28.9669H26.9336V31.8937H26.4485V31.1473C26.3703 31.3855 26.2317 31.5756 26.0327 31.7178C25.8372 31.8599 25.5973 31.931 25.313 31.931C25.0536 31.931 24.8226 31.8706 24.62 31.7497C24.4174 31.6289 24.2575 31.4565 24.1402 31.2326C24.0264 31.0052 23.9696 30.7386 23.9696 30.433C23.9696 30.1273 24.0264 29.8608 24.1402 29.6333C24.2575 29.4059 24.4174 29.2317 24.62 29.1109C24.8226 28.99 25.0536 28.9296 25.313 28.9296ZM25.4516 29.3614C25.1531 29.3614 24.9132 29.4574 24.7319 29.6493C24.5542 29.8377 24.4654 30.0989 24.4654 30.433C24.4654 30.767 24.5542 31.03 24.7319 31.222C24.9132 31.4103 25.1531 31.5045 25.4516 31.5045C25.6435 31.5045 25.8141 31.4601 25.9634 31.3712C26.1162 31.2824 26.2353 31.158 26.3206 30.9981C26.4059 30.8346 26.4485 30.6462 26.4485 30.433C26.4485 30.2197 26.4059 30.0314 26.3206 29.8679C26.2353 29.7044 26.1162 29.58 25.9634 29.4947C25.8141 29.4059 25.6435 29.3614 25.4516 29.3614ZM28.0842 27.9487V31.8937H27.5991V27.9487H28.0842ZM31.4498 30.2677C31.4498 30.3708 31.4426 30.4596 31.4284 30.5343H29.0881C29.0988 30.8683 29.1929 31.1189 29.3706 31.2859C29.5519 31.453 29.7722 31.5365 30.0317 31.5365C30.2663 31.5365 30.4617 31.4779 30.6181 31.3606C30.778 31.2397 30.8758 31.0798 30.9113 30.8808H31.4284C31.3929 31.0834 31.3129 31.2646 31.1885 31.4245C31.0677 31.5845 30.9095 31.7089 30.7141 31.7977C30.5186 31.8866 30.2982 31.931 30.053 31.931C29.7722 31.931 29.5235 31.8706 29.3067 31.7497C29.0899 31.6289 28.9193 31.4565 28.7949 31.2326C28.6741 31.0052 28.6136 30.7386 28.6136 30.433C28.6136 30.1273 28.6741 29.8608 28.7949 29.6333C28.9193 29.4059 29.0899 29.2317 29.3067 29.1109C29.5235 28.99 29.7722 28.9296 30.053 28.9296C30.3373 28.9296 30.5843 28.99 30.794 29.1109C31.0073 29.2317 31.169 29.3934 31.2792 29.596C31.3929 29.7986 31.4498 30.0225 31.4498 30.2677ZM30.9593 30.2997C30.97 30.0829 30.9344 29.9016 30.8527 29.7559C30.7709 29.6102 30.659 29.5018 30.5168 29.4307C30.3747 29.3597 30.2201 29.3241 30.053 29.3241C29.7865 29.3241 29.5626 29.4076 29.3813 29.5747C29.2 29.7382 29.1023 29.9798 29.0881 30.2997H30.9593ZM32.8946 28.9296C33.2251 28.9296 33.4899 29.0167 33.6889 29.1908C33.8915 29.3614 34.0141 29.5924 34.0568 29.8839H33.593C33.5716 29.7097 33.4988 29.5676 33.3744 29.4574C33.2535 29.3437 33.0901 29.2868 32.8839 29.2868C32.7098 29.2868 32.573 29.3294 32.4734 29.4147C32.3775 29.4965 32.3295 29.6084 32.3295 29.7506C32.3295 29.8572 32.3615 29.9443 32.4255 30.0118C32.493 30.0758 32.5747 30.1255 32.6707 30.1611C32.7702 30.1931 32.9053 30.2286 33.0758 30.2677C33.2926 30.3175 33.4668 30.369 33.5983 30.4223C33.7333 30.4721 33.8471 30.5538 33.9395 30.6675C34.0354 30.7813 34.0834 30.9341 34.0834 31.126C34.0834 31.3641 33.9928 31.5578 33.8115 31.7071C33.6338 31.8564 33.3957 31.931 33.0972 31.931C32.7489 31.931 32.4646 31.8475 32.2442 31.6804C32.0239 31.5134 31.8941 31.2806 31.855 30.9821H32.3242C32.3419 31.1598 32.4184 31.3037 32.5534 31.4139C32.692 31.5241 32.8733 31.5791 33.0972 31.5791C33.2642 31.5791 33.3939 31.5365 33.4863 31.4512C33.5823 31.3659 33.6303 31.254 33.6303 31.1153C33.6303 31.0016 33.5965 30.911 33.529 30.8435C33.4615 30.7759 33.3779 30.7244 33.2784 30.6889C33.1789 30.6533 33.0421 30.616 32.8679 30.5769C32.6511 30.5272 32.477 30.4774 32.3455 30.4276C32.2175 30.3779 32.1074 30.2997 32.015 30.1931C31.9261 30.0829 31.8817 29.9354 31.8817 29.7506C31.8817 29.5054 31.9723 29.3081 32.1536 29.1588C32.3348 29.006 32.5818 28.9296 32.8946 28.9296ZM35.681 29.7453C35.681 29.0629 35.8089 28.4534 36.0648 27.9167C36.3243 27.3801 36.6654 26.9482 37.0884 26.6213H37.5628V26.6692C36.621 27.4334 36.1501 28.4587 36.1501 29.7453C36.1501 31.0354 36.621 32.0625 37.5628 32.8266V32.8746H37.0884C36.6654 32.5441 36.3243 32.1122 36.0648 31.5791C35.8089 31.046 35.681 30.4347 35.681 29.7453ZM39.7316 31.4779C40.0408 31.4779 40.302 31.405 40.5152 31.2593C40.7285 31.11 40.8831 30.911 40.979 30.6622H41.4908C41.3771 31.0531 41.171 31.3623 40.8724 31.5898C40.5739 31.8137 40.1954 31.9257 39.7369 31.9257C39.2998 31.9257 38.9266 31.803 38.6174 31.5578C38.3082 31.309 38.1056 30.9767 38.0096 30.5609H37.4765V30.3104H37.9617C37.951 30.2144 37.9457 30.1167 37.9457 30.0171C37.9457 29.9603 37.9492 29.8785 37.9563 29.7719H37.4765V29.5214H37.9937C38.0541 29.237 38.1642 28.9883 38.3242 28.775C38.4841 28.5582 38.6849 28.3912 38.9266 28.2739C39.1718 28.1566 39.4419 28.098 39.7369 28.098C40.1954 28.098 40.5739 28.2117 40.8724 28.4392C41.171 28.6631 41.3771 28.9705 41.4908 29.3614H40.979C40.8831 29.1126 40.7285 28.9154 40.5152 28.7697C40.302 28.6204 40.0408 28.5458 39.7316 28.5458C39.4366 28.5458 39.1789 28.6329 38.9586 28.807C38.7382 28.9776 38.589 29.2157 38.5108 29.5214H39.8115V29.7719H38.4628C38.4521 29.8501 38.4468 29.9319 38.4468 30.0171C38.4468 30.1309 38.4539 30.2286 38.4681 30.3104H39.8115V30.5609H38.5214C38.6103 30.8488 38.7613 31.0745 38.9746 31.238C39.1914 31.3979 39.4437 31.4779 39.7316 31.4779ZM43.4596 29.7453C43.4596 30.4312 43.3299 31.0425 43.0705 31.5791C42.8146 32.1122 42.4752 32.5441 42.0522 32.8746H41.5778V32.8266C42.516 32.0589 42.9852 31.0318 42.9852 29.7453C42.9852 29.1162 42.8679 28.544 42.6333 28.0287C42.4023 27.5098 42.0505 27.0566 41.5778 26.6692V26.6213H42.0522C42.4752 26.9482 42.8146 27.3801 43.0705 27.9167C43.3299 28.4534 43.4596 29.0629 43.4596 29.7453Z" fill="#3D505C"/>
<path d="M15.0744 47.6122C14.9038 47.3228 14.8185 46.9192 14.8185 46.4013C14.8185 45.8865 14.9038 45.4859 15.0744 45.1995C15.245 44.9101 15.5405 44.7654 15.9609 44.7654C16.3813 44.7654 16.6768 44.9101 16.8474 45.1995C17.021 45.4889 17.1078 45.8895 17.1078 46.4013C17.1078 46.9192 17.021 47.3228 16.8474 47.6122C16.6768 47.9016 16.3813 48.0463 15.9609 48.0463C15.5405 48.0463 15.245 47.9016 15.0744 47.6122ZM16.6372 47.0684C16.6768 46.8887 16.6966 46.6663 16.6966 46.4013C16.6966 46.1393 16.6768 45.92 16.6372 45.7433C16.6006 45.5666 16.529 45.4265 16.4224 45.3229C16.3158 45.2163 16.1619 45.163 15.9609 45.163C15.7629 45.163 15.6105 45.2163 15.5039 45.3229C15.3973 45.4265 15.3242 45.5666 15.2846 45.7433C15.248 45.92 15.2298 46.1393 15.2298 46.4013C15.2298 46.6663 15.248 46.8887 15.2846 47.0684C15.3242 47.2451 15.3973 47.3868 15.5039 47.4934C15.6105 47.6 15.7629 47.6533 15.9609 47.6533C16.1619 47.6533 16.3158 47.6 16.4224 47.4934C16.529 47.3868 16.6006 47.2451 16.6372 47.0684ZM17.9132 47.5437V48.0326H17.4106V47.5437H17.9132ZM20.0421 45.6702C20.0178 45.4783 19.9523 45.3305 19.8456 45.2269C19.7421 45.1203 19.5974 45.067 19.4115 45.067C19.1526 45.067 18.9561 45.1675 18.8221 45.3686C18.6911 45.5696 18.6256 45.888 18.6256 46.3236L18.6302 46.4927C18.6759 46.3099 18.781 46.1652 18.9455 46.0586C19.11 45.9489 19.3034 45.8941 19.5258 45.8941C19.8456 45.8941 20.0954 45.99 20.2752 46.182C20.4579 46.3739 20.5493 46.642 20.5493 46.9862C20.5493 47.1872 20.5097 47.37 20.4305 47.5345C20.3513 47.696 20.2295 47.8254 20.065 47.9229C19.9035 48.0174 19.7025 48.0646 19.4618 48.0646C19.0018 48.0646 18.685 47.9199 18.5114 47.6305C18.3408 47.3411 18.2555 46.9481 18.2555 46.4516C18.2555 45.8788 18.3469 45.4493 18.5296 45.163C18.7155 44.8736 19.017 44.7289 19.4344 44.7289C19.7421 44.7289 19.9782 44.8157 20.1427 44.9893C20.3102 45.163 20.4092 45.3899 20.4397 45.6702H20.0421ZM18.6759 46.9176C18.6759 47.14 18.7398 47.3274 18.8678 47.4797C18.9988 47.629 19.1937 47.7036 19.4527 47.7036C19.6659 47.7036 19.8365 47.6411 19.9644 47.5162C20.0924 47.3883 20.1564 47.2101 20.1564 46.9816C20.1564 46.7349 20.0924 46.5475 19.9644 46.4196C19.8365 46.2886 19.6598 46.2231 19.4344 46.2231C19.3064 46.2231 19.1846 46.249 19.0688 46.3008C18.9531 46.3526 18.8586 46.4318 18.7855 46.5384C18.7124 46.642 18.6759 46.7684 18.6759 46.9176Z" fill="#5E6E78"/>
<line x1="28.4167" y1="45.8422" x2="202.806" y2="45.8422" stroke="#CBD2DA" stroke-width="0.380789" stroke-dasharray="0.95 1.89"/>
<path d="M15.0967 59.8129C14.9261 59.5235 14.8408 59.1198 14.8408 58.602C14.8408 58.0871 14.9261 57.6866 15.0967 57.4002C15.2673 57.1108 15.5628 56.9661 15.9832 56.9661C16.4036 56.9661 16.6991 57.1108 16.8697 57.4002C17.0433 57.6896 17.1301 58.0902 17.1301 58.602C17.1301 59.1198 17.0433 59.5235 16.8697 59.8129C16.6991 60.1023 16.4036 60.247 15.9832 60.247C15.5628 60.247 15.2673 60.1023 15.0967 59.8129ZM16.6595 59.2691C16.6991 59.0894 16.7189 58.867 16.7189 58.602C16.7189 58.34 16.6991 58.1207 16.6595 57.944C16.6229 57.7673 16.5513 57.6272 16.4447 57.5236C16.3381 57.417 16.1842 57.3636 15.9832 57.3636C15.7852 57.3636 15.6329 57.417 15.5262 57.5236C15.4196 57.6272 15.3465 57.7673 15.3069 57.944C15.2703 58.1207 15.2521 58.34 15.2521 58.602C15.2521 58.867 15.2703 59.0894 15.3069 59.2691C15.3465 59.4458 15.4196 59.5875 15.5262 59.6941C15.6329 59.8007 15.7852 59.854 15.9832 59.854C16.1842 59.854 16.3381 59.8007 16.4447 59.6941C16.5513 59.5875 16.6229 59.4458 16.6595 59.2691ZM17.9355 59.7443V60.2333H17.4329V59.7443H17.9355ZM20.4163 57.3408H18.7621V58.4192C18.8383 58.3156 18.948 58.2334 19.0911 58.1724C19.2343 58.1115 19.3912 58.0811 19.5618 58.0811C19.7903 58.0811 19.9791 58.1298 20.1284 58.2273C20.2807 58.3217 20.3919 58.4481 20.462 58.6065C20.5351 58.7619 20.5716 58.9355 20.5716 59.1275C20.5716 59.4595 20.4787 59.7306 20.2929 59.9408C20.1071 60.151 19.8344 60.2561 19.475 60.2561C19.1521 60.2561 18.8886 60.1693 18.6845 59.9957C18.4804 59.819 18.3661 59.5829 18.3417 59.2874H18.753C18.7865 59.4763 18.8642 59.624 18.986 59.7306C19.1109 59.8342 19.2678 59.886 19.4567 59.886C19.6913 59.886 19.8679 59.8159 19.9868 59.6758C20.1056 59.5357 20.165 59.3514 20.165 59.1229C20.165 58.9005 20.104 58.7269 19.9822 58.602C19.8603 58.4771 19.6882 58.4146 19.4658 58.4146C19.3074 58.4146 19.1688 58.4497 19.05 58.5197C18.9312 58.5867 18.8413 58.6781 18.7804 58.7939H18.3783V56.9707H20.4163V57.3408Z" fill="#5E6E78"/>
<line x1="28.4167" y1="58.0429" x2="202.806" y2="58.0429" stroke="#CBD2DA" stroke-width="0.380789" stroke-dasharray="0.95 1.89"/>
<path d="M15.0789 72.0136C14.9083 71.7242 14.823 71.3205 14.823 70.8027C14.823 70.2878 14.9083 69.8872 15.0789 69.6009C15.2495 69.3115 15.5449 69.1668 15.9653 69.1668C16.3857 69.1668 16.6812 69.3115 16.8518 69.6009C17.0255 69.8903 17.1123 70.2909 17.1123 70.8027C17.1123 71.3205 17.0255 71.7242 16.8518 72.0136C16.6812 72.303 16.3857 72.4477 15.9653 72.4477C15.5449 72.4477 15.2495 72.303 15.0789 72.0136ZM16.6416 71.4698C16.6812 71.2901 16.701 71.0677 16.701 70.8027C16.701 70.5407 16.6812 70.3213 16.6416 70.1447C16.6051 69.968 16.5335 69.8278 16.4269 69.7243C16.3202 69.6176 16.1664 69.5643 15.9653 69.5643C15.7673 69.5643 15.615 69.6176 15.5084 69.7243C15.4018 69.8278 15.3287 69.968 15.2891 70.1447C15.2525 70.3213 15.2342 70.5407 15.2342 70.8027C15.2342 71.0677 15.2525 71.2901 15.2891 71.4698C15.3287 71.6465 15.4018 71.7881 15.5084 71.8948C15.615 72.0014 15.7673 72.0547 15.9653 72.0547C16.1664 72.0547 16.3202 72.0014 16.4269 71.8948C16.5335 71.7881 16.6051 71.6465 16.6416 71.4698ZM17.9177 71.945V72.434H17.415V71.945H17.9177ZM18.1091 71.6937V71.3464L19.7633 69.1896H20.2111V71.3327H20.6863V71.6937H20.2111V72.434H19.7907V71.6937H18.1091ZM19.8181 69.6968L18.5478 71.3327H19.8181V69.6968Z" fill="#5E6E78"/>
<line x1="28.4167" y1="70.2436" x2="202.806" y2="70.2436" stroke="#CBD2DA" stroke-width="0.380789" stroke-dasharray="0.95 1.89"/>
<path d="M15.2217 84.2143C15.0511 83.9249 14.9658 83.5212 14.9658 83.0033C14.9658 82.4885 15.0511 82.0879 15.2217 81.8016C15.3922 81.5122 15.6877 81.3675 16.1081 81.3675C16.5285 81.3675 16.824 81.5122 16.9946 81.8016C17.1682 82.091 17.2551 82.4916 17.2551 83.0033C17.2551 83.5212 17.1682 83.9249 16.9946 84.2143C16.824 84.5037 16.5285 84.6484 16.1081 84.6484C15.6877 84.6484 15.3922 84.5037 15.2217 84.2143ZM16.7844 83.6705C16.824 83.4908 16.8438 83.2684 16.8438 83.0033C16.8438 82.7414 16.824 82.522 16.7844 82.3453C16.7479 82.1687 16.6763 82.0285 16.5696 81.9249C16.463 81.8183 16.3092 81.765 16.1081 81.765C15.9101 81.765 15.7578 81.8183 15.6512 81.9249C15.5446 82.0285 15.4715 82.1687 15.4319 82.3453C15.3953 82.522 15.377 82.7414 15.377 83.0033C15.377 83.2684 15.3953 83.4908 15.4319 83.6705C15.4715 83.8472 15.5446 83.9888 15.6512 84.0954C15.7578 84.2021 15.9101 84.2554 16.1081 84.2554C16.3092 84.2554 16.463 84.2021 16.5696 84.0954C16.6763 83.9888 16.7479 83.8472 16.7844 83.6705ZM18.0605 84.1457V84.6346H17.5578V84.1457H18.0605ZM19.4765 81.3263C19.6837 81.3263 19.8619 81.3629 20.0112 81.436C20.1604 81.5091 20.2732 81.6097 20.3493 81.7376C20.4255 81.8655 20.4636 82.0102 20.4636 82.1717C20.4636 82.3728 20.4041 82.5418 20.2853 82.6789C20.1696 82.816 19.999 82.8982 19.7736 82.9257V82.9531C20.0081 83.014 20.1909 83.1084 20.3219 83.2364C20.4559 83.3643 20.523 83.541 20.523 83.7664C20.523 84.0315 20.4346 84.2478 20.2579 84.4153C20.0812 84.5829 19.8269 84.6666 19.4948 84.6666C19.1628 84.6666 18.8932 84.5813 18.686 84.4107C18.4819 84.2371 18.3616 83.9843 18.325 83.6522H18.7363C18.7637 83.8533 18.8399 84.0132 18.9648 84.132C19.0927 84.2508 19.2648 84.3102 19.4811 84.3102C19.6852 84.3102 19.8421 84.2584 19.9518 84.1548C20.0614 84.0482 20.1163 83.9111 20.1163 83.7436C20.1163 83.5425 20.0371 83.3902 19.8787 83.2866C19.7233 83.18 19.5009 83.1267 19.2115 83.1267H19.1018V82.7794H19.2115C19.772 82.7794 20.0523 82.5921 20.0523 82.2174C20.0523 82.0529 20.0005 81.9219 19.8969 81.8244C19.7934 81.7269 19.6502 81.6782 19.4674 81.6782C19.2846 81.6782 19.1308 81.7315 19.0059 81.8381C18.881 81.9417 18.8079 82.0955 18.7866 82.2996H18.3799C18.4012 81.995 18.5063 81.7574 18.6952 81.5868C18.8871 81.4132 19.1475 81.3263 19.4765 81.3263Z" fill="#5E6E78"/>
<line x1="28.4167" y1="82.4442" x2="202.806" y2="82.4442" stroke="#CBD2DA" stroke-width="0.380789" stroke-dasharray="0.95 1.89"/>
<path d="M15.3198 96.4149C15.1492 96.1255 15.0639 95.7219 15.0639 95.204C15.0639 94.6892 15.1492 94.2886 15.3198 94.0023C15.4904 93.7129 15.7859 93.5682 16.2063 93.5682C16.6267 93.5682 16.9222 93.7129 17.0928 94.0023C17.2664 94.2917 17.3532 94.6922 17.3532 95.204C17.3532 95.7219 17.2664 96.1255 17.0928 96.4149C16.9222 96.7043 16.6267 96.849 16.2063 96.849C15.7859 96.849 15.4904 96.7043 15.3198 96.4149ZM16.8826 95.8712C16.9222 95.6914 16.942 95.4691 16.942 95.204C16.942 94.942 16.9222 94.7227 16.8826 94.546C16.846 94.3693 16.7744 94.2292 16.6678 94.1256C16.5612 94.019 16.4074 93.9657 16.2063 93.9657C16.0083 93.9657 15.856 94.019 15.7494 94.1256C15.6427 94.2292 15.5696 94.3693 15.53 94.546C15.4935 94.7227 15.4752 94.942 15.4752 95.204C15.4752 95.4691 15.4935 95.6914 15.53 95.8712C15.5696 96.0479 15.6427 96.1895 15.7494 96.2961C15.856 96.4028 16.0083 96.4561 16.2063 96.4561C16.4074 96.4561 16.5612 96.4028 16.6678 96.2961C16.7744 96.1895 16.846 96.0479 16.8826 95.8712ZM18.1586 96.3464V96.8353H17.656V96.3464H18.1586ZM18.4004 96.5155C18.9182 96.1682 19.3325 95.824 19.6433 95.4828C19.954 95.1385 20.1093 94.8187 20.1093 94.5232C20.1093 94.3404 20.0621 94.1942 19.9677 94.0845C19.8763 93.9718 19.727 93.9154 19.5199 93.9154C19.3066 93.9154 19.1452 93.984 19.0355 94.1211C18.9259 94.2551 18.8649 94.4409 18.8527 94.6785H18.4415C18.4628 94.3191 18.574 94.0434 18.7751 93.8515C18.9761 93.6565 19.2351 93.559 19.5519 93.559C19.8535 93.559 20.0926 93.6397 20.2693 93.8012C20.446 93.9627 20.5343 94.1911 20.5343 94.4866C20.5343 94.7303 20.4551 94.9786 20.2967 95.2314C20.1413 95.4812 19.9448 95.7143 19.7072 95.9306C19.4727 96.1438 19.2305 96.3251 18.9807 96.4743H20.6166V96.817H18.4004V96.5155Z" fill="#5E6E78"/>
<line x1="28.4167" y1="94.6449" x2="202.806" y2="94.6449" stroke="#CBD2DA" stroke-width="0.380789" stroke-dasharray="0.95 1.89"/>
<path d="M16.6005 108.616C16.4299 108.326 16.3446 107.923 16.3446 107.405C16.3446 106.89 16.4299 106.489 16.6005 106.203C16.7711 105.914 17.0666 105.769 17.487 105.769C17.9074 105.769 18.2029 105.914 18.3735 106.203C18.5471 106.492 18.6339 106.893 18.6339 107.405C18.6339 107.923 18.5471 108.326 18.3735 108.616C18.2029 108.905 17.9074 109.05 17.487 109.05C17.0666 109.05 16.7711 108.905 16.6005 108.616ZM18.1633 108.072C18.2029 107.892 18.2227 107.67 18.2227 107.405C18.2227 107.143 18.2029 106.923 18.1633 106.747C18.1267 106.57 18.0551 106.43 17.9485 106.326C17.8419 106.22 17.6881 106.166 17.487 106.166C17.289 106.166 17.1367 106.22 17.0301 106.326C16.9234 106.43 16.8503 106.57 16.8107 106.747C16.7742 106.923 16.7559 107.143 16.7559 107.405C16.7559 107.67 16.7742 107.892 16.8107 108.072C16.8503 108.249 16.9234 108.39 17.0301 108.497C17.1367 108.603 17.289 108.657 17.487 108.657C17.6881 108.657 17.8419 108.603 17.9485 108.497C18.0551 108.39 18.1267 108.249 18.1633 108.072ZM19.4393 108.547V109.036H18.9367V108.547H19.4393ZM19.5486 106.203V105.815H20.4716V109.036H20.0329V106.203H19.5486Z" fill="#5E6E78"/>
<line x1="28.4167" y1="106.846" x2="202.806" y2="106.846" stroke="#CBD2DA" stroke-width="0.380789" stroke-dasharray="0.95 1.89"/>
<path d="M18.5106 120.816C18.34 120.527 18.2547 120.123 18.2547 119.605C18.2547 119.091 18.34 118.69 18.5106 118.404C18.6812 118.114 18.9767 117.97 19.3971 117.97C19.8175 117.97 20.113 118.114 20.2836 118.404C20.4572 118.693 20.544 119.094 20.544 119.605C20.544 120.123 20.4572 120.527 20.2836 120.816C20.113 121.106 19.8175 121.25 19.3971 121.25C18.9767 121.25 18.6812 121.106 18.5106 120.816ZM20.0734 120.273C20.113 120.093 20.1328 119.87 20.1328 119.605C20.1328 119.343 20.113 119.124 20.0734 118.947C20.0368 118.771 19.9652 118.631 19.8586 118.527C19.752 118.42 19.5981 118.367 19.3971 118.367C19.1991 118.367 19.0468 118.42 18.9401 118.527C18.8335 118.631 18.7604 118.771 18.7208 118.947C18.6842 119.124 18.666 119.343 18.666 119.605C18.666 119.87 18.6842 120.093 18.7208 120.273C18.7604 120.449 18.8335 120.591 18.9401 120.698C19.0468 120.804 19.1991 120.857 19.3971 120.857C19.5981 120.857 19.752 120.804 19.8586 120.698C19.9652 120.591 20.0368 120.449 20.0734 120.273Z" fill="#5E6E78"/>
<line x1="28.4167" y1="119.046" x2="202.806" y2="119.046" stroke="#CBD2DA" stroke-width="0.380789" stroke-dasharray="0.95 1.89"/>
<line x1="41.8506" y1="120.044" x2="41.8506" y2="46.4596" stroke="#CBD2DA" stroke-width="0.380789" stroke-dasharray="0.95 1.89"/>
<path d="M28.5224 128.869H27.1058L26.8362 129.614H26.3884L27.5811 126.452H28.0517L29.2398 129.614H28.792L28.5224 128.869ZM28.4036 128.545L27.8141 126.918L27.2246 128.545H28.4036ZM31.7992 127.105V129.614H31.3834V129.025C31.3194 129.229 31.2051 129.386 31.0406 129.495C30.8792 129.602 30.6903 129.655 30.474 129.655C30.1846 129.655 29.9501 129.562 29.7703 129.376C29.5906 129.188 29.5007 128.918 29.5007 128.568V127.105H29.9166V128.526C29.9166 128.776 29.9805 128.97 30.1085 129.107C30.2364 129.241 30.4101 129.308 30.6294 129.308C30.8579 129.308 31.0406 129.235 31.1777 129.089C31.3148 128.939 31.3834 128.723 31.3834 128.44V127.105H31.7992ZM33.4021 127.073C33.6458 127.073 33.8514 127.134 34.019 127.256C34.1896 127.378 34.3084 127.541 34.3754 127.745V127.105H34.7912V129.655C34.7912 129.887 34.7425 130.092 34.645 130.272C34.5475 130.452 34.4104 130.592 34.2337 130.692C34.0571 130.793 33.8514 130.843 33.6169 130.843C33.2787 130.843 33.003 130.761 32.7898 130.596C32.5765 130.435 32.441 130.216 32.3831 129.938H32.7944C32.8431 130.106 32.9345 130.237 33.0685 130.331C33.2056 130.429 33.3808 130.478 33.594 130.478C33.8194 130.478 34.0053 130.405 34.1515 130.258C34.3008 130.115 34.3754 129.914 34.3754 129.655V128.974C34.3084 129.178 34.1896 129.341 34.019 129.463C33.8514 129.585 33.6458 129.646 33.4021 129.646C33.1797 129.646 32.9817 129.594 32.8081 129.491C32.6344 129.387 32.4973 129.239 32.3968 129.047C32.2993 128.852 32.2506 128.624 32.2506 128.362C32.2506 128.1 32.2993 127.872 32.3968 127.677C32.4973 127.482 32.6344 127.332 32.8081 127.229C32.9817 127.125 33.1797 127.073 33.4021 127.073ZM33.5209 127.444C33.265 127.444 33.0594 127.526 32.904 127.69C32.7517 127.852 32.6755 128.076 32.6755 128.362C32.6755 128.648 32.7517 128.874 32.904 129.038C33.0594 129.2 33.265 129.28 33.5209 129.28C33.6854 129.28 33.8316 129.242 33.9596 129.166C34.0906 129.09 34.1926 128.983 34.2657 128.846C34.3388 128.706 34.3754 128.545 34.3754 128.362C34.3754 128.179 34.3388 128.018 34.2657 127.878C34.1926 127.737 34.0906 127.631 33.9596 127.558C33.8316 127.482 33.6854 127.444 33.5209 127.444ZM36.125 126.781V126.393H37.0481V129.614H36.6094V126.781H36.125ZM37.4781 129.294C37.996 128.947 38.4103 128.603 38.721 128.261C39.0317 127.917 39.1871 127.597 39.1871 127.302C39.1871 127.119 39.1399 126.973 39.0454 126.863C38.954 126.75 38.8048 126.694 38.5976 126.694C38.3844 126.694 38.2229 126.763 38.1133 126.9C38.0036 127.034 37.9427 127.22 37.9305 127.457H37.5192C37.5405 127.098 37.6517 126.822 37.8528 126.63C38.0538 126.435 38.3128 126.338 38.6296 126.338C38.9312 126.338 39.1703 126.418 39.347 126.58C39.5237 126.741 39.612 126.97 39.612 127.265C39.612 127.509 39.5328 127.757 39.3744 128.01C39.2191 128.26 39.0226 128.493 38.785 128.709C38.5504 128.923 38.3082 129.104 38.0584 129.253H39.6943V129.596H37.4781V129.294ZM42.5843 127.763V128.115H40.7565V127.763H42.5843ZM46.2366 128.869H44.82L44.5504 129.614H44.1026L45.2952 126.452H45.7659L46.954 129.614H46.5062L46.2366 128.869ZM46.1178 128.545L45.5283 126.918L44.9388 128.545H46.1178ZM49.5134 127.105V129.614H49.0975V129.025C49.0336 129.229 48.9193 129.386 48.7548 129.495C48.5934 129.602 48.4045 129.655 48.1882 129.655C47.8988 129.655 47.6643 129.562 47.4845 129.376C47.3048 129.188 47.2149 128.918 47.2149 128.568V127.105H47.6307V128.526C47.6307 128.776 47.6947 128.97 47.8227 129.107C47.9506 129.241 48.1242 129.308 48.3436 129.308C48.5721 129.308 48.7548 129.235 48.8919 129.089C49.029 128.939 49.0975 128.723 49.0975 128.44V127.105H49.5134ZM51.1163 127.073C51.36 127.073 51.5656 127.134 51.7332 127.256C51.9038 127.378 52.0226 127.541 52.0896 127.745V127.105H52.5054V129.655C52.5054 129.887 52.4567 130.092 52.3592 130.272C52.2617 130.452 52.1246 130.592 51.9479 130.692C51.7712 130.793 51.5656 130.843 51.3311 130.843C50.9929 130.843 50.7172 130.761 50.504 130.596C50.2907 130.435 50.1552 130.216 50.0973 129.938H50.5085C50.5573 130.106 50.6487 130.237 50.7827 130.331C50.9198 130.429 51.095 130.478 51.3082 130.478C51.5336 130.478 51.7195 130.405 51.8657 130.258C52.0149 130.115 52.0896 129.914 52.0896 129.655V128.974C52.0226 129.178 51.9038 129.341 51.7332 129.463C51.5656 129.585 51.36 129.646 51.1163 129.646C50.8939 129.646 50.6959 129.594 50.5223 129.491C50.3486 129.387 50.2115 129.239 50.111 129.047C50.0135 128.852 49.9648 128.624 49.9648 128.362C49.9648 128.1 50.0135 127.872 50.111 127.677C50.2115 127.482 50.3486 127.332 50.5223 127.229C50.6959 127.125 50.8939 127.073 51.1163 127.073ZM51.2351 127.444C50.9792 127.444 50.7736 127.526 50.6182 127.69C50.4659 127.852 50.3897 128.076 50.3897 128.362C50.3897 128.648 50.4659 128.874 50.6182 129.038C50.7736 129.2 50.9792 129.28 51.2351 129.28C51.3996 129.28 51.5458 129.242 51.6738 129.166C51.8048 129.09 51.9068 128.983 51.9799 128.846C52.053 128.706 52.0896 128.545 52.0896 128.362C52.0896 128.179 52.053 128.018 51.9799 127.878C51.9068 127.737 51.8048 127.631 51.6738 127.558C51.5458 127.482 51.3996 127.444 51.2351 127.444ZM53.8392 126.781V126.393H54.7623V129.614H54.3236V126.781H53.8392ZM55.7315 128.709C55.7589 128.901 55.8259 129.049 55.9325 129.152C56.0392 129.256 56.1854 129.308 56.3712 129.308C56.6271 129.308 56.8205 129.209 56.9515 129.011C57.0825 128.813 57.148 128.499 57.148 128.07C57.148 127.987 57.1465 127.925 57.1435 127.882C57.1008 128.065 56.9972 128.211 56.8327 128.321C56.6682 128.431 56.4748 128.485 56.2524 128.485C55.9325 128.485 55.6812 128.389 55.4984 128.197C55.3157 128.006 55.2243 127.737 55.2243 127.393C55.2243 127.192 55.2639 127.009 55.3431 126.845C55.4223 126.68 55.5426 126.551 55.7041 126.457C55.8686 126.359 56.0712 126.31 56.3118 126.31C56.7748 126.31 57.0917 126.453 57.2623 126.74C57.4359 127.023 57.5227 127.413 57.5227 127.91C57.5227 128.476 57.4344 128.909 57.2577 129.207C57.081 129.503 56.7855 129.651 56.3712 129.651C56.0635 129.651 55.8214 129.564 55.6447 129.39C55.471 129.213 55.369 128.986 55.3385 128.709H55.7315ZM57.1023 127.457C57.1023 127.238 57.0368 127.052 56.9058 126.9C56.7779 126.747 56.5845 126.671 56.3255 126.671C56.1123 126.671 55.9417 126.735 55.8137 126.863C55.6858 126.991 55.6218 127.169 55.6218 127.398C55.6218 127.642 55.6858 127.829 55.8137 127.96C55.9417 128.091 56.1168 128.156 56.3392 128.156C56.4672 128.156 56.589 128.13 56.7048 128.079C56.8236 128.027 56.9195 127.948 56.9927 127.841C57.0658 127.734 57.1023 127.606 57.1023 127.457Z" fill="#5E6E78"/>
<line x1="90.7752" y1="120.044" x2="90.7752" y2="46.4596" stroke="#CBD2DA" stroke-width="0.380789" stroke-dasharray="0.95 1.89"/>
<path d="M77.4469 128.869H76.0304L75.7608 129.614H75.313L76.5056 126.452H76.9763L78.1643 129.614H77.7165L77.4469 128.869ZM77.3281 128.545L76.7387 126.918L76.1492 128.545H77.3281ZM80.7237 127.105V129.614H80.3079V129.025C80.2439 129.229 80.1297 129.386 79.9652 129.495C79.8037 129.602 79.6149 129.655 79.3986 129.655C79.1092 129.655 78.8746 129.562 78.6949 129.376C78.5152 129.188 78.4253 128.918 78.4253 128.568V127.105H78.8411V128.526C78.8411 128.776 78.9051 128.97 79.033 129.107C79.161 129.241 79.3346 129.308 79.5539 129.308C79.7824 129.308 79.9652 129.235 80.1023 129.089C80.2394 128.939 80.3079 128.723 80.3079 128.44V127.105H80.7237ZM82.3267 127.073C82.5704 127.073 82.776 127.134 82.9435 127.256C83.1141 127.378 83.2329 127.541 83.3 127.745V127.105H83.7158V129.655C83.7158 129.887 83.667 130.092 83.5696 130.272C83.4721 130.452 83.335 130.592 83.1583 130.692C82.9816 130.793 82.776 130.843 82.5414 130.843C82.2033 130.843 81.9276 130.761 81.7143 130.596C81.5011 130.435 81.3655 130.216 81.3077 129.938H81.7189C81.7677 130.106 81.859 130.237 81.9931 130.331C82.1302 130.429 82.3053 130.478 82.5186 130.478C82.744 130.478 82.9298 130.405 83.076 130.258C83.2253 130.115 83.3 129.914 83.3 129.655V128.974C83.2329 129.178 83.1141 129.341 82.9435 129.463C82.776 129.585 82.5704 129.646 82.3267 129.646C82.1043 129.646 81.9063 129.594 81.7326 129.491C81.559 129.387 81.4219 129.239 81.3214 129.047C81.2239 128.852 81.1751 128.624 81.1751 128.362C81.1751 128.1 81.2239 127.872 81.3214 127.677C81.4219 127.482 81.559 127.332 81.7326 127.229C81.9063 127.125 82.1043 127.073 82.3267 127.073ZM82.4455 127.444C82.1896 127.444 81.9839 127.526 81.8286 127.69C81.6763 127.852 81.6001 128.076 81.6001 128.362C81.6001 128.648 81.6763 128.874 81.8286 129.038C81.9839 129.2 82.1896 129.28 82.4455 129.28C82.61 129.28 82.7562 129.242 82.8841 129.166C83.0151 129.09 83.1172 128.983 83.1903 128.846C83.2634 128.706 83.3 128.545 83.3 128.362C83.3 128.179 83.2634 128.018 83.1903 127.878C83.1172 127.737 83.0151 127.631 82.8841 127.558C82.7562 127.482 82.61 127.444 82.4455 127.444ZM85.0496 126.781V126.393H85.9726V129.614H85.534V126.781H85.0496ZM86.4027 129.294C86.9205 128.947 87.3348 128.603 87.6456 128.261C87.9563 127.917 88.1116 127.597 88.1116 127.302C88.1116 127.119 88.0644 126.973 87.97 126.863C87.8786 126.75 87.7293 126.694 87.5222 126.694C87.3089 126.694 87.1475 126.763 87.0378 126.9C86.9281 127.034 86.8672 127.22 86.855 127.457H86.4438C86.4651 127.098 86.5763 126.822 86.7774 126.63C86.9784 126.435 87.2373 126.338 87.5542 126.338C87.8557 126.338 88.0949 126.418 88.2716 126.58C88.4483 126.741 88.5366 126.97 88.5366 127.265C88.5366 127.509 88.4574 127.757 88.299 128.01C88.1436 128.26 87.9471 128.493 87.7095 128.709C87.475 128.923 87.2328 129.104 86.983 129.253H88.6188V129.596H86.4027V129.294ZM91.5088 127.763V128.115H89.681V127.763H91.5088ZM95.1611 128.869H93.7446L93.475 129.614H93.0272L94.2198 126.452H94.6905L95.8785 129.614H95.4307L95.1611 128.869ZM95.0423 128.545L94.4528 126.918L93.8634 128.545H95.0423ZM98.4379 127.105V129.614H98.0221V129.025C97.9581 129.229 97.8439 129.386 97.6794 129.495C97.5179 129.602 97.3291 129.655 97.1128 129.655C96.8234 129.655 96.5888 129.562 96.4091 129.376C96.2294 129.188 96.1395 128.918 96.1395 128.568V127.105H96.5553V128.526C96.5553 128.776 96.6193 128.97 96.7472 129.107C96.8752 129.241 97.0488 129.308 97.2681 129.308C97.4966 129.308 97.6794 129.235 97.8165 129.089C97.9536 128.939 98.0221 128.723 98.0221 128.44V127.105H98.4379ZM100.041 127.073C100.285 127.073 100.49 127.134 100.658 127.256C100.828 127.378 100.947 127.541 101.014 127.745V127.105H101.43V129.655C101.43 129.887 101.381 130.092 101.284 130.272C101.186 130.452 101.049 130.592 100.872 130.692C100.696 130.793 100.49 130.843 100.256 130.843C99.9175 130.843 99.6418 130.761 99.4285 130.596C99.2153 130.435 99.0797 130.216 99.0219 129.938H99.4331C99.4818 130.106 99.5732 130.237 99.7073 130.331C99.8444 130.429 100.02 130.478 100.233 130.478C100.458 130.478 100.644 130.405 100.79 130.258C100.94 130.115 101.014 129.914 101.014 129.655V128.974C100.947 129.178 100.828 129.341 100.658 129.463C100.49 129.585 100.285 129.646 100.041 129.646C99.8185 129.646 99.6205 129.594 99.4468 129.491C99.2732 129.387 99.1361 129.239 99.0356 129.047C98.9381 128.852 98.8893 128.624 98.8893 128.362C98.8893 128.1 98.9381 127.872 99.0356 127.677C99.1361 127.482 99.2732 127.332 99.4468 127.229C99.6205 127.125 99.8185 127.073 100.041 127.073ZM100.16 127.444C99.9038 127.444 99.6981 127.526 99.5428 127.69C99.3905 127.852 99.3143 128.076 99.3143 128.362C99.3143 128.648 99.3905 128.874 99.5428 129.038C99.6981 129.2 99.9038 129.28 100.16 129.28C100.324 129.28 100.47 129.242 100.598 129.166C100.729 129.09 100.831 128.983 100.904 128.846C100.978 128.706 101.014 128.545 101.014 128.362C101.014 128.179 100.978 128.018 100.904 127.878C100.831 127.737 100.729 127.631 100.598 127.558C100.47 127.482 100.324 127.444 100.16 127.444ZM102.764 126.781V126.393H103.687V129.614H103.248V126.781H102.764ZM104.656 128.709C104.683 128.901 104.75 129.049 104.857 129.152C104.964 129.256 105.11 129.308 105.296 129.308C105.552 129.308 105.745 129.209 105.876 129.011C106.007 128.813 106.073 128.499 106.073 128.07C106.073 127.987 106.071 127.925 106.068 127.882C106.025 128.065 105.922 128.211 105.757 128.321C105.593 128.431 105.399 128.485 105.177 128.485C104.857 128.485 104.606 128.389 104.423 128.197C104.24 128.006 104.149 127.737 104.149 127.393C104.149 127.192 104.188 127.009 104.268 126.845C104.347 126.68 104.467 126.551 104.629 126.457C104.793 126.359 104.996 126.31 105.236 126.31C105.699 126.31 106.016 126.453 106.187 126.74C106.36 127.023 106.447 127.413 106.447 127.91C106.447 128.476 106.359 128.909 106.182 129.207C106.006 129.503 105.71 129.651 105.296 129.651C104.988 129.651 104.746 129.564 104.569 129.39C104.396 129.213 104.294 128.986 104.263 128.709H104.656ZM106.027 127.457C106.027 127.238 105.961 127.052 105.83 126.9C105.702 126.747 105.509 126.671 105.25 126.671C105.037 126.671 104.866 126.735 104.738 126.863C104.61 126.991 104.546 127.169 104.546 127.398C104.546 127.642 104.61 127.829 104.738 127.96C104.866 128.091 105.041 128.156 105.264 128.156C105.392 128.156 105.514 128.13 105.629 128.079C105.748 128.027 105.844 127.948 105.917 127.841C105.99 127.734 106.027 127.606 106.027 127.457Z" fill="#5E6E78"/>
<line x1="139.7" y1="120.044" x2="139.7" y2="46.4596" stroke="#CBD2DA" stroke-width="0.380789" stroke-dasharray="0.95 1.89"/>
<path d="M126.371 128.869H124.955L124.685 129.614H124.238L125.43 126.452H125.901L127.089 129.614H126.641L126.371 128.869ZM126.253 128.545L125.663 126.918L125.074 128.545H126.253ZM129.648 127.105V129.614H129.232V129.025C129.169 129.229 129.054 129.386 128.89 129.495C128.728 129.602 128.539 129.655 128.323 129.655C128.034 129.655 127.799 129.562 127.619 129.376C127.44 129.188 127.35 128.918 127.35 128.568V127.105H127.766V128.526C127.766 128.776 127.83 128.97 127.958 129.107C128.086 129.241 128.259 129.308 128.479 129.308C128.707 129.308 128.89 129.235 129.027 129.089C129.164 128.939 129.232 128.723 129.232 128.44V127.105H129.648ZM131.251 127.073C131.495 127.073 131.701 127.134 131.868 127.256C132.039 127.378 132.157 127.541 132.225 127.745V127.105H132.64V129.655C132.64 129.887 132.592 130.092 132.494 130.272C132.397 130.452 132.26 130.592 132.083 130.692C131.906 130.793 131.701 130.843 131.466 130.843C131.128 130.843 130.852 130.761 130.639 130.596C130.426 130.435 130.29 130.216 130.232 129.938H130.643C130.692 130.106 130.784 130.237 130.918 130.331C131.055 130.429 131.23 130.478 131.443 130.478C131.669 130.478 131.854 130.405 132.001 130.258C132.15 130.115 132.225 129.914 132.225 129.655V128.974C132.157 129.178 132.039 129.341 131.868 129.463C131.701 129.585 131.495 129.646 131.251 129.646C131.029 129.646 130.831 129.594 130.657 129.491C130.484 129.387 130.346 129.239 130.246 129.047C130.148 128.852 130.1 128.624 130.1 128.362C130.1 128.1 130.148 127.872 130.246 127.677C130.346 127.482 130.484 127.332 130.657 127.229C130.831 127.125 131.029 127.073 131.251 127.073ZM131.37 127.444C131.114 127.444 130.909 127.526 130.753 127.69C130.601 127.852 130.525 128.076 130.525 128.362C130.525 128.648 130.601 128.874 130.753 129.038C130.909 129.2 131.114 129.28 131.37 129.28C131.535 129.28 131.681 129.242 131.809 129.166C131.94 129.09 132.042 128.983 132.115 128.846C132.188 128.706 132.225 128.545 132.225 128.362C132.225 128.179 132.188 128.018 132.115 127.878C132.042 127.737 131.94 127.631 131.809 127.558C131.681 127.482 131.535 127.444 131.37 127.444ZM133.974 126.781V126.393H134.897V129.614H134.459V126.781H133.974ZM135.327 129.294C135.845 128.947 136.259 128.603 136.57 128.261C136.881 127.917 137.036 127.597 137.036 127.302C137.036 127.119 136.989 126.973 136.895 126.863C136.803 126.75 136.654 126.694 136.447 126.694C136.233 126.694 136.072 126.763 135.962 126.9C135.853 127.034 135.792 127.22 135.78 127.457H135.368C135.39 127.098 135.501 126.822 135.702 126.63C135.903 126.435 136.162 126.338 136.479 126.338C136.78 126.338 137.019 126.418 137.196 126.58C137.373 126.741 137.461 126.97 137.461 127.265C137.461 127.509 137.382 127.757 137.224 128.01C137.068 128.26 136.872 128.493 136.634 128.709C136.4 128.923 136.157 129.104 135.908 129.253H137.543V129.596H135.327V129.294ZM140.433 127.763V128.115H138.606V127.763H140.433ZM144.086 128.869H142.669L142.4 129.614H141.952L143.144 126.452H143.615L144.803 129.614H144.355L144.086 128.869ZM143.967 128.545L143.377 126.918L142.788 128.545H143.967ZM147.362 127.105V129.614H146.947V129.025C146.883 129.229 146.768 129.386 146.604 129.495C146.443 129.602 146.254 129.655 146.037 129.655C145.748 129.655 145.513 129.562 145.334 129.376C145.154 129.188 145.064 128.918 145.064 128.568V127.105H145.48V128.526C145.48 128.776 145.544 128.97 145.672 129.107C145.8 129.241 145.973 129.308 146.193 129.308C146.421 129.308 146.604 129.235 146.741 129.089C146.878 128.939 146.947 128.723 146.947 128.44V127.105H147.362ZM148.965 127.073C149.209 127.073 149.415 127.134 149.582 127.256C149.753 127.378 149.872 127.541 149.939 127.745V127.105H150.355V129.655C150.355 129.887 150.306 130.092 150.208 130.272C150.111 130.452 149.974 130.592 149.797 130.692C149.62 130.793 149.415 130.843 149.18 130.843C148.842 130.843 148.566 130.761 148.353 130.596C148.14 130.435 148.004 130.216 147.946 129.938H148.358C148.406 130.106 148.498 130.237 148.632 130.331C148.769 130.429 148.944 130.478 149.157 130.478C149.383 130.478 149.569 130.405 149.715 130.258C149.864 130.115 149.939 129.914 149.939 129.655V128.974C149.872 129.178 149.753 129.341 149.582 129.463C149.415 129.585 149.209 129.646 148.965 129.646C148.743 129.646 148.545 129.594 148.371 129.491C148.198 129.387 148.061 129.239 147.96 129.047C147.863 128.852 147.814 128.624 147.814 128.362C147.814 128.1 147.863 127.872 147.96 127.677C148.061 127.482 148.198 127.332 148.371 127.229C148.545 127.125 148.743 127.073 148.965 127.073ZM149.084 127.444C148.828 127.444 148.623 127.526 148.467 127.69C148.315 127.852 148.239 128.076 148.239 128.362C148.239 128.648 148.315 128.874 148.467 129.038C148.623 129.2 148.828 129.28 149.084 129.28C149.249 129.28 149.395 129.242 149.523 129.166C149.654 129.09 149.756 128.983 149.829 128.846C149.902 128.706 149.939 128.545 149.939 128.362C149.939 128.179 149.902 128.018 149.829 127.878C149.756 127.737 149.654 127.631 149.523 127.558C149.395 127.482 149.249 127.444 149.084 127.444ZM151.688 126.781V126.393H152.611V129.614H152.173V126.781H151.688ZM153.581 128.709C153.608 128.901 153.675 129.049 153.782 129.152C153.888 129.256 154.035 129.308 154.22 129.308C154.476 129.308 154.67 129.209 154.801 129.011C154.932 128.813 154.997 128.499 154.997 128.07C154.997 127.987 154.996 127.925 154.993 127.882C154.95 128.065 154.846 128.211 154.682 128.321C154.517 128.431 154.324 128.485 154.102 128.485C153.782 128.485 153.53 128.389 153.348 128.197C153.165 128.006 153.073 127.737 153.073 127.393C153.073 127.192 153.113 127.009 153.192 126.845C153.271 126.68 153.392 126.551 153.553 126.457C153.718 126.359 153.92 126.31 154.161 126.31C154.624 126.31 154.941 126.453 155.111 126.74C155.285 127.023 155.372 127.413 155.372 127.91C155.372 128.476 155.283 128.909 155.107 129.207C154.93 129.503 154.635 129.651 154.22 129.651C153.913 129.651 153.67 129.564 153.494 129.39C153.32 129.213 153.218 128.986 153.188 128.709H153.581ZM154.951 127.457C154.951 127.238 154.886 127.052 154.755 126.9C154.627 126.747 154.434 126.671 154.175 126.671C153.961 126.671 153.791 126.735 153.663 126.863C153.535 126.991 153.471 127.169 153.471 127.398C153.471 127.642 153.535 127.829 153.663 127.96C153.791 128.091 153.966 128.156 154.188 128.156C154.316 128.156 154.438 128.13 154.554 128.079C154.673 128.027 154.769 127.948 154.842 127.841C154.915 127.734 154.951 127.606 154.951 127.457Z" fill="#5E6E78"/>
<line x1="188.624" y1="120.044" x2="188.624" y2="46.4596" stroke="#CBD2DA" stroke-width="0.380789" stroke-dasharray="0.95 1.89"/>
<path d="M175.296 128.869H173.879L173.61 129.614H173.162L174.354 126.452H174.825L176.013 129.614H175.565L175.296 128.869ZM175.177 128.545L174.588 126.918L173.998 128.545H175.177ZM178.573 127.105V129.614H178.157V129.025C178.093 129.229 177.979 129.386 177.814 129.495C177.653 129.602 177.464 129.655 177.247 129.655C176.958 129.655 176.723 129.562 176.544 129.376C176.364 129.188 176.274 128.918 176.274 128.568V127.105H176.69V128.526C176.69 128.776 176.754 128.97 176.882 129.107C177.01 129.241 177.183 129.308 177.403 129.308C177.631 129.308 177.814 129.235 177.951 129.089C178.088 128.939 178.157 128.723 178.157 128.44V127.105H178.573ZM180.176 127.073C180.419 127.073 180.625 127.134 180.792 127.256C180.963 127.378 181.082 127.541 181.149 127.745V127.105H181.565V129.655C181.565 129.887 181.516 130.092 181.418 130.272C181.321 130.452 181.184 130.592 181.007 130.692C180.83 130.793 180.625 130.843 180.39 130.843C180.052 130.843 179.776 130.761 179.563 130.596C179.35 130.435 179.214 130.216 179.157 129.938H179.568C179.617 130.106 179.708 130.237 179.842 130.331C179.979 130.429 180.154 130.478 180.367 130.478C180.593 130.478 180.779 130.405 180.925 130.258C181.074 130.115 181.149 129.914 181.149 129.655V128.974C181.082 129.178 180.963 129.341 180.792 129.463C180.625 129.585 180.419 129.646 180.176 129.646C179.953 129.646 179.755 129.594 179.581 129.491C179.408 129.387 179.271 129.239 179.17 129.047C179.073 128.852 179.024 128.624 179.024 128.362C179.024 128.1 179.073 127.872 179.17 127.677C179.271 127.482 179.408 127.332 179.581 127.229C179.755 127.125 179.953 127.073 180.176 127.073ZM180.294 127.444C180.038 127.444 179.833 127.526 179.677 127.69C179.525 127.852 179.449 128.076 179.449 128.362C179.449 128.648 179.525 128.874 179.677 129.038C179.833 129.2 180.038 129.28 180.294 129.28C180.459 129.28 180.605 129.242 180.733 129.166C180.864 129.09 180.966 128.983 181.039 128.846C181.112 128.706 181.149 128.545 181.149 128.362C181.149 128.179 181.112 128.018 181.039 127.878C180.966 127.737 180.864 127.631 180.733 127.558C180.605 127.482 180.459 127.444 180.294 127.444ZM182.898 126.781V126.393H183.822V129.614H183.383V126.781H182.898ZM184.252 129.294C184.769 128.947 185.184 128.603 185.494 128.261C185.805 127.917 185.961 127.597 185.961 127.302C185.961 127.119 185.913 126.973 185.819 126.863C185.727 126.75 185.578 126.694 185.371 126.694C185.158 126.694 184.996 126.763 184.887 126.9C184.777 127.034 184.716 127.22 184.704 127.457H184.293C184.314 127.098 184.425 126.822 184.626 126.63C184.827 126.435 185.086 126.338 185.403 126.338C185.705 126.338 185.944 126.418 186.12 126.58C186.297 126.741 186.385 126.97 186.385 127.265C186.385 127.509 186.306 127.757 186.148 128.01C185.993 128.26 185.796 128.493 185.558 128.709C185.324 128.923 185.082 129.104 184.832 129.253H186.468V129.596H184.252V129.294ZM189.358 127.763V128.115H187.53V127.763H189.358ZM193.01 128.869H191.593L191.324 129.614H190.876L192.069 126.452H192.539L193.727 129.614H193.28L193.01 128.869ZM192.891 128.545L192.302 126.918L191.712 128.545H192.891ZM196.287 127.105V129.614H195.871V129.025C195.807 129.229 195.693 129.386 195.528 129.495C195.367 129.602 195.178 129.655 194.962 129.655C194.672 129.655 194.438 129.562 194.258 129.376C194.078 129.188 193.988 128.918 193.988 128.568V127.105H194.404V128.526C194.404 128.776 194.468 128.97 194.596 129.107C194.724 129.241 194.898 129.308 195.117 129.308C195.345 129.308 195.528 129.235 195.665 129.089C195.802 128.939 195.871 128.723 195.871 128.44V127.105H196.287ZM197.89 127.073C198.133 127.073 198.339 127.134 198.507 127.256C198.677 127.378 198.796 127.541 198.863 127.745V127.105H199.279V129.655C199.279 129.887 199.23 130.092 199.133 130.272C199.035 130.452 198.898 130.592 198.721 130.692C198.545 130.793 198.339 130.843 198.104 130.843C197.766 130.843 197.491 130.761 197.277 130.596C197.064 130.435 196.929 130.216 196.871 129.938H197.282C197.331 130.106 197.422 130.237 197.556 130.331C197.693 130.429 197.868 130.478 198.082 130.478C198.307 130.478 198.493 130.405 198.639 130.258C198.788 130.115 198.863 129.914 198.863 129.655V128.974C198.796 129.178 198.677 129.341 198.507 129.463C198.339 129.585 198.133 129.646 197.89 129.646C197.667 129.646 197.469 129.594 197.296 129.491C197.122 129.387 196.985 129.239 196.884 129.047C196.787 128.852 196.738 128.624 196.738 128.362C196.738 128.1 196.787 127.872 196.884 127.677C196.985 127.482 197.122 127.332 197.296 127.229C197.469 127.125 197.667 127.073 197.89 127.073ZM198.009 127.444C197.753 127.444 197.547 127.526 197.392 127.69C197.239 127.852 197.163 128.076 197.163 128.362C197.163 128.648 197.239 128.874 197.392 129.038C197.547 129.2 197.753 129.28 198.009 129.28C198.173 129.28 198.319 129.242 198.447 129.166C198.578 129.09 198.68 128.983 198.753 128.846C198.826 128.706 198.863 128.545 198.863 128.362C198.863 128.179 198.826 128.018 198.753 127.878C198.68 127.737 198.578 127.631 198.447 127.558C198.319 127.482 198.173 127.444 198.009 127.444ZM200.613 126.781V126.393H201.536V129.614H201.097V126.781H200.613ZM202.505 128.709C202.532 128.901 202.599 129.049 202.706 129.152C202.813 129.256 202.959 129.308 203.145 129.308C203.401 129.308 203.594 129.209 203.725 129.011C203.856 128.813 203.921 128.499 203.921 128.07C203.921 127.987 203.92 127.925 203.917 127.882C203.874 128.065 203.771 128.211 203.606 128.321C203.442 128.431 203.248 128.485 203.026 128.485C202.706 128.485 202.455 128.389 202.272 128.197C202.089 128.006 201.998 127.737 201.998 127.393C201.998 127.192 202.037 127.009 202.117 126.845C202.196 126.68 202.316 126.551 202.478 126.457C202.642 126.359 202.845 126.31 203.085 126.31C203.548 126.31 203.865 126.453 204.036 126.74C204.209 127.023 204.296 127.413 204.296 127.91C204.296 128.476 204.208 128.909 204.031 129.207C203.854 129.503 203.559 129.651 203.145 129.651C202.837 129.651 202.595 129.564 202.418 129.39C202.244 129.213 202.142 128.986 202.112 128.709H202.505ZM203.876 127.457C203.876 127.238 203.81 127.052 203.679 126.9C203.551 126.747 203.358 126.671 203.099 126.671C202.886 126.671 202.715 126.735 202.587 126.863C202.459 126.991 202.395 127.169 202.395 127.398C202.395 127.642 202.459 127.829 202.587 127.96C202.715 128.091 202.89 128.156 203.113 128.156C203.241 128.156 203.362 128.13 203.478 128.079C203.597 128.027 203.693 127.948 203.766 127.841C203.839 127.734 203.876 127.606 203.876 127.457Z" fill="#5E6E78"/>
<rect x="42.4868" y="119.19" width="2.66553" height="72.7307" rx="1.33277" transform="rotate(-180 42.4868 119.19)" fill="#DAF1FF"/>
<rect x="42.4868" y="119.19" width="2.66553" height="52.9297" rx="1.33276" transform="rotate(-180 42.4868 119.19)" fill="#5AC2FF"/>
<rect x="92.3706" y="119.19" width="2.66553" height="72.7307" rx="1.33277" transform="rotate(-180 92.3706 119.19)" fill="#DAF1FF"/>
<rect x="92.3706" y="119.19" width="2.66553" height="26.2745" rx="1.33276" transform="rotate(-180 92.3706 119.19)" fill="#5AC2FF"/>
<rect x="190.615" y="119.19" width="2.66553" height="72.7307" rx="1.33277" transform="rotate(-180 190.615 119.19)" fill="#DAF1FF"/>
<rect x="190.615" y="119.19" width="2.66553" height="39.9829" rx="1.33276" transform="rotate(-180 190.615 119.19)" fill="#5AC2FF"/>
<rect x="141.492" y="119.19" width="2.66553" height="72.7307" rx="1.33277" transform="rotate(-180 141.492 119.19)" fill="#DAF1FF"/>
<rect x="141.492" y="119.19" width="2.66553" height="64.3534" rx="1.33276" transform="rotate(-180 141.492 119.19)" fill="#5AC2FF"/>
<defs>
<clipPath id="clip0_12130_4972">
<rect width="6.09263" height="6.09263" fill="white" transform="translate(108.232 16.2316)"/>
</clipPath>
</defs>
</svg>
