<svg width="216" height="142" viewBox="0 0 216 142" fill="none" xmlns="http://www.w3.org/2000/svg">
<path d="M0.5 8C0.5 3.85786 3.85786 0.5 8 0.5H208C212.142 0.5 215.5 3.85786 215.5 8V134C215.5 138.142 212.142 141.5 208 141.5H8C3.85786 141.5 0.5 138.142 0.5 134V8Z" fill="white"/>
<path d="M0.5 8C0.5 3.85786 3.85786 0.5 8 0.5H208C212.142 0.5 215.5 3.85786 215.5 8V134C215.5 138.142 212.142 141.5 208 141.5H8C3.85786 141.5 0.5 138.142 0.5 134V8Z" stroke="#EEF0F1"/>
<g opacity="0.1">
<path d="M65.9887 42.0154C64.0962 41.1246 60.9647 42.5739 59.9688 44.6948C58.0626 48.7413 64.2262 54.6037 66.4679 53.9733C68.9696 53.2709 69.4624 43.6532 65.9887 42.0154Z" stroke="#1E87F2" stroke-width="1.068" stroke-miterlimit="10" stroke-linecap="round" stroke-dasharray="2.67 2.67"/>
<path d="M56.5222 51.1844C55.848 50.7938 48.6918 46.6479 44.6432 49.9303C41.7992 52.2328 41.7718 57.1565 43.9108 59.9215C48.1408 65.4002 61.2656 62.9435 62.6277 59.0238C63.538 56.3821 59.2361 52.7571 56.5222 51.1844Z" stroke="#1E87F2" stroke-width="1.068" stroke-miterlimit="10" stroke-linecap="round" stroke-dasharray="2.67 2.67"/>
<path d="M65.7283 118.837C83.1447 114.51 102.933 110.103 133.662 110.854C150.846 111.272 154.741 105.933 167.766 99.2967C179.375 93.3794 185.076 81.6134 181.575 74.9458C178.04 68.2131 167.273 70.8959 158.454 60.8739C154.439 56.31 155.144 53.1099 152.827 48.0492C145.483 32.0243 117.96 19.4976 104.391 26.1276C86.461 34.8853 101.79 72.7255 81.7484 83.0593C69.072 89.5968 59.4894 77.0461 46.9738 86.6296C40.7725 91.3784 33.1851 98.0358 32.5999 105.269C32.5999 105.269 31.7785 122.949 65.7283 118.837Z" stroke="#1E87F2" stroke-width="1.068" stroke-miterlimit="10" stroke-linecap="round" stroke-dasharray="2.67 2.67"/>
<path d="M161.948 99.146C161.948 99.146 158.793 103.333 155.637 109.079C152.793 114.26 150.63 121.242 150.151 127.071C148.813 127.005 147.341 126.947 145.75 126.892C136.328 126.557 122.724 126.348 107.598 126.348C90.4002 126.348 75.1742 126.618 65.8174 127.036C65.4957 127.05 65.1809 127.064 64.8729 127.081C53.1923 112.587 29.6739 87.3389 51.3169 76.9503C51.3169 76.9503 52.9014 76.4672 55.28 75.429C62.8023 72.1398 78.2645 63.2964 76.5465 46.6137C76.5465 46.6137 75.9613 43.5026 75.9613 39.1717C75.9613 29.0435 79.1646 12.2579 100.541 13.0254C113.487 13.4914 125.411 20.0871 132.618 30.6436C139.689 40.9979 150.993 53.737 160.203 46.4663C162.328 44.7874 165.138 44.1638 167.763 44.9039C174.388 46.761 181.914 56.4095 161.948 99.146Z" fill="url(#paint0_linear_12189_987)"/>
</g>
<path d="M110.027 57.3104C109.938 57.3104 109.86 57.2761 109.801 57.2145L108.398 55.6966H94.4008C94.2365 55.6966 94.103 55.5767 94.103 55.4293V51.0265C94.103 50.8792 94.2365 50.7593 94.4008 50.7593H110.027C110.192 50.7593 110.325 50.8792 110.325 51.0265V57.0431C110.325 57.211 110.174 57.3104 110.027 57.3104Z" fill="#8FD9FF"/>
<path d="M110.031 50.8243C110.157 50.8243 110.26 50.9134 110.26 51.023V53.2261V55.628V57.0431C110.26 57.2315 109.99 57.3137 109.856 57.1698L108.432 55.628H94.4075C94.2809 55.628 94.1782 55.5389 94.1782 55.4293V51.0264C94.1782 50.9168 94.2809 50.8277 94.4075 50.8277H110.031V50.8243Z" fill="white"/>
<path d="M107.344 54.5007L108.213 54.0656L109.076 54.5144L108.918 53.579L109.623 52.9212L108.655 52.7773L108.227 51.9241L107.789 52.7704L106.821 52.9006L107.515 53.5688L107.344 54.5007Z" fill="#E3E9F7"/>
<path d="M104.38 54.5007L105.25 54.0656L106.115 54.5144L105.955 53.579L106.663 52.9212L105.694 52.7773L105.267 51.9241L104.829 52.7704L103.857 52.9006L104.555 53.5688L104.38 54.5007Z" fill="#E3E9F7"/>
<path d="M101.365 54.5007L102.234 54.0656L103.1 54.5144L102.939 53.579L103.644 52.9212L102.679 52.7773L102.251 51.9241L101.813 52.7704L100.841 52.9006L101.539 53.5688L101.365 54.5007Z" fill="#FDB606"/>
<path d="M98.35 54.5007L99.2193 54.0656L100.082 54.5144L99.9243 53.579L100.629 52.9212L99.6642 52.7773L99.2364 51.9241L98.7949 52.7704L97.8264 52.9006L98.5246 53.5688L98.35 54.5007Z" fill="#FDB606"/>
<path d="M95.3347 54.5007L96.2039 54.0656L97.0664 54.5144L96.9089 53.579L97.614 52.9212L96.6454 52.7773L96.2211 51.9241L95.7796 52.7704L94.811 52.9006L95.5058 53.5688L95.3347 54.5007Z" fill="#FDB606"/>
<path d="M138.621 104.765C138.457 104.765 138.323 104.645 138.323 104.497V100.095C138.323 99.9472 138.457 99.8273 138.621 99.8273H152.618L154.022 98.3095C154.08 98.2478 154.159 98.2135 154.247 98.2135C154.395 98.2135 154.545 98.3129 154.545 98.4808V104.497C154.545 104.645 154.412 104.765 154.247 104.765H138.621Z" fill="#8FD9FF"/>
<path d="M154.248 104.696C154.374 104.696 154.477 104.607 154.477 104.497V102.294V99.8924V98.4773C154.477 98.2889 154.207 98.2067 154.073 98.3506L152.649 99.8924H138.625C138.498 99.8924 138.395 99.9815 138.395 100.091V104.494C138.395 104.604 138.498 104.693 138.625 104.693H154.248V104.696Z" fill="white"/>
<path d="M151.561 103.582L152.43 103.151L153.293 103.596L153.136 102.661L153.841 102.006L152.872 101.862L152.444 101.009L152.006 101.855L151.038 101.986L151.732 102.65L151.561 103.582Z" fill="#FDB606"/>
<path d="M148.597 103.582L149.467 103.151L150.332 103.596L150.172 102.661L150.88 102.006L149.912 101.862L149.484 101.009L149.046 101.855L148.074 101.986L148.772 102.65L148.597 103.582Z" fill="#FDB606"/>
<path d="M145.582 103.582L146.451 103.151L147.317 103.596L147.156 102.661L147.862 102.006L146.896 101.862L146.469 101.009L146.031 101.855L145.059 101.986L145.757 102.65L145.582 103.582Z" fill="#FDB606"/>
<path d="M142.567 103.582L143.437 103.151L144.299 103.596L144.142 102.661L144.847 102.006L143.882 101.862L143.454 101.009L143.012 101.855L142.044 101.986L142.742 102.65L142.567 103.582Z" fill="#FDB606"/>
<path d="M139.552 103.582L140.421 103.151L141.284 103.596L141.126 102.661L141.831 102.006L140.863 101.862L140.439 101.009L139.997 101.855L139.029 101.986L139.723 102.65L139.552 103.582Z" fill="#FDB606"/>
<path d="M73.4249 113.365C73.2607 113.365 73.1272 113.245 73.1272 113.098V103.555C73.1272 103.408 73.2607 103.288 73.4249 103.288H87.4224L88.8256 101.77C88.8837 101.709 88.9625 101.674 89.0514 101.674C89.1986 101.674 89.3492 101.774 89.3492 101.942V113.098C89.3492 113.245 89.2157 113.365 89.0514 113.365H73.4249Z" fill="#8FD9FF"/>
<path d="M89.0516 113.296C89.1782 113.296 89.2809 113.207 89.2809 113.098V105.755V103.353V101.938C89.2809 101.75 89.0105 101.668 88.8771 101.811L87.4534 103.353H73.4285C73.3019 103.353 73.1992 103.442 73.1992 103.552V113.094C73.1992 113.204 73.3019 113.293 73.4285 113.293H89.0516V113.296Z" fill="white"/>
<path d="M76.303 106.571H86.1731" stroke="#E3E9F7" stroke-width="0.534" stroke-miterlimit="10" stroke-linecap="round"/>
<path d="M76.303 107.444H86.1731" stroke="#E3E9F7" stroke-width="0.534" stroke-miterlimit="10" stroke-linecap="round"/>
<path d="M76.303 108.318H86.1731" stroke="#E3E9F7" stroke-width="0.534" stroke-miterlimit="10" stroke-linecap="round"/>
<path d="M76.303 109.192H86.1731" stroke="#E3E9F7" stroke-width="0.534" stroke-miterlimit="10" stroke-linecap="round"/>
<path d="M76.303 110.066H82.6857" stroke="#E3E9F7" stroke-width="0.534" stroke-miterlimit="10" stroke-linecap="round"/>
<path d="M152.652 54.5348C152.505 54.5348 152.355 54.4354 152.355 54.2675V43.1114C152.355 42.9641 152.488 42.8442 152.652 42.8442H168.279C168.443 42.8442 168.577 42.9641 168.577 43.1114V52.6538C168.577 52.8011 168.443 52.921 168.279 52.921H154.282L152.878 54.4389C152.82 54.5005 152.741 54.5348 152.652 54.5348Z" fill="#8FD9FF"/>
<path d="M152.653 42.9093C152.526 42.9093 152.423 42.9984 152.423 43.108V50.4506V52.8525V54.2676C152.423 54.456 152.694 54.5382 152.827 54.3943L154.251 52.8525H168.276C168.402 52.8525 168.505 52.7634 168.505 52.6538V43.1115C168.505 43.0018 168.402 42.9127 168.276 42.9127H152.653V42.9093Z" fill="white"/>
<path d="M155.531 46.1814H165.401" stroke="#E3E9F7" stroke-width="0.534" stroke-miterlimit="10" stroke-linecap="round"/>
<path d="M155.531 47.0551H165.401" stroke="#E3E9F7" stroke-width="0.534" stroke-miterlimit="10" stroke-linecap="round"/>
<path d="M155.531 47.9286H165.401" stroke="#E3E9F7" stroke-width="0.534" stroke-miterlimit="10" stroke-linecap="round"/>
<path d="M155.531 48.8025H165.401" stroke="#E3E9F7" stroke-width="0.534" stroke-miterlimit="10" stroke-linecap="round"/>
<path d="M155.531 49.6761H161.914" stroke="#E3E9F7" stroke-width="0.534" stroke-miterlimit="10" stroke-linecap="round"/>
<path d="M67.2922 81.4047C72.6223 81.4047 76.9432 77.0787 76.9432 71.7424C76.9432 66.4061 72.6223 62.0802 67.2922 62.0802C61.962 62.0802 57.6411 66.4061 57.6411 71.7424C57.6411 77.0787 61.962 81.4047 67.2922 81.4047Z" fill="#8FD9FF"/>
<path d="M62.5897 76.7929C62.3844 76.9334 62.1208 76.7176 62.2269 76.4914C62.2269 76.488 62.2304 76.488 62.2304 76.4846C62.3536 76.231 62.5076 75.9877 62.6855 75.765C63.0414 75.3162 63.4864 74.9359 63.9792 74.6343C64.472 74.3328 65.0127 74.1067 65.5706 73.9559C66.1284 73.8052 66.7068 73.7332 67.2852 73.7332C67.8601 73.7332 68.4419 73.8052 68.9998 73.9559C69.5576 74.1067 70.0984 74.3294 70.5912 74.6343C71.084 74.9359 71.5289 75.3162 71.8848 75.7685C72.0628 75.9912 72.2168 76.2344 72.34 76.488C72.3434 76.4914 72.3434 76.4948 72.3469 76.5017C72.4529 76.7278 72.1894 76.9471 71.9841 76.8032C71.9807 76.7998 71.9772 76.7964 71.9704 76.7929C71.7616 76.649 71.5494 76.5188 71.3338 76.4023C70.9026 76.1728 70.4646 75.9946 70.0162 75.8541C69.123 75.5766 68.2058 75.4498 67.2818 75.4498C66.3577 75.4498 65.4405 75.5766 64.5473 75.8541C64.099 75.9946 63.6609 76.1728 63.2297 76.4023C63.0141 76.5188 62.8019 76.6456 62.5931 76.7929C62.5965 76.7895 62.5931 76.7895 62.5897 76.7929Z" fill="white"/>
<path d="M63.8182 71.948C64.5837 71.948 65.2042 70.9126 65.2042 69.6353C65.2042 68.358 64.5837 67.3225 63.8182 67.3225C63.0527 67.3225 62.4321 68.358 62.4321 69.6353C62.4321 70.9126 63.0527 71.948 63.8182 71.948Z" fill="white"/>
<path d="M70.7655 71.9479C71.5309 71.9479 72.1515 70.9125 72.1515 69.6352C72.1515 68.3579 71.5309 67.3224 70.7655 67.3224C70 67.3224 69.3794 68.3579 69.3794 69.6352C69.3794 70.9125 70 71.9479 70.7655 71.9479Z" fill="white"/>
<path d="M65.8376 68.6176C65.6493 68.1893 64.5987 65.9998 62.7335 65.4311C62.5898 65.3865 62.5076 65.2495 62.5384 65.1193C62.5761 64.9651 62.7506 64.8726 62.9183 64.924C65.0573 65.575 65.8855 68.0762 66.019 68.5662C66.0326 68.6107 66.0018 68.6587 65.9505 68.669C65.906 68.6792 65.8581 68.6587 65.8376 68.6176Z" fill="white"/>
<path d="M68.7435 68.6177C68.9317 68.1894 69.9824 66 71.8476 65.4312C71.9913 65.3867 72.0734 65.2496 72.0426 65.1194C72.005 64.9652 71.8304 64.8727 71.6627 64.9241C69.5238 65.5751 68.6956 68.0763 68.5621 68.5663C68.5484 68.6108 68.5792 68.6588 68.6305 68.6691C68.675 68.6793 68.7264 68.6588 68.7435 68.6177Z" fill="white"/>
<path d="M89.0241 81.4046C94.3542 81.4046 98.6752 77.0787 98.6752 71.7424C98.6752 66.4061 94.3542 62.0802 89.0241 62.0802C83.694 62.0802 79.373 66.4061 79.373 71.7424C79.373 77.0787 83.694 81.4046 89.0241 81.4046Z" fill="#8FD9FF"/>
<path d="M84.3216 76.7929C84.1163 76.9334 83.8528 76.7175 83.9589 76.4914C83.9589 76.488 83.9623 76.488 83.9623 76.4845C84.0855 76.231 84.2395 75.9877 84.4175 75.765C84.7734 75.3162 85.2183 74.9358 85.7111 74.6343C86.2039 74.3328 86.7447 74.1067 87.3025 73.9559C87.8604 73.8052 88.4387 73.7332 89.0171 73.7332C89.5921 73.7332 90.1739 73.8052 90.7317 73.9559C91.2896 74.1067 91.8303 74.3294 92.3231 74.6343C92.8159 74.9358 93.2608 75.3162 93.6168 75.7684C93.7947 75.9912 93.9487 76.2344 94.0719 76.488C94.0754 76.4914 94.0754 76.4948 94.0788 76.5017C94.1849 76.7278 93.9214 76.9471 93.716 76.8032C93.7126 76.7998 93.7092 76.7963 93.7023 76.7929C93.4936 76.649 93.2814 76.5188 93.0658 76.4023C92.6345 76.1727 92.1965 75.9946 91.7482 75.8541C90.8549 75.5766 89.9377 75.4498 89.0137 75.4498C88.0897 75.4498 87.1725 75.5766 86.2792 75.8541C85.8309 75.9946 85.3928 76.1727 84.9616 76.4023C84.746 76.5188 84.5338 76.6456 84.3251 76.7929C84.3285 76.7895 84.3251 76.7895 84.3216 76.7929Z" fill="white"/>
<path d="M85.5504 71.948C86.3159 71.948 86.9364 70.9126 86.9364 69.6353C86.9364 68.3579 86.3159 67.3225 85.5504 67.3225C84.7849 67.3225 84.1643 68.3579 84.1643 69.6353C84.1643 70.9126 84.7849 71.948 85.5504 71.948Z" fill="white"/>
<path d="M92.4979 71.9479C93.2634 71.9479 93.8839 70.9124 93.8839 69.6351C93.8839 68.3578 93.2634 67.3224 92.4979 67.3224C91.7324 67.3224 91.1118 68.3578 91.1118 69.6351C91.1118 70.9124 91.7324 71.9479 92.4979 71.9479Z" fill="white"/>
<path d="M110.756 81.4046C116.086 81.4046 120.407 77.0787 120.407 71.7424C120.407 66.4061 116.086 62.0802 110.756 62.0802C105.426 62.0802 101.105 66.4061 101.105 71.7424C101.105 77.0787 105.426 81.4046 110.756 81.4046Z" fill="#8FD9FF"/>
<path d="M107.283 71.948C108.048 71.948 108.669 70.9126 108.669 69.6353C108.669 68.3579 108.048 67.3225 107.283 67.3225C106.517 67.3225 105.896 68.3579 105.896 69.6353C105.896 70.9126 106.517 71.948 107.283 71.948Z" fill="white"/>
<path d="M114.23 71.9479C114.995 71.9479 115.616 70.9124 115.616 69.6351C115.616 68.3578 114.995 67.3224 114.23 67.3224C113.464 67.3224 112.844 68.3578 112.844 69.6351C112.844 70.9124 113.464 71.9479 114.23 71.9479Z" fill="white"/>
<path d="M115.684 76.8304H105.828C105.544 76.8304 105.315 76.6008 105.315 76.3165C105.315 76.0321 105.544 75.8025 105.828 75.8025H115.684C115.969 75.8025 116.198 76.0321 116.198 76.3165C116.198 76.6008 115.969 76.8304 115.684 76.8304Z" fill="white"/>
<path d="M132.488 81.4046C137.818 81.4046 142.139 77.0787 142.139 71.7424C142.139 66.4061 137.818 62.0802 132.488 62.0802C127.158 62.0802 122.837 66.4061 122.837 71.7424C122.837 77.0787 127.158 81.4046 132.488 81.4046Z" fill="#C8B0FF"/>
<path d="M127.632 75.3196C127.419 75.1791 127.149 75.395 127.259 75.6211C127.259 75.6245 127.262 75.6245 127.262 75.628C127.389 75.8815 127.549 76.1248 127.731 76.3475C128.097 76.7963 128.559 77.1767 129.069 77.4782C129.579 77.7797 130.137 78.0058 130.715 78.1566C131.294 78.3074 131.889 78.3793 132.488 78.3793C133.083 78.3793 133.682 78.3074 134.261 78.1566C134.839 78.0058 135.397 77.7831 135.907 77.4782C136.417 77.1767 136.875 76.7963 137.245 76.3441C137.43 76.1214 137.587 75.8781 137.714 75.6245C137.717 75.6211 137.717 75.6177 137.721 75.6108C137.83 75.3847 137.56 75.1654 137.348 75.3093C137.344 75.3128 137.337 75.3162 137.334 75.3162C137.118 75.4601 136.899 75.5903 136.677 75.7068C136.232 75.9363 135.777 76.1145 135.315 76.255C134.391 76.5325 133.443 76.6593 132.491 76.6593C131.537 76.6593 130.589 76.5325 129.665 76.255C129.202 76.1145 128.747 75.9363 128.302 75.7068C128.08 75.5903 127.861 75.4635 127.645 75.3162C127.638 75.323 127.635 75.323 127.632 75.3196Z" fill="white"/>
<path d="M129.014 71.948C129.779 71.948 130.4 70.9126 130.4 69.6353C130.4 68.3579 129.779 67.3225 129.014 67.3225C128.248 67.3225 127.628 68.3579 127.628 69.6353C127.628 70.9126 128.248 71.948 129.014 71.948Z" fill="white"/>
<path d="M135.961 71.9479C136.727 71.9479 137.348 70.9124 137.348 69.6351C137.348 68.3578 136.727 67.3224 135.961 67.3224C135.196 67.3224 134.575 68.3578 134.575 69.6351C134.575 70.9124 135.196 71.9479 135.961 71.9479Z" fill="white"/>
<path d="M154.22 81.4046C159.55 81.4046 163.871 77.0787 163.871 71.7424C163.871 66.4061 159.55 62.0802 154.22 62.0802C148.89 62.0802 144.569 66.4061 144.569 71.7424C144.569 77.0787 148.89 81.4046 154.22 81.4046Z" fill="#C8B0FF"/>
<path d="M150.746 71.9479C151.512 71.9479 152.132 70.9124 152.132 69.6351C152.132 68.3578 151.512 67.3224 150.746 67.3224C149.981 67.3224 149.36 68.3578 149.36 69.6351C149.36 70.9124 149.981 71.9479 150.746 71.9479Z" fill="white"/>
<path d="M157.694 71.9478C158.459 71.9478 159.08 70.9124 159.08 69.6351C159.08 68.3577 158.459 67.3223 157.694 67.3223C156.928 67.3223 156.308 68.3577 156.308 69.6351C156.308 70.9124 156.928 71.9478 157.694 71.9478Z" fill="white"/>
<path d="M160.456 74.192C160.456 77.3065 157.663 79.8283 154.22 79.8283C150.778 79.8283 147.981 77.3065 147.981 74.192C147.981 74.1885 147.981 74.1885 147.981 74.1851C147.981 73.8802 148.293 73.6746 148.574 73.7876C150.035 74.3667 152.023 74.723 154.217 74.723C156.411 74.723 158.399 74.3667 159.86 73.7876C160.145 73.6746 160.453 73.8802 160.453 74.1851C160.456 74.1885 160.456 74.1885 160.456 74.192Z" fill="white"/>
<path d="M71.1767 86.8006H63.408V94.5784H71.1767V86.8006Z" stroke="#CDD7FB" stroke-width="1.068" stroke-miterlimit="10"/>
<path d="M92.9257 86.8007H85.157V94.5785H92.9257V86.8007Z" stroke="#CDD7FB" stroke-width="1.068" stroke-miterlimit="10"/>
<path d="M114.675 86.8007H106.906V94.5785H114.675V86.8007Z" stroke="#CDD7FB" stroke-width="1.068" stroke-miterlimit="10"/>
<path d="M136.424 86.8007H128.655V94.5785H136.424V86.8007Z" stroke="#CDD7FB" stroke-width="1.068" stroke-miterlimit="10"/>
<path d="M158.173 86.8007H150.404V94.5785H158.173V86.8007Z" stroke="#CDD7FB" stroke-width="1.068" stroke-miterlimit="10"/>
<path d="M133.724 33.0479H126.887C126.127 33.0479 125.511 32.4311 125.511 31.6705V25.6984C125.511 24.9378 126.127 24.321 126.887 24.321H133.724C134.484 24.321 135.1 24.9378 135.1 25.6984V31.6705C135.1 32.4311 134.484 33.0479 133.724 33.0479Z" fill="#DFD3FF"/>
<path d="M128.881 31.174L127.136 29.3786C126.831 29.0668 126.838 28.57 127.15 28.2651C127.461 27.9601 127.957 27.967 128.262 28.2788L129.289 29.3341L132.362 26.2572C132.67 25.9489 133.166 25.9489 133.474 26.2572C133.782 26.5656 133.782 27.0624 133.474 27.3708L129.672 31.1774C129.449 31.3967 129.097 31.3967 128.881 31.174Z" fill="white"/>
<path d="M81.2933 46.1024H74.4554C73.6956 46.1024 73.0796 45.4856 73.0796 44.725V38.7529C73.0796 37.9923 73.6956 37.3755 74.4554 37.3755H81.2933C82.053 37.3755 82.669 37.9923 82.669 38.7529V44.725C82.669 45.4856 82.053 46.1024 81.2933 46.1024Z" fill="#DFD3FF"/>
<path d="M76.7622 41.2062V43.9747C76.7622 43.9747 77.1455 43.8754 77.4672 44.242C77.4809 44.2591 77.4912 44.2762 77.5014 44.2968C77.5357 44.3687 77.6862 44.5846 78.2612 44.5846H79.7842C79.7978 44.5846 79.815 44.5846 79.8286 44.5812C79.9313 44.5606 80.2872 44.4578 80.2735 43.9713C80.2701 43.8925 80.3112 43.8205 80.3796 43.776C80.5234 43.6835 80.7287 43.4539 80.5884 42.9365C80.5713 42.8714 80.585 42.8063 80.6226 42.7515C80.7458 42.5836 80.9717 42.1896 80.6671 41.8984C80.6124 41.8435 80.5884 41.7682 80.6055 41.6962C80.65 41.4838 80.6705 41.0623 80.1811 40.9561C80.164 40.9527 80.1469 40.9493 80.1298 40.9493H79.2195C79.0791 40.9493 78.9696 40.8294 78.9867 40.6957C79.0655 40.0344 79.2024 38.359 78.381 39.0716C78.3399 39.1059 78.3125 39.1539 78.3057 39.2053C78.2441 39.5582 77.919 41.0932 76.7622 41.2062Z" fill="white"/>
<path d="M76.7792 41.2132H74.9312V43.9645H76.7792V41.2132Z" fill="white"/>
<path opacity="0.1" d="M76.7008 41.2132H76.6392V43.9645H76.7008V41.2132Z" fill="black"/>
<path opacity="0.1" d="M75.9894 41.8165C76.0291 41.6489 75.9256 41.4809 75.7582 41.4412C75.5909 41.4014 75.4231 41.5051 75.3834 41.6726C75.3437 41.8402 75.4472 42.0082 75.6145 42.0479C75.7819 42.0876 75.9497 41.984 75.9894 41.8165Z" fill="black"/>
<path d="M75.9463 41.8067C75.9816 41.6634 75.8942 41.5186 75.7511 41.4832C75.6079 41.4479 75.4633 41.5354 75.4279 41.6787C75.3926 41.822 75.4801 41.9668 75.6232 42.0022C75.7663 42.0375 75.911 41.95 75.9463 41.8067Z" fill="#ACBCF8"/>
<path d="M52.5457 109.112H45.7112C44.9515 109.112 44.3354 108.496 44.3354 107.735V101.763C44.3354 101.002 44.9515 100.385 45.7112 100.385H52.5491C53.3089 100.385 53.9249 101.002 53.9249 101.763V107.735C53.9215 108.496 53.3055 109.112 52.5457 109.112Z" fill="#DFD3FF"/>
<path d="M47.4566 107.19L49.113 106.361L50.7558 107.214L50.4546 105.433L51.7962 104.185L49.9549 103.911L49.1438 102.287L48.3053 103.898L46.4607 104.144L47.7851 105.415L47.4566 107.19Z" fill="white"/>
<path d="M179.142 127.635C179.142 128.321 147.112 128.876 107.597 128.876C85.3042 128.876 65.3895 128.698 52.2681 128.42C49.2462 128.355 46.5836 128.286 44.3385 128.215C42.8566 128.167 41.5561 128.115 40.4507 128.064C37.6067 127.93 36.053 127.786 36.053 127.635C36.053 127.444 38.5753 127.262 43.0757 127.098C44.9203 127.032 47.0935 126.967 49.5645 126.909C62.5592 126.597 83.7128 126.395 107.597 126.395C128.607 126.395 147.506 126.553 160.593 126.803C172.119 127.022 179.142 127.313 179.142 127.635Z" fill="#EEE7FF"/>
<defs>
<linearGradient id="paint0_linear_12189_987" x1="42.49" y1="70.0404" x2="174.838" y2="70.0404" gradientUnits="userSpaceOnUse">
<stop stop-color="#1E87F2"/>
<stop offset="1" stop-color="#9651FF"/>
</linearGradient>
</defs>
</svg>
