<svg width="216" height="142" viewBox="0 0 216 142" fill="none" xmlns="http://www.w3.org/2000/svg">
<path d="M0.5 8C0.5 3.85786 3.85786 0.5 8 0.5H208C212.142 0.5 215.5 3.85786 215.5 8V134C215.5 138.142 212.142 141.5 208 141.5H8C3.85786 141.5 0.5 138.142 0.5 134V8Z" stroke="#EEF0F1"/>
<g opacity="0.1">
<path d="M66.3907 44.019C64.498 43.1279 61.3679 44.5767 60.3699 46.6969C58.4647 50.7441 64.6265 56.6055 66.8674 55.9764C69.3714 55.2734 69.8657 45.655 66.3907 44.019Z" stroke="#1E87F2" stroke-width="1.068" stroke-miterlimit="10" stroke-linecap="round" stroke-dasharray="2.67 2.67 2.67 2.67 2.67 2.67"/>
<path d="M56.924 53.1857C56.2486 52.7946 49.0935 48.6508 45.0443 51.9303C42.2011 54.2329 42.1739 59.1548 44.3105 61.9211C48.5422 67.3999 61.6642 64.9436 63.0257 61.0232C63.9426 58.3832 59.638 54.7575 56.924 53.1857Z" stroke="#1E87F2" stroke-width="1.068" stroke-miterlimit="10" stroke-linecap="round" stroke-dasharray="2.67 2.67 2.67 2.67 2.67 2.67"/>
<path d="M66.1304 120.839C83.5464 116.511 103.335 112.105 134.064 112.856C151.249 113.275 155.144 107.936 168.168 101.298C179.777 95.3811 185.479 83.6158 181.977 76.9478C178.442 70.2161 167.674 72.8962 158.855 62.8756C154.839 58.3118 155.546 55.113 153.227 50.0519C145.884 34.0267 118.364 21.5012 104.793 28.13C86.8647 36.8874 102.192 74.7266 82.1511 85.0631C69.4744 91.6018 59.8928 79.0495 47.3759 88.6316C41.1739 93.3794 33.5886 100.039 33.002 107.271C33.002 107.271 32.1806 124.951 66.1304 120.839Z" stroke="#1E87F2" stroke-width="1.068" stroke-miterlimit="10" stroke-linecap="round" stroke-dasharray="2.67 2.67 2.67 2.67 2.67 2.67"/>
<path d="M162.352 101.148C162.352 101.148 159.197 105.336 156.042 111.081C153.197 116.262 151.034 123.244 150.556 129.073C149.216 129.009 147.744 128.95 146.153 128.893C136.73 128.558 123.126 128.349 108 128.349C90.8034 128.349 75.5749 128.62 66.2199 129.037C65.8979 129.052 65.5827 129.066 65.2747 129.081C53.5952 114.588 30.0764 89.3384 51.7201 78.9512C51.7201 78.9512 53.3057 78.4678 55.6828 77.4293C63.2065 74.1417 78.6674 65.2953 76.9476 48.6157C76.9476 48.6157 76.3617 45.5032 76.3617 41.1723C76.3617 31.0455 79.564 14.2593 100.943 15.0255C113.889 15.4901 125.812 22.0857 133.021 32.6429C140.091 42.9975 151.397 55.7376 160.604 48.4642C162.729 46.7847 165.539 46.1624 168.163 46.9008C174.79 48.7644 182.318 58.4118 162.352 101.148Z" fill="url(#paint0_linear_12189_410)"/>
</g>
<path d="M101.186 68.0924C101.138 65.6263 101.317 63.8394 102.959 61.8439C103.042 61.7426 103.132 61.6414 103.221 61.5401C103.31 61.4389 103.399 61.3435 103.494 61.2482C103.59 61.1529 103.685 61.0636 103.78 60.9742C103.881 60.8849 103.976 60.7955 104.083 60.7121C104.185 60.6288 104.292 60.5454 104.399 60.4679C104.506 60.3905 104.613 60.3131 104.726 60.2356C104.839 60.1641 104.952 60.0927 105.065 60.0212C105.178 59.9557 105.297 59.8901 105.41 59.8246C105.529 59.7651 105.648 59.7055 105.767 59.6459C105.886 59.5923 106.011 59.5387 106.13 59.4851C106.255 59.4374 106.38 59.3898 106.505 59.3421C106.63 59.3004 106.755 59.2587 106.886 59.217C107.011 59.1813 107.142 59.1456 107.273 59.1158C107.403 59.086 107.534 59.0562 107.665 59.0324C107.796 59.0086 107.927 58.9847 108.058 58.9669C108.189 58.949 108.32 58.9371 108.456 58.9252C110.717 58.7346 112.83 59.3421 114.555 60.8313C116.096 62.1596 117.226 64.2087 117.381 66.2458C117.381 67.1333 117.268 69.3432 117.399 70.0878C117.351 70.5643 117.476 71.3327 117.185 71.7378C117.072 71.8867 116.941 71.976 116.756 72.0118C116.548 72.0475 116.304 72.0177 116.149 71.8688C115.757 71.4995 115.9 70.5405 115.911 70.0342C116.066 69.516 115.947 68.6404 115.935 68.0804C115.953 65.8825 115.477 64.0717 113.889 62.4753C112.663 61.2423 111.092 60.5454 109.343 60.5513C107.582 60.5573 105.803 61.278 104.571 62.5408C102.935 64.2206 102.745 65.8944 102.786 68.1102C102.786 68.7059 102.78 69.3015 102.792 69.8972C102.78 70.5643 102.858 71.5293 102.299 72.0118C102.162 72.1309 102.078 72.1607 101.894 72.1667C101.614 72.0535 101.46 71.8748 101.347 71.5948C101.132 71.0647 101.15 70.475 101.15 69.9151C101.24 69.3492 101.174 68.6642 101.186 68.0924Z" fill="#8A2DFA"/>
<path d="M117.428 68.1578C117.434 67.5384 117.5 66.8534 117.369 66.2517C117.369 67.1393 117.256 69.3492 117.399 70.0759C117.351 70.5583 117.482 71.3208 117.184 71.7258C117.071 71.8748 116.94 71.9701 116.756 71.9998C116.548 72.0356 116.31 72.0058 116.149 71.8569C115.757 71.4816 115.899 70.5286 115.911 70.0223C116.066 69.4981 115.947 68.6284 115.935 68.0685C111.562 68.2591 107.159 68.0864 102.786 68.0983C102.786 68.6939 102.78 69.2896 102.792 69.8853C102.78 70.5524 102.858 71.5174 102.298 71.9998C102.156 72.1249 102.072 72.1488 101.894 72.1547C101.614 72.0415 101.459 71.8628 101.346 71.5829C101.132 71.0527 101.144 70.463 101.15 69.9031C101.245 69.3492 101.18 68.6582 101.186 68.0864L92.749 68.1102C91.2854 68.1042 89.8158 68.0447 88.3582 68.0804C88.1202 69.8019 88.0369 71.5591 87.8703 73.2865L86.6209 86.5875L83.6401 119.021C83.4497 121.356 83.2057 123.685 82.9201 126.014C82.7833 127.158 82.706 128.337 82.5037 129.463C83.3902 129.66 85.1989 129.463 86.1687 129.433L91.8625 129.302C96.3962 129.237 100.924 129.201 105.458 129.195C109.069 129.153 112.675 129.141 116.286 129.159L126.049 129.213C128.828 129.249 131.601 129.397 134.379 129.201H134.32C134.349 129.195 134.385 129.189 134.421 129.183C134.879 129.088 135.367 129.153 135.801 129.052L135.724 128.992C135.896 128.957 136.051 128.975 136.223 128.986C135.997 126.52 135.7 124.066 135.515 121.594L131.803 92.9194C131.737 91.4004 131.523 89.8577 131.404 88.3387C131.166 85.3783 130.91 82.4179 130.637 79.4575C130.268 75.6751 129.857 71.9045 129.643 68.1102L117.428 68.1578Z" fill="#C8B0FF"/>
<path d="M117.393 70.0938C117.762 70.3142 118.125 70.5703 118.375 70.9336C118.636 71.3149 118.648 71.7914 118.547 72.2322C118.529 72.2977 118.511 72.3692 118.488 72.4347C118.464 72.5002 118.44 72.5658 118.41 72.6313C118.381 72.6968 118.351 72.7564 118.315 72.8159C118.279 72.8755 118.244 72.9351 118.202 72.9887C118.16 73.0423 118.119 73.1018 118.071 73.1495C118.024 73.2031 117.976 73.2508 117.922 73.2984C117.869 73.3461 117.815 73.3878 117.762 73.4295C117.708 73.4711 117.649 73.5069 117.589 73.5426C117.113 73.8166 116.566 73.8762 116.048 73.7094C115.56 73.5545 115.138 73.2269 114.906 72.7683C114.662 72.2858 114.614 71.6306 114.799 71.1183C114.995 70.5703 115.418 70.2844 115.911 70.0402C115.9 70.5465 115.757 71.4995 116.149 71.8748C116.31 72.0237 116.548 72.0535 116.756 72.0177C116.941 71.988 117.072 71.8927 117.185 71.7437C117.47 71.3327 117.345 70.5703 117.393 70.0938Z" fill="#233643"/>
<path d="M102.78 69.8972C103.328 70.2189 103.792 70.5644 103.958 71.2136C104.095 71.7378 104.012 72.3811 103.714 72.8398C103.411 73.3103 102.899 73.6022 102.352 73.6916C102.281 73.7035 102.209 73.7094 102.138 73.7154C102.066 73.7213 101.995 73.7213 101.924 73.7213C101.852 73.7213 101.781 73.7154 101.709 73.7035C101.638 73.6916 101.567 73.6796 101.495 73.6677C101.424 73.6499 101.358 73.632 101.287 73.6082C101.221 73.5843 101.15 73.5605 101.085 73.5307C101.019 73.5009 100.954 73.4652 100.894 73.4295C100.835 73.3937 100.769 73.352 100.716 73.3103C100.662 73.2746 100.615 73.2329 100.573 73.1912C100.525 73.1495 100.484 73.1078 100.442 73.0602C100.4 73.0125 100.359 72.9649 100.323 72.9172C100.287 72.8696 100.252 72.8159 100.222 72.7623C100.192 72.7087 100.162 72.6551 100.133 72.5955C100.109 72.536 100.085 72.4824 100.061 72.4228C100.043 72.3632 100.026 72.3037 100.014 72.2441C100.002 72.1845 99.9899 72.119 99.9839 72.0595C99.9185 71.5114 100.037 70.9396 100.394 70.5107C100.609 70.2546 100.864 70.0819 101.144 69.9091C101.138 70.469 101.126 71.0588 101.34 71.5889C101.454 71.8688 101.608 72.0475 101.888 72.1607C102.066 72.1548 102.15 72.1309 102.292 72.0058C102.846 71.5293 102.774 70.5644 102.78 69.8972Z" fill="#233643"/>
<path d="M116.53 88.2865C117.774 88.2627 119.017 88.3223 120.261 88.3461C119.731 89.0609 119.309 89.9127 118.839 90.6751C118.035 91.9677 117.185 93.2424 116.34 94.5111L110.444 103.47C108.885 105.829 107.29 108.158 105.767 110.54C105.107 111.517 104.5 112.53 103.875 113.525L99.978 113.495C100.549 112.482 101.239 111.547 101.852 110.558C102.233 110.147 102.566 109.498 102.864 109.021C103.607 107.836 104.339 106.645 105.113 105.477L111.068 96.6019C112.907 93.838 114.668 91.0206 116.53 88.2865Z" fill="#EEE7FF"/>
<path fill-rule="evenodd" clip-rule="evenodd" d="M104.506 89.1563C103.322 88.3521 101.465 87.7982 100.031 88.0364C98.2584 88.2747 96.5151 89.2218 95.4263 90.6454C94.278 92.1346 93.8378 94.0764 94.0995 95.9289C94.3673 97.7993 95.4025 99.3242 96.9137 100.432C98.2762 101.439 99.9421 101.772 101.608 101.51C103.56 101.171 105.059 100.331 106.213 98.6809C107.278 97.156 107.724 95.3511 107.385 93.5105C107.064 91.7772 105.957 90.1391 104.506 89.1563ZM102.726 92.0692C102.161 91.6642 101.358 91.4378 100.656 91.4914C99.6384 91.6284 98.7936 91.9441 98.1391 92.79C97.6274 93.4452 97.3359 94.2612 97.443 95.0952C97.5561 95.9767 98.032 96.894 98.74 97.4301C99.3469 97.8888 100.037 97.996 100.769 98.0377C101.768 97.9305 102.625 97.6386 103.274 96.8106C103.869 96.0542 104.089 95.0594 103.94 94.1123C103.815 93.3141 103.387 92.5457 102.726 92.0692Z" fill="#EEE7FF"/>
<path fill-rule="evenodd" clip-rule="evenodd" d="M111.734 105.537C111.508 106.71 111.603 107.955 111.901 109.111C112.026 109.522 112.198 109.933 112.401 110.314C113.192 111.863 114.608 113.119 116.274 113.644C117.999 114.192 120.004 113.995 121.599 113.149C123.164 112.315 124.467 110.773 124.984 109.069C125.567 107.157 125.169 105.31 124.252 103.589C123.122 101.861 121.813 100.801 119.76 100.384C119.653 100.36 119.54 100.343 119.427 100.325C119.314 100.307 119.201 100.295 119.088 100.283L119.088 100.283L119.088 100.283C118.975 100.271 118.862 100.259 118.749 100.253L118.749 100.253C118.636 100.247 118.523 100.241 118.41 100.241C118.297 100.241 118.184 100.241 118.071 100.247L118.07 100.247C117.957 100.253 117.844 100.259 117.732 100.271C117.618 100.283 117.505 100.295 117.392 100.313C117.279 100.331 117.172 100.349 117.059 100.372C116.946 100.39 116.833 100.414 116.726 100.444C116.619 100.468 116.506 100.497 116.399 100.533L116.077 100.64C116.024 100.661 115.972 100.682 115.92 100.703C115.868 100.724 115.816 100.745 115.762 100.765C115.661 100.807 115.554 100.855 115.453 100.902C115.352 100.95 115.25 101.004 115.149 101.057L115.149 101.057C115.048 101.111 114.947 101.165 114.852 101.224C114.757 101.284 114.661 101.343 114.566 101.409C113.115 102.392 112.061 103.797 111.734 105.537ZM115.144 106.335C115.037 106.859 115.055 107.419 115.156 107.949C115.176 108.005 115.195 108.061 115.215 108.118C115.247 108.211 115.279 108.305 115.317 108.402C115.32 108.412 115.324 108.422 115.328 108.433C115.342 108.472 115.357 108.513 115.376 108.551C115.394 108.599 115.418 108.646 115.441 108.694C115.453 108.718 115.467 108.741 115.48 108.765C115.494 108.789 115.507 108.813 115.519 108.837C115.534 108.861 115.547 108.883 115.56 108.905C115.574 108.928 115.587 108.95 115.602 108.974C115.617 108.995 115.632 109.017 115.647 109.039C115.662 109.062 115.676 109.084 115.691 109.105C115.721 109.152 115.751 109.194 115.787 109.236C115.816 109.278 115.852 109.319 115.888 109.361C115.906 109.382 115.923 109.401 115.941 109.421C115.959 109.44 115.977 109.459 115.995 109.48L116.108 109.593C116.129 109.611 116.148 109.629 116.167 109.647C116.187 109.665 116.206 109.683 116.227 109.7C116.248 109.718 116.268 109.735 116.289 109.751C116.31 109.767 116.331 109.784 116.352 109.802C116.373 109.817 116.395 109.833 116.417 109.849C116.44 109.866 116.462 109.882 116.483 109.897L116.483 109.897C116.524 109.927 116.566 109.957 116.614 109.986C116.627 109.995 116.64 110.003 116.653 110.011C116.685 110.032 116.716 110.053 116.75 110.07C116.798 110.1 116.846 110.123 116.893 110.147L117.036 110.219C117.857 110.576 118.833 110.588 119.648 110.231C120.469 109.867 121.135 109.135 121.445 108.295C121.837 107.228 121.605 106.234 121.141 105.251C120.647 104.488 119.933 103.94 119.041 103.738C119.014 103.732 118.989 103.728 118.964 103.723C118.938 103.719 118.913 103.714 118.886 103.708C118.833 103.696 118.785 103.69 118.732 103.684C118.705 103.681 118.68 103.678 118.654 103.675C118.629 103.672 118.604 103.669 118.577 103.666C118.55 103.666 118.525 103.665 118.5 103.663C118.474 103.662 118.449 103.66 118.422 103.66H118.268H118.268C118.214 103.66 118.166 103.66 118.113 103.666C118.064 103.666 118.021 103.671 117.973 103.677C117.968 103.677 117.963 103.678 117.958 103.678C117.931 103.681 117.906 103.686 117.881 103.69C117.856 103.695 117.83 103.699 117.803 103.702C117.75 103.708 117.696 103.72 117.649 103.732C117.625 103.738 117.6 103.744 117.574 103.75C117.549 103.756 117.524 103.762 117.5 103.768C117.492 103.77 117.484 103.772 117.476 103.774C117.435 103.784 117.391 103.794 117.351 103.809C117.298 103.827 117.25 103.845 117.203 103.863L117.203 103.863C117.179 103.872 117.155 103.882 117.131 103.893C117.107 103.903 117.084 103.914 117.06 103.923C117.012 103.94 116.965 103.964 116.917 103.988C116.893 104 116.871 104.012 116.849 104.024C116.826 104.036 116.804 104.048 116.78 104.06C116.769 104.066 116.758 104.072 116.746 104.078C116.714 104.096 116.68 104.115 116.649 104.137C115.894 104.62 115.328 105.459 115.144 106.335Z" fill="#EEE7FF"/>
<path d="M175.265 75.1744H168.428C167.669 75.1744 167.053 74.5581 167.053 73.7979V67.8244C167.053 67.0642 167.669 66.4479 168.428 66.4479H175.265C176.024 66.4479 176.64 67.0642 176.64 67.8244V73.7979C176.64 74.5581 176.024 75.1744 175.265 75.1744Z" fill="#DFD3FF"/>
<path d="M170.533 72.0152H174.402L175.135 69.054C175.16 68.955 175.138 68.8521 175.075 68.7717C175.012 68.6913 174.917 68.6452 174.815 68.6452H169.699L170.533 72.0152ZM174.193 71.7477H170.742L170.04 68.9127H174.816C174.842 68.9127 174.857 68.9276 174.864 68.9365C174.871 68.9454 174.882 68.9642 174.876 68.9898L174.193 71.7477Z" fill="white"/>
<path d="M170.491 72.4428H174.665C174.739 72.4428 174.798 72.3829 174.798 72.3091C174.798 72.2352 174.739 72.1753 174.665 72.1753H170.491C170.359 72.1753 170.284 72.1144 170.284 72.0951C170.284 72.0758 170.359 72.0148 170.491 72.0148H174.317C174.391 72.0148 174.451 71.9549 174.451 71.8811C174.451 71.8073 174.391 71.7474 174.317 71.7474H170.491C170.225 71.7474 170.016 71.9001 170.016 72.0951C170.016 72.2901 170.225 72.4428 170.491 72.4428Z" fill="white"/>
<path d="M170.619 71.9409C170.63 71.9409 170.641 71.9396 170.652 71.9367C170.723 71.9187 170.766 71.8459 170.748 71.7743L169.827 68.1195C169.779 67.9325 169.612 67.802 169.419 67.802H168.681C168.607 67.802 168.547 67.8619 168.547 67.9357C168.547 68.0095 168.607 68.0694 168.681 68.0694H169.419C169.489 68.0694 169.55 68.117 169.568 68.185L170.489 71.8398C170.505 71.9005 170.559 71.9409 170.619 71.9409Z" fill="white"/>
<path d="M174.138 73.8199C174.524 73.8199 174.839 73.505 174.839 73.118C174.839 72.731 174.524 72.4161 174.138 72.4161C173.751 72.4161 173.437 72.731 173.437 73.118C173.437 73.505 173.751 73.8199 174.138 73.8199ZM174.138 72.6836C174.377 72.6836 174.572 72.8785 174.572 73.118C174.572 73.3575 174.377 73.5524 174.138 73.5524C173.898 73.5524 173.704 73.3575 173.704 73.118C173.704 72.8785 173.898 72.6836 174.138 72.6836Z" fill="white"/>
<path d="M170.731 73.8199C171.118 73.8199 171.432 73.505 171.432 73.118C171.432 72.731 171.118 72.4161 170.731 72.4161C170.345 72.4161 170.03 72.731 170.03 73.118C170.03 73.505 170.345 73.8199 170.731 73.8199ZM170.731 72.6836C170.97 72.6836 171.165 72.8785 171.165 73.118C171.165 73.3575 170.97 73.5524 170.731 73.5524C170.492 73.5524 170.297 73.3575 170.297 73.118C170.297 72.8785 170.492 72.6836 170.731 72.6836Z" fill="white"/>
<path d="M174.834 69.7651H170.131" stroke="white" stroke-width="0.251808" stroke-miterlimit="10"/>
<path d="M174.571 70.8168H170.382" stroke="white" stroke-width="0.251808" stroke-miterlimit="10"/>
<path d="M174 68.7823V71.8796" stroke="white" stroke-width="0.251808" stroke-miterlimit="10"/>
<path d="M172.996 68.7823V71.8796" stroke="white" stroke-width="0.251808" stroke-miterlimit="10"/>
<path d="M171.98 68.7823V71.8796" stroke="white" stroke-width="0.251808" stroke-miterlimit="10"/>
<path d="M170.964 68.7823V71.8796" stroke="white" stroke-width="0.251808" stroke-miterlimit="10"/>
<path d="M49.1163 96.6568H42.2794C41.5201 96.6568 40.9045 96.0405 40.9045 95.2803V89.3068C40.9045 88.5466 41.5201 87.9303 42.2794 87.9303H49.1163C49.8757 87.9303 50.4912 88.5466 50.4912 89.3068V95.2803C50.4912 96.0405 49.8757 96.6568 49.1163 96.6568Z" fill="#DFD3FF"/>
<path d="M45.5257 92.2474L45.7742 92.3145L44.1232 89.4396C44.1054 89.4087 44.066 89.398 44.0351 89.4158C43.9512 89.4641 43.9153 89.5668 43.951 89.6569L44.875 91.9478C44.8856 91.9739 44.9063 91.9947 44.9325 92.0051L45.5257 92.2474Z" fill="white"/>
<path opacity="0.1" d="M44.9865 91.6794C45.0106 91.7214 45.0642 91.7358 45.1061 91.7117C45.148 91.6876 45.1624 91.634 45.1384 91.592C45.1143 91.55 45.0607 91.5356 45.0188 91.5597C44.9769 91.5838 44.9624 91.6374 44.9865 91.6794Z" fill="#061722"/>
<path d="M44.9927 91.676C45.0149 91.7146 45.0642 91.7279 45.1028 91.7057C45.1414 91.6835 45.1547 91.6341 45.1326 91.5954C45.1104 91.5568 45.0611 91.5435 45.0224 91.5657C44.9838 91.5879 44.9705 91.6373 44.9927 91.676Z" fill="#5AC2FF"/>
<path opacity="0.1" d="M45.1091 91.6628C45.1064 91.6675 45.1004 91.6691 45.0957 91.6664L45.0191 91.622C45.0144 91.6192 45.0128 91.6132 45.0155 91.6085C45.0182 91.6038 45.0242 91.6022 45.0289 91.6049L45.1055 91.6494C45.1102 91.6521 45.1118 91.6581 45.1091 91.6628Z" fill="#061722"/>
<path d="M46.4029 94.5376L46.3296 94.3645C46.321 94.3442 46.318 94.3219 46.3205 94.3C46.3704 93.862 45.5627 92.4493 45.4523 92.2587C45.4453 92.2467 45.4489 92.2313 45.4605 92.2236L45.6667 92.0863C45.6791 92.078 45.6958 92.0817 45.7036 92.0944C46.3005 93.0688 46.8357 93.2769 47.0111 93.3205C47.0745 93.3362 47.1358 93.3598 47.1928 93.3917C47.4324 93.5256 47.536 93.6823 47.536 93.6823C47.8575 94.2106 47.5154 94.5711 47.5154 94.5711C47.1652 94.9453 46.7369 94.7329 46.7369 94.7329C46.6401 94.6583 46.547 94.6256 46.4891 94.6114C46.4504 94.6019 46.4184 94.5744 46.4029 94.5376ZM47.27 94.5487C47.5059 94.4129 47.5784 94.096 47.432 93.841C47.2855 93.5859 46.9755 93.4892 46.7395 93.625C46.5035 93.7608 46.431 94.0777 46.5775 94.3328C46.724 94.5879 47.0341 94.6845 47.27 94.5487Z" fill="#C8B0FF"/>
<g opacity="0.1">
<path d="M46.7293 93.6081C46.9743 93.4671 47.297 93.5673 47.4486 93.8314C47.6003 94.0955 47.5244 94.425 47.2794 94.566C47.0344 94.707 46.7117 94.6069 46.5601 94.3428C46.4084 94.0787 46.4843 93.7491 46.7293 93.6081ZM47.2696 94.5489C47.5055 94.4131 47.578 94.0962 47.4316 93.8412C47.2851 93.5861 46.9751 93.4894 46.7391 93.6252C46.5031 93.761 46.4306 94.0779 46.5771 94.333C46.7236 94.5881 47.0336 94.6848 47.2696 94.5489Z" fill="#061722"/>
<path d="M44.875 91.948L43.951 89.6571C43.9153 89.5669 43.9512 89.4643 44.0351 89.416C44.0505 89.4071 44.0681 89.4053 44.0841 89.4096C44.1 89.4139 44.1143 89.4243 44.1232 89.4398L45.6497 92.0979L45.6672 92.0863C45.6796 92.078 45.6963 92.0817 45.7041 92.0944C46.3018 93.0701 46.8377 93.2775 47.0123 93.3207C47.0782 93.337 47.1416 93.3623 47.2007 93.3958C47.435 93.5288 47.5365 93.6823 47.5365 93.6823C47.858 94.2106 47.5159 94.571 47.5159 94.571C47.1657 94.9453 46.7374 94.7329 46.7374 94.7329C46.6406 94.6583 46.5475 94.6256 46.4896 94.6114C46.4508 94.6018 46.4189 94.5744 46.4033 94.5376L46.3301 94.3645C46.3215 94.3442 46.3184 94.3219 46.3209 94.3C46.3708 93.862 45.5631 92.4493 45.4527 92.2587C45.4458 92.2466 45.4494 92.2313 45.4609 92.2236L45.4633 92.222L44.9325 92.0052C44.9063 91.9948 44.8856 91.9741 44.875 91.948ZM45.5051 92.2179L45.4718 92.2401C45.4689 92.242 45.468 92.2458 45.4698 92.2489C45.5335 92.3589 45.7576 92.7512 45.9647 93.178C46.2355 93.7362 46.3619 94.1144 46.3405 94.3023C46.3384 94.321 46.341 94.3399 46.3483 94.3569L46.4215 94.53C46.4346 94.5611 46.4619 94.5844 46.4944 94.5924C46.5561 94.6075 46.65 94.6413 46.7478 94.7161C46.7592 94.7214 46.8304 94.7533 46.9314 94.767C46.9955 94.7757 47.059 94.7755 47.1201 94.7663C47.1581 94.7606 47.1953 94.7514 47.2314 94.7388C47.2674 94.7262 47.3024 94.7102 47.3359 94.6909C47.3949 94.6569 47.4507 94.6121 47.5016 94.5577C47.5025 94.5567 47.5853 94.4679 47.6285 94.3175C47.6537 94.2296 47.6607 94.138 47.6493 94.0452C47.635 93.929 47.5914 93.8105 47.52 93.693C47.5173 93.689 47.4827 93.6389 47.4121 93.5735C47.3643 93.5293 47.2924 93.4714 47.1957 93.4158C47.1358 93.3815 47.0713 93.356 47.0044 93.3392C46.934 93.3215 46.811 93.2788 46.6513 93.1766C46.4208 93.0292 46.0665 92.7236 45.6874 92.1049C45.6855 92.1018 45.6816 92.1008 45.6785 92.1025C45.6784 92.1026 45.6782 92.1027 45.6781 92.1028L45.6431 92.1261L44.1062 89.4496C44.0938 89.4282 44.0663 89.4208 44.0448 89.4332C44.0084 89.4542 43.9807 89.4876 43.9668 89.5274C43.9529 89.5672 43.9538 89.6107 43.9693 89.6498L44.8933 91.9406C44.9018 91.9617 44.9188 91.9786 44.9399 91.987L45.5051 92.2179Z" fill="#061722"/>
</g>
<path d="M44.9125 92.3889L44.718 92.5577L44.9534 89.2499C44.956 89.2143 44.9868 89.1875 45.0224 89.19C45.119 89.1969 45.1958 89.2737 45.203 89.3704L45.3679 91.8355C45.3697 91.8637 45.3601 91.8913 45.341 91.9122L44.9125 92.3889Z" fill="white"/>
<path opacity="0.1" d="M45.1505 91.6429C45.147 91.6912 45.1051 91.7276 45.0569 91.7241C45.0087 91.7207 44.9724 91.6788 44.9758 91.6305C44.9792 91.5822 45.0211 91.5459 45.0693 91.5493C45.1176 91.5527 45.1539 91.5947 45.1505 91.6429Z" fill="#061722"/>
<path d="M45.1438 91.6425C45.1406 91.6869 45.102 91.7205 45.0576 91.7173C45.0132 91.7141 44.9797 91.6755 44.9829 91.631C44.9861 91.5865 45.0246 91.553 45.0691 91.5562C45.1135 91.5593 45.1469 91.598 45.1438 91.6425Z" fill="#5AC2FF"/>
<path opacity="0.1" d="M45.0329 91.6817C45.0374 91.6848 45.0435 91.6836 45.0465 91.6791L45.0961 91.6056C45.0992 91.6012 45.098 91.595 45.0935 91.592C45.089 91.5889 45.0829 91.5901 45.0798 91.5946L45.0303 91.668C45.0272 91.6725 45.0284 91.6787 45.0329 91.6817Z" fill="#061722"/>
<path d="M45.1188 94.8332L45.1094 94.6454C45.1083 94.6234 45.1014 94.602 45.0896 94.5833C44.8541 94.2108 44.9666 92.587 44.983 92.3672C44.9841 92.3534 44.9742 92.3411 44.9604 92.3392L44.715 92.3055C44.7003 92.3035 44.6868 92.3142 44.6853 92.329C44.5719 93.4663 44.1807 93.8871 44.0418 94.0028C43.9916 94.0446 43.9467 94.0925 43.9092 94.1461C43.7518 94.3712 43.7267 94.5573 43.7267 94.5573C43.6671 95.173 44.1319 95.3484 44.1319 95.3484C44.6099 95.5325 44.9031 95.1546 44.9031 95.1546C44.9578 95.0452 45.0273 94.9752 45.0732 94.9372C45.104 94.9118 45.1208 94.8731 45.1188 94.8332ZM44.3431 95.2213C44.0716 95.202 43.8685 94.9483 43.8894 94.6549C43.9103 94.3614 44.1473 94.1391 44.4188 94.1585C44.6902 94.1778 44.8934 94.4315 44.8725 94.725C44.8516 95.0185 44.6146 95.2407 44.3431 95.2213Z" fill="#C8B0FF"/>
<g opacity="0.1">
<path d="M44.4201 94.1391C44.1382 94.119 43.8913 94.3498 43.8697 94.6537C43.8481 94.9575 44.0598 95.2211 44.3417 95.2412C44.6235 95.2613 44.8704 95.0305 44.8921 94.7266C44.9137 94.4228 44.702 94.1592 44.4201 94.1391ZM44.3431 95.2216C44.0716 95.2022 43.8685 94.9486 43.8893 94.6551C43.9102 94.3616 44.1472 94.1394 44.4187 94.1587C44.6902 94.1781 44.8933 94.4317 44.8724 94.7252C44.8516 95.0187 44.6146 95.2409 44.3431 95.2216Z" fill="#061722"/>
<path d="M45.3682 91.8359L45.2033 89.3707C45.1962 89.2741 45.1193 89.1973 45.0227 89.1904C45.0049 89.1891 44.9883 89.1952 44.9759 89.206C44.9634 89.2169 44.955 89.2325 44.9538 89.2503L44.7361 92.3087L44.7153 92.3059C44.7006 92.3038 44.6871 92.3145 44.6856 92.3293C44.572 93.4683 44.1799 93.8886 44.0415 94.0036C43.9892 94.047 43.9432 94.0975 43.9046 94.1534C43.7515 94.3753 43.727 94.5577 43.727 94.5577C43.6673 95.1734 44.1322 95.3487 44.1322 95.3487C44.6102 95.5329 44.9033 95.1549 44.9033 95.1549C44.958 95.0456 45.0276 94.9755 45.0735 94.9375C45.1043 94.912 45.1211 94.8734 45.1191 94.8335L45.1097 94.6457C45.1086 94.6236 45.1017 94.6023 45.0899 94.5836C44.8544 94.2111 44.9669 92.5873 44.9833 92.3675C44.9843 92.3537 44.9744 92.3414 44.9607 92.3395L44.9579 92.3391L45.3414 91.9126C45.3603 91.8917 45.3701 91.864 45.3682 91.8359ZM44.9184 92.3536L44.958 92.359C44.9614 92.3595 44.9639 92.3626 44.9637 92.366C44.9541 92.4929 44.9231 92.9437 44.9224 93.4182C44.9214 94.0387 44.9722 94.4343 45.0732 94.5941C45.0833 94.6101 45.0891 94.6282 45.09 94.6467L45.0994 94.8344C45.101 94.8681 45.0867 94.901 45.0609 94.9223C45.0119 94.9629 44.942 95.0342 44.8866 95.1442C44.8787 95.154 44.8284 95.2137 44.7435 95.2701C44.6895 95.3059 44.6323 95.3334 44.5733 95.3518C44.5366 95.3632 44.4991 95.3711 44.4612 95.3755C44.4232 95.3799 44.3848 95.3807 44.3462 95.378C44.2783 95.3732 44.2087 95.3571 44.1391 95.3303C44.1379 95.3299 44.0247 95.286 43.9205 95.1695C43.8595 95.1013 43.8133 95.0219 43.7832 94.9334C43.7456 94.8226 43.7332 94.6969 43.7464 94.56C43.7471 94.5553 43.7564 94.495 43.7915 94.4054C43.8153 94.3447 43.8548 94.2613 43.9177 94.1691C43.9567 94.112 44.0037 94.061 44.0566 94.0167C44.1122 93.9701 44.2044 93.878 44.3038 93.7164C44.4471 93.4832 44.6331 93.0536 44.7051 92.3313C44.7054 92.3278 44.7086 92.3251 44.7121 92.3253C44.7123 92.3253 44.7124 92.3254 44.7125 92.3254L44.7541 92.3311L44.9733 89.2516C44.9751 89.227 44.9967 89.2083 45.0213 89.21C45.0633 89.2131 45.1028 89.2311 45.1326 89.2608C45.1624 89.2906 45.1805 89.3301 45.1836 89.3722L45.3485 91.8372C45.35 91.8599 45.3421 91.8825 45.3267 91.8993L44.9184 92.3536Z" fill="#061722"/>
</g>
<path d="M163.013 108.546H156.176C155.417 108.546 154.801 107.93 154.801 107.169V101.196C154.801 100.436 155.417 99.8194 156.176 99.8194H163.013C163.772 99.8194 164.388 100.436 164.388 101.196V107.169C164.388 107.93 163.772 108.546 163.013 108.546Z" fill="#DFD3FF"/>
<path d="M159.362 106.92V106.247C158.967 106.24 158.558 106.12 158.32 105.953L158.483 105.507C158.729 105.667 159.083 105.793 159.465 105.793C159.949 105.793 160.276 105.52 160.276 105.14C160.276 104.773 160.01 104.546 159.506 104.346C158.81 104.08 158.381 103.773 158.381 103.193C158.381 102.639 158.783 102.219 159.41 102.119V101.446H159.833V102.093C160.242 102.106 160.521 102.213 160.719 102.326L160.549 102.766C160.405 102.686 160.126 102.539 159.69 102.539C159.165 102.539 158.967 102.846 158.967 103.113C158.967 103.46 159.219 103.633 159.812 103.873C160.514 104.153 160.869 104.5 160.869 105.093C160.869 105.62 160.494 106.113 159.792 106.227V106.92L159.362 106.92Z" fill="white"/>
<path d="M76.8179 112.819L76.5514 112.799C76.5588 112.7 76.5626 112.599 76.5626 112.5C76.5626 110.594 75.1936 109.043 73.5109 109.043C71.8282 109.043 70.4592 110.594 70.4592 112.5C70.4592 112.552 70.4602 112.605 70.4623 112.658L70.1952 112.668C70.193 112.612 70.1919 112.556 70.1919 112.5C70.1919 110.446 71.6808 108.776 73.5109 108.776C75.341 108.776 76.8299 110.446 76.8299 112.5C76.8299 112.606 76.8259 112.714 76.8179 112.819Z" fill="#1E87F2"/>
<path d="M67.6304 111.452V129.203H81.8865L80.5142 111.452H67.6304Z" fill="#C8B0FF"/>
<path d="M66.483 129.203L66.4827 129.214L67.0292 129.209L67.6183 129.203H67.6299V111.452H65.9064L65.3143 119.109L65.3095 119.169L64.8763 124.775L64.5778 128.633L64.5337 129.203H66.483Z" fill="#C8B0FF"/>
<path opacity="0.08" d="M67.6303 111.452V129.203L66.4832 129.214L67.0846 111.463L67.6303 111.452Z" fill="#061722"/>
<path d="M71.669 112.713C71.727 112.467 71.575 112.221 71.3296 112.163C71.0841 112.105 70.8382 112.257 70.7802 112.503C70.7223 112.749 70.8743 112.995 71.1197 113.053C71.3651 113.111 71.6111 112.959 71.669 112.713Z" fill="#1E87F2"/>
<path d="M77.943 112.923C78.1214 112.745 78.1214 112.455 77.943 112.277C77.7647 112.098 77.4756 112.098 77.2973 112.277C77.1189 112.455 77.1189 112.745 77.2973 112.923C77.4756 113.102 77.7647 113.102 77.943 112.923Z" fill="#1E87F2"/>
<path d="M77.7315 112.775L77.4649 112.755C77.4724 112.656 77.4762 112.555 77.4762 112.455C77.4762 110.549 76.1072 108.999 74.4245 108.999C72.7417 108.999 71.3728 110.549 71.3728 112.455C71.3728 112.508 71.3738 112.561 71.3759 112.613L71.1088 112.624C71.1066 112.568 71.1055 112.511 71.1055 112.455C71.1055 110.402 72.5944 108.731 74.4245 108.731C76.2546 108.731 77.7435 110.402 77.7435 112.455C77.7435 112.562 77.7394 112.669 77.7315 112.775Z" fill="#1E87F2"/>
<path opacity="0.08" d="M64.877 124.775L67.03 129.209L67.6189 129.203H69.9561L73.1053 127.671C73.3928 127.531 73.5126 127.184 73.3729 126.896L69.5197 118.961L69.0502 117.994C68.9102 117.706 68.5639 117.586 68.276 117.726L67.6306 118.04L65.3102 119.169L64.877 124.775Z" fill="#061722"/>
<path d="M64.5167 120.179L68.8394 129.081C68.9792 129.369 69.3258 129.489 69.6135 129.349L69.8187 129.249L74.6108 126.917C74.8985 126.777 75.0184 126.43 74.8785 126.142L71.0255 118.207L70.5558 117.24C70.416 116.952 70.0694 116.832 69.7817 116.972L64.7844 119.404C64.4967 119.544 64.3768 119.891 64.5167 120.179Z" fill="#5AC2FF"/>
<path d="M69.642 117.047L68.4236 117.64L73.2525 127.585L74.4709 126.992L69.642 117.047Z" fill="white"/>
<path d="M65.6147 120.665L65.6621 120.763C65.8291 121.107 66.2429 121.25 66.5864 121.083C66.9299 120.916 67.0729 120.501 66.906 120.157L66.8585 120.06C66.6915 119.716 66.2778 119.573 65.9343 119.74C65.5908 119.907 65.4477 120.321 65.6147 120.665Z" fill="white"/>
<path opacity="0.08" d="M68.3031 119.184L69.7072 128.982C69.7217 129.083 69.7611 129.174 69.8185 129.25L74.6107 126.917C74.8983 126.777 75.0182 126.43 74.8783 126.142L71.0253 118.207L68.7942 118.528C68.4775 118.573 68.2577 118.867 68.3031 119.184Z" fill="#061722"/>
<path d="M68.4756 119.2L69.8886 129.061C69.9316 129.36 70.2091 129.568 70.5084 129.525L76.0712 128.726C76.3706 128.683 76.5784 128.406 76.5354 128.106L75.1224 118.245C75.0795 117.946 74.802 117.738 74.5026 117.781L68.9399 118.58C68.6405 118.623 68.4326 118.9 68.4756 119.2Z" fill="#5AC2FF"/>
<path d="M75.2579 128.248C75.6118 128.198 75.8541 127.845 75.7991 127.461C75.744 127.077 75.4125 126.806 75.0586 126.857C74.7046 126.908 74.4623 127.261 74.5174 127.645C74.5724 128.029 74.904 128.299 75.2579 128.248Z" fill="white"/>
<path d="M75.1637 127.592C75.5176 127.541 75.7599 127.189 75.7048 126.804C75.6498 126.42 75.3182 126.15 74.9643 126.201C74.6104 126.252 74.3681 126.604 74.4232 126.989C74.4782 127.373 74.8097 127.643 75.1637 127.592Z" fill="white"/>
<path d="M70.3001 127.367L70.5249 128.936C70.5344 129.002 70.5955 129.048 70.6615 129.039C70.7274 129.029 70.7732 128.968 70.7638 128.902L70.5389 127.333C70.5295 127.267 70.4683 127.221 70.4024 127.23C70.3364 127.24 70.2906 127.301 70.3001 127.367Z" fill="white"/>
<path d="M69.6453 125.616L70.1293 128.993C70.1388 129.059 70.1999 129.105 70.2659 129.096C70.3318 129.086 70.3776 129.025 70.3682 128.959L69.8841 125.581C69.8747 125.515 69.8135 125.469 69.7476 125.479C69.6816 125.488 69.6358 125.55 69.6453 125.616Z" fill="white"/>
<path d="M74.1768 118.28L74.6608 121.657C74.6703 121.723 74.7314 121.769 74.7974 121.76C74.8633 121.75 74.9091 121.689 74.8997 121.623L74.4156 118.245C74.4062 118.179 74.345 118.133 74.2791 118.143C74.2131 118.152 74.1673 118.213 74.1768 118.28Z" fill="white"/>
<path d="M82.6404 118.548H84.3333V118.064C84.3333 117.949 84.2405 117.856 84.126 117.856H82.8477C82.7332 117.856 82.6404 117.949 82.6404 118.064V118.548Z" fill="url(#paint1_radial_12189_410)"/>
<path d="M84.3693 117.816C84.7534 117.305 85.9488 115.884 86.9615 116.474C86.9615 116.474 88.3871 118.971 86.6942 118.904L84.3331 118.548L84.2762 118.192C84.255 118.059 84.2885 117.923 84.3693 117.816Z" fill="url(#paint2_radial_12189_410)"/>
<path d="M82.5501 117.743C82.0262 117.143 80.7521 115.837 80.0559 116.429C80.0559 116.429 78.608 118.079 79.8554 119.016C79.8554 119.016 81.412 119.663 82.8167 118.548L82.8056 118.366C82.7915 118.136 82.7017 117.917 82.5501 117.743Z" fill="url(#paint3_radial_12189_410)"/>
<path d="M80.6466 118.737H76.2361V129.531H80.6466V118.737Z" fill="#BDE7FF"/>
<path opacity="0.1" d="M80.6466 118.737H76.2361V120.956H80.6466V118.737Z" fill="#061722"/>
<path d="M80.4125 118.548H76.0132V120.577H80.4125V118.548Z" fill="#BDE7FF"/>
<path d="M79.0758 118.537H77.8284V129.531H79.0758V118.537Z" fill="#5AC2FF"/>
<path d="M91.0713 118.737H80.6465V129.531H91.0713V118.737Z" fill="#DAF1FF"/>
<path opacity="0.1" d="M91.0713 118.737H80.6465V120.956H91.0713V118.737Z" fill="#061722"/>
<path d="M80.3511 120.577H91.3662V118.548H80.3511V120.577Z" fill="#DAF1FF"/>
<path d="M86.5381 118.537H85.1348V129.531H86.5381V118.537Z" fill="#5AC2FF"/>
<path d="M143.884 116.164L141.928 116.162L141.928 115.555C141.929 115.44 142.022 115.347 142.136 115.347L143.678 115.349C143.792 115.349 143.885 115.442 143.885 115.557L143.884 116.164Z" fill="url(#paint4_radial_12189_410)"/>
<path d="M141.887 115.299C141.444 114.697 140.064 113.02 138.893 113.714C138.893 113.714 137.242 116.655 139.198 116.579L141.928 116.162L141.994 115.743C142.018 115.586 141.98 115.426 141.887 115.299Z" fill="url(#paint5_radial_12189_410)"/>
<path d="M143.989 115.216C144.595 114.51 146.069 112.972 146.873 113.671C146.873 113.671 148.544 115.618 147.101 116.72C147.101 116.72 145.301 117.48 143.679 116.164L143.693 115.95C143.709 115.678 143.813 115.421 143.989 115.216Z" fill="url(#paint6_radial_12189_410)"/>
<path d="M146.186 116.389L146.171 129.11L151.268 129.116L151.283 116.395L146.186 116.389Z" fill="#8FD9FF"/>
<path opacity="0.1" d="M146.186 116.389L146.183 119.004L151.28 119.01L151.283 116.395L146.186 116.389Z" fill="#061722"/>
<path d="M146.454 118.561L151.538 118.567L151.541 116.176L146.456 116.169L146.454 118.561Z" fill="#BDE7FF"/>
<path d="M148.001 116.154L147.986 129.112L149.427 129.114L149.443 116.156L148.001 116.154Z" fill="#5AC2FF"/>
<path d="M134.138 116.374L134.123 129.095L146.171 129.11L146.186 116.389L134.138 116.374Z" fill="#BDE7FF"/>
<path opacity="0.1" d="M134.138 116.374L134.135 118.989L146.183 119.004L146.186 116.389L134.138 116.374Z" fill="#061722"/>
<path d="M146.531 116.166L133.801 116.15L133.798 118.542L146.528 118.558L146.531 116.166Z" fill="#DAF1FF"/>
<path d="M139.377 116.144L139.362 129.102L140.983 129.104L140.999 116.146L139.377 116.144Z" fill="#5AC2FF"/>
<path d="M134.705 119.875L133.236 119.873L133.236 119.469C133.236 119.354 133.329 119.261 133.444 119.262L134.499 119.263C134.613 119.263 134.706 119.356 134.706 119.471L134.705 119.875Z" fill="url(#paint7_radial_12189_410)"/>
<path d="M133.205 119.226C132.872 118.773 131.836 117.513 130.956 118.034C130.956 118.034 129.715 120.244 131.185 120.187L133.235 119.873L133.285 119.559C133.304 119.441 133.275 119.321 133.205 119.226Z" fill="url(#paint8_radial_12189_410)"/>
<path d="M134.784 119.163C135.239 118.633 136.347 117.477 136.95 118.002C136.95 118.002 138.206 119.465 137.122 120.293C137.122 120.293 135.77 120.864 134.551 119.875L134.561 119.714C134.574 119.51 134.652 119.317 134.784 119.163Z" fill="url(#paint9_radial_12189_410)"/>
<path d="M136.435 120.043L136.423 129.6L140.252 129.604L140.264 120.048L136.435 120.043Z" fill="#8FD9FF"/>
<path opacity="0.1" d="M136.434 120.043L136.432 122.008L140.261 122.013L140.263 120.048L136.434 120.043Z" fill="#061722"/>
<path d="M136.635 121.676L140.454 121.681L140.456 119.884L136.637 119.879L136.635 121.676Z" fill="#BDE7FF"/>
<path d="M137.798 119.867L137.786 129.602L138.869 129.603L138.881 119.869L137.798 119.867Z" fill="#5AC2FF"/>
<path d="M127.384 120.032L127.372 129.589L136.423 129.6L136.434 120.043L127.384 120.032Z" fill="#BDE7FF"/>
<path opacity="0.1" d="M127.384 120.032L127.382 121.997L136.432 122.008L136.435 120.043L127.384 120.032Z" fill="#061722"/>
<path d="M136.694 119.876L127.131 119.864L127.129 121.661L136.692 121.673L136.694 119.876Z" fill="#DAF1FF"/>
<path d="M131.319 119.859L131.308 129.594L132.526 129.595L132.538 119.861L131.319 119.859Z" fill="#5AC2FF"/>
<path d="M80.4574 122.088L82.5565 121.536C82.7016 121.498 82.8448 121.604 82.8504 121.754L82.9318 123.926C82.9346 124.001 82.9117 124.075 82.8669 124.135L81.0287 126.617C80.9355 126.742 80.758 126.769 80.6323 126.676L78.4964 125.089C78.3707 124.996 78.3444 124.818 78.4376 124.693L80.2758 122.211C80.3207 122.151 80.3847 122.107 80.4574 122.088ZM82.1315 122.416C82.2568 122.51 82.4339 122.483 82.5269 122.358C82.6199 122.232 82.5936 122.055 82.4682 121.962C82.3429 121.869 82.1658 121.895 82.0728 122.021C81.9798 122.146 82.0061 122.323 82.1315 122.416Z" fill="#F97316"/>
<path d="M82.4993 121.92C82.6474 122.03 82.6786 122.24 82.5687 122.389C82.4588 122.537 82.2488 122.568 82.1007 122.458C81.9525 122.348 81.9214 122.138 82.0313 121.99C82.1412 121.841 82.3511 121.81 82.4993 121.92ZM82.1316 122.416C82.257 122.509 82.434 122.483 82.527 122.358C82.62 122.232 82.5937 122.055 82.4684 121.962C82.343 121.869 82.1659 121.895 82.0729 122.021C81.98 122.146 82.0062 122.323 82.1316 122.416Z" fill="#5AC2FF"/>
<path d="M80.4817 124.995C80.5495 125.046 80.5847 125.11 80.5876 125.187C80.5904 125.265 80.5596 125.348 80.4951 125.435C80.4358 125.515 80.3681 125.575 80.2923 125.614L80.1445 125.504C80.2047 125.47 80.2523 125.439 80.2876 125.411C80.3229 125.383 80.3513 125.354 80.3729 125.325C80.3987 125.29 80.4119 125.258 80.4124 125.229C80.4129 125.201 80.4 125.177 80.3736 125.157C80.3589 125.146 80.3428 125.141 80.3252 125.14C80.3076 125.14 80.2876 125.144 80.2652 125.152C80.2428 125.16 80.2018 125.18 80.1423 125.212C80.0867 125.242 80.0405 125.261 80.0036 125.269C79.9668 125.277 79.9301 125.278 79.8936 125.272C79.8571 125.267 79.8212 125.251 79.786 125.224C79.7196 125.175 79.6841 125.114 79.6795 125.041C79.6748 124.967 79.702 124.891 79.7609 124.811C79.7898 124.772 79.822 124.739 79.8575 124.71C79.893 124.681 79.9335 124.654 79.979 124.628L80.0646 124.771C80.0184 124.799 79.9824 124.823 79.9565 124.845C79.9306 124.866 79.9082 124.89 79.8895 124.915C79.8671 124.945 79.857 124.973 79.8591 125C79.8612 125.026 79.8735 125.048 79.8961 125.065C79.9102 125.075 79.9248 125.081 79.9401 125.082C79.9553 125.084 79.9731 125.081 79.9934 125.074C80.0137 125.067 80.0562 125.046 80.1208 125.012C80.2064 124.967 80.2757 124.943 80.3287 124.942C80.3818 124.941 80.4328 124.959 80.4817 124.995Z" fill="white"/>
<path d="M81.132 124.554L80.913 124.476L80.7101 124.75L80.8484 124.937L80.7212 125.109L80.1641 124.284L80.3083 124.089L81.2591 124.382L81.132 124.554ZM80.7514 124.415C80.5522 124.345 80.4396 124.305 80.4137 124.296C80.3878 124.286 80.3677 124.279 80.3533 124.272C80.3887 124.316 80.4731 124.429 80.6063 124.611L80.7514 124.415Z" fill="white"/>
<path d="M81.3291 124.288L80.5786 123.731L80.6966 123.571L81.3157 124.031L81.5415 123.726L81.6729 123.824L81.3291 124.288Z" fill="white"/>
<path d="M82.0899 123.26L81.7693 123.693L81.0188 123.136L81.3394 122.703L81.4698 122.8L81.2672 123.073L81.432 123.196L81.6205 122.941L81.7509 123.038L81.5624 123.293L81.7559 123.436L81.9585 123.163L82.0899 123.26Z" fill="white"/>
<path d="M82.5115 121.946C82.5115 121.946 84.0824 119.387 84.0256 117.808" stroke="white" stroke-width="0.250782" stroke-miterlimit="10" stroke-linecap="round"/>
<path d="M147.246 119.147L144.312 118.469C144.109 118.422 143.915 118.575 143.913 118.783L143.89 121.798C143.89 121.903 143.924 122.004 143.989 122.086L146.642 125.451C146.776 125.622 147.023 125.651 147.194 125.517L150.091 123.228C150.261 123.093 150.29 122.846 150.156 122.675L147.503 119.31C147.438 119.228 147.348 119.17 147.246 119.147ZM144.938 119.672C144.768 119.806 144.521 119.777 144.387 119.607C144.253 119.437 144.282 119.19 144.452 119.055C144.622 118.921 144.868 118.95 145.003 119.12C145.137 119.291 145.108 119.537 144.938 119.672Z" fill="#F97316"/>
<path d="M144.407 118.999C144.206 119.157 144.172 119.45 144.33 119.651C144.489 119.853 144.781 119.887 144.982 119.728C145.183 119.57 145.218 119.277 145.059 119.076C144.9 118.874 144.608 118.84 144.407 118.999ZM144.938 119.672C144.768 119.806 144.521 119.777 144.387 119.607C144.253 119.437 144.282 119.19 144.452 119.055C144.622 118.921 144.868 118.95 145.003 119.12C145.137 119.29 145.108 119.537 144.938 119.672Z" fill="#5AC2FF"/>
<path d="M145.745 121.254C145.653 121.327 145.554 121.351 145.449 121.326C145.344 121.301 145.245 121.23 145.152 121.112C145.067 121.003 145.012 120.89 144.987 120.774L145.188 120.616C145.211 120.709 145.235 120.785 145.26 120.842C145.285 120.9 145.313 120.948 145.344 120.988C145.381 121.035 145.419 121.065 145.457 121.076C145.495 121.087 145.532 121.079 145.568 121.05C145.588 121.035 145.601 121.015 145.608 120.992C145.615 120.968 145.617 120.94 145.614 120.907C145.612 120.874 145.6 120.812 145.58 120.72C145.56 120.635 145.552 120.566 145.554 120.514C145.557 120.461 145.568 120.412 145.59 120.365C145.611 120.318 145.645 120.276 145.693 120.238C145.783 120.168 145.878 120.142 145.978 120.163C146.078 120.184 146.17 120.248 146.255 120.356C146.296 120.409 146.33 120.465 146.355 120.523C146.38 120.581 146.402 120.645 146.42 120.716L146.197 120.778C146.177 120.706 146.157 120.649 146.138 120.606C146.119 120.563 146.096 120.525 146.069 120.49C146.037 120.45 146.003 120.426 145.967 120.419C145.93 120.412 145.897 120.42 145.866 120.445C145.847 120.46 145.834 120.477 145.827 120.497C145.819 120.517 145.817 120.542 145.819 120.572C145.821 120.601 145.833 120.666 145.855 120.765C145.884 120.896 145.89 120.998 145.872 121.069C145.853 121.14 145.811 121.202 145.745 121.254Z" fill="white"/>
<path d="M146.097 122.287L146.282 122.023L145.99 121.65L145.689 121.767L145.507 121.534L146.813 121.089L147.021 121.354L146.28 122.521L146.097 122.287ZM146.423 121.828C146.589 121.587 146.684 121.451 146.706 121.42C146.728 121.388 146.746 121.364 146.759 121.347C146.688 121.379 146.506 121.45 146.214 121.562L146.423 121.828Z" fill="white"/>
<path d="M146.381 122.649L147.401 121.848L147.57 122.064L146.729 122.725L147.054 123.139L146.875 123.28L146.381 122.649Z" fill="white"/>
<path d="M147.475 124.045L147.014 123.457L148.034 122.656L148.495 123.244L148.318 123.383L148.027 123.011L147.803 123.187L148.074 123.533L147.897 123.672L147.625 123.327L147.363 123.533L147.654 123.905L147.475 124.045Z" fill="white"/>
<path d="M144.432 119.049C144.432 119.049 142.274 116.884 142.06 115.327" stroke="white" stroke-width="0.202199" stroke-miterlimit="10" stroke-linecap="round"/>
<path d="M134.253 47.8844L136.727 45.7421L135.101 44.9987L135.369 44.4119L137.734 45.4935L137.534 45.9313L134.984 48.2185L134.253 47.8844Z" fill="#BDE7FF"/>
<path d="M139.6 48.3359C139.337 48.9122 139.048 49.2956 138.733 49.4862C138.418 49.6768 138.065 49.6824 137.672 49.503C137.292 49.3291 137.071 49.055 137.008 48.6808C136.945 48.3066 137.041 47.8404 137.296 47.2822C137.562 46.6999 137.852 46.3136 138.165 46.1235C138.479 45.9333 138.832 45.9275 139.222 46.1063C139.603 46.2801 139.824 46.5561 139.887 46.934C139.95 47.3118 139.854 47.7792 139.6 48.3359ZM137.988 47.5987C137.804 48.0035 137.706 48.3095 137.696 48.5167C137.686 48.724 137.764 48.8654 137.929 48.941C138.091 49.0152 138.249 48.9801 138.402 48.8355C138.555 48.691 138.723 48.4186 138.906 48.0183C139.09 47.6136 139.187 47.3062 139.194 47.096C139.202 46.8859 139.126 46.744 138.965 46.6705C138.801 46.5956 138.644 46.6304 138.492 46.7749C138.341 46.9193 138.173 47.1939 137.988 47.5987Z" fill="#BDE7FF"/>
<path d="M142.977 49.0754C142.819 49.4215 142.634 49.6509 142.421 49.7635C142.207 49.8761 141.972 49.8733 141.713 49.755C141.465 49.6416 141.314 49.4648 141.26 49.2247C141.206 48.9845 141.256 48.6959 141.41 48.3589C141.724 47.6713 142.14 47.446 142.659 47.6832C142.913 47.7993 143.067 47.9776 143.122 48.2182C143.176 48.4587 143.128 48.7444 142.977 49.0754ZM141.976 48.6232C141.889 48.8143 141.841 48.9646 141.832 49.0741C141.823 49.1836 141.856 49.2555 141.931 49.2899C142.075 49.3559 142.234 49.1993 142.407 48.8201C142.578 48.444 142.592 48.2229 142.448 48.1569C142.373 48.1225 142.297 48.1439 142.221 48.221C142.145 48.2981 142.063 48.4321 141.976 48.6232ZM144.977 48.8008L141.643 51.2643L141.102 51.0168L144.436 48.5533L144.977 48.8008ZM144.684 51.4493C144.527 51.7939 144.342 52.0225 144.129 52.1351C143.916 52.2477 143.68 52.2449 143.421 52.1267C143.173 52.0133 143.022 51.8365 142.968 51.5963C142.915 51.3561 142.964 51.0683 143.117 50.7327C143.431 50.0452 143.847 49.8199 144.366 50.057C144.62 50.1732 144.774 50.3515 144.829 50.592C144.883 50.8325 144.835 51.1183 144.684 51.4493ZM143.683 50.9971C143.596 51.1882 143.548 51.3385 143.539 51.448C143.53 51.5575 143.563 51.6294 143.638 51.6638C143.782 51.7298 143.941 51.5732 144.114 51.194C144.286 50.8179 144.299 50.5968 144.155 50.5308C144.08 50.4964 144.004 50.5177 143.928 50.5948C143.852 50.6719 143.77 50.806 143.683 50.9971Z" fill="#BDE7FF"/>
<path d="M63.8627 79.0568C63.6875 78.3606 63.7041 77.8054 63.9125 77.3912C64.1209 76.9769 64.5184 76.6958 65.1048 76.5479C65.3051 76.4973 65.465 76.4698 65.5849 76.4651L65.7345 77.0594C65.5838 77.0634 65.4388 77.0829 65.2994 77.118C65.0446 77.1823 64.8465 77.2732 64.7048 77.3908C64.5632 77.5085 64.4713 77.6528 64.4291 77.8238C64.3869 77.9948 64.3936 78.2208 64.449 78.502L64.4802 78.4941C64.5702 78.1814 64.7898 77.981 65.1391 77.8928C65.4531 77.8136 65.7239 77.8502 65.9514 78.0026C66.1789 78.1551 66.3365 78.4054 66.4241 78.7534C66.5186 79.1288 66.4876 79.4526 66.3312 79.7249C66.1749 79.9972 65.9092 80.1807 65.5343 80.2753C65.2747 80.3407 65.0332 80.3377 64.8099 80.2661C64.5865 80.1945 64.3933 80.0564 64.2303 79.8519C64.0672 79.6475 63.9447 79.3824 63.8627 79.0568ZM65.3703 79.6847C65.5289 79.6446 65.6373 79.5606 65.6953 79.4325C65.7534 79.3044 65.7576 79.1417 65.708 78.9444C65.6648 78.7728 65.5911 78.6476 65.4869 78.569C65.3828 78.4903 65.2506 78.4712 65.0904 78.5117C64.9398 78.5497 64.8235 78.631 64.7416 78.7557C64.6596 78.8805 64.6351 79.0078 64.6678 79.1378C64.7158 79.3287 64.8065 79.4772 64.9397 79.5835C65.0729 79.6897 65.2165 79.7234 65.3703 79.6847Z" fill="#BDE7FF"/>
<path d="M69.0661 77.4624C69.2207 78.0768 69.2346 78.5569 69.1079 78.9027C68.9811 79.2486 68.7086 79.4743 68.2904 79.5798C67.885 79.6821 67.541 79.6068 67.2584 79.3539C66.9759 79.1011 66.7597 78.6771 66.6099 78.082C66.4536 77.4612 66.4386 76.9784 66.5648 76.6335C66.691 76.2887 66.9623 76.0637 67.3789 75.9586C67.7843 75.8563 68.1295 75.933 68.4145 76.1887C68.6995 76.4443 68.9167 76.8689 69.0661 77.4624ZM67.3477 77.8959C67.4563 78.3274 67.5714 78.6272 67.6929 78.7953C67.8145 78.9634 67.9633 79.0252 68.1396 78.9807C68.3126 78.937 68.4138 78.8109 68.4431 78.6022C68.4723 78.3935 68.4333 78.0758 68.3259 77.6491C68.2173 77.2177 68.1004 76.9175 67.9753 76.7486C67.8501 76.5797 67.7018 76.5169 67.5304 76.5601C67.3557 76.6042 67.2545 76.73 67.2266 76.9374C67.1987 77.1449 67.2391 77.4644 67.3477 77.8959Z" fill="#BDE7FF"/>
<path d="M72.1634 75.9262C72.2563 76.2952 72.2547 76.5903 72.1587 76.8115C72.0627 77.0328 71.8769 77.1782 71.6014 77.2477C71.337 77.3144 71.1088 77.2709 70.9168 77.1172C70.7248 76.9635 70.5835 76.707 70.4931 76.3476C70.3086 75.6146 70.4927 75.1783 71.0455 75.0389C71.3162 74.9706 71.548 75.0132 71.7409 75.1667C71.9338 75.3201 72.0746 75.5734 72.1634 75.9262ZM71.0999 76.1996C71.1512 76.4034 71.2075 76.5508 71.2688 76.6419C71.3301 76.7331 71.4007 76.7686 71.4808 76.7484C71.6346 76.7095 71.6607 76.488 71.5589 76.0838C71.458 75.6828 71.3306 75.5017 71.1768 75.5405C71.0967 75.5607 71.0511 75.6247 71.0398 75.7324C71.0286 75.8402 71.0487 75.9959 71.0999 76.1996ZM73.5528 74.46L72.4891 78.4695L71.9123 78.615L72.976 74.6055L73.5528 74.46ZM74.9781 76.7106C75.0706 77.0779 75.0688 77.3722 74.9728 77.5935C74.8768 77.8147 74.691 77.9601 74.4155 78.0296C74.1511 78.0963 73.9229 78.0528 73.7309 77.8991C73.5388 77.7454 73.3978 77.4897 73.3078 77.132C73.1233 76.3989 73.3074 75.9626 73.8602 75.8232C74.1309 75.7549 74.3627 75.7975 74.5556 75.951C74.7484 76.1044 74.8893 76.3577 74.9781 76.7106ZM73.9146 76.9839C73.9659 77.1877 74.0222 77.3351 74.0834 77.4262C74.1447 77.5174 74.2154 77.5529 74.2955 77.5327C74.4493 77.4938 74.4754 77.2723 74.3736 76.8681C74.2727 76.4671 74.1453 76.286 73.9915 76.3248C73.9114 76.345 73.8657 76.409 73.8545 76.5167C73.8433 76.6245 73.8634 76.7803 73.9146 76.9839Z" fill="#BDE7FF"/>
<path d="M141.36 68.1539C141.71 68.1539 141.989 68.2523 142.196 68.4492C142.404 68.6461 142.507 68.9157 142.507 69.2581C142.507 69.6634 142.383 69.9752 142.133 70.1936C141.884 70.4119 141.527 70.5211 141.062 70.5211C140.659 70.5211 140.334 70.4558 140.086 70.3251V69.6625C140.216 69.732 140.368 69.7887 140.542 69.8325C140.715 69.8764 140.88 69.8983 141.035 69.8983C141.503 69.8983 141.737 69.7064 141.737 69.3226C141.737 68.957 141.495 68.7742 141.01 68.7742C140.923 68.7742 140.826 68.7829 140.72 68.8002C140.615 68.8176 140.529 68.8362 140.463 68.8561L140.158 68.6923L140.294 66.8437H142.26V67.4938H140.966L140.899 68.206L140.986 68.1886C141.086 68.1655 141.211 68.1539 141.36 68.1539Z" fill="#BDE7FF"/>
<path d="M145.452 68.6576C145.452 69.2912 145.348 69.7601 145.141 70.0645C144.933 70.3689 144.614 70.5211 144.183 70.5211C143.765 70.5211 143.449 70.3639 143.237 70.0496C143.025 69.7353 142.919 69.2713 142.919 68.6576C142.919 68.0174 143.022 67.5455 143.228 67.2419C143.435 66.9384 143.753 66.7866 144.183 66.7866C144.601 66.7866 144.917 66.9454 145.131 67.2631C145.345 67.5807 145.452 68.0456 145.452 68.6576ZM143.68 68.6576C143.68 69.1026 143.718 69.4215 143.795 69.6142C143.872 69.8069 144.001 69.9032 144.183 69.9032C144.361 69.9032 144.49 69.8057 144.569 69.6104C144.649 69.4153 144.688 69.0976 144.688 68.6576C144.688 68.2126 144.648 67.8929 144.568 67.6986C144.488 67.5042 144.36 67.407 144.183 67.407C144.003 67.407 143.874 67.5042 143.796 67.6986C143.718 67.8929 143.68 68.2126 143.68 68.6576Z" fill="#BDE7FF"/>
<path d="M148.83 67.9256C148.83 68.3061 148.757 68.5919 148.61 68.7829C148.463 68.974 148.247 69.0695 147.963 69.0695C147.69 69.0695 147.48 68.9715 147.331 68.7755C147.182 68.5795 147.108 68.2962 147.108 67.9256C147.108 67.1697 147.393 66.7917 147.963 66.7917C148.242 66.7917 148.457 66.8897 148.606 67.0857C148.756 67.2817 148.83 67.5617 148.83 67.9256ZM147.732 67.9306C147.732 68.1407 147.751 68.2975 147.788 68.4008C147.825 68.5042 147.885 68.5559 147.968 68.5559C148.127 68.5559 148.206 68.3475 148.206 67.9306C148.206 67.5171 148.127 67.3103 147.968 67.3103C147.885 67.3103 147.825 67.3611 147.788 67.4629C147.751 67.5646 147.732 67.7205 147.732 67.9306ZM150.536 66.8438L148.526 70.4715H147.931L149.941 66.8438H150.536ZM151.368 69.3747C151.368 69.7536 151.295 70.0385 151.148 70.2296C151.001 70.4206 150.785 70.5162 150.501 70.5162C150.228 70.5162 150.018 70.4181 149.869 70.2221C149.72 70.0261 149.646 69.7437 149.646 69.3748C149.646 68.6188 149.931 68.2408 150.501 68.2408C150.78 68.2408 150.995 68.3388 151.144 68.5348C151.294 68.7308 151.368 69.0108 151.368 69.3747ZM150.27 69.3797C150.27 69.5898 150.289 69.7465 150.326 69.8499C150.363 69.9533 150.423 70.005 150.506 70.005C150.665 70.005 150.744 69.7966 150.744 69.3797C150.744 68.9662 150.664 68.7594 150.506 68.7594C150.423 68.7594 150.363 68.8102 150.326 68.912C150.289 69.0137 150.27 69.1696 150.27 69.3797Z" fill="#BDE7FF"/>
<path d="M62.0837 97.3348L61.6698 97.1968L61.4325 97.9101L60.7223 97.6732L60.9597 96.96L59.4924 96.4706L59.6608 95.9644L61.9076 94.2448L62.5778 94.4684L61.8579 96.6318L62.2717 96.7699L62.0837 97.3348ZM61.1477 96.395L61.342 95.8111C61.3744 95.7138 61.4253 95.5739 61.4948 95.3913C61.5643 95.2087 61.6063 95.1033 61.6209 95.075L61.6021 95.0688C61.5013 95.1781 61.3897 95.2804 61.2675 95.3756L60.3201 96.1189L61.1477 96.395Z" fill="#BDE7FF"/>
<path d="M65.0712 97.2119C64.8711 97.813 64.6247 98.2251 64.3319 98.4483C64.0391 98.6715 63.6881 98.7148 63.279 98.5783C62.8823 98.446 62.6329 98.1972 62.5307 97.8318C62.4285 97.4665 62.4743 96.9926 62.668 96.4104C62.8702 95.803 63.1171 95.388 63.4089 95.1654C63.7007 94.9428 64.0503 94.8994 64.4579 95.0353C64.8545 95.1676 65.1042 95.4183 65.2069 95.7873C65.3097 96.1564 65.2644 96.6313 65.0712 97.2119ZM63.3899 96.6512C63.2494 97.0734 63.1852 97.388 63.1973 97.5951C63.2093 97.8023 63.3015 97.9346 63.474 97.9922C63.6433 98.0486 63.7964 97.9968 63.9333 97.8367C64.0701 97.6766 64.208 97.3879 64.3469 96.9704C64.4874 96.5482 64.5503 96.2322 64.5357 96.0224C64.521 95.8127 64.4298 95.6798 64.2621 95.6238C64.0912 95.5669 63.9382 95.6183 63.8032 95.7781C63.6681 95.938 63.5304 96.229 63.3899 96.6512Z" fill="#BDE7FF"/>
<path d="M68.5071 97.5864C68.387 97.9474 68.2271 98.1952 68.0272 98.3299C67.8274 98.4647 67.5926 98.4871 67.323 98.3971C67.0644 98.3109 66.8955 98.1512 66.8163 97.9182C66.7371 97.6852 66.756 97.3929 66.8729 97.0413C67.1116 96.3241 67.5013 96.0557 68.0422 96.2361C68.3071 96.3244 68.4795 96.4852 68.5595 96.7186C68.6395 96.9518 68.622 97.2412 68.5071 97.5864ZM67.4639 97.2437C67.3976 97.443 67.3657 97.5976 67.3684 97.7074C67.371 97.8173 67.4114 97.8853 67.4899 97.9114C67.6404 97.9616 67.7814 97.789 67.913 97.3935C68.0436 97.0011 68.0336 96.7799 67.8831 96.7297C67.8047 96.7035 67.7318 96.7328 67.6645 96.8176C67.5971 96.9023 67.5302 97.0444 67.4639 97.2437ZM70.4665 97.0996L67.4142 99.9053L66.8499 99.7171L69.9021 96.9114L70.4665 97.0996ZM70.4575 99.7643C70.3379 100.124 70.1782 100.371 69.9784 100.506C69.7785 100.64 69.5438 100.663 69.2742 100.573C69.0155 100.486 68.8466 100.327 68.7674 100.094C68.6882 99.8607 68.7068 99.5692 68.8233 99.2192C69.062 98.502 69.4517 98.2336 69.9925 98.414C70.2574 98.5023 70.4299 98.6631 70.5099 98.8965C70.5899 99.1298 70.5724 99.4191 70.4575 99.7643ZM69.4143 99.4216C69.348 99.621 69.3161 99.7755 69.3187 99.8854C69.3214 99.9952 69.3618 100.063 69.4403 100.089C69.5907 100.14 69.7318 99.9669 69.8634 99.5714C69.994 99.1791 69.984 98.9578 69.8335 98.9076C69.7551 98.8815 69.6822 98.9108 69.6148 98.9955C69.5474 99.0802 69.4806 99.2223 69.4143 99.4216Z" fill="#BDE7FF"/>
<path d="M155.434 88.8474L154.763 89.2176L153.751 87.3793L153.591 87.0737L153.42 86.7374C153.37 86.9105 153.333 87.0263 153.309 87.0851L153.106 87.5797L152.56 87.354L153.133 85.9749L153.684 85.6706L155.434 88.8474Z" fill="#BDE7FF"/>
<path d="M157.639 85.5589C157.945 86.1137 158.08 86.5745 158.045 86.9413C158.01 87.3081 157.804 87.5957 157.426 87.8042C157.06 88.0062 156.708 88.021 156.371 87.8484C156.033 87.6758 155.717 87.3207 155.421 86.7833C155.112 86.2227 154.975 85.7596 155.009 85.3939C155.044 85.0282 155.249 84.7416 155.625 84.5338C155.991 84.3318 156.345 84.3181 156.685 84.4928C157.026 84.6675 157.344 85.0229 157.639 85.5589ZM156.087 86.4155C156.302 86.8052 156.489 87.0658 156.649 87.1974C156.81 87.3291 156.969 87.351 157.128 87.2631C157.285 87.1768 157.351 87.0291 157.326 86.8198C157.301 86.6105 157.183 86.3132 156.97 85.9279C156.756 85.5382 156.567 85.2776 156.403 85.1462C156.239 85.0147 156.079 84.9917 155.925 85.0772C155.767 85.1642 155.701 85.3117 155.727 85.5194C155.752 85.7271 155.873 86.0258 156.087 86.4155Z" fill="#BDE7FF"/>
<path d="M160.244 83.285C160.428 83.6182 160.501 83.9039 160.464 84.1423C160.428 84.3808 160.285 84.5686 160.036 84.706C159.797 84.8378 159.566 84.8538 159.341 84.754C159.116 84.6542 158.914 84.4421 158.736 84.1176C158.371 83.4556 158.438 82.9868 158.938 82.7112C159.182 82.5763 159.417 82.5585 159.643 82.6578C159.868 82.7572 160.069 82.9663 160.244 83.285ZM159.285 83.8201C159.386 84.0041 159.478 84.1323 159.561 84.2049C159.643 84.2775 159.72 84.2938 159.793 84.2538C159.932 84.1772 159.901 83.9563 159.7 83.5913C159.5 83.2291 159.331 83.0864 159.192 83.163C159.12 83.203 159.092 83.2765 159.108 83.3835C159.125 83.4906 159.184 83.6361 159.285 83.8201ZM161.216 81.5133L161.205 85.6618L160.684 85.9493L160.695 81.8008L161.216 81.5133ZM163.166 83.3272C163.348 83.6589 163.421 83.944 163.385 84.1824C163.348 84.4208 163.205 84.6087 162.956 84.746C162.718 84.8778 162.486 84.8938 162.261 84.794C162.036 84.6943 161.835 84.4829 161.657 84.1598C161.292 83.4978 161.36 83.029 161.859 82.7534C162.103 82.6185 162.338 82.6007 162.564 82.7C162.79 82.7994 162.99 83.0084 163.166 83.3272ZM162.206 83.8622C162.308 84.0462 162.4 84.1745 162.482 84.247C162.564 84.3196 162.642 84.3359 162.714 84.296C162.853 84.2193 162.822 83.9984 162.621 83.6334C162.422 83.2712 162.252 83.1285 162.113 83.2052C162.041 83.2451 162.013 83.3186 162.03 83.4257C162.046 83.5327 162.105 83.6783 162.206 83.8622Z" fill="#BDE7FF"/>
<path d="M87.321 55.389L85.3984 57.0401L85.0514 56.6352L85.1432 55.3436C85.1679 54.9584 85.1769 54.6983 85.1703 54.5635C85.1636 54.4286 85.1445 54.3148 85.1129 54.2221C85.0813 54.1293 85.0338 54.0459 84.9703 53.9718C84.8756 53.8613 84.7748 53.8052 84.6677 53.8034C84.5606 53.8017 84.4562 53.8444 84.3547 53.9317C84.248 54.0232 84.1656 54.1365 84.1072 54.2717C84.0488 54.4068 84.0038 54.5664 83.9721 54.7505L83.335 54.6472C83.3714 54.4153 83.4137 54.2374 83.4619 54.1131C83.5101 53.989 83.5758 53.8688 83.6591 53.7526C83.7424 53.6364 83.8492 53.5223 83.9797 53.4102C84.1515 53.2627 84.3301 53.1638 84.5156 53.1134C84.7011 53.0631 84.8786 53.0633 85.0482 53.1138C85.2177 53.1644 85.3649 53.2624 85.4897 53.4081C85.5983 53.5349 85.678 53.673 85.7287 53.8223C85.7794 53.9717 85.808 54.1449 85.8147 54.3418C85.8213 54.5389 85.7992 54.8466 85.7485 55.265L85.6804 55.9021L85.703 55.9285L86.9013 54.8994L87.321 55.389Z" fill="#BDE7FF"/>
<path d="M88.3252 52.1366C88.7373 52.6175 88.9635 53.0411 89.0041 53.4072C89.0447 53.7734 88.9013 54.0971 88.5739 54.3781C88.2567 54.6506 87.9152 54.7368 87.5497 54.6366C87.1841 54.5365 86.8018 54.2535 86.4027 53.7877C85.9863 53.3017 85.7578 52.8763 85.7172 52.5113C85.6766 52.1462 85.8193 51.8237 86.1453 51.5437C86.4626 51.2712 86.8057 51.1857 87.1747 51.2873C87.5437 51.389 87.9272 51.672 88.3252 52.1366ZM86.9802 53.2917C87.2696 53.6295 87.5061 53.8464 87.6897 53.9426C87.8734 54.0388 88.0342 54.0277 88.1721 53.9092C88.3076 53.7929 88.3419 53.6348 88.2752 53.4349C88.2084 53.2351 88.032 52.9682 87.7458 52.6342C87.4564 52.2964 87.2181 52.0799 87.0309 51.9846C86.8436 51.8893 86.6829 51.8993 86.5487 52.0145C86.412 52.1319 86.3774 52.2897 86.4449 52.4878C86.5123 52.6861 86.6908 52.954 86.9802 53.2917Z" fill="#BDE7FF"/>
<path d="M90.4133 49.3789C90.6607 49.6677 90.7907 49.9326 90.8034 50.1734C90.816 50.4143 90.7144 50.6274 90.4988 50.8126C90.2918 50.9903 90.0682 51.0532 89.8278 51.0014C89.5875 50.9496 89.3468 50.783 89.1059 50.5017C88.6142 49.928 88.5847 49.4553 89.0174 49.0837C89.2293 48.9017 89.4558 48.8363 89.6968 48.8876C89.9378 48.9389 90.1766 49.1027 90.4133 49.3789ZM89.5831 50.0984C89.7198 50.2579 89.8358 50.3647 89.9313 50.4189C90.0268 50.4732 90.1058 50.4734 90.1685 50.4195C90.2889 50.3161 90.2135 50.1062 89.9425 49.7898C89.6735 49.4759 89.4788 49.3707 89.3584 49.4741C89.2957 49.528 89.2834 49.6056 89.3213 49.707C89.3592 49.8085 89.4465 49.9389 89.5831 50.0984ZM91.004 47.4463L91.8375 51.51L91.386 51.8977L90.5525 47.834L91.004 47.4463ZM93.282 48.8245C93.5284 49.112 93.6578 49.3762 93.6705 49.6171C93.6831 49.858 93.5815 50.0711 93.3659 50.2563C93.159 50.434 92.9353 50.4969 92.695 50.4451C92.4546 50.3932 92.2145 50.2273 91.9746 49.9473C91.483 49.3735 91.4535 48.9008 91.8862 48.5292C92.0981 48.3472 92.3245 48.2819 92.5655 48.3332C92.8065 48.3845 93.0453 48.5483 93.282 48.8245ZM92.4519 49.5439C92.5885 49.7034 92.7045 49.8103 92.8 49.8645C92.8955 49.9187 92.9745 49.9189 93.0372 49.8651C93.1576 49.7617 93.0823 49.5518 92.8112 49.2354C92.5422 48.9215 92.3476 48.8162 92.2272 48.9196C92.1644 48.9735 92.1521 49.0511 92.19 49.1526C92.2279 49.254 92.3152 49.3845 92.4519 49.5439Z" fill="#BDE7FF"/>
<path d="M111.845 53.5464C111.813 53.7709 111.719 53.9524 111.561 54.0907C111.404 54.2291 111.198 54.3107 110.944 54.3356L110.942 54.3503C111.227 54.4267 111.434 54.5452 111.563 54.7061C111.693 54.8669 111.741 55.0661 111.708 55.3037C111.66 55.6494 111.498 55.9011 111.221 56.0588C110.943 56.2165 110.572 56.263 110.108 56.1983C109.718 56.1441 109.382 56.0313 109.099 55.86L109.188 55.2136C109.318 55.3034 109.463 55.3821 109.624 55.4495C109.784 55.517 109.947 55.5621 110.11 55.5849C110.361 55.6197 110.551 55.6029 110.683 55.5343C110.814 55.4657 110.893 55.3372 110.919 55.1488C110.942 54.98 110.89 54.8508 110.763 54.7612C110.635 54.6717 110.42 54.6059 110.119 54.564L109.847 54.5261L109.928 53.9436L110.205 53.9822C110.483 54.021 110.692 54.0128 110.83 53.9577C110.969 53.9027 111.05 53.7867 111.075 53.6098C111.113 53.3378 110.961 53.1781 110.621 53.1307C110.503 53.1143 110.381 53.1173 110.253 53.1397C110.126 53.162 109.981 53.2112 109.819 53.2871L109.54 52.7148C109.9 52.5244 110.307 52.4607 110.76 52.5238C111.132 52.5755 111.415 52.6917 111.609 52.8724C111.803 53.053 111.882 53.2777 111.845 53.5464Z" fill="#BDE7FF"/>
<path d="M114.697 54.9555C114.61 55.583 114.443 56.0333 114.195 56.3062C113.948 56.5791 113.611 56.6858 113.184 56.6264C112.77 56.5687 112.479 56.3697 112.312 56.0291C112.145 55.6885 112.104 55.2143 112.188 54.6064C112.276 53.9723 112.443 53.5192 112.689 53.247C112.936 52.9748 113.272 52.8683 113.697 52.9275C114.111 52.9851 114.402 53.186 114.571 53.5301C114.739 53.8741 114.781 54.3493 114.697 54.9555ZM112.942 54.7113C112.88 55.152 112.875 55.4731 112.924 55.6746C112.974 55.8761 113.089 55.9893 113.269 56.0144C113.445 56.039 113.587 55.9601 113.692 55.7777C113.797 55.5952 113.88 55.2861 113.941 54.8503C114.002 54.4095 114.006 54.0874 113.954 53.8838C113.901 53.6802 113.787 53.5663 113.612 53.5419C113.433 53.5171 113.292 53.5956 113.189 53.7774C113.085 53.9592 113.003 54.2705 112.942 54.7113Z" fill="#BDE7FF"/>
<path d="M118.143 54.6961C118.091 55.073 117.979 55.3459 117.807 55.5149C117.635 55.6838 117.408 55.7487 117.127 55.7096C116.857 55.672 116.662 55.5459 116.541 55.3312C116.421 55.1166 116.386 54.8258 116.437 54.4587C116.541 53.71 116.876 53.3749 117.44 53.4534C117.717 53.4919 117.916 53.6185 118.037 53.8333C118.158 54.048 118.193 54.3357 118.143 54.6961ZM117.055 54.5497C117.026 54.7578 117.023 54.9156 117.046 55.0231C117.068 55.1307 117.121 55.1901 117.202 55.2015C117.36 55.2233 117.467 55.0278 117.524 54.6149C117.581 54.2054 117.531 53.9896 117.374 53.9677C117.292 53.9563 117.226 53.9984 117.175 54.0941C117.124 54.1897 117.084 54.3416 117.055 54.5497ZM119.981 53.8595L117.491 57.1757L116.902 57.0937L119.392 53.7775L119.981 53.8595ZM120.458 56.4812C120.406 56.8564 120.294 57.1285 120.122 57.2975C119.95 57.4665 119.723 57.5314 119.442 57.4922C119.172 57.4546 118.977 57.3285 118.856 57.1139C118.736 56.8992 118.701 56.6092 118.752 56.2438C118.856 55.4951 119.19 55.1599 119.755 55.2385C120.031 55.277 120.23 55.4036 120.351 55.6184C120.472 55.8331 120.508 56.1207 120.458 56.4812ZM119.37 56.3348C119.341 56.5429 119.338 56.7007 119.36 56.8082C119.383 56.9157 119.435 56.9752 119.517 56.9866C119.674 57.0085 119.781 56.813 119.839 56.4001C119.896 55.9904 119.845 55.7747 119.688 55.7528C119.606 55.7414 119.54 55.7836 119.489 55.8792C119.439 55.9749 119.399 56.1267 119.37 56.3348Z" fill="#BDE7FF"/>
<path d="M179.544 129.637C179.544 130.322 147.513 130.878 108 130.878C85.7059 130.878 65.7935 130.701 52.6724 130.423C49.6503 130.359 46.9888 130.29 44.7415 130.217C43.2612 130.168 41.9607 130.118 40.8551 130.066C38.0104 129.932 36.4568 129.788 36.4568 129.637C36.4568 129.444 38.9784 129.262 43.4791 129.1C45.3223 129.033 47.4972 128.97 49.9667 128.911C62.961 128.599 84.1136 128.396 108 128.396C129.011 128.396 147.907 128.553 160.996 128.803C172.521 129.023 179.544 129.316 179.544 129.637Z" fill="#EEE7FF"/>
<defs>
<linearGradient id="paint0_linear_12189_410" x1="42.8928" y1="72.0405" x2="175.24" y2="72.0405" gradientUnits="userSpaceOnUse">
<stop stop-color="#1E87F2"/>
<stop offset="1" stop-color="#9651FF"/>
</linearGradient>
<radialGradient id="paint1_radial_12189_410" cx="0" cy="0" r="1" gradientUnits="userSpaceOnUse" gradientTransform="translate(83.3685 117.807) rotate(180) scale(1.32151 1.32304)">
<stop stop-color="#829CF8"/>
<stop offset="0.312" stop-color="#5371D9"/>
<stop offset="0.6096" stop-color="#2E4EC1"/>
<stop offset="0.8489" stop-color="#1739B2"/>
<stop offset="1" stop-color="#0F31AC"/>
</radialGradient>
<radialGradient id="paint2_radial_12189_410" cx="0" cy="0" r="1" gradientUnits="userSpaceOnUse" gradientTransform="translate(86.0103 116.554) rotate(180) scale(2.78229 2.78551)">
<stop stop-color="#829CF8"/>
<stop offset="0.312" stop-color="#5371D9"/>
<stop offset="0.6096" stop-color="#2E4EC1"/>
<stop offset="0.8489" stop-color="#1739B2"/>
<stop offset="1" stop-color="#0F31AC"/>
</radialGradient>
<radialGradient id="paint3_radial_12189_410" cx="0" cy="0" r="1" gradientUnits="userSpaceOnUse" gradientTransform="translate(81.0597 117) rotate(180) scale(2.9333 2.93669)">
<stop stop-color="#829CF8"/>
<stop offset="0.312" stop-color="#5371D9"/>
<stop offset="0.6096" stop-color="#2E4EC1"/>
<stop offset="0.8489" stop-color="#1739B2"/>
<stop offset="1" stop-color="#0F31AC"/>
</radialGradient>
<radialGradient id="paint4_radial_12189_410" cx="0" cy="0" r="1" gradientUnits="userSpaceOnUse" gradientTransform="translate(143.044 115.291) rotate(0.0701964) scale(1.52729 1.55931)">
<stop stop-color="#829CF8"/>
<stop offset="0.312" stop-color="#5371D9"/>
<stop offset="0.6096" stop-color="#2E4EC1"/>
<stop offset="0.8489" stop-color="#1739B2"/>
<stop offset="1" stop-color="#0F31AC"/>
</radialGradient>
<radialGradient id="paint5_radial_12189_410" cx="0" cy="0" r="1" gradientUnits="userSpaceOnUse" gradientTransform="translate(139.992 113.81) rotate(0.0701963) scale(3.21553 3.28294)">
<stop stop-color="#829CF8"/>
<stop offset="0.312" stop-color="#5371D9"/>
<stop offset="0.6096" stop-color="#2E4EC1"/>
<stop offset="0.8489" stop-color="#1739B2"/>
<stop offset="1" stop-color="#0F31AC"/>
</radialGradient>
<radialGradient id="paint6_radial_12189_410" cx="0" cy="0" r="1" gradientUnits="userSpaceOnUse" gradientTransform="translate(145.712 114.342) rotate(0.0701964) scale(3.39006 3.46114)">
<stop stop-color="#829CF8"/>
<stop offset="0.312" stop-color="#5371D9"/>
<stop offset="0.6096" stop-color="#2E4EC1"/>
<stop offset="0.8489" stop-color="#1739B2"/>
<stop offset="1" stop-color="#0F31AC"/>
</radialGradient>
<radialGradient id="paint7_radial_12189_410" cx="0" cy="0" r="1" gradientUnits="userSpaceOnUse" gradientTransform="translate(134.074 119.219) rotate(0.070196) scale(1.14734 1.17139)">
<stop stop-color="#829CF8"/>
<stop offset="0.312" stop-color="#5371D9"/>
<stop offset="0.6096" stop-color="#2E4EC1"/>
<stop offset="0.8489" stop-color="#1739B2"/>
<stop offset="1" stop-color="#0F31AC"/>
</radialGradient>
<radialGradient id="paint8_radial_12189_410" cx="0" cy="0" r="1" gradientUnits="userSpaceOnUse" gradientTransform="translate(131.781 118.107) rotate(0.0701963) scale(2.41559 2.46623)">
<stop stop-color="#829CF8"/>
<stop offset="0.312" stop-color="#5371D9"/>
<stop offset="0.6096" stop-color="#2E4EC1"/>
<stop offset="0.8489" stop-color="#1739B2"/>
<stop offset="1" stop-color="#0F31AC"/>
</radialGradient>
<radialGradient id="paint9_radial_12189_410" cx="0" cy="0" r="1" gradientUnits="userSpaceOnUse" gradientTransform="translate(136.078 118.507) rotate(0.0701964) scale(2.5467 2.60009)">
<stop stop-color="#829CF8"/>
<stop offset="0.312" stop-color="#5371D9"/>
<stop offset="0.6096" stop-color="#2E4EC1"/>
<stop offset="0.8489" stop-color="#1739B2"/>
<stop offset="1" stop-color="#0F31AC"/>
</radialGradient>
</defs>
</svg>
