<svg width="216" height="142" viewBox="0 0 216 142" fill="none" xmlns="http://www.w3.org/2000/svg">
<path d="M0.5 8C0.5 3.85786 3.85786 0.5 8 0.5H208C212.142 0.5 215.5 3.85786 215.5 8V134C215.5 138.142 212.142 141.5 208 141.5H8C3.85786 141.5 0.5 138.142 0.5 134V8Z" stroke="#EEF0F1"/>
<g opacity="0.1">
<path d="M66.3902 42.0189C64.4975 41.1278 61.3674 42.5766 60.3694 44.6967C58.4642 48.744 64.6261 54.6053 66.8669 53.9762C69.3709 53.2732 69.8652 43.6549 66.3902 42.0189Z" stroke="#1E87F2" stroke-width="1.068" stroke-miterlimit="10" stroke-linecap="round" stroke-dasharray="2.67 2.67 2.67 2.67 2.67 2.67"/>
<path d="M56.9236 51.1857C56.2481 50.7945 49.093 46.6508 45.0438 49.9302C42.2007 52.2329 42.1735 57.1548 44.31 59.921C48.5417 65.3998 61.6637 62.9435 63.0252 59.0232C63.9421 56.3831 59.6375 52.7574 56.9236 51.1857Z" stroke="#1E87F2" stroke-width="1.068" stroke-miterlimit="10" stroke-linecap="round" stroke-dasharray="2.67 2.67 2.67 2.67 2.67 2.67"/>
<path d="M66.1301 118.839C83.5461 114.511 103.335 110.105 134.064 110.856C151.249 111.275 155.143 105.936 168.168 99.2975C179.777 93.381 185.479 81.6157 181.977 74.9477C178.441 68.2161 167.673 70.8961 158.855 60.8755C154.839 56.3117 155.545 53.1129 153.227 48.0519C145.884 32.0266 118.364 19.5011 104.793 26.13C86.8645 34.8873 102.192 72.7265 82.1508 83.063C69.4741 89.6017 59.8925 77.0494 47.3756 86.6315C41.1736 91.3793 33.5884 98.0393 33.0017 105.271C33.0017 105.271 32.1804 122.95 66.1301 118.839Z" stroke="#1E87F2" stroke-width="1.068" stroke-miterlimit="10" stroke-linecap="round" stroke-dasharray="2.67 2.67 2.67 2.67 2.67 2.67"/>
<path d="M162.352 99.1479C162.352 99.1479 159.197 103.336 156.041 109.081C153.197 114.262 151.033 121.244 150.556 127.073C149.216 127.009 147.744 126.95 146.153 126.893C136.73 126.558 123.126 126.349 108 126.349C90.8031 126.349 75.5747 126.62 66.2197 127.037C65.8976 127.052 65.5824 127.066 65.2744 127.081C53.5949 112.588 30.0762 87.3384 51.7198 76.9512C51.7198 76.9512 53.3054 76.4678 55.6826 75.4292C63.2063 72.1417 78.6671 63.2953 76.9474 46.6156C76.9474 46.6156 76.3615 43.5032 76.3615 39.1723C76.3615 29.0455 79.5638 12.2593 100.943 13.0254C113.889 13.49 125.812 20.0857 133.021 30.6429C140.091 40.9975 151.397 53.7376 160.603 46.4642C162.729 44.7846 165.539 44.1624 168.162 44.9008C174.789 46.7643 182.318 56.4118 162.352 99.1479Z" fill="url(#paint0_linear_12189_610)"/>
</g>
<path d="M179.543 127.637C179.543 128.322 147.512 128.878 108 128.878C85.7056 128.878 65.7932 128.701 52.6722 128.423C49.65 128.359 46.9886 128.29 44.7413 128.217C43.261 128.168 41.9604 128.118 40.8548 128.066C38.0102 127.932 36.4565 127.788 36.4565 127.637C36.4565 127.444 38.9782 127.262 43.4789 127.1C45.3221 127.033 47.4969 126.97 49.9665 126.911C62.9608 126.599 84.1134 126.396 108 126.396C129.011 126.396 147.907 126.553 160.996 126.803C172.521 127.023 179.543 127.316 179.543 127.637Z" fill="#EEE7FF"/>
<path d="M119.264 39.8523H96.7361V54.1178H119.264V39.8523Z" fill="#E3E9F7"/>
<path d="M118.033 41.1292H97.9673V52.8406H118.033V41.1292Z" fill="white"/>
<path d="M119.264 37.2845H96.7446V39.8579H119.264V37.2845Z" fill="#C8B0FF"/>
<path d="M98.0482 38.8627C98.2871 38.8627 98.4808 38.6784 98.4808 38.451C98.4808 38.2236 98.2871 38.0392 98.0482 38.0392C97.8094 38.0392 97.6157 38.2236 97.6157 38.451C97.6157 38.6784 97.8094 38.8627 98.0482 38.8627Z" fill="#E3E9F7"/>
<path d="M99.31 38.8626C99.5488 38.8626 99.7425 38.6782 99.7425 38.4508C99.7425 38.2234 99.5488 38.0391 99.31 38.0391C99.0711 38.0391 98.8774 38.2234 98.8774 38.4508C98.8774 38.6782 99.0711 38.8626 99.31 38.8626Z" fill="#E3E9F7"/>
<path d="M100.571 38.8626C100.81 38.8626 101.003 38.6782 101.003 38.4508C101.003 38.2234 100.81 38.0391 100.571 38.0391C100.332 38.0391 100.138 38.2234 100.138 38.4508C100.138 38.6782 100.332 38.8626 100.571 38.8626Z" fill="#E3E9F7"/>
<path d="M113.938 43.5454H112.098V51.2499H113.938V43.5454Z" fill="#BDE7FF"/>
<path d="M111.432 45.0857H109.592V51.2499H111.432V45.0857Z" fill="#BDE7FF"/>
<path d="M108.926 46.6101H107.086V51.2499H108.926V46.6101Z" fill="#BDE7FF"/>
<path d="M106.42 48.182H104.58V51.2497H106.42V48.182Z" fill="#BDE7FF"/>
<path d="M103.913 49.6748H102.073V51.2498H103.913V49.6748Z" fill="#BDE7FF"/>
<path d="M101.243 42.7196V51.2469H114.757" stroke="#040C2B" stroke-width="0.0247509" stroke-miterlimit="10"/>
<path d="M102.068 47.7857C102.068 47.7857 106.343 47.5557 110.124 43.6829" stroke="#7518DC" stroke-width="0.123744" stroke-miterlimit="10"/>
<path d="M110.329 44.038L110.514 43.2684L109.756 43.4922L110.329 44.038Z" fill="#7518DC"/>
<path d="M154.231 80.7809H131.703V95.0464H154.231V80.7809Z" fill="#E3E9F7"/>
<path d="M153 82.058H132.934V93.7694H153V82.058Z" fill="white"/>
<path d="M154.23 78.2131H131.711V80.7865H154.23V78.2131Z" fill="#C8B0FF"/>
<path d="M133.015 79.7909C133.254 79.7909 133.448 79.6065 133.448 79.3791C133.448 79.1517 133.254 78.9674 133.015 78.9674C132.776 78.9674 132.583 79.1517 132.583 79.3791C132.583 79.6065 132.776 79.7909 133.015 79.7909Z" fill="#E3E9F7"/>
<path d="M134.276 79.7908C134.515 79.7908 134.709 79.6065 134.709 79.3791C134.709 79.1517 134.515 78.9673 134.276 78.9673C134.037 78.9673 133.844 79.1517 133.844 79.3791C133.844 79.6065 134.037 79.7908 134.276 79.7908Z" fill="#E3E9F7"/>
<path d="M135.538 79.7908C135.777 79.7908 135.971 79.6065 135.971 79.3791C135.971 79.1517 135.777 78.9673 135.538 78.9673C135.299 78.9673 135.105 79.1517 135.105 79.3791C135.105 79.6065 135.299 79.7908 135.538 79.7908Z" fill="#E3E9F7"/>
<path d="M142.408 88.2124L146.359 84.2574C146.862 84.7741 147.259 85.3723 147.54 86.0364C147.831 86.727 147.984 87.4587 147.993 88.2124H142.408Z" fill="#C8B0FF"/>
<path d="M142.304 83.2513C142.956 83.2606 143.589 83.3934 144.187 83.6465C144.764 83.8907 145.284 84.2364 145.734 84.6745L142.304 88.1079L142.304 83.2513Z" fill="#BDE7FF"/>
<path d="M142.23 92.5763C141.085 92.5763 140.008 92.1296 139.198 91.3187C138.388 90.5077 137.942 89.4294 137.942 88.2825C137.942 87.1355 138.388 86.0572 139.198 85.2463C139.99 84.4527 141.039 84.008 142.157 83.9893V88.3599H146.519C146.499 89.4786 146.054 90.5271 145.262 91.3199C144.452 92.1301 143.375 92.5763 142.23 92.5763Z" fill="#8FD9FF"/>
<path d="M84.2975 80.7809H61.7693V95.0464H84.2975V80.7809Z" fill="#E3E9F7"/>
<path d="M83.0659 82.058H63V93.7694H83.0659V82.058Z" fill="white"/>
<path d="M84.2969 78.2131H61.7773V80.7865H84.2969V78.2131Z" fill="#C8B0FF"/>
<path d="M63.0817 79.7918C63.3206 79.7918 63.5142 79.6075 63.5142 79.3801C63.5142 79.1527 63.3206 78.9683 63.0817 78.9683C62.8428 78.9683 62.6492 79.1527 62.6492 79.3801C62.6492 79.6075 62.8428 79.7918 63.0817 79.7918Z" fill="#E3E9F7"/>
<path d="M64.3429 79.7917C64.5818 79.7917 64.7754 79.6074 64.7754 79.38C64.7754 79.1526 64.5818 78.9683 64.3429 78.9683C64.104 78.9683 63.9104 79.1526 63.9104 79.38C63.9104 79.6074 64.104 79.7917 64.3429 79.7917Z" fill="#E3E9F7"/>
<path d="M65.6039 79.7917C65.8428 79.7917 66.0364 79.6074 66.0364 79.38C66.0364 79.1526 65.8428 78.9683 65.6039 78.9683C65.365 78.9683 65.1714 79.1526 65.1714 79.38C65.1714 79.6074 65.365 79.7917 65.6039 79.7917Z" fill="#E3E9F7"/>
<path d="M70.379 91.2876C69.8315 91.2325 69.3061 91.0737 68.8174 90.8156C68.3288 90.5575 67.9013 90.213 67.5468 89.7916C67.1794 89.355 66.9071 88.8551 66.7375 88.3059C66.5678 87.7566 66.5107 87.1902 66.5678 86.6222C66.6229 86.074 66.7815 85.548 67.0393 85.0588C67.2971 84.5696 67.6412 84.1416 68.0621 83.7866C68.4982 83.4188 68.9975 83.1463 69.5461 82.9764C70.0947 82.8066 70.6605 82.7494 71.2278 82.8065C71.7755 82.8617 72.3008 83.0205 72.7894 83.2786C73.278 83.5366 73.7056 83.8812 74.0601 84.3026C74.4275 84.7391 74.6998 85.239 74.8694 85.7882C75.039 86.3375 75.0961 86.904 75.0391 87.4719C74.984 88.0201 74.8254 88.5462 74.5676 89.0353C74.3098 89.5245 73.9657 89.9525 73.5447 90.3075C73.1087 90.6753 72.6094 90.9479 72.0608 91.1177C71.5122 91.2876 70.9464 91.3447 70.379 91.2876ZM74.186 85.9998C73.6083 84.1295 71.6255 83.0822 69.7574 83.6606C67.8892 84.239 66.8431 86.224 67.4208 88.0944C67.9985 89.9647 69.9813 91.012 71.8495 90.4336C73.7176 89.8552 74.7638 87.8701 74.186 85.9998Z" fill="#C8B0FF"/>
<path d="M68.8404 84.5909C68.701 84.7455 68.5692 84.9017 68.4499 85.0663C68.3314 85.2313 68.2241 85.4029 68.13 85.5819C68.0358 85.7607 67.9548 85.9462 67.8858 86.1373C67.8175 86.3288 67.763 86.5259 67.714 86.7283C67.7062 86.5199 67.7324 86.3101 67.7835 86.1064C67.8338 85.9022 67.9108 85.7043 68.009 85.518C68.1074 85.3318 68.2271 85.1563 68.367 84.9996C68.5061 84.8423 68.6643 84.7022 68.8404 84.5909Z" fill="#BDE7FF"/>
<path d="M79.1227 91.473L74.9666 88.8604C74.5702 88.6112 74.047 88.731 73.7981 89.1279C73.5492 89.5248 73.6688 90.0485 74.0652 90.2978L78.2213 92.9104C78.6177 93.1596 79.1409 93.0398 79.3898 92.6429C79.6387 92.246 79.5191 91.7223 79.1227 91.473Z" fill="#C8B0FF"/>
<path d="M145.145 58.6483H122.616V72.9138H145.145V58.6483Z" fill="#E3E9F7"/>
<path d="M143.913 59.9252H123.847V71.6366H143.913V59.9252Z" fill="white"/>
<path d="M145.144 56.0805H122.625V58.6539H145.144V56.0805Z" fill="#C8B0FF"/>
<path d="M123.928 57.6584C124.167 57.6584 124.361 57.474 124.361 57.2466C124.361 57.0192 124.167 56.8349 123.928 56.8349C123.689 56.8349 123.496 57.0192 123.496 57.2466C123.496 57.474 123.689 57.6584 123.928 57.6584Z" fill="#E3E9F7"/>
<path d="M125.189 57.6584C125.428 57.6584 125.622 57.474 125.622 57.2466C125.622 57.0192 125.428 56.8349 125.189 56.8349C124.95 56.8349 124.757 57.0192 124.757 57.2466C124.757 57.474 124.95 57.6584 125.189 57.6584Z" fill="#E3E9F7"/>
<path d="M126.451 57.6584C126.69 57.6584 126.884 57.474 126.884 57.2466C126.884 57.0192 126.69 56.8349 126.451 56.8349C126.212 56.8349 126.019 57.0192 126.019 57.2466C126.019 57.474 126.212 57.6584 126.451 57.6584Z" fill="#E3E9F7"/>
<path d="M138.269 65.7812C138.269 68.2075 136.305 70.1745 133.881 70.1745C132.889 70.1745 131.974 69.845 131.239 69.2892C130.178 68.4873 129.493 67.2144 129.493 65.7811C129.493 65.0994 129.648 64.454 129.925 63.8783C129.925 63.8775 129.925 63.8767 129.926 63.876C129.937 63.8533 129.948 63.8307 129.959 63.8082C129.962 63.8035 129.964 63.7988 129.966 63.794C129.976 63.7753 129.986 63.7566 129.995 63.738C129.998 63.7321 130.002 63.7262 130.005 63.7202C130.014 63.7022 130.024 63.6842 130.034 63.6663C130.037 63.6608 130.04 63.6552 130.043 63.6497C130.056 63.6267 130.069 63.6038 130.082 63.5811C130.095 63.5576 130.109 63.5344 130.123 63.5112C130.137 63.4881 130.151 63.4651 130.166 63.4421C130.187 63.4079 130.209 63.3738 130.232 63.3403C130.239 63.3293 130.246 63.3185 130.254 63.3076C130.255 63.3064 130.256 63.3052 130.256 63.3041C130.263 63.2939 130.27 63.2836 130.277 63.2734C130.285 63.2624 130.293 63.2514 130.301 63.2404C130.308 63.2293 130.316 63.2184 130.324 63.2075C130.332 63.1966 130.34 63.1857 130.348 63.1749C130.372 63.1422 130.396 63.1101 130.421 63.0783C130.429 63.069 130.436 63.0595 130.443 63.0502C130.446 63.0474 130.448 63.0447 130.45 63.042C130.457 63.0333 130.464 63.0245 130.471 63.0159C130.471 63.015 130.472 63.0143 130.473 63.0136C130.489 62.9932 130.506 62.973 130.523 62.9529C130.529 62.9458 130.535 62.9388 130.541 62.9319C130.548 62.9232 130.555 62.9145 130.563 62.906C130.573 62.8947 130.582 62.8835 130.592 62.8724C130.613 62.8485 130.635 62.8249 130.656 62.8016C130.664 62.7931 130.672 62.7848 130.679 62.7765C130.709 62.7451 130.739 62.7142 130.769 62.6839C130.775 62.6776 130.781 62.6713 130.787 62.6652C130.793 62.6592 130.799 62.6534 130.805 62.6476C130.811 62.6416 130.817 62.6358 130.823 62.6299C130.833 62.62 130.844 62.6102 130.854 62.6003C131.641 61.849 132.707 61.3877 133.881 61.3877C135.378 61.3877 136.7 62.1382 137.492 63.2838C137.595 63.4322 137.688 63.5872 137.772 63.7481C137.792 63.7855 137.811 63.8232 137.829 63.8613C137.835 63.8739 137.842 63.8867 137.848 63.8995C137.854 63.9122 137.86 63.925 137.865 63.9377C137.889 63.989 137.912 64.0407 137.934 64.093C137.956 64.1454 137.976 64.1982 137.996 64.2515C138.021 64.3181 138.044 64.3855 138.065 64.4536C138.07 64.4672 138.074 64.4808 138.078 64.4946C138.099 64.5629 138.118 64.632 138.136 64.7018C138.147 64.7436 138.157 64.7857 138.166 64.8281C138.172 64.8545 138.177 64.8811 138.183 64.9077C138.183 64.9112 138.184 64.9148 138.185 64.9184C138.24 65.1974 138.269 65.4859 138.269 65.7812Z" fill="#BDE7FF"/>
<path d="M136.851 62.6288C136.823 62.6063 136.791 62.6094 136.762 62.6328C136.751 62.641 136.741 62.6493 136.731 62.6573C136.725 62.6622 136.717 62.6679 136.709 62.6645C136.676 62.6489 136.637 62.6527 136.604 62.6369C136.542 62.6069 136.474 62.5969 136.408 62.5809C136.377 62.5733 136.346 62.5626 136.316 62.5498C136.284 62.5364 136.254 62.5157 136.218 62.5114C136.168 62.5053 136.117 62.4997 136.079 62.5017C136.037 62.5017 136.008 62.5016 135.979 62.5019C135.967 62.502 135.954 62.5 135.945 62.5087C135.916 62.54 135.876 62.5342 135.839 62.5412C135.829 62.5432 135.818 62.541 135.809 62.5482C135.756 62.5902 135.701 62.6292 135.657 62.6821C135.652 62.6882 135.646 62.6932 135.64 62.6983C135.607 62.7263 135.574 62.7543 135.549 62.7903C135.54 62.8045 135.527 62.8158 135.513 62.8257C135.484 62.8458 135.454 62.8658 135.42 62.8768C135.391 62.8863 135.372 62.9119 135.343 62.9224C135.279 62.946 135.281 62.9441 135.285 63.0222C135.286 63.0402 135.294 63.0577 135.299 63.0754C135.302 63.0868 135.306 63.0979 135.308 63.1095C135.315 63.1428 135.336 63.1628 135.368 63.1649C135.396 63.1667 135.421 63.1604 135.442 63.1436C135.452 63.1364 135.46 63.1284 135.47 63.1214C135.483 63.112 135.494 63.1111 135.509 63.1219C135.544 63.1482 135.567 63.1854 135.594 63.2188C135.606 63.2336 135.601 63.2482 135.584 63.2585C135.573 63.2655 135.562 63.2724 135.552 63.2805C135.544 63.2869 135.544 63.2965 135.546 63.3059C135.549 63.3161 135.557 63.3222 135.567 63.3203C135.603 63.3133 135.641 63.3138 135.672 63.2927C135.688 63.2821 135.703 63.2731 135.723 63.2741C135.742 63.2751 135.751 63.2628 135.756 63.2465C135.763 63.2214 135.771 63.1964 135.771 63.1698C135.771 63.1505 135.777 63.1371 135.797 63.1314C135.806 63.129 135.814 63.124 135.821 63.1187C135.862 63.0898 135.864 63.0616 135.828 63.0282C135.824 63.0237 135.819 63.0196 135.814 63.0153C135.774 62.9819 135.778 62.9363 135.824 62.9116C135.835 62.9054 135.847 62.8991 135.858 62.8927C135.891 62.8744 135.92 62.8538 135.935 62.8168C135.944 62.794 135.964 62.7798 135.99 62.7785C136.007 62.7776 136.024 62.7791 136.041 62.7796C136.048 62.7798 136.055 62.7815 136.058 62.7879C136.063 62.7977 136.054 62.8019 136.048 62.8067C136.022 62.8285 136 62.8537 135.968 62.8697C135.938 62.8851 135.916 62.908 135.922 62.948C135.931 63.0047 135.951 63.0507 136.012 63.0669C136.015 63.0676 136.017 63.0681 136.02 63.0691C136.043 63.0795 136.057 63.0991 136.055 63.1207C136.052 63.1494 136.041 63.166 136.013 63.1696C135.975 63.1745 135.958 63.1959 135.951 63.2304C135.95 63.2394 135.948 63.2484 135.946 63.2573C135.934 63.3083 135.905 63.3348 135.859 63.3295C135.846 63.328 135.833 63.3319 135.82 63.333C135.775 63.3365 135.736 63.3589 135.693 63.3706C135.681 63.3738 135.671 63.3789 135.662 63.366C135.636 63.3318 135.606 63.332 135.572 63.3517C135.559 63.3588 135.547 63.362 135.531 63.3541C135.497 63.3368 135.487 63.3227 135.499 63.2856C135.507 63.2606 135.506 63.2366 135.503 63.212C135.502 63.1979 135.494 63.1875 135.477 63.1884C135.452 63.1898 135.42 63.2183 135.411 63.2431C135.401 63.2735 135.4 63.3042 135.403 63.3352C135.406 63.3566 135.398 63.3703 135.378 63.3786C135.359 63.3867 135.341 63.3974 135.321 63.4044C135.29 63.4154 135.264 63.4338 135.247 63.46C135.224 63.4955 135.188 63.5111 135.155 63.5314C135.139 63.5414 135.124 63.5492 135.117 63.5682C135.106 63.5984 135.072 63.5968 135.051 63.613C135.039 63.622 135.026 63.6131 135.014 63.6091C134.996 63.6032 134.975 63.6006 134.964 63.6196C134.948 63.6489 134.923 63.6535 134.895 63.6533C134.876 63.6532 134.858 63.6554 134.84 63.6618C134.833 63.6646 134.826 63.6682 134.825 63.6775C134.825 63.6916 134.847 63.7218 134.862 63.7227C134.915 63.7259 134.942 63.7641 134.969 63.8012C134.985 63.8246 134.991 63.851 134.979 63.8794C134.974 63.8927 134.971 63.9069 134.97 63.9213C134.965 63.9559 134.958 63.9609 134.924 63.9605C134.915 63.9604 134.906 63.9606 134.897 63.9592C134.827 63.9482 134.756 63.9499 134.686 63.9444C134.678 63.9438 134.67 63.9443 134.664 63.9491C134.638 63.9676 134.601 63.9774 134.617 64.0243C134.623 64.0418 134.608 64.0629 134.613 64.0824C134.62 64.1056 134.614 64.126 134.607 64.1475C134.601 64.1665 134.589 64.1825 134.581 64.2003C134.577 64.2096 134.568 64.2213 134.576 64.2295C134.598 64.251 134.594 64.2776 134.594 64.3033C134.595 64.3233 134.605 64.3316 134.624 64.3316C134.63 64.3317 134.637 64.3326 134.643 64.3315C134.677 64.3261 134.704 64.3358 134.73 64.3582C134.75 64.3757 134.778 64.3845 134.803 64.3728C134.823 64.3632 134.843 64.3594 134.863 64.3619C134.918 64.3686 134.953 64.3336 134.986 64.3024C135.002 64.2874 135.009 64.2601 135.025 64.241C135.028 64.2372 135.028 64.2272 135.025 64.2223C135.016 64.2046 135.025 64.1925 135.035 64.1797C135.045 64.1662 135.056 64.153 135.065 64.1385C135.075 64.1217 135.087 64.112 135.108 64.109C135.136 64.1047 135.155 64.0825 135.176 64.0644C135.19 64.0516 135.184 64.0324 135.185 64.0157C135.187 63.9852 135.207 63.9671 135.241 63.9696C135.26 63.9711 135.279 63.9778 135.298 63.9815C135.311 63.984 135.325 63.9928 135.336 63.9853C135.362 63.9678 135.392 63.9572 135.417 63.9406C135.449 63.92 135.453 63.9179 135.481 63.9412C135.491 63.9497 135.499 63.96 135.504 63.9722C135.514 63.9947 135.53 64.0114 135.548 64.0274C135.586 64.0617 135.626 64.0919 135.674 64.1119C135.709 64.1265 135.733 64.1557 135.756 64.1832C135.777 64.2079 135.761 64.2427 135.729 64.252C135.697 64.2616 135.664 64.2588 135.632 64.2587C135.621 64.2586 135.61 64.2604 135.606 64.272C135.602 64.2843 135.611 64.2912 135.621 64.2966C135.649 64.313 135.68 64.3248 135.708 64.3419C135.726 64.3528 135.743 64.343 135.743 64.3212C135.743 64.295 135.755 64.2831 135.777 64.2765C135.805 64.2683 135.81 64.2423 135.822 64.2205C135.83 64.204 135.825 64.1916 135.818 64.1766C135.809 64.1599 135.819 64.1494 135.838 64.1502C135.851 64.1508 135.859 64.1609 135.869 64.1654C135.883 64.1713 135.892 64.1649 135.893 64.1498C135.893 64.1328 135.882 64.1232 135.87 64.1151C135.842 64.0956 135.813 64.0781 135.785 64.0584C135.772 64.0493 135.76 64.0424 135.744 64.0377C135.717 64.0296 135.69 64.0154 135.678 63.9875C135.669 63.9657 135.656 63.9496 135.638 63.9359C135.631 63.9312 135.626 63.9251 135.622 63.9185C135.612 63.9033 135.615 63.8773 135.626 63.8673C135.639 63.8559 135.656 63.8504 135.669 63.8618C135.694 63.8827 135.724 63.8967 135.742 63.9266C135.754 63.9476 135.775 63.9604 135.799 63.9657C135.815 63.9694 135.828 63.9768 135.838 63.9888C135.846 63.9977 135.856 64.0046 135.866 64.0101C135.911 64.0331 135.929 64.0711 135.93 64.1193C135.93 64.131 135.928 64.1436 135.936 64.1535C135.966 64.1885 135.978 64.235 136.013 64.2666C136.025 64.2769 136.031 64.2916 136.031 64.3051C136.031 64.3442 136.058 64.3519 136.087 64.3585C136.11 64.3639 136.117 64.3598 136.125 64.3374C136.143 64.2886 136.162 64.2398 136.137 64.1874C136.136 64.1851 136.136 64.1823 136.136 64.1797C136.134 64.1566 136.156 64.1203 136.174 64.1177C136.208 64.113 136.242 64.1374 136.245 64.1689C136.246 64.1845 136.247 64.2004 136.246 64.216C136.245 64.249 136.255 64.2788 136.273 64.305C136.288 64.3276 136.308 64.3471 136.34 64.3459C136.365 64.345 136.389 64.356 136.411 64.3664C136.43 64.3753 136.445 64.3789 136.461 64.3641C136.472 64.3536 136.483 64.3547 136.497 64.3585C136.516 64.3639 136.534 64.3689 136.552 64.3779C136.578 64.3909 136.605 64.3922 136.63 64.3745C136.638 64.3686 136.648 64.3637 136.658 64.3614C136.685 64.3552 136.714 64.3705 136.716 64.3949C136.719 64.4247 136.725 64.4565 136.714 64.4846C136.703 64.5115 136.694 64.5382 136.688 64.5665C136.683 64.5894 136.678 64.6129 136.668 64.6337C136.654 64.6605 136.654 64.6857 136.662 64.7135C136.671 64.7477 136.688 64.7788 136.701 64.8114C136.723 64.8666 136.753 64.9168 136.789 64.9634C136.806 64.9841 136.819 65.0064 136.828 65.0316C136.832 65.0461 136.841 65.057 136.853 65.0654C136.878 65.0823 136.892 65.1069 136.907 65.1322C136.921 65.1581 136.924 65.1871 136.929 65.2151C136.937 65.2526 136.952 65.2845 136.988 65.3032C136.998 65.3084 137.008 65.3171 137.014 65.3265C137.049 65.3767 137.082 65.4302 137.101 65.4869C137.123 65.5489 137.156 65.605 137.179 65.6664C137.187 65.6884 137.205 65.7049 137.227 65.7152C137.248 65.7248 137.262 65.7105 137.277 65.7013C137.281 65.6994 137.285 65.6991 137.289 65.6977C137.359 65.6712 137.431 65.6462 137.497 65.6082C137.509 65.6009 137.524 65.5996 137.538 65.5964C137.567 65.5898 137.592 65.5775 137.607 65.5494C137.616 65.5326 137.63 65.5197 137.646 65.5117C137.69 65.4893 137.734 65.4689 137.775 65.4405C137.822 65.4083 137.87 65.3807 137.883 65.3188C137.885 65.306 137.893 65.2952 137.9 65.2842C137.92 65.2547 137.939 65.2253 137.949 65.1904C137.953 65.1771 137.955 65.1652 137.946 65.1534C137.931 65.1351 137.917 65.1162 137.902 65.0982C137.89 65.0848 137.877 65.0739 137.858 65.0768C137.834 65.0803 137.821 65.0681 137.81 65.0502C137.804 65.0413 137.797 65.0335 137.791 65.0248C137.759 64.9764 137.724 64.9742 137.69 65.0194C137.679 65.0337 137.667 65.0457 137.65 65.0499C137.619 65.0576 137.588 65.0552 137.556 65.0513C137.545 65.05 137.537 65.043 137.54 65.0294C137.556 64.9661 137.521 64.9315 137.471 64.905C137.419 64.8778 137.382 64.8366 137.362 64.7818C137.351 64.7502 137.377 64.7219 137.41 64.7265C137.457 64.7329 137.475 64.7676 137.488 64.8053C137.494 64.8229 137.497 64.8439 137.515 64.8513C137.562 64.8714 137.598 64.9088 137.65 64.9221C137.676 64.9289 137.699 64.9349 137.725 64.9239C137.734 64.9198 137.744 64.9171 137.753 64.9119C137.773 64.9012 137.779 64.9039 137.79 64.9242C137.793 64.9299 137.796 64.9361 137.798 64.9423C137.805 64.9664 137.82 64.9787 137.845 64.9827C137.879 64.9882 137.912 64.997 137.945 65.003C138.015 65.0157 138.085 65.0221 138.155 65.006C138.17 65.0026 138.185 65.0006 138.2 64.9993C138.036 64.0836 137.588 63.2666 136.95 62.6423C136.945 62.6435 136.94 62.6447 136.935 62.6459C136.903 62.6535 136.877 62.6498 136.851 62.6288Z" fill="#8FD9FF"/>
<path d="M137.535 65.7498C137.503 65.7694 137.467 65.7677 137.433 65.7765C137.378 65.7909 137.325 65.8136 137.268 65.8231C137.226 65.83 137.179 65.8045 137.177 65.7643C137.176 65.7318 137.16 65.711 137.14 65.6896C137.121 65.6683 137.1 65.6481 137.083 65.6249C137.07 65.606 137.056 65.5931 137.033 65.5855C136.986 65.57 136.958 65.5374 136.955 65.4843C136.953 65.4527 136.94 65.4236 136.918 65.3995C136.881 65.3592 136.856 65.3149 136.851 65.2575C136.847 65.2193 136.833 65.1808 136.806 65.1504C136.774 65.1151 136.747 65.0772 136.732 65.0318C136.726 65.0144 136.715 64.9985 136.709 64.9816C136.693 64.935 136.651 64.9002 136.657 64.8422C136.661 64.8092 136.641 64.7743 136.634 64.7397C136.625 64.6865 136.584 64.6614 136.544 64.6383C136.51 64.6195 136.477 64.6301 136.448 64.6519C136.429 64.6662 136.412 64.6686 136.39 64.6572C136.375 64.6492 136.358 64.6471 136.341 64.6432C136.291 64.6316 136.239 64.6255 136.19 64.6024C136.169 64.5919 136.145 64.5874 136.125 64.5708C136.104 64.5542 136.076 64.553 136.049 64.5588C136.039 64.5609 136.03 64.5657 136.019 64.5664C135.993 64.5679 135.982 64.5889 135.968 64.6054C135.955 64.6198 135.962 64.6341 135.967 64.6495C135.975 64.6742 135.963 64.69 135.937 64.692C135.921 64.6932 135.909 64.6865 135.898 64.6769C135.873 64.6554 135.844 64.6442 135.811 64.6436C135.786 64.6431 135.768 64.6337 135.761 64.6083C135.752 64.5732 135.724 64.5631 135.693 64.5586C135.679 64.5566 135.664 64.5566 135.65 64.5584C135.615 64.5627 135.585 64.548 135.557 64.531C135.528 64.5128 135.521 64.4829 135.538 64.4513C135.544 64.4395 135.548 64.4275 135.547 64.4138C135.546 64.3929 135.545 64.3723 135.549 64.3512C135.553 64.3295 135.54 64.3102 135.52 64.3071C135.499 64.3039 135.477 64.3001 135.458 64.3097C135.441 64.3181 135.425 64.3164 135.409 64.3168C135.371 64.3177 135.332 64.3065 135.298 64.331C135.289 64.3369 135.28 64.3344 135.272 64.3303C135.249 64.3196 135.226 64.3228 135.202 64.3271C135.159 64.3349 135.116 64.3489 135.071 64.3462C135.048 64.3448 135.028 64.357 135.013 64.375C135.006 64.3832 134.999 64.3887 134.988 64.3931C134.942 64.4125 134.893 64.418 134.844 64.4235C134.819 64.4263 134.796 64.4263 134.773 64.4077C134.755 64.3923 134.73 64.4021 134.717 64.4231C134.709 64.4365 134.698 64.4491 134.693 64.4636C134.684 64.4893 134.665 64.5025 134.643 64.5152C134.588 64.546 134.546 64.5905 134.529 64.6522C134.519 64.6901 134.502 64.7236 134.478 64.7529C134.451 64.7856 134.427 64.8234 134.382 64.835C134.366 64.8389 134.356 64.8501 134.349 64.8662C134.341 64.8851 134.331 64.9096 134.315 64.9179C134.282 64.9347 134.273 64.9617 134.265 64.9927C134.263 65.0027 134.258 65.0123 134.253 65.0214C134.228 65.0655 134.197 65.1055 134.175 65.1521C134.152 65.2 134.143 65.2429 134.163 65.2937C134.183 65.3443 134.199 65.397 134.18 65.4528C134.177 65.4613 134.176 65.4707 134.175 65.4798C134.172 65.5 134.163 65.5162 134.148 65.5305C134.125 65.5521 134.114 65.5792 134.115 65.6115C134.115 65.6719 134.14 65.7227 134.173 65.7711C134.183 65.786 134.2 65.79 134.213 65.8012C134.236 65.8213 134.25 65.8487 134.273 65.8689C134.288 65.8824 134.299 65.8979 134.304 65.9174C134.326 65.9924 134.372 66.0497 134.438 66.0901C134.476 66.1137 134.511 66.1396 134.545 66.1688C134.579 66.1986 134.615 66.207 134.656 66.1834C134.666 66.1776 134.678 66.174 134.689 66.1706C134.731 66.1577 134.772 66.1453 134.819 66.16C134.848 66.1692 134.88 66.182 134.914 66.1668C134.956 66.1482 134.999 66.1324 135.04 66.113C135.081 66.0935 135.121 66.0864 135.164 66.0864C135.215 66.0864 135.245 66.1076 135.262 66.1556C135.277 66.2007 135.289 66.2074 135.337 66.1996C135.373 66.1939 135.407 66.1968 135.439 66.2151C135.48 66.2382 135.487 66.2529 135.479 66.3009C135.475 66.3255 135.461 66.3481 135.462 66.3734C135.464 66.407 135.457 66.4384 135.445 66.4691C135.44 66.4813 135.435 66.494 135.441 66.5071C135.45 66.5271 135.456 66.5489 135.47 66.5667C135.498 66.5999 135.523 66.635 135.551 66.668C135.574 66.6956 135.592 66.7248 135.596 66.7617C135.599 66.785 135.609 66.8067 135.621 66.8269C135.636 66.8494 135.645 66.8742 135.643 66.9013C135.64 66.9484 135.652 66.992 135.671 67.0347C135.692 67.0851 135.689 67.1318 135.647 67.1716C135.629 67.1883 135.62 67.2088 135.616 67.2334C135.61 67.2722 135.595 67.3089 135.585 67.3467C135.576 67.3829 135.576 67.4216 135.574 67.4594C135.573 67.4725 135.58 67.4848 135.588 67.4954C135.606 67.5202 135.616 67.5484 135.628 67.5761C135.645 67.6132 135.656 67.6534 135.685 67.6834C135.711 67.7103 135.716 67.742 135.714 67.7774C135.712 67.8022 135.709 67.8278 135.717 67.8516C135.726 67.8769 135.728 67.9026 135.73 67.9288C135.732 67.9703 135.74 68.0148 135.768 68.0421C135.818 68.0897 135.843 68.1463 135.856 68.2112C135.856 68.2125 135.857 68.2138 135.858 68.2149C135.871 68.2387 135.875 68.2642 135.871 68.3C135.862 68.3269 135.885 68.357 135.89 68.3902C135.891 68.3949 135.894 68.4014 135.898 68.4033C135.924 68.4165 135.949 68.4367 135.981 68.4317C136.031 68.424 136.083 68.4254 136.131 68.4054C136.137 68.403 136.144 68.402 136.15 68.4023C136.201 68.404 136.247 68.3904 136.295 68.3749C136.344 68.3592 136.381 68.3325 136.413 68.2946C136.424 68.2805 136.436 68.2656 136.45 68.2545C136.475 68.2354 136.491 68.2109 136.505 68.1837C136.518 68.1565 136.535 68.1304 136.559 68.1118C136.586 68.0899 136.6 68.0619 136.61 68.0306C136.615 68.017 136.621 68.0033 136.622 67.9892C136.629 67.9377 136.658 67.9042 136.703 67.8813C136.721 67.8724 136.737 67.859 136.744 67.84C136.763 67.7879 136.777 67.735 136.756 67.6796C136.752 67.6698 136.75 67.6595 136.748 67.6492C136.739 67.6022 136.754 67.5633 136.793 67.5357C136.809 67.5238 136.822 67.5094 136.833 67.4938C136.846 67.4773 136.86 67.4659 136.879 67.4581C136.924 67.4393 136.964 67.4124 136.996 67.374C137.026 67.3375 137.044 67.2976 137.038 67.2479C137.033 67.2118 137.034 67.1754 137.041 67.1385C137.048 67.0976 137.049 67.056 137.021 67.0183C137.002 66.9935 136.987 66.9632 136.988 66.9314C136.991 66.8784 136.983 66.8272 136.971 66.776C136.967 66.7552 136.969 66.7337 136.982 66.7161C136.991 66.7043 136.997 66.6912 137.002 66.6779C137.024 66.6271 137.046 66.577 137.092 66.5425C137.1 66.5364 137.106 66.5269 137.112 66.5185C137.136 66.4859 137.159 66.4517 137.185 66.4206C137.208 66.3927 137.23 66.3614 137.264 66.3454C137.344 66.3073 137.395 66.2406 137.434 66.1664C137.478 66.0833 137.515 65.996 137.554 65.9104C137.558 65.9022 137.557 65.8924 137.56 65.8838C137.572 65.8479 137.557 65.8108 137.566 65.7745C137.569 65.7603 137.547 65.7421 137.535 65.7498Z" fill="#8FD9FF"/>
<path d="M129.647 64.965C129.644 64.9856 129.652 65.0001 129.669 65.0115C129.701 65.0335 129.723 65.0647 129.74 65.099C129.751 65.1201 129.761 65.141 129.774 65.1606C129.794 65.1885 129.794 65.2192 129.781 65.2501C129.76 65.2975 129.777 65.3436 129.824 65.3667C129.828 65.369 129.834 65.3705 129.837 65.3744C129.858 65.4062 129.889 65.4213 129.924 65.4311C129.929 65.4328 129.935 65.4379 129.939 65.4428C129.957 65.4632 129.98 65.4757 130.004 65.4858C130.054 65.5063 130.104 65.5262 130.154 65.5456C130.176 65.5544 130.2 65.5552 130.223 65.5475C130.235 65.5434 130.248 65.5412 130.261 65.5366C130.279 65.5298 130.294 65.5342 130.309 65.5442C130.321 65.5523 130.333 65.5606 130.341 65.5728C130.4 65.6582 130.489 65.6883 130.585 65.7049C130.609 65.7091 130.628 65.722 130.639 65.7411C130.653 65.7642 130.667 65.7878 130.671 65.8161C130.676 65.8576 130.695 65.8886 130.738 65.904C130.762 65.9126 130.785 65.9273 130.796 65.9537C130.806 65.9749 130.824 65.9849 130.846 65.9869C130.872 65.9894 130.894 65.9971 130.911 66.0188C130.922 66.0334 130.94 66.0297 130.955 66.0259C130.969 66.0223 130.971 66.0098 130.97 65.9973C130.969 65.9864 130.971 65.9769 130.978 65.9678C130.986 65.9563 130.988 65.942 130.98 65.9309C130.971 65.9189 130.955 65.9217 130.944 65.9251C130.911 65.9345 130.885 65.9234 130.861 65.9024C130.853 65.8955 130.845 65.8882 130.837 65.8818C130.803 65.8556 130.795 65.818 130.809 65.7826C130.827 65.7344 130.822 65.681 130.848 65.635C130.856 65.6204 130.851 65.6015 130.85 65.5845C130.85 65.576 130.844 65.5709 130.837 65.5657C130.799 65.5343 130.754 65.5228 130.705 65.5313C130.687 65.5345 130.669 65.532 130.651 65.5318C130.635 65.5316 130.627 65.5238 130.622 65.5096C130.613 65.4817 130.616 65.4549 130.633 65.4314C130.652 65.4055 130.664 65.3772 130.676 65.3479C130.69 65.3135 130.685 65.2732 130.714 65.243C130.727 65.2298 130.713 65.2119 130.693 65.2076C130.64 65.1969 130.592 65.2109 130.544 65.229C130.529 65.2347 130.521 65.2451 130.519 65.2614C130.517 65.2891 130.506 65.3146 130.495 65.3396C130.48 65.371 130.464 65.3815 130.43 65.3782C130.402 65.3756 130.375 65.3756 130.348 65.3802C130.299 65.3884 130.25 65.3541 130.226 65.3091C130.198 65.2577 130.202 65.2032 130.198 65.1491C130.198 65.1415 130.2 65.1336 130.201 65.1258C130.206 65.0781 130.224 65.0347 130.244 64.992C130.254 64.9702 130.262 64.9487 130.261 64.9241C130.259 64.8977 130.268 64.8743 130.29 64.859C130.316 64.8413 130.339 64.8204 130.369 64.8081C130.397 64.7967 130.424 64.7847 130.45 64.7675C130.472 64.752 130.496 64.7507 130.524 64.7604C130.569 64.7762 130.619 64.7759 130.666 64.7828C130.679 64.7847 130.684 64.7763 130.691 64.7673C130.702 64.7512 130.715 64.7361 130.736 64.7314C130.76 64.726 130.784 64.7196 130.808 64.7154C130.832 64.7115 130.854 64.7154 130.866 64.7385C130.875 64.7572 130.888 64.7604 130.908 64.7578C130.952 64.7516 130.976 64.7766 130.97 64.8216C130.968 64.8387 130.969 64.8552 130.973 64.8722C130.982 64.9135 130.996 64.9523 131.02 64.9876C131.038 65.013 131.05 65.0167 131.072 64.9958C131.096 64.9735 131.109 64.946 131.11 64.9124C131.113 64.8708 131.101 64.832 131.091 64.7927C131.072 64.7142 131.095 64.6494 131.158 64.6018C131.21 64.5627 131.264 64.5264 131.323 64.4977C131.356 64.4815 131.389 64.4682 131.41 64.4319C131.423 64.4095 131.44 64.3885 131.446 64.3634C131.455 64.325 131.475 64.2932 131.499 64.2642C131.529 64.2294 131.56 64.1955 131.591 64.1617C131.625 64.1242 131.662 64.0982 131.713 64.0921C131.737 64.0892 131.758 64.0777 131.779 64.0689C131.794 64.0628 131.803 64.052 131.801 64.0353C131.798 64.013 131.811 63.9988 131.826 63.9848C131.848 63.9635 131.88 63.9573 131.902 63.9409C131.934 63.9184 131.964 63.9246 131.996 63.9234C132.012 63.9227 132.024 63.93 132.031 63.9482C132.04 63.9716 132.058 63.9742 132.077 63.958C132.089 63.9479 132.1 63.9359 132.111 63.9248C132.119 63.9165 132.128 63.9066 132.141 63.9078C132.179 63.9117 132.214 63.8878 132.252 63.8892C132.261 63.8896 132.27 63.8863 132.279 63.8834C132.299 63.8767 132.304 63.8557 132.289 63.8403C132.282 63.8335 132.274 63.8303 132.264 63.829C132.25 63.8271 132.236 63.8241 132.222 63.8213C132.181 63.8131 132.164 63.7872 132.174 63.7472C132.179 63.729 132.187 63.7118 132.201 63.6998C132.223 63.6818 132.231 63.6597 132.224 63.6335C132.22 63.6157 132.229 63.6092 132.242 63.604C132.272 63.5916 132.304 63.5893 132.335 63.594C132.373 63.5998 132.409 63.601 132.447 63.5887C132.467 63.582 132.482 63.6016 132.473 63.6218C132.466 63.6374 132.455 63.6509 132.442 63.662C132.425 63.6764 132.418 63.6958 132.411 63.7157C132.405 63.7316 132.407 63.7402 132.425 63.7435C132.45 63.7478 132.474 63.7523 132.499 63.7463C132.525 63.7401 132.552 63.7396 132.575 63.7554C132.598 63.7709 132.624 63.7736 132.649 63.7791C132.685 63.787 132.711 63.7545 132.698 63.7192C132.69 63.6973 132.687 63.6764 132.698 63.6547C132.715 63.6216 132.714 63.6209 132.681 63.6077C132.653 63.5966 132.647 63.5834 132.649 63.554C132.651 63.514 132.673 63.4799 132.678 63.4406C132.681 63.417 132.68 63.3997 132.66 63.3859C132.651 63.3798 132.642 63.3735 132.643 63.361C132.645 63.3387 132.63 63.3307 132.613 63.3265C132.569 63.3154 132.557 63.2828 132.556 63.2434C132.555 63.2198 132.556 63.1962 132.555 63.1726C132.554 63.1321 132.542 63.0952 132.516 63.0637C132.496 63.0397 132.49 63.0383 132.465 63.0573C132.434 63.0812 132.401 63.1031 132.367 63.1233C132.345 63.1368 132.32 63.135 132.302 63.1192C132.285 63.1049 132.283 63.0898 132.295 63.0622C132.298 63.0561 132.301 63.0504 132.304 63.0444C132.314 63.0204 132.313 63.0099 132.292 62.9985C132.273 62.9881 132.26 62.973 132.245 62.9579C132.231 62.9433 132.216 62.9262 132.194 62.9234C132.152 62.9181 132.111 62.9142 132.069 62.914C132.054 62.9139 132.039 62.9184 132.029 62.9282C132.003 62.9531 131.993 62.9889 131.973 63.0187C131.979 63.0653 131.952 63.0885 131.912 63.1025C131.909 63.1038 131.905 63.1049 131.901 63.1068C131.881 63.1186 131.879 63.1285 131.893 63.1474C131.916 63.1786 131.917 63.1876 131.896 63.2206C131.882 63.2434 131.863 63.2598 131.84 63.2744C131.805 63.2966 131.765 63.3039 131.729 63.3224C131.712 63.3311 131.699 63.3404 131.701 63.3603C131.703 63.3927 131.68 63.4192 131.681 63.4517C131.681 63.4641 131.668 63.4738 131.656 63.4803C131.645 63.4859 131.635 63.4911 131.624 63.4962C131.598 63.509 131.583 63.5046 131.572 63.4778C131.562 63.4568 131.56 63.4353 131.574 63.4141C131.59 63.389 131.599 63.3593 131.62 63.3364C131.629 63.3256 131.625 63.3161 131.613 63.312C131.592 63.3047 131.57 63.3 131.547 63.3C131.5 63.3001 131.459 63.2764 131.428 63.2471C131.399 63.2193 131.367 63.202 131.331 63.1929C131.309 63.1875 131.3 63.1758 131.297 63.1559C131.294 63.1406 131.295 63.1239 131.285 63.1106C131.27 63.0903 131.28 63.074 131.293 63.0579C131.309 63.0383 131.331 63.026 131.351 63.0109C131.404 62.9695 131.462 62.9375 131.531 62.9289C131.565 62.9247 131.591 62.9059 131.616 62.8837C131.632 62.8685 131.65 62.8616 131.672 62.86C131.708 62.8573 131.74 62.8653 131.766 62.8896C131.78 62.9018 131.792 62.9006 131.806 62.8934C131.825 62.8831 131.845 62.873 131.865 62.8627C131.879 62.8555 131.892 62.8546 131.905 62.864C131.917 62.8721 131.931 62.8779 131.946 62.8772C131.957 62.8767 131.966 62.8726 131.971 62.8619C131.976 62.852 131.971 62.8435 131.963 62.8377C131.949 62.8268 131.943 62.8116 131.938 62.7948C131.93 62.7636 131.935 62.7529 131.967 62.7509C131.99 62.7496 132.008 62.7413 132.025 62.7287C132.054 62.7073 132.088 62.6926 132.105 62.6564C132.109 62.6474 132.119 62.6414 132.126 62.634C132.136 62.6238 132.147 62.6139 132.153 62.6004C132.165 62.5763 132.186 62.5675 132.212 62.5715C132.231 62.5746 132.251 62.5739 132.27 62.5735C132.299 62.573 132.326 62.5805 132.343 62.6045C132.354 62.6201 132.366 62.631 132.383 62.6397C132.408 62.6526 132.41 62.6691 132.389 62.689C132.372 62.704 132.354 62.717 132.334 62.7269C132.322 62.7325 132.308 62.7376 132.305 62.7515C132.298 62.7759 132.278 62.7784 132.259 62.7809C132.236 62.7838 132.215 62.7788 132.193 62.7721C132.159 62.7613 132.123 62.78 132.112 62.813C132.107 62.827 132.11 62.8362 132.126 62.8377C132.169 62.8416 132.212 62.8518 132.255 62.8415C132.272 62.8375 132.284 62.844 132.292 62.8565C132.299 62.8661 132.305 62.8768 132.308 62.8879C132.315 62.9137 132.334 62.9264 132.357 62.935C132.382 62.9446 132.408 62.9541 132.434 62.9642C132.457 62.9735 132.477 62.9722 132.499 62.9554C132.523 62.9372 132.545 62.917 132.571 62.901C132.605 62.8801 132.611 62.8476 132.592 62.8121C132.586 62.8005 132.58 62.7889 132.575 62.7769C132.571 62.7682 132.569 62.7584 132.579 62.7523C132.588 62.7468 132.596 62.7508 132.604 62.7566C132.62 62.7676 132.627 62.7851 132.64 62.7979C132.661 62.8184 132.68 62.8199 132.703 62.8019C132.72 62.7882 132.738 62.7743 132.755 62.7602C132.779 62.7402 132.782 62.7288 132.771 62.6987C132.765 62.6821 132.757 62.6688 132.74 62.6604C132.702 62.6415 132.677 62.6141 132.682 62.5678C132.685 62.5458 132.674 62.5305 132.658 62.5172C132.632 62.4955 132.602 62.4836 132.569 62.4774C132.532 62.4704 132.507 62.4493 132.495 62.4148C132.487 62.3928 132.473 62.3842 132.453 62.3793C132.4 62.3665 132.345 62.367 132.293 62.3733C132.256 62.3777 132.22 62.3801 132.183 62.3805C132.158 62.3805 132.133 62.3787 132.109 62.381C132.084 62.3834 132.058 62.384 132.037 62.3997C132.012 62.4186 131.987 62.4375 131.963 62.4578C131.932 62.4838 131.93 62.4954 131.943 62.5333C131.946 62.5421 131.952 62.5501 131.947 62.5594C131.937 62.5779 131.922 62.5899 131.901 62.5915C131.881 62.593 131.861 62.5931 131.849 62.5722C131.836 62.5491 131.827 62.5251 131.823 62.4984C131.82 62.4745 131.803 62.4593 131.785 62.4643C131.753 62.473 131.721 62.4808 131.694 62.5002C131.665 62.5215 131.635 62.5425 131.649 62.5895C131.657 62.6162 131.648 62.6209 131.625 62.6357C131.606 62.6472 131.589 62.6414 131.572 62.6376C131.543 62.6313 131.513 62.6277 131.487 62.638C131.466 62.6461 131.447 62.6485 131.426 62.6488C131.403 62.649 131.38 62.6498 131.356 62.6538C131.323 62.6593 131.291 62.657 131.266 62.6292C131.249 62.611 131.223 62.606 131.2 62.6105C131.159 62.6186 131.117 62.6222 131.077 62.6334C131.014 62.651 130.951 62.6604 130.894 62.6132C130.882 62.6035 130.869 62.6008 130.855 62.6007C130.232 63.1944 129.784 63.9694 129.594 64.8409C129.617 64.8727 129.622 64.9139 129.645 64.9458C129.648 64.9504 129.647 64.9587 129.647 64.965Z" fill="#8FD9FF"/>
<path d="M129.612 65.1116C129.618 65.0941 129.614 65.0783 129.602 65.0639C129.587 65.0457 129.579 65.0248 129.572 65.0021C129.569 64.9952 129.568 64.9883 129.566 64.9812C129.559 65.0177 129.553 65.0543 129.547 65.091C129.556 65.1005 129.564 65.1102 129.573 65.1201C129.586 65.1359 129.605 65.1312 129.612 65.1116Z" fill="#8FD9FF"/>
<path d="M133.172 66.7213C133.134 66.7166 133.106 66.6978 133.082 66.6697C133.073 66.6587 133.062 66.6481 133.051 66.6394C133.019 66.6145 132.986 66.5899 132.941 66.6005C132.882 66.6106 132.831 66.5813 132.785 66.5545C132.709 66.5098 132.626 66.4823 132.546 66.4469C132.51 66.431 132.491 66.4095 132.482 66.3751C132.478 66.3625 132.479 66.3486 132.47 66.3382C132.447 66.3128 132.438 66.2822 132.431 66.2494C132.427 66.2268 132.421 66.2011 132.4 66.1878C132.378 66.1743 132.362 66.1564 132.345 66.1377C132.339 66.1309 132.332 66.1242 132.323 66.1219C132.28 66.1118 132.24 66.0922 132.193 66.0964C132.131 66.1021 132.089 66.0695 132.059 66.019C132.042 65.9896 132.022 65.9657 131.988 65.9556C131.965 65.9489 131.955 65.9308 131.948 65.9103C131.943 65.8954 131.953 65.8826 131.956 65.8687C131.96 65.8535 131.966 65.8362 131.946 65.8276C131.928 65.8196 131.91 65.81 131.89 65.8162C131.866 65.8234 131.843 65.8229 131.82 65.823C131.802 65.823 131.787 65.8254 131.772 65.8374C131.75 65.8561 131.723 65.8573 131.699 65.8428C131.679 65.8306 131.657 65.8267 131.636 65.8245C131.611 65.8219 131.59 65.8128 131.571 65.7982C131.544 65.7773 131.512 65.7652 131.482 65.7499C131.46 65.7386 131.432 65.7385 131.406 65.7347C131.396 65.7332 131.386 65.7347 131.378 65.7439C131.352 65.7722 131.319 65.7828 131.281 65.7911C131.238 65.8007 131.199 65.8197 131.187 65.8719C131.178 65.9088 131.129 65.934 131.091 65.9262C131.076 65.9233 131.062 65.9236 131.048 65.9248C131.041 65.9253 131.034 65.9279 131.033 65.9356C131.032 65.9515 131.023 65.9702 131.044 65.9806C131.053 65.9848 131.055 65.9914 131.055 65.9995C131.054 66.0151 131.062 66.0278 131.07 66.0394C131.095 66.0778 131.099 66.1203 131.095 66.164C131.091 66.2015 131.087 66.2389 131.065 66.2726C131.052 66.292 131.033 66.3031 131.018 66.3195C131 66.339 130.992 66.366 130.97 66.3812C130.931 66.4098 130.918 66.4528 130.909 66.4957C130.903 66.5231 130.9 66.5549 130.915 66.5805C130.938 66.6187 130.931 66.6499 130.902 66.6798C130.891 66.6916 130.884 66.7059 130.885 66.7223C130.889 66.7702 130.899 66.8155 130.943 66.8455C130.98 66.8713 130.998 66.9107 131.01 66.9532C131.016 66.9764 131.025 66.9974 131.042 67.0147C131.076 67.0485 131.101 67.0899 131.121 67.1315C131.139 67.1673 131.16 67.2017 131.175 67.2395C131.193 67.2828 131.232 67.3136 131.265 67.3472C131.267 67.3497 131.272 67.3501 131.276 67.3516C131.303 67.3632 131.332 67.3738 131.359 67.3866C131.411 67.4109 131.453 67.4483 131.491 67.4898C131.5 67.4995 131.503 67.5126 131.507 67.5253C131.526 67.5876 131.523 67.6525 131.527 67.716C131.531 67.8075 131.534 67.899 131.544 67.9902C131.546 68.0057 131.546 68.0221 131.542 68.0372C131.534 68.0777 131.538 68.1174 131.542 68.1581C131.546 68.2069 131.567 68.2512 131.575 68.299C131.583 68.3488 131.587 68.3968 131.576 68.4469C131.567 68.4862 131.566 68.5271 131.561 68.5673C131.56 68.5764 131.56 68.5859 131.565 68.5943C131.591 68.6437 131.6 68.6978 131.61 68.7521C131.617 68.7902 131.629 68.8267 131.656 68.8582C131.701 68.9103 131.72 68.9744 131.726 69.0424C131.728 69.0621 131.733 69.0809 131.744 69.0977C131.757 69.1167 131.763 69.1376 131.766 69.1601C131.772 69.2003 131.778 69.2403 131.804 69.2739C131.809 69.2799 131.811 69.2882 131.815 69.2948C131.846 69.3471 131.867 69.4065 131.912 69.4501C131.942 69.4788 131.972 69.5036 132.019 69.4858C132.054 69.4726 132.103 69.4994 132.112 69.5366C132.118 69.5614 132.133 69.5672 132.154 69.5694C132.171 69.5711 132.188 69.5689 132.204 69.5757C132.234 69.5883 132.266 69.5867 132.297 69.5867C132.313 69.5868 132.327 69.5845 132.33 69.5665C132.332 69.5494 132.318 69.5413 132.306 69.5339C132.302 69.5314 132.296 69.5311 132.291 69.5311C132.27 69.5311 132.252 69.5241 132.235 69.5145C132.2 69.4948 132.161 69.4771 132.145 69.4367C132.136 69.4138 132.122 69.3973 132.104 69.3812C132.057 69.3389 132.065 69.3238 132.083 69.2865C132.086 69.2819 132.089 69.2766 132.089 69.272C132.085 69.2427 132.105 69.2271 132.122 69.2089C132.154 69.1759 132.147 69.1418 132.105 69.1214C132.069 69.1036 132.056 69.0604 132.078 69.0268C132.091 69.0052 132.102 68.9835 132.093 68.9568C132.088 68.9425 132.096 68.9305 132.104 68.921C132.12 68.9038 132.128 68.884 132.132 68.8613C132.135 68.8389 132.144 68.8189 132.157 68.8004C132.17 68.7823 132.18 68.7626 132.183 68.7398C132.188 68.711 132.207 68.6939 132.232 68.683C132.242 68.6788 132.252 68.6768 132.262 68.6732C132.308 68.6561 132.348 68.6339 132.35 68.5767C132.351 68.5716 132.353 68.5666 132.355 68.5617C132.37 68.5199 132.385 68.4785 132.424 68.4505C132.444 68.4361 132.462 68.4172 132.473 68.3944C132.488 68.3613 132.503 68.3275 132.516 68.2935C132.529 68.2622 132.537 68.2278 132.567 68.2072C132.598 68.1861 132.591 68.1437 132.616 68.1198C132.622 68.1144 132.627 68.1084 132.633 68.1035C132.647 68.0918 132.654 68.0766 132.654 68.0586C132.654 68.0377 132.654 68.0172 132.648 67.9964C132.624 67.9143 132.638 67.8808 132.711 67.8362C132.724 67.8287 132.737 67.8234 132.751 67.8191C132.763 67.8153 132.776 67.8117 132.787 67.8039C132.815 67.7835 132.846 67.7739 132.882 67.7724C132.912 67.7711 132.949 67.7718 132.962 67.7311C132.963 67.7269 132.969 67.7238 132.974 67.7212C132.989 67.7122 132.994 67.6981 132.993 67.6813C132.991 67.6591 132.999 67.641 133.011 67.6229C133.026 67.6002 133.041 67.5757 133.04 67.5468C133.038 67.5187 133.039 67.4923 133.057 67.4687C133.064 67.4601 133.062 67.4486 133.062 67.4381C133.063 67.425 133.061 67.4111 133.065 67.399C133.073 67.3713 133.069 67.3462 133.061 67.3186C133.049 67.2738 133.046 67.2266 133.079 67.1874C133.123 67.1339 133.148 67.0673 133.198 67.0186C133.201 67.0159 133.204 67.0127 133.206 67.0094C133.248 66.9374 133.264 66.8621 133.237 66.7801C133.226 66.7468 133.207 66.7257 133.172 66.7213Z" fill="#8FD9FF"/>
<path d="M134.276 62.5758C134.336 62.5635 134.356 62.5311 134.342 62.4705C134.333 62.4337 134.34 62.4222 134.375 62.4092C134.437 62.3859 134.487 62.3489 134.51 62.2834C134.514 62.2737 134.515 62.263 134.524 62.2554C134.541 62.2389 134.546 62.2177 134.545 62.1945C134.543 62.1755 134.55 62.1586 134.567 62.1521C134.609 62.1358 134.648 62.109 134.694 62.1009C134.73 62.0947 134.766 62.0904 134.799 62.0722C134.806 62.0683 134.813 62.0642 134.811 62.0545C134.81 62.0468 134.803 62.045 134.796 62.0432C134.772 62.0359 134.747 62.037 134.722 62.0385C134.675 62.0412 134.627 62.0392 134.582 62.025C134.532 62.009 134.481 61.9987 134.43 61.9893C134.346 61.974 134.261 61.971 134.177 61.9871C134.143 61.9934 134.111 61.9983 134.076 61.9948C134.028 61.99 133.979 61.9897 133.931 61.9975C133.848 62.0108 133.766 62.0235 133.682 62.0245C133.66 62.0248 133.638 62.034 133.615 62.0298C133.531 62.0138 133.45 62.0495 133.366 62.0438C133.361 62.0434 133.356 62.0455 133.351 62.0475C133.324 62.0587 133.296 62.0651 133.268 62.0681C133.219 62.0732 133.175 62.0968 133.126 62.0989C133.114 62.0995 133.098 62.1011 133.092 62.1153C133.085 62.1332 133.069 62.1355 133.055 62.1405C133.012 62.1551 132.967 62.1534 132.923 62.1587C132.897 62.1618 132.872 62.1669 132.846 62.1728C132.829 62.177 132.823 62.1873 132.823 62.2038C132.823 62.2313 132.846 62.2637 132.876 62.2754C132.902 62.2858 132.93 62.2892 132.957 62.2836C133.014 62.2716 133.069 62.2822 133.124 62.2919C133.169 62.2997 133.198 62.333 133.201 62.3784C133.202 62.4013 133.198 62.4229 133.186 62.4426C133.172 62.4653 133.173 62.4881 133.187 62.5096C133.199 62.5296 133.207 62.5518 133.222 62.5703C133.243 62.595 133.237 62.6084 133.204 62.6142C133.134 62.6264 133.098 62.6688 133.098 62.7396C133.093 62.7692 133.109 62.7991 133.106 62.831C133.103 62.8641 133.109 62.8963 133.123 62.9265C133.132 62.9455 133.142 62.9636 133.152 62.9821C133.166 63.0088 133.17 63.0115 133.202 63.0044C133.23 62.9979 133.253 63.0061 133.272 63.0269C133.318 63.0758 133.343 63.0585 133.371 63.029C133.397 63.0016 133.427 62.9782 133.444 62.9423C133.448 62.9332 133.455 62.9239 133.464 62.9186C133.492 62.9007 133.512 62.8758 133.528 62.8464C133.55 62.8063 133.581 62.7823 133.631 62.7798C133.659 62.7784 133.688 62.7744 133.716 62.7693C133.777 62.7581 133.833 62.735 133.882 62.6953C133.902 62.6797 133.922 62.6627 133.948 62.6622C133.997 62.6611 134.043 62.6454 134.091 62.6392C134.126 62.6347 134.16 62.6226 134.192 62.6076C134.219 62.5948 134.246 62.582 134.276 62.5758Z" fill="#8FD9FF"/>
<path d="M137.508 67.224C137.503 67.1965 137.491 67.1715 137.479 67.1468C137.471 67.1286 137.457 67.1274 137.447 67.1435C137.428 67.1716 137.407 67.1997 137.393 67.2304C137.365 67.2921 137.326 67.3389 137.256 67.352C137.238 67.3552 137.218 67.3584 137.209 67.3774C137.195 67.4068 137.174 67.4343 137.179 67.4691C137.182 67.4886 137.18 67.509 137.186 67.5274C137.2 67.576 137.179 67.6157 137.154 67.6519C137.135 67.6785 137.125 67.704 137.129 67.7321C137.127 67.7715 137.136 67.806 137.145 67.8402C137.154 67.8812 137.202 67.9178 137.237 67.9108C137.261 67.906 137.284 67.8959 137.307 67.8868C137.314 67.8841 137.321 67.8778 137.324 67.8713C137.336 67.8452 137.352 67.8207 137.359 67.7925C137.374 67.7302 137.4 67.6713 137.422 67.6111C137.441 67.5609 137.466 67.5124 137.473 67.459C137.477 67.4282 137.486 67.4007 137.503 67.3754C137.523 67.3433 137.527 67.3103 137.517 67.2741C137.513 67.2578 137.511 67.2407 137.508 67.224Z" fill="#8FD9FF"/>
<path d="M134.842 63.3066C134.859 63.3245 134.879 63.3359 134.9 63.3468C134.918 63.3564 134.93 63.3741 134.929 63.3942C134.929 63.4149 134.908 63.4134 134.893 63.4161C134.875 63.4194 134.863 63.4297 134.86 63.4496C134.859 63.4586 134.857 63.4674 134.855 63.4764C134.852 63.5066 134.84 63.5343 134.832 63.5632C134.825 63.59 134.84 63.6031 134.867 63.5953C134.87 63.5942 134.874 63.5928 134.877 63.5906C134.917 63.5624 134.963 63.5621 135.009 63.5599C135.034 63.5586 135.057 63.5495 135.08 63.5399C135.088 63.5363 135.097 63.5305 135.097 63.5201C135.097 63.5051 135.108 63.4974 135.117 63.4881C135.144 63.4606 135.142 63.4419 135.106 63.4308C135.083 63.4233 135.072 63.4089 135.068 63.3879C135.064 63.3675 135.056 63.351 135.038 63.3397C135.033 63.3365 135.028 63.331 135.025 63.3254C135.006 63.2858 134.982 63.249 134.986 63.2005C134.99 63.1584 134.952 63.1262 134.903 63.1258C134.877 63.12 134.855 63.1327 134.837 63.1598C134.82 63.1839 134.807 63.2039 134.812 63.2373C134.817 63.2646 134.824 63.2866 134.842 63.3066Z" fill="#8FD9FF"/>
<path d="M134.5 62.7245C134.481 62.7269 134.462 62.7265 134.442 62.7298C134.392 62.7381 134.342 62.7498 134.292 62.7312C134.253 62.7165 134.224 62.7323 134.196 62.7565C134.183 62.7677 134.182 62.7784 134.196 62.7887C134.212 62.8011 134.221 62.8171 134.228 62.8363C134.235 62.8557 134.247 62.8687 134.271 62.8707C134.304 62.8738 134.338 62.8733 134.37 62.8872C134.373 62.8882 134.375 62.8876 134.381 62.8879C134.385 62.8867 134.391 62.8859 134.397 62.8827C134.444 62.8558 134.496 62.8429 134.547 62.8281C134.563 62.8234 134.574 62.8131 134.584 62.801C134.594 62.7896 134.595 62.7776 134.584 62.7659C134.561 62.7419 134.538 62.7198 134.5 62.7245Z" fill="#8FD9FF"/>
<path d="M131.067 65.2101C131.088 65.2324 131.114 65.2476 131.139 65.2628C131.151 65.2693 131.156 65.2781 131.159 65.2906C131.165 65.3179 131.171 65.3237 131.195 65.3163C131.219 65.3088 131.238 65.3145 131.258 65.3269C131.277 65.3391 131.298 65.3358 131.317 65.3236C131.339 65.3094 131.34 65.2966 131.319 65.2824C131.305 65.2737 131.291 65.2678 131.278 65.2591C131.252 65.2416 131.218 65.2348 131.197 65.2114C131.161 65.1718 131.115 65.1521 131.067 65.1344C131.037 65.1235 131.009 65.1095 130.974 65.1133C130.948 65.1082 130.923 65.1228 130.896 65.1273C130.869 65.1317 130.85 65.1463 130.832 65.1636C130.823 65.1729 130.806 65.1847 130.814 65.1997C130.824 65.2178 130.84 65.2012 130.853 65.1993C130.877 65.1956 130.898 65.1766 130.923 65.1777C130.968 65.1796 131.01 65.1932 131.054 65.2018C131.058 65.2028 131.063 65.2064 131.067 65.2101Z" fill="#8FD9FF"/>
<path d="M134.819 63.3161C134.794 63.2988 134.735 63.3026 134.712 63.3214C134.696 63.3343 134.683 63.3506 134.66 63.3546C134.633 63.3594 134.63 63.3634 134.634 63.3919C134.637 63.4157 134.634 63.4366 134.62 63.4548C134.608 63.4703 134.611 63.4831 134.62 63.4976C134.63 63.5114 134.639 63.523 134.657 63.5205C134.67 63.5208 134.681 63.516 134.691 63.5092C134.714 63.4929 134.739 63.4822 134.767 63.4807C134.779 63.4801 134.786 63.474 134.791 63.4634C134.797 63.449 134.806 63.4352 134.805 63.4189C134.805 63.4021 134.81 63.3906 134.824 63.3791C134.846 63.3608 134.842 63.3327 134.819 63.3161Z" fill="#8FD9FF"/>
<path d="M131.368 65.3736C131.351 65.3755 131.334 65.3783 131.318 65.3817C131.31 65.3833 131.303 65.3883 131.303 65.3977C131.304 65.4052 131.31 65.4099 131.316 65.4107C131.367 65.417 131.417 65.4371 131.467 65.4272C131.504 65.4199 131.541 65.4134 131.577 65.4061C131.589 65.4037 131.601 65.4016 131.604 65.3874C131.607 65.3718 131.595 65.3649 131.584 65.357C131.554 65.3354 131.515 65.3346 131.486 65.3112C131.48 65.3066 131.468 65.3094 131.459 65.3095C131.447 65.3097 131.436 65.3107 131.431 65.3109C131.419 65.3101 131.413 65.3087 131.408 65.3096C131.394 65.3124 131.375 65.2969 131.365 65.3137C131.355 65.3298 131.375 65.3377 131.381 65.3498C131.388 65.3638 131.384 65.3718 131.368 65.3736Z" fill="#8FD9FF"/>
<path opacity="0.1" d="M138.269 65.7811C138.269 68.2075 136.305 70.1745 133.881 70.1745C132.889 70.1745 131.974 69.845 131.239 69.2891C131.435 69.294 131.626 69.2919 131.81 69.2834C131.904 69.2792 131.997 69.2731 132.088 69.2654C133.714 69.1295 134.854 68.4776 135.653 67.6363C136.268 66.9899 136.681 66.2317 136.959 65.5101C136.981 65.4524 137.002 65.3949 137.023 65.3379C137.319 64.5128 137.441 63.7522 137.492 63.2842V63.2838C137.595 63.4322 137.688 63.5872 137.772 63.7481C137.792 63.7855 137.811 63.8232 137.829 63.8613C137.835 63.874 137.842 63.8867 137.848 63.8995C137.854 63.9122 137.86 63.925 137.866 63.9378C137.889 63.989 137.912 64.0408 137.934 64.0931C137.956 64.1454 137.976 64.1982 137.996 64.2515C138.021 64.3181 138.044 64.3855 138.065 64.4536C138.07 64.4672 138.074 64.4809 138.078 64.4946C138.099 64.5629 138.118 64.6321 138.136 64.7018C138.147 64.7436 138.157 64.7858 138.166 64.8281C138.172 64.8545 138.177 64.8811 138.183 64.9077C138.183 64.9113 138.184 64.9148 138.185 64.9184C138.24 65.1973 138.269 65.4858 138.269 65.7811Z" fill="black"/>
<path d="M134.098 62.7786C134.09 62.7729 134.07 62.7741 134.063 62.7803C134.057 62.7846 134.053 62.7899 134.045 62.7913C134.037 62.7928 134.035 62.7941 134.037 62.8035C134.038 62.8114 134.037 62.8183 134.032 62.8243C134.028 62.8294 134.029 62.8336 134.032 62.8384C134.035 62.8429 134.039 62.8468 134.044 62.8459C134.049 62.846 134.052 62.8444 134.056 62.8422C134.063 62.8368 134.071 62.8333 134.081 62.8328C134.085 62.8326 134.087 62.8306 134.089 62.8271C134.091 62.8224 134.093 62.8178 134.093 62.8124C134.093 62.8069 134.095 62.8031 134.099 62.7993C134.107 62.7933 134.105 62.784 134.098 62.7786Z" fill="#8FD9FF"/>
<path d="M130.889 63.872C130.735 63.872 130.61 63.9947 130.61 64.1461C130.61 64.2975 130.889 64.703 130.889 64.703C130.889 64.703 131.169 64.2975 131.169 64.1461C131.169 63.9947 131.044 63.872 130.889 63.872ZM130.889 64.1862C130.836 64.1862 130.792 64.1436 130.792 64.0911C130.792 64.0385 130.836 63.996 130.889 63.996C130.943 63.996 130.987 64.0386 130.987 64.0911C130.987 64.1436 130.943 64.1862 130.889 64.1862Z" fill="#F6471E"/>
<path d="M131.882 65.9624C131.728 65.9624 131.602 66.0851 131.602 66.2365C131.602 66.3878 131.882 66.7934 131.882 66.7934C131.882 66.7934 132.162 66.3878 132.162 66.2365C132.162 66.0851 132.037 65.9624 131.882 65.9624ZM131.882 66.2766C131.828 66.2766 131.785 66.234 131.785 66.1815C131.785 66.1289 131.828 66.0864 131.882 66.0864C131.936 66.0864 131.98 66.129 131.98 66.1815C131.98 66.234 131.936 66.2766 131.882 66.2766Z" fill="#F6471E"/>
<path d="M135.168 63.8378C135.013 63.8378 134.888 63.9605 134.888 64.1119C134.888 64.2632 135.168 64.6688 135.168 64.6688C135.168 64.6688 135.447 64.2632 135.447 64.1119C135.447 63.9605 135.322 63.8378 135.168 63.8378ZM135.168 64.152C135.114 64.152 135.07 64.1094 135.07 64.0569C135.07 64.0043 135.114 63.9618 135.168 63.9618C135.221 63.9618 135.265 64.0044 135.265 64.0569C135.265 64.1094 135.221 64.152 135.168 64.152Z" fill="#F6471E"/>
<path d="M137.324 64.558C137.169 64.558 137.044 64.6806 137.044 64.832C137.044 64.9834 137.324 65.3889 137.324 65.3889C137.324 65.3889 137.604 64.9834 137.604 64.832C137.604 64.6806 137.479 64.558 137.324 64.558ZM137.324 64.8722C137.27 64.8722 137.227 64.8296 137.227 64.777C137.227 64.7245 137.27 64.6819 137.324 64.6819C137.378 64.6819 137.421 64.7245 137.421 64.777C137.421 64.8296 137.378 64.8722 137.324 64.8722Z" fill="#F6471E"/>
<path d="M133.525 61.6795C133.37 61.6795 133.245 61.8022 133.245 61.9536C133.245 62.105 133.525 62.5105 133.525 62.5105C133.525 62.5105 133.805 62.105 133.805 61.9536C133.805 61.8022 133.679 61.6795 133.525 61.6795ZM133.525 61.9937C133.471 61.9937 133.427 61.9511 133.427 61.8986C133.427 61.846 133.471 61.8035 133.525 61.8035C133.579 61.8035 133.622 61.8461 133.622 61.8986C133.622 61.9511 133.579 61.9937 133.525 61.9937Z" fill="#F6471E"/>
<path d="M136.126 65.8597C135.971 65.8597 135.846 65.9824 135.846 66.1338C135.846 66.2852 136.126 66.6907 136.126 66.6907C136.126 66.6907 136.406 66.2852 136.406 66.1338C136.406 65.9824 136.281 65.8597 136.126 65.8597ZM136.126 66.1739C136.072 66.1739 136.029 66.1314 136.029 66.0788C136.029 66.0262 136.072 65.9837 136.126 65.9837C136.18 65.9837 136.223 66.0263 136.223 66.0788C136.223 66.1313 136.18 66.1739 136.126 66.1739Z" fill="#F6471E"/>
<path d="M136.4 62.4678C136.245 62.4678 136.12 62.5905 136.12 62.7418C136.12 62.8932 136.4 63.2988 136.4 63.2988C136.4 63.2988 136.679 62.8932 136.679 62.7418C136.679 62.5905 136.554 62.4678 136.4 62.4678ZM136.4 62.782C136.346 62.782 136.302 62.7394 136.302 62.6869C136.302 62.6343 136.346 62.5917 136.4 62.5917C136.453 62.5917 136.497 62.6343 136.497 62.6869C136.497 62.7394 136.453 62.782 136.4 62.782Z" fill="#F6471E"/>
<path d="M132.053 62.7076C131.898 62.7076 131.773 62.8303 131.773 62.9817C131.773 63.133 132.053 63.5386 132.053 63.5386C132.053 63.5386 132.333 63.133 132.333 62.9817C132.333 62.8303 132.208 62.7076 132.053 62.7076ZM132.053 63.0218C131.999 63.0218 131.956 62.9792 131.956 62.9267C131.956 62.8741 131.999 62.8315 132.053 62.8315C132.107 62.8315 132.15 62.8741 132.15 62.9267C132.15 62.9792 132.107 63.0218 132.053 63.0218Z" fill="#F6471E"/>
<path d="M132.806 67.093C132.651 67.093 132.526 67.2157 132.526 67.3671C132.526 67.5184 132.806 67.924 132.806 67.924C132.806 67.924 133.086 67.5184 133.086 67.3671C133.086 67.2157 132.961 67.093 132.806 67.093ZM132.806 67.4072C132.752 67.4072 132.709 67.3646 132.709 67.3121C132.709 67.2595 132.752 67.217 132.806 67.217C132.86 67.217 132.903 67.2595 132.903 67.3121C132.903 67.3646 132.86 67.4072 132.806 67.4072Z" fill="#F6471E"/>
<path d="M93.384 58.6483H70.8557V72.9138H93.384V58.6483Z" fill="#E3E9F7"/>
<path d="M92.1531 59.9252H72.0872V71.6366H92.1531V59.9252Z" fill="white"/>
<path d="M93.3838 56.0805H70.8643V58.6539H93.3838V56.0805Z" fill="#C8B0FF"/>
<path d="M72.1684 57.6584C72.4072 57.6584 72.6009 57.474 72.6009 57.2466C72.6009 57.0192 72.4072 56.8349 72.1684 56.8349C71.9295 56.8349 71.7358 57.0192 71.7358 57.2466C71.7358 57.474 71.9295 57.6584 72.1684 57.6584Z" fill="#E3E9F7"/>
<path d="M73.4296 57.6584C73.6685 57.6584 73.8621 57.474 73.8621 57.2466C73.8621 57.0192 73.6685 56.8349 73.4296 56.8349C73.1907 56.8349 72.9971 57.0192 72.9971 57.2466C72.9971 57.474 73.1907 57.6584 73.4296 57.6584Z" fill="#E3E9F7"/>
<path d="M74.6911 57.6584C74.9299 57.6584 75.1236 57.474 75.1236 57.2466C75.1236 57.0192 74.9299 56.8349 74.6911 56.8349C74.4522 56.8349 74.2585 57.0192 74.2585 57.2466C74.2585 57.474 74.4522 57.6584 74.6911 57.6584Z" fill="#E3E9F7"/>
<path d="M85.309 69.1095C87.1451 67.2713 87.1451 64.291 85.309 62.4529C83.473 60.6147 80.4962 60.6147 78.6601 62.4529C76.8241 64.291 76.8241 67.2713 78.6601 69.1095C80.4962 70.9476 83.473 70.9476 85.309 69.1095Z" fill="#BDE7FF"/>
<path d="M81.9853 69.8744C80.8932 69.8744 79.8665 69.4486 79.0942 68.6755C78.322 67.9023 77.8967 66.8744 77.8967 65.7811C77.8967 64.6877 78.322 63.6598 79.0942 62.8867C79.8665 62.1136 80.8932 61.6878 81.9853 61.6878C83.0774 61.6878 84.1041 62.1136 84.8763 62.8867C85.6486 63.6598 86.0739 64.6877 86.0739 65.7811C86.0739 66.8745 85.6486 67.9023 84.8763 68.6755C84.1041 69.4486 83.0774 69.8744 81.9853 69.8744Z" fill="white"/>
<path d="M81.9853 69.2607C81.057 69.2607 80.1842 68.8988 79.5277 68.2415C78.8713 67.5843 78.5098 66.7105 78.5098 65.7811C78.5098 64.8517 78.8713 63.9779 79.5277 63.3206C80.1842 62.6634 81.057 62.3015 81.9853 62.3015C82.9137 62.3015 83.7865 62.6634 84.4429 63.3206C85.0994 63.9778 85.4609 64.8517 85.4609 65.7811C85.4609 66.7105 85.0994 67.5843 84.4429 68.2415C83.7865 68.8988 82.9137 69.2607 81.9853 69.2607Z" fill="#BDE7FF"/>
<path d="M81.9852 68.647C81.2205 68.647 80.5017 68.349 79.961 67.8076C79.4203 67.2663 79.1226 66.5466 79.1226 65.7811C79.1226 65.0156 79.4203 64.2959 79.961 63.7546C80.5017 63.2133 81.2205 62.9152 81.9852 62.9152C82.7498 62.9152 83.4686 63.2133 84.0093 63.7546C84.55 64.2959 84.8478 65.0156 84.8478 65.7811C84.8478 66.5466 84.55 67.2663 84.0093 67.8076C83.4686 68.349 82.7498 68.647 81.9852 68.647Z" fill="white"/>
<path d="M81.9852 68.0335C81.3843 68.0335 80.8194 67.7993 80.3945 67.3739C79.9696 66.9485 79.7356 66.3829 79.7356 65.7813C79.7356 65.1797 79.9696 64.6141 80.3945 64.1887C80.8194 63.7633 81.3843 63.5291 81.9852 63.5291C82.5861 63.5291 83.151 63.7633 83.5759 64.1888C84.0008 64.6141 84.2348 65.1797 84.2348 65.7813C84.2348 66.3829 84.0008 66.9485 83.5759 67.3739C83.151 67.7992 82.5861 68.0335 81.9852 68.0335Z" fill="#BDE7FF"/>
<path d="M81.9855 67.4199C81.5483 67.4199 81.1374 67.2494 80.8282 66.9399C80.5191 66.6305 80.3489 66.219 80.3489 65.7813C80.3489 65.3436 80.5191 64.9321 80.8282 64.6227C81.1374 64.3132 81.5483 64.1428 81.9855 64.1428C82.4227 64.1428 82.8337 64.3132 83.1428 64.6227C83.4519 64.9322 83.6221 65.3437 83.6221 65.7813C83.6221 66.219 83.4519 66.6305 83.1428 66.9399C82.8337 67.2494 82.4227 67.4199 81.9855 67.4199Z" fill="white"/>
<path d="M81.9851 66.8061C81.7116 66.8061 81.4546 66.6995 81.2613 66.5059C81.0679 66.3123 80.9614 66.055 80.9614 65.7812C80.9614 65.5074 81.0679 65.2501 81.2613 65.0565C81.4546 64.8629 81.7117 64.7563 81.9851 64.7563C82.2586 64.7563 82.5156 64.8629 82.7089 65.0565C82.9023 65.2501 83.0088 65.5075 83.0088 65.7812C83.0088 66.055 82.9023 66.3123 82.7089 66.5059C82.5156 66.6995 82.2585 66.8061 81.9851 66.8061Z" fill="#BDE7FF"/>
<path d="M81.9854 66.1924C81.8741 66.1924 81.7737 66.1508 81.695 66.072C81.6163 65.9932 81.5747 65.8927 81.5747 65.7812C81.5747 65.6698 81.6163 65.5693 81.695 65.4905C81.7737 65.4117 81.8741 65.3701 81.9854 65.3701C82.0967 65.3701 82.1971 65.4117 82.2758 65.4905C82.3545 65.5693 82.3961 65.6698 82.3961 65.7812C82.3961 65.8927 82.3545 65.9932 82.2758 66.072C82.1971 66.1508 82.0967 66.1924 81.9854 66.1924Z" fill="white"/>
<path d="M82.2581 65.5811L86.0047 63.108" stroke="#7518DC" stroke-width="0.159057" stroke-miterlimit="10"/>
<path d="M82.266 65.5534L82.2607 65.5789L82.286 65.5848C82.4064 65.6129 82.5164 65.7057 82.6051 65.8061C82.4134 65.7517 82.2098 65.717 82.0095 65.7449C82.1136 65.5706 82.1697 65.3725 82.1912 65.1738C82.2126 65.2186 82.2321 65.2684 82.2465 65.3192C82.2702 65.4023 82.2799 65.4855 82.266 65.5534Z" fill="#7518DC" stroke="#7518DC" stroke-width="0.0534"/>
<path d="M87.0869 62.7959L86.4091 63.2433L86.3977 63.2401L86.3978 63.24L86.3957 63.2396L86.0512 63.1704L86.7262 62.7248L87.0869 62.7959Z" fill="#7518DC" stroke="#7518DC" stroke-width="0.0534"/>
<path d="M86.0481 62.6902L86.7222 62.2453L86.6411 62.5953L85.9762 63.0342C86.0105 62.9228 86.0339 62.8074 86.0481 62.6902Z" fill="#7518DC" stroke="#7518DC" stroke-width="0.0534"/>
<path d="M113.86 92.3568L112.53 93.042L111.849 93.3927L111.727 93.4555L111.743 93.1195L111.769 92.6071L111.829 91.3738L112.018 87.5501L112.077 86.3598L113.281 86.0089L113.723 90.848L113.81 91.8081L113.86 92.3568Z" fill="#DB965F"/>
<path opacity="0.15" d="M112.792 94.981C112.623 94.9409 112.459 94.878 112.302 94.7918L111.325 94.2523L111.849 93.3926L111.726 93.4554L111.743 93.1194L111.574 92.683L111.769 92.607L111.829 91.3738L111.696 91.4106H111.696L111.526 91.4281L111.598 89.4356L111.675 87.3016L111.675 87.3002L111.793 86.3878L112.066 88.8455C112.066 88.8455 112.008 89.0186 112.256 91.2549C112.294 91.6005 112.344 91.9682 112.408 92.3567C112.443 92.5784 112.484 92.8068 112.53 93.0418C112.602 93.4176 112.69 94.284 112.792 94.981Z" fill="black"/>
<path opacity="0.15" d="M102.844 92.3083C102.787 93.2503 102.66 94.1802 102.425 95.0143C102.425 95.0147 102.425 95.0152 102.425 95.0156C102.447 94.5686 102.465 94.0882 102.477 93.5796C102.483 93.3253 102.487 93.0638 102.49 92.796C102.491 92.7068 102.492 92.6167 102.492 92.5261C102.492 92.4656 102.492 92.4049 102.493 92.3438H102.492L102.483 91.9993L102.491 91.7435L102.551 90.0372C102.582 89.7496 102.603 89.4668 102.616 89.1887C102.617 89.1603 102.619 89.132 102.62 89.1037C102.621 89.0754 102.622 89.0469 102.623 89.0186C102.625 88.9624 102.626 88.9065 102.628 88.8509C102.635 88.5341 102.632 88.2243 102.619 87.9224C102.618 87.8898 102.617 87.8574 102.615 87.8249C102.611 87.7407 102.607 87.6572 102.601 87.5743C102.6 87.5495 102.598 87.5247 102.596 87.4999C102.574 87.176 102.542 86.8623 102.502 86.56C102.479 86.3868 102.454 86.2173 102.426 86.0517C102.4 85.8939 102.372 85.7398 102.342 85.5893H102.342L102.37 85.5768C102.37 85.5768 102.645 86.9855 102.791 88.8627C102.873 89.919 102.914 91.123 102.844 92.3083Z" fill="black"/>
<path d="M121.266 87.5284H94.6545V104.379H121.266V87.5284Z" fill="#E3E9F7"/>
<path d="M119.811 89.037H96.1089V102.871H119.811V89.037Z" fill="white"/>
<path d="M121.265 84.4953H94.6646V87.5351H121.265V84.4953Z" fill="#C8B0FF"/>
<path d="M96.204 86.3599C96.4862 86.3599 96.715 86.1421 96.715 85.8735C96.715 85.6049 96.4862 85.3871 96.204 85.3871C95.9219 85.3871 95.6931 85.6049 95.6931 85.8735C95.6931 86.1421 95.9219 86.3599 96.204 86.3599Z" fill="#E3E9F7"/>
<path d="M97.6948 86.3598C97.9769 86.3598 98.2057 86.1421 98.2057 85.8734C98.2057 85.6048 97.9769 85.3871 97.6948 85.3871C97.4126 85.3871 97.1838 85.6048 97.1838 85.8734C97.1838 86.1421 97.4126 86.3598 97.6948 86.3598Z" fill="#E3E9F7"/>
<path d="M99.1847 86.3598C99.4669 86.3598 99.6957 86.1421 99.6957 85.8734C99.6957 85.6048 99.4669 85.3871 99.1847 85.3871C98.9026 85.3871 98.6738 85.6048 98.6738 85.8734C98.6738 86.1421 98.9026 86.3598 99.1847 86.3598Z" fill="#E3E9F7"/>
<path d="M115.677 99.6925H107.96V98.8117C107.96 96.8159 109.577 95.1979 111.57 95.1979H112.067C114.061 95.1979 115.677 96.8159 115.677 98.8117L115.677 99.6925Z" fill="#8FD9FF" stroke="white" stroke-width="0.407058" stroke-miterlimit="10"/>
<path d="M113.81 95.0099C114.91 93.9084 114.91 92.1226 113.81 91.0211C112.709 89.9196 110.926 89.9196 109.825 91.0211C108.725 92.1226 108.725 93.9084 109.825 95.0099C110.926 96.1114 112.709 96.1114 113.81 95.0099Z" fill="#8FD9FF" stroke="white" stroke-width="0.407058" stroke-miterlimit="10"/>
<path d="M107.96 99.6927H100.244V98.8119C100.244 96.8161 101.86 95.1981 103.853 95.1981H104.351C106.344 95.1981 107.96 96.8161 107.96 98.8119L107.96 99.6927Z" fill="#8FD9FF" stroke="white" stroke-width="0.407058" stroke-miterlimit="10"/>
<path d="M106.093 95.0101C107.193 93.9086 107.193 92.1228 106.093 91.0213C104.993 89.9198 103.209 89.9198 102.109 91.0213C101.009 92.1228 101.009 93.9086 102.109 95.0101C103.209 96.1116 104.993 96.1116 106.093 95.0101Z" fill="#8FD9FF" stroke="white" stroke-width="0.407058" stroke-miterlimit="10"/>
<path d="M111.818 101.712H104.102V100.831C104.102 98.8352 105.718 97.2172 107.711 97.2172H108.209C110.202 97.2172 111.818 98.8352 111.818 100.831L111.818 101.712Z" fill="#C8B0FF" stroke="white" stroke-width="0.407058" stroke-miterlimit="10"/>
<path d="M107.96 97.8555C109.516 97.8555 110.778 96.5927 110.778 95.035C110.778 93.4773 109.516 92.2145 107.96 92.2145C106.404 92.2145 105.143 93.4773 105.143 95.035C105.143 96.5927 106.404 97.8555 107.96 97.8555Z" fill="#C8B0FF" stroke="white" stroke-width="0.407058" stroke-miterlimit="10"/>
<defs>
<linearGradient id="paint0_linear_12189_610" x1="42.8926" y1="70.0405" x2="175.24" y2="70.0405" gradientUnits="userSpaceOnUse">
<stop stop-color="#1E87F2"/>
<stop offset="1" stop-color="#9651FF"/>
</linearGradient>
</defs>
</svg>
