<svg width="216" height="142" viewBox="0 0 216 142" fill="none" xmlns="http://www.w3.org/2000/svg">
<path d="M0.5 8C0.5 3.85786 3.85786 0.5 8 0.5H208C212.142 0.5 215.5 3.85786 215.5 8V134C215.5 138.142 212.142 141.5 208 141.5H8C3.85786 141.5 0.5 138.142 0.5 134V8Z" stroke="#EEF0F1"/>
<g opacity="0.1">
<path d="M66.3907 42.0189C64.498 41.1278 61.3679 42.5766 60.3699 44.6967C58.4647 48.744 64.6265 54.6054 66.8674 53.9763C69.3714 53.2733 69.8657 43.6549 66.3907 42.0189Z" stroke="#1E87F2" stroke-width="1.068" stroke-miterlimit="10" stroke-linecap="round" stroke-dasharray="2.67 2.67 2.67 2.67 2.67 2.67"/>
<path d="M56.9236 51.1857C56.2481 50.7945 49.093 46.6508 45.0438 49.9302C42.2007 52.2329 42.1735 57.1548 44.31 59.921C48.5417 65.3998 61.6637 62.9435 63.0252 59.0232C63.9421 56.3831 59.6375 52.7574 56.9236 51.1857Z" stroke="#1E87F2" stroke-width="1.068" stroke-miterlimit="10" stroke-linecap="round" stroke-dasharray="2.67 2.67 2.67 2.67 2.67 2.67"/>
<path d="M66.1301 118.839C83.5461 114.511 103.335 110.105 134.064 110.856C151.249 111.275 155.143 105.936 168.168 99.2975C179.777 93.381 185.479 81.6157 181.977 74.9477C178.441 68.2161 167.673 70.8961 158.855 60.8755C154.839 56.3117 155.545 53.1129 153.227 48.0519C145.884 32.0266 118.364 19.5011 104.793 26.13C86.8645 34.8873 102.192 72.7265 82.1508 83.063C69.4741 89.6018 59.8925 77.0494 47.3756 86.6315C41.1736 91.3793 33.5884 98.0393 33.0017 105.271C33.0017 105.271 32.1804 122.95 66.1301 118.839Z" stroke="#1E87F2" stroke-width="1.068" stroke-miterlimit="10" stroke-linecap="round" stroke-dasharray="2.67 2.67 2.67 2.67 2.67 2.67"/>
<path d="M162.352 99.1479C162.352 99.1479 159.197 103.336 156.042 109.081C153.197 114.262 151.034 121.244 150.556 127.073C149.216 127.009 147.745 126.95 146.154 126.893C136.731 126.558 123.127 126.349 108 126.349C90.8036 126.349 75.5752 126.62 66.2202 127.037C65.8981 127.052 65.5829 127.066 65.2749 127.081C53.5954 112.588 30.0767 87.3384 51.7203 76.9512C51.7203 76.9512 53.3059 76.4678 55.6831 75.4292C63.2068 72.1417 78.6676 63.2953 76.9479 46.6156C76.9479 46.6156 76.362 43.5032 76.362 39.1723C76.362 29.0455 79.5643 12.2593 100.943 13.0254C113.889 13.49 125.813 20.0857 133.021 30.6429C140.092 40.9975 151.397 53.7376 160.604 46.4642C162.729 44.7846 165.539 44.1624 168.163 44.9008C174.79 46.7643 182.318 56.4118 162.352 99.1479Z" fill="url(#paint0_linear_12189_817)"/>
</g>
<path d="M179.543 127.637C179.543 128.322 147.512 128.878 108 128.878C85.7056 128.878 65.7932 128.701 52.6722 128.423C49.65 128.359 46.9886 128.29 44.7413 128.217C43.261 128.168 41.9604 128.118 40.8548 128.066C38.0102 127.932 36.4565 127.788 36.4565 127.637C36.4565 127.444 38.9782 127.262 43.4789 127.1C45.3221 127.033 47.4969 126.97 49.9665 126.911C62.9608 126.599 84.1134 126.396 108 126.396C129.011 126.396 147.907 126.553 160.996 126.803C172.521 127.023 179.543 127.316 179.543 127.637Z" fill="#EEE7FF"/>
<path d="M117.538 38.6914H92.6421V54.4561H117.538V38.6914Z" fill="#E3E9F7"/>
<path d="M116.177 40.1021H94.0024V53.0443H116.177V40.1021Z" fill="#F4F6FC"/>
<path d="M117.538 35.8537H92.6514V38.6975H117.538V35.8537Z" fill="#C8B0FF"/>
<path d="M94.092 37.5987C94.356 37.5987 94.5699 37.3949 94.5699 37.1436C94.5699 36.8923 94.356 36.6886 94.092 36.6886C93.828 36.6886 93.614 36.8923 93.614 37.1436C93.614 37.3949 93.828 37.5987 94.092 37.5987Z" fill="#E3E9F7"/>
<path d="M95.4863 37.5986C95.7502 37.5986 95.9642 37.3949 95.9642 37.1436C95.9642 36.8923 95.7502 36.6886 95.4863 36.6886C95.2223 36.6886 95.0083 36.8923 95.0083 37.1436C95.0083 37.3949 95.2223 37.5986 95.4863 37.5986Z" fill="#E3E9F7"/>
<path d="M96.8806 37.5986C97.1445 37.5986 97.3585 37.3949 97.3585 37.1436C97.3585 36.8923 97.1445 36.6886 96.8806 36.6886C96.6166 36.6886 96.4026 36.8923 96.4026 37.1436C96.4026 37.3949 96.6166 37.5986 96.8806 37.5986Z" fill="#E3E9F7"/>
<path d="M111.651 42.7726H109.618V51.2869H111.651V42.7726Z" fill="#8FD9FF"/>
<path d="M108.882 44.4747H106.849V51.2868H108.882V44.4747Z" fill="#8FD9FF"/>
<path d="M106.112 46.1594H104.079V51.2867H106.112V46.1594Z" fill="#8FD9FF"/>
<path d="M103.343 47.8969H101.31V51.287H103.343V47.8969Z" fill="#8FD9FF"/>
<path d="M100.574 49.5464H98.5405V51.2869H100.574V49.5464Z" fill="#8FD9FF"/>
<path d="M97.623 41.8601V51.2836H112.557" stroke="#040C2B" stroke-width="0.0273515" stroke-miterlimit="10"/>
<path d="M98.5347 47.458C98.5347 47.458 103.259 47.2039 107.437 42.9241" stroke="#040C2B" stroke-width="0.136747" stroke-miterlimit="10"/>
<path d="M107.663 43.3161L107.868 42.4656L107.03 42.7129L107.663 43.3161Z" fill="#040C2B"/>
<path d="M164.983 75.7516H140.087V91.5163H164.983V75.7516Z" fill="#E3E9F7"/>
<path d="M163.622 77.1631H141.448V90.1052H163.622V77.1631Z" fill="#F4F6FC"/>
<path d="M164.982 72.9141H140.096V75.758H164.982V72.9141Z" fill="#C8B0FF"/>
<path d="M141.537 74.6589C141.801 74.6589 142.015 74.4552 142.015 74.2039C142.015 73.9526 141.801 73.7489 141.537 73.7489C141.273 73.7489 141.059 73.9526 141.059 74.2039C141.059 74.4552 141.273 74.6589 141.537 74.6589Z" fill="#E3E9F7"/>
<path d="M142.931 74.659C143.195 74.659 143.409 74.4552 143.409 74.2039C143.409 73.9526 143.195 73.7489 142.931 73.7489C142.667 73.7489 142.453 73.9526 142.453 74.2039C142.453 74.4552 142.667 74.659 142.931 74.659Z" fill="#E3E9F7"/>
<path d="M144.325 74.659C144.589 74.659 144.803 74.4552 144.803 74.2039C144.803 73.9526 144.589 73.7489 144.325 73.7489C144.061 73.7489 143.847 73.9526 143.847 74.2039C143.847 74.4552 144.061 74.659 144.325 74.659Z" fill="#E3E9F7"/>
<path d="M151.917 83.9642L156.283 79.5936C156.839 80.1646 157.278 80.8257 157.588 81.5595C157.911 82.3227 158.079 83.1313 158.089 83.9642H151.917Z" fill="#8FD9FF"/>
<path d="M151.802 78.4819C152.523 78.4922 153.222 78.639 153.883 78.9186C154.52 79.1885 155.095 79.5705 155.592 80.0547L151.802 83.8489L151.802 78.4819Z" fill="#8FD9FF"/>
<path d="M151.721 88.7867C150.455 88.7867 149.265 88.2931 148.369 87.3969C147.474 86.5007 146.981 85.3091 146.981 84.0416C146.981 82.7741 147.474 81.5825 148.369 80.6863C149.245 79.8094 150.404 79.318 151.639 79.2972V84.1272H156.46C156.438 85.3634 155.947 86.5222 155.071 87.3982C154.176 88.2936 152.986 88.7867 151.721 88.7867Z" fill="#8FD9FF"/>
<path d="M146.976 52.7141H122.081V68.4788H146.976V52.7141Z" fill="#E3E9F7"/>
<path d="M145.616 54.1253H123.441V67.0675H145.616V54.1253Z" fill="#F4F6FC"/>
<path d="M146.976 49.8764H122.09V52.7202H146.976V49.8764Z" fill="#C8B0FF"/>
<path d="M123.531 51.6209C123.795 51.6209 124.009 51.4171 124.009 51.1658C124.009 50.9145 123.795 50.7108 123.531 50.7108C123.267 50.7108 123.053 50.9145 123.053 51.1658C123.053 51.4171 123.267 51.6209 123.531 51.6209Z" fill="#E3E9F7"/>
<path d="M124.925 51.6207C125.188 51.6207 125.402 51.417 125.402 51.1657C125.402 50.9144 125.188 50.7107 124.925 50.7107C124.661 50.7107 124.447 50.9144 124.447 51.1657C124.447 51.417 124.661 51.6207 124.925 51.6207Z" fill="#E3E9F7"/>
<path d="M126.319 51.6207C126.583 51.6207 126.797 51.417 126.797 51.1657C126.797 50.9144 126.583 50.7107 126.319 50.7107C126.055 50.7107 125.841 50.9144 125.841 51.1657C125.841 51.417 126.055 51.6207 126.319 51.6207Z" fill="#E3E9F7"/>
<path d="M139.378 60.5971C139.378 63.2784 137.207 65.4521 134.528 65.4521C133.432 65.4521 132.421 65.088 131.609 64.4737C130.436 63.5876 129.679 62.1809 129.679 60.5971C129.679 59.8437 129.85 59.1305 130.156 58.4942C130.157 58.4934 130.157 58.4925 130.158 58.4917C130.17 58.4666 130.182 58.4416 130.195 58.4168C130.197 58.4116 130.2 58.4064 130.202 58.4012C130.213 58.3804 130.224 58.3598 130.234 58.3393C130.238 58.3327 130.241 58.3262 130.245 58.3197C130.255 58.2997 130.266 58.2798 130.277 58.26C130.28 58.2539 130.284 58.2478 130.287 58.2417C130.301 58.2163 130.316 58.191 130.33 58.1658C130.345 58.1399 130.36 58.1142 130.376 58.0887C130.391 58.0631 130.407 58.0377 130.423 58.0123C130.446 57.9745 130.471 57.9369 130.496 57.8997C130.504 57.8877 130.512 57.8757 130.52 57.8636C130.521 57.8623 130.522 57.861 130.523 57.8598C130.53 57.8485 130.538 57.8371 130.546 57.8259C130.555 57.8137 130.563 57.8015 130.572 57.7893C130.58 57.7771 130.589 57.7651 130.598 57.753C130.606 57.741 130.615 57.7289 130.624 57.7169C130.651 57.6809 130.678 57.6454 130.705 57.6103C130.713 57.5999 130.721 57.5895 130.729 57.5792C130.732 57.5761 130.734 57.5731 130.737 57.5701C130.744 57.5605 130.752 57.5508 130.76 57.5412C130.761 57.5403 130.761 57.5395 130.762 57.5387C130.78 57.5162 130.799 57.4938 130.817 57.4716C130.824 57.4638 130.83 57.4561 130.837 57.4484C130.845 57.4388 130.853 57.4292 130.862 57.4198C130.872 57.4073 130.883 57.3949 130.894 57.3826C130.917 57.3562 130.941 57.3302 130.965 57.3044C130.973 57.2951 130.982 57.2859 130.99 57.2767C131.023 57.242 131.056 57.2079 131.089 57.1743C131.096 57.1674 131.103 57.1605 131.11 57.1537C131.116 57.1471 131.123 57.1407 131.129 57.1342C131.136 57.1276 131.143 57.1212 131.149 57.1148C131.161 57.1038 131.172 57.0929 131.183 57.082C132.053 56.2517 133.231 55.7419 134.528 55.7419C136.183 55.7419 137.644 56.5713 138.519 57.8373C138.632 58.0013 138.736 58.1726 138.828 58.3504C138.85 58.3917 138.871 58.4334 138.891 58.4755C138.898 58.4895 138.905 58.5035 138.912 58.5177C138.918 58.5317 138.925 58.5459 138.932 58.5599C138.958 58.6165 138.983 58.6738 139.007 58.7316C139.031 58.7894 139.054 58.8478 139.076 58.9067C139.103 58.9802 139.129 59.0548 139.152 59.13C139.157 59.1451 139.162 59.1601 139.167 59.1753C139.19 59.2508 139.211 59.3272 139.23 59.4042C139.242 59.4504 139.253 59.497 139.263 59.5438C139.27 59.573 139.276 59.6024 139.282 59.6318C139.283 59.6357 139.283 59.6397 139.284 59.6436C139.346 59.9519 139.378 60.2707 139.378 60.5971Z" fill="#8FD9FF"/>
<path d="M137.811 57.1126C137.78 57.0877 137.744 57.0912 137.712 57.117C137.701 57.126 137.69 57.1352 137.678 57.1441C137.671 57.1495 137.663 57.1558 137.654 57.152C137.617 57.1348 137.574 57.139 137.538 57.1215C137.469 57.0884 137.394 57.0773 137.321 57.0596C137.287 57.0512 137.253 57.0394 137.219 57.0253C137.184 57.0104 137.151 56.9875 137.112 56.9828C137.056 56.9762 137 56.9698 136.958 56.9721C136.911 56.9721 136.879 56.972 136.847 56.9723C136.834 56.9724 136.819 56.9702 136.81 56.9799C136.777 57.0144 136.733 57.008 136.693 57.0158C136.681 57.0179 136.67 57.0155 136.66 57.0234C136.601 57.0699 136.539 57.1129 136.492 57.1715C136.486 57.1781 136.479 57.1837 136.473 57.1893C136.436 57.2203 136.4 57.2512 136.372 57.291C136.362 57.3066 136.348 57.3192 136.332 57.3301C136.3 57.3524 136.267 57.3743 136.23 57.3866C136.197 57.3971 136.176 57.4253 136.144 57.437C136.074 57.4631 136.076 57.461 136.081 57.5473C136.082 57.5671 136.09 57.5865 136.096 57.606C136.099 57.6186 136.103 57.631 136.106 57.6437C136.113 57.6806 136.136 57.7027 136.172 57.705C136.202 57.707 136.23 57.7 136.254 57.6814C136.264 57.6734 136.274 57.6646 136.284 57.657C136.299 57.6466 136.311 57.6456 136.327 57.6575C136.367 57.6865 136.391 57.7276 136.421 57.7645C136.434 57.7809 136.429 57.797 136.411 57.8084C136.399 57.8161 136.386 57.8238 136.375 57.8327C136.366 57.8398 136.366 57.8504 136.369 57.8608C136.372 57.8721 136.381 57.8788 136.392 57.8767C136.431 57.8689 136.473 57.8695 136.508 57.8462C136.526 57.8345 136.542 57.8245 136.564 57.8256C136.586 57.8267 136.595 57.8131 136.6 57.7951C136.608 57.7674 136.618 57.7397 136.617 57.7103C136.617 57.689 136.624 57.6742 136.646 57.668C136.656 57.6653 136.665 57.6597 136.673 57.6539C136.718 57.622 136.72 57.5908 136.681 57.5539C136.675 57.5489 136.67 57.5443 136.664 57.5396C136.62 57.5027 136.625 57.4522 136.676 57.425C136.688 57.4181 136.701 57.4112 136.714 57.404C136.749 57.3838 136.781 57.3611 136.798 57.3203C136.808 57.2951 136.831 57.2793 136.859 57.2778C136.878 57.2769 136.897 57.2786 136.916 57.2791C136.923 57.2794 136.931 57.2813 136.934 57.2883C136.939 57.2991 136.93 57.3038 136.924 57.309C136.895 57.3332 136.87 57.361 136.835 57.3786C136.802 57.3957 136.778 57.421 136.784 57.4652C136.794 57.5279 136.817 57.5787 136.884 57.5966C136.887 57.5973 136.89 57.5979 136.892 57.5991C136.918 57.6105 136.933 57.6322 136.931 57.6561C136.928 57.6877 136.916 57.7061 136.884 57.7101C136.843 57.7155 136.824 57.7392 136.817 57.7773C136.815 57.7872 136.813 57.7972 136.811 57.807C136.798 57.8635 136.765 57.8927 136.715 57.8869C136.7 57.8852 136.686 57.8896 136.672 57.8907C136.622 57.8946 136.578 57.9194 136.531 57.9323C136.518 57.9358 136.507 57.9415 136.496 57.9273C136.469 57.8895 136.435 57.8897 136.397 57.9114C136.383 57.9193 136.369 57.9228 136.352 57.9142C136.314 57.895 136.303 57.8795 136.317 57.8385C136.326 57.8108 136.325 57.7842 136.322 57.757C136.32 57.7416 136.311 57.73 136.293 57.731C136.265 57.7325 136.229 57.764 136.22 57.7915C136.208 57.825 136.207 57.8589 136.211 57.8933C136.214 57.917 136.205 57.932 136.183 57.9412C136.162 57.9502 136.142 57.962 136.12 57.9698C136.086 57.9819 136.056 58.0022 136.038 58.0312C136.013 58.0704 135.973 58.0876 135.937 58.1101C135.919 58.1211 135.902 58.1297 135.895 58.1507C135.882 58.1841 135.845 58.1823 135.821 58.2002C135.808 58.2102 135.794 58.2004 135.78 58.1959C135.76 58.1894 135.737 58.1865 135.726 58.2075C135.708 58.2399 135.68 58.245 135.649 58.2448C135.628 58.2446 135.608 58.2471 135.589 58.2541C135.58 58.2572 135.573 58.2612 135.572 58.2715C135.571 58.2871 135.596 58.3204 135.613 58.3215C135.672 58.325 135.701 58.3671 135.73 58.4082C135.749 58.4341 135.755 58.4632 135.742 58.4946C135.736 58.5093 135.734 58.5249 135.731 58.5409C135.726 58.5792 135.719 58.5846 135.681 58.5842C135.671 58.584 135.661 58.5843 135.651 58.5828C135.574 58.5706 135.496 58.5725 135.418 58.5664C135.41 58.5657 135.401 58.5663 135.394 58.5717C135.365 58.5921 135.324 58.6028 135.342 58.6548C135.349 58.6741 135.332 58.6974 135.338 58.7189C135.346 58.7445 135.338 58.7672 135.331 58.7909C135.324 58.8119 135.311 58.8295 135.302 58.8492C135.297 58.8595 135.288 58.8724 135.297 58.8815C135.321 58.9052 135.316 58.9346 135.317 58.963C135.317 58.9852 135.328 58.9944 135.349 58.9944C135.356 58.9944 135.364 58.9954 135.371 58.9943C135.408 58.9882 135.438 58.999 135.467 59.0237C135.489 59.043 135.52 59.0528 135.547 59.0399C135.57 59.0293 135.592 59.0251 135.614 59.0279C135.674 59.0353 135.713 58.9966 135.749 58.9621C135.767 58.9455 135.775 58.9153 135.793 58.8942C135.796 58.89 135.796 58.879 135.793 58.8735C135.782 58.8539 135.793 58.8406 135.804 58.8265C135.815 58.8115 135.827 58.7969 135.837 58.7809C135.848 58.7623 135.861 58.7517 135.884 58.7483C135.915 58.7437 135.937 58.719 135.959 58.699C135.975 58.6849 135.968 58.6637 135.97 58.6452C135.972 58.6115 135.994 58.5915 136.031 58.5943C136.052 58.5959 136.073 58.6033 136.095 58.6074C136.109 58.6102 136.124 58.6199 136.137 58.6116C136.165 58.5923 136.198 58.5806 136.226 58.5622C136.261 58.5394 136.265 58.5371 136.296 58.5628C136.308 58.5723 136.317 58.5836 136.322 58.5971C136.333 58.622 136.351 58.6405 136.37 58.6581C136.412 58.6961 136.457 58.7295 136.51 58.7515C136.549 58.7677 136.575 58.7999 136.601 58.8303C136.624 58.8576 136.606 58.896 136.571 58.9064C136.535 58.9169 136.499 58.9139 136.463 58.9137C136.451 58.9136 136.439 58.9157 136.435 58.9284C136.43 58.9421 136.441 58.9497 136.451 58.9556C136.482 58.9737 136.516 58.9868 136.547 59.0057C136.567 59.0178 136.586 59.007 136.586 58.9828C136.586 58.9539 136.599 58.9407 136.624 58.9334C136.655 58.9244 136.661 58.8956 136.673 58.8716C136.683 58.8533 136.677 58.8396 136.669 58.823C136.659 58.8045 136.67 58.793 136.691 58.7938C136.705 58.7945 136.714 58.8056 136.726 58.8106C136.741 58.8171 136.751 58.8101 136.751 58.7934C136.752 58.7746 136.739 58.7639 136.727 58.755C136.696 58.7334 136.663 58.7142 136.633 58.6924C136.619 58.6823 136.605 58.6746 136.588 58.6695C136.557 58.6605 136.527 58.6448 136.514 58.614C136.504 58.59 136.49 58.5721 136.47 58.557C136.463 58.5518 136.457 58.5451 136.452 58.5378C136.442 58.521 136.444 58.4922 136.457 58.4812C136.471 58.4685 136.489 58.4625 136.504 58.4751C136.532 58.4982 136.566 58.5137 136.585 58.5468C136.598 58.57 136.622 58.5841 136.648 58.5899C136.666 58.5941 136.68 58.6022 136.692 58.6154C136.7 58.6253 136.711 58.6329 136.722 58.639C136.771 58.6645 136.792 58.7064 136.793 58.7597C136.793 58.7726 136.79 58.7866 136.799 58.7974C136.832 58.8361 136.846 58.8876 136.885 58.9224C136.897 58.9338 136.904 58.9501 136.904 58.965C136.904 59.0082 136.934 59.0166 136.966 59.024C136.992 59.0299 136.999 59.0254 137.008 59.0007C137.028 58.9468 137.05 58.8929 137.022 58.8349C137.021 58.8324 137.021 58.8293 137.02 58.8264C137.018 58.8008 137.042 58.7607 137.063 58.7579C137.1 58.7527 137.138 58.7797 137.141 58.8144C137.142 58.8317 137.143 58.8493 137.142 58.8666C137.141 58.903 137.152 58.936 137.172 58.9649C137.189 58.9899 137.21 59.0115 137.246 59.0101C137.274 59.0091 137.3 59.0213 137.324 59.0328C137.345 59.0426 137.362 59.0466 137.38 59.0302C137.392 59.0185 137.404 59.0197 137.419 59.024C137.44 59.0299 137.461 59.0355 137.48 59.0454C137.509 59.0598 137.538 59.0612 137.566 59.0417C137.576 59.0352 137.587 59.0297 137.598 59.0272C137.627 59.0204 137.659 59.0373 137.662 59.0643C137.665 59.0971 137.671 59.1323 137.659 59.1634C137.647 59.1931 137.637 59.2226 137.631 59.2539C137.625 59.2792 137.619 59.3051 137.608 59.3281C137.593 59.3577 137.593 59.3856 137.601 59.4163C137.612 59.4541 137.63 59.4885 137.645 59.5244C137.67 59.5854 137.702 59.641 137.742 59.6924C137.76 59.7154 137.776 59.74 137.785 59.7678C137.79 59.7838 137.799 59.7959 137.813 59.8053C137.84 59.8238 137.856 59.8511 137.872 59.879C137.888 59.9076 137.891 59.9397 137.897 59.9706C137.906 60.0121 137.922 60.0474 137.962 60.068C137.973 60.0738 137.984 60.0834 137.991 60.0938C138.03 60.1492 138.065 60.2083 138.087 60.271C138.111 60.3395 138.148 60.4015 138.173 60.4693C138.181 60.4937 138.202 60.5119 138.227 60.5233C138.25 60.5338 138.265 60.5181 138.282 60.5079C138.286 60.5058 138.29 60.5055 138.294 60.504C138.372 60.4747 138.451 60.447 138.524 60.4051C138.538 60.397 138.554 60.3955 138.57 60.392C138.602 60.3848 138.63 60.3712 138.646 60.3401C138.656 60.3214 138.672 60.3073 138.689 60.2984C138.738 60.2737 138.787 60.2511 138.832 60.2197C138.883 60.1841 138.937 60.1537 138.951 60.0852C138.953 60.0711 138.962 60.0592 138.97 60.0469C138.992 60.0143 139.014 59.9818 139.024 59.9433C139.028 59.9285 139.031 59.9155 139.02 59.9024C139.004 59.8822 138.988 59.8613 138.972 59.8413C138.959 59.8265 138.944 59.8145 138.923 59.8177C138.897 59.8216 138.883 59.8081 138.87 59.7883C138.864 59.7784 138.856 59.7698 138.85 59.7602C138.814 59.7068 138.775 59.7043 138.738 59.7543C138.726 59.77 138.713 59.7833 138.694 59.788C138.66 59.7966 138.625 59.7938 138.59 59.7896C138.578 59.7881 138.569 59.7804 138.573 59.7653C138.59 59.6953 138.551 59.6571 138.496 59.6279C138.438 59.5978 138.398 59.5523 138.376 59.4918C138.363 59.4568 138.392 59.4256 138.429 59.4306C138.48 59.4377 138.5 59.4761 138.515 59.5178C138.521 59.5372 138.525 59.5604 138.544 59.5686C138.596 59.5907 138.636 59.6321 138.693 59.6468C138.723 59.6543 138.748 59.661 138.776 59.6489C138.787 59.6443 138.798 59.6412 138.808 59.6356C138.83 59.6237 138.837 59.6267 138.848 59.6491C138.852 59.6554 138.855 59.6622 138.857 59.6692C138.864 59.6957 138.882 59.7094 138.909 59.7138C138.946 59.7198 138.983 59.7295 139.02 59.7362C139.097 59.7502 139.174 59.7573 139.252 59.7394C139.268 59.7357 139.285 59.7335 139.301 59.7321C139.12 58.7201 138.625 57.8173 137.921 57.1274C137.915 57.1287 137.909 57.1301 137.904 57.1314C137.869 57.1398 137.84 57.1358 137.811 57.1126Z" fill="#8FD9FF"/>
<path d="M138.566 60.5618C138.531 60.5834 138.491 60.5816 138.454 60.5913C138.392 60.6072 138.334 60.6323 138.271 60.6427C138.225 60.6505 138.172 60.6222 138.171 60.5778C138.17 60.5419 138.151 60.5189 138.13 60.4953C138.108 60.4717 138.085 60.4494 138.067 60.4238C138.052 60.4029 138.037 60.3886 138.011 60.3802C137.959 60.3631 137.928 60.327 137.925 60.2684C137.923 60.2335 137.908 60.2013 137.884 60.1747C137.843 60.1302 137.815 60.0812 137.81 60.0178C137.806 59.9756 137.79 59.933 137.76 59.8994C137.725 59.8604 137.695 59.8185 137.678 59.7683C137.672 59.7491 137.66 59.7316 137.654 59.7129C137.636 59.6614 137.589 59.6229 137.596 59.5588C137.6 59.5224 137.578 59.4838 137.571 59.4455C137.56 59.3868 137.516 59.3591 137.47 59.3335C137.434 59.3127 137.397 59.3244 137.365 59.3485C137.344 59.3644 137.325 59.367 137.301 59.3544C137.285 59.3456 137.266 59.3432 137.247 59.339C137.191 59.3261 137.133 59.3194 137.08 59.2939C137.056 59.2823 137.03 59.2774 137.008 59.259C136.985 59.2406 136.954 59.2392 136.924 59.2456C136.913 59.2481 136.903 59.2534 136.891 59.254C136.862 59.2557 136.85 59.2789 136.834 59.2972C136.82 59.3131 136.828 59.3289 136.834 59.3459C136.843 59.3732 136.829 59.3906 136.8 59.3928C136.783 59.3941 136.769 59.3868 136.757 59.3761C136.729 59.3525 136.697 59.34 136.661 59.3394C136.634 59.3389 136.614 59.3284 136.606 59.3003C136.595 59.2616 136.565 59.2504 136.53 59.2455C136.515 59.2432 136.498 59.2432 136.483 59.2452C136.444 59.25 136.412 59.2337 136.381 59.2149C136.348 59.1948 136.34 59.1617 136.359 59.1269C136.366 59.1138 136.37 59.1005 136.369 59.0854C136.368 59.0623 136.367 59.0395 136.371 59.0162C136.376 58.9922 136.361 58.9709 136.339 58.9674C136.316 58.9639 136.291 58.9598 136.27 58.9704C136.252 58.9797 136.235 58.9777 136.216 58.9782C136.175 58.9792 136.132 58.9668 136.094 58.9938C136.084 59.0004 136.074 58.9976 136.065 58.9931C136.04 58.9813 136.015 58.9849 135.988 58.9896C135.94 58.9982 135.893 59.0136 135.843 59.0107C135.818 59.0092 135.796 59.0227 135.779 59.0425C135.771 59.0516 135.763 59.0577 135.752 59.0625C135.7 59.084 135.646 59.0901 135.592 59.0962C135.565 59.0992 135.539 59.0993 135.514 59.0786C135.494 59.0617 135.466 59.0725 135.452 59.0957C135.443 59.1105 135.431 59.1244 135.425 59.1404C135.415 59.1688 135.395 59.1834 135.37 59.1975C135.309 59.2315 135.263 59.2808 135.244 59.3489C135.233 59.3908 135.214 59.4278 135.188 59.4601C135.158 59.4962 135.132 59.538 135.081 59.5509C135.064 59.5552 135.053 59.5676 135.045 59.5854C135.036 59.6063 135.026 59.6334 135.008 59.6424C134.972 59.6611 134.961 59.6909 134.953 59.7251C134.95 59.7362 134.945 59.7468 134.939 59.7568C134.911 59.8056 134.877 59.8498 134.853 59.9012C134.828 59.9542 134.818 60.0016 134.84 60.0578C134.861 60.1137 134.88 60.1719 134.858 60.2336C134.855 60.2429 134.854 60.2534 134.853 60.2634C134.849 60.2857 134.839 60.3036 134.823 60.3194C134.798 60.3434 134.786 60.3733 134.786 60.4089C134.787 60.4757 134.814 60.5318 134.85 60.5853C134.861 60.6018 134.881 60.6062 134.895 60.6186C134.921 60.6408 134.936 60.6711 134.961 60.6934C134.977 60.7083 134.99 60.7254 134.996 60.747C135.02 60.8298 135.071 60.8932 135.143 60.9378C135.185 60.9639 135.225 60.9926 135.262 61.0248C135.299 61.0577 135.339 61.067 135.385 61.0409C135.396 61.0345 135.409 61.0306 135.421 61.0267C135.468 61.0125 135.513 60.9988 135.564 61.0151C135.596 61.0252 135.632 61.0394 135.669 61.0225C135.716 61.002 135.764 60.9846 135.809 60.9632C135.854 60.9416 135.898 60.9337 135.946 60.9337C136.003 60.9338 136.035 60.9572 136.054 61.0102C136.071 61.0601 136.083 61.0675 136.137 61.0589C136.177 61.0526 136.214 61.0557 136.25 61.0759C136.295 61.1014 136.303 61.1177 136.294 61.1708C136.289 61.198 136.274 61.2229 136.276 61.2509C136.278 61.288 136.27 61.3227 136.256 61.3567C136.25 61.3701 136.245 61.3841 136.252 61.3986C136.262 61.4208 136.268 61.4448 136.284 61.4645C136.315 61.5012 136.343 61.5399 136.374 61.5764C136.399 61.607 136.419 61.6392 136.423 61.68C136.426 61.7057 136.437 61.7297 136.451 61.7521C136.467 61.7769 136.477 61.8043 136.475 61.8343C136.472 61.8863 136.486 61.9345 136.506 61.9817C136.53 62.0374 136.526 62.089 136.479 62.1329C136.46 62.1514 136.45 62.174 136.446 62.2013C136.439 62.2441 136.422 62.2847 136.412 62.3265C136.401 62.3665 136.402 62.4093 136.399 62.451C136.398 62.4655 136.406 62.479 136.415 62.4908C136.434 62.5182 136.446 62.5493 136.459 62.5799C136.477 62.6209 136.489 62.6654 136.521 62.6986C136.55 62.7283 136.556 62.7633 136.553 62.8024C136.551 62.8298 136.548 62.8581 136.557 62.8845C136.566 62.9124 136.57 62.9408 136.571 62.9698C136.574 63.0156 136.582 63.0648 136.614 63.095C136.669 63.1476 136.697 63.2101 136.711 63.2818C136.711 63.2832 136.712 63.2847 136.712 63.2859C136.727 63.3122 136.731 63.3404 136.728 63.38C136.717 63.4096 136.743 63.4428 136.748 63.4796C136.749 63.4849 136.752 63.492 136.757 63.4941C136.786 63.5086 136.813 63.5309 136.849 63.5255C136.904 63.517 136.961 63.5185 137.014 63.4964C137.021 63.4937 137.029 63.4927 137.036 63.4929C137.091 63.4948 137.143 63.4798 137.196 63.4627C137.249 63.4453 137.291 63.4158 137.326 63.3739C137.338 63.3583 137.351 63.3419 137.367 63.3296C137.394 63.3085 137.412 63.2814 137.427 63.2514C137.443 63.2213 137.461 63.1924 137.487 63.1719C137.517 63.1477 137.532 63.1168 137.544 63.0822C137.549 63.0671 137.555 63.0521 137.557 63.0365C137.565 62.9795 137.597 62.9425 137.647 62.9172C137.666 62.9074 137.684 62.8925 137.692 62.8716C137.712 62.814 137.728 62.7555 137.705 62.6943C137.701 62.6835 137.698 62.6721 137.696 62.6607C137.687 62.6088 137.703 62.5658 137.746 62.5353C137.764 62.5222 137.778 62.5063 137.791 62.4889C137.804 62.4707 137.82 62.4581 137.841 62.4495C137.891 62.4287 137.935 62.3989 137.97 62.3566C138.003 62.3162 138.023 62.2722 138.016 62.2173C138.011 62.1774 138.013 62.1371 138.02 62.0964C138.028 62.0511 138.029 62.0052 137.998 61.9635C137.977 61.9361 137.96 61.9026 137.962 61.8675C137.964 61.8089 137.956 61.7523 137.943 61.6957C137.938 61.6727 137.941 61.649 137.955 61.6295C137.965 61.6165 137.971 61.602 137.977 61.5874C138.001 61.5312 138.025 61.4758 138.076 61.4376C138.085 61.4309 138.092 61.4205 138.099 61.4112C138.125 61.3751 138.15 61.3373 138.179 61.303C138.205 61.2722 138.229 61.2376 138.267 61.2199C138.355 61.1778 138.411 61.1041 138.454 61.0221C138.503 60.9303 138.543 60.8338 138.587 60.7391C138.591 60.7301 138.591 60.7192 138.594 60.7097C138.607 60.67 138.591 60.629 138.6 60.589C138.604 60.5733 138.58 60.5533 138.566 60.5618Z" fill="#8FD9FF"/>
<path d="M129.849 59.6946C129.846 59.7173 129.855 59.7333 129.874 59.7459C129.909 59.7702 129.933 59.8046 129.952 59.8426C129.964 59.866 129.975 59.889 129.99 59.9107C130.011 59.9415 130.012 59.9754 129.997 60.0096C129.973 60.062 129.992 60.1129 130.044 60.1384C130.049 60.1409 130.056 60.1427 130.059 60.1469C130.082 60.1821 130.116 60.1988 130.155 60.2096C130.161 60.2115 130.167 60.2172 130.172 60.2225C130.191 60.2451 130.217 60.2589 130.244 60.27C130.299 60.2927 130.354 60.3147 130.409 60.3361C130.434 60.3458 130.46 60.3468 130.486 60.3382C130.499 60.3337 130.514 60.3312 130.527 60.3261C130.547 60.3186 130.565 60.3235 130.581 60.3346C130.594 60.3436 130.607 60.3527 130.616 60.3662C130.681 60.4606 130.779 60.4938 130.885 60.5122C130.912 60.5167 130.933 60.5311 130.945 60.5521C130.96 60.5777 130.976 60.6037 130.98 60.6351C130.986 60.6809 131.007 60.7152 131.055 60.7323C131.081 60.7417 131.106 60.758 131.119 60.7871C131.129 60.8106 131.15 60.8216 131.174 60.8239C131.203 60.8266 131.227 60.8351 131.246 60.8591C131.258 60.8752 131.277 60.8712 131.294 60.8669C131.31 60.863 131.312 60.8491 131.311 60.8354C131.31 60.8233 131.312 60.8128 131.32 60.8027C131.329 60.7901 131.331 60.7743 131.322 60.762C131.313 60.7487 131.295 60.7518 131.282 60.7555C131.245 60.766 131.217 60.7537 131.19 60.7305C131.182 60.7228 131.173 60.7148 131.164 60.7077C131.127 60.6787 131.118 60.6372 131.133 60.5981C131.153 60.5448 131.148 60.4859 131.176 60.435C131.185 60.4189 131.179 60.3979 131.179 60.3792C131.178 60.3698 131.172 60.3641 131.165 60.3584C131.122 60.3237 131.073 60.3111 131.019 60.3204C130.998 60.3239 130.978 60.3212 130.958 60.3209C130.941 60.3207 130.932 60.3121 130.927 60.2965C130.917 60.2655 130.92 60.236 130.939 60.21C130.959 60.1814 130.973 60.1501 130.986 60.1177C131.001 60.0797 130.996 60.0351 131.028 60.0018C131.043 59.9872 131.028 59.9674 131.004 59.9626C130.947 59.9509 130.893 59.9663 130.84 59.9863C130.824 59.9925 130.815 60.0041 130.813 60.0221C130.81 60.0527 130.798 60.0808 130.786 60.1085C130.77 60.1431 130.752 60.1548 130.714 60.1512C130.684 60.1483 130.654 60.1483 130.624 60.1534C130.569 60.1624 130.515 60.1245 130.489 60.0748C130.458 60.0181 130.463 59.9578 130.458 59.898C130.458 59.8896 130.46 59.8809 130.461 59.8723C130.467 59.8195 130.487 59.7716 130.509 59.7244C130.52 59.7003 130.529 59.6765 130.527 59.6494C130.526 59.6202 130.536 59.5943 130.56 59.5774C130.588 59.5579 130.614 59.5347 130.647 59.5212C130.678 59.5086 130.708 59.4954 130.736 59.4763C130.761 59.4591 130.787 59.4577 130.818 59.4685C130.868 59.4859 130.923 59.4856 130.975 59.4932C130.989 59.4953 130.995 59.4861 131.002 59.4761C131.015 59.4582 131.029 59.4416 131.052 59.4365C131.079 59.4304 131.105 59.4233 131.132 59.4188C131.158 59.4144 131.183 59.4187 131.196 59.4442C131.207 59.4649 131.221 59.4685 131.242 59.4656C131.292 59.4588 131.318 59.4863 131.312 59.5361C131.309 59.555 131.31 59.5732 131.314 59.592C131.324 59.6376 131.34 59.6806 131.367 59.7196C131.386 59.7476 131.399 59.7517 131.424 59.7286C131.45 59.704 131.464 59.6736 131.466 59.6365C131.469 59.5905 131.455 59.5476 131.445 59.5042C131.424 59.4174 131.449 59.3458 131.519 59.2933C131.576 59.2501 131.636 59.21 131.701 59.1782C131.738 59.1604 131.775 59.1456 131.798 59.1055C131.812 59.0807 131.831 59.0575 131.837 59.0298C131.847 58.9873 131.869 58.9523 131.896 58.9202C131.929 58.8817 131.963 58.8442 131.997 58.8069C132.035 58.7655 132.076 58.7368 132.132 58.73C132.158 58.7268 132.182 58.7141 132.206 58.7044C132.222 58.6976 132.231 58.6857 132.229 58.6673C132.226 58.6426 132.24 58.627 132.257 58.6114C132.281 58.5879 132.316 58.5811 132.341 58.563C132.376 58.538 132.41 58.545 132.444 58.5436C132.463 58.5428 132.475 58.5509 132.483 58.571C132.493 58.5969 132.513 58.5998 132.535 58.5818C132.548 58.5706 132.559 58.5574 132.572 58.5452C132.581 58.536 132.591 58.5251 132.605 58.5264C132.648 58.5307 132.685 58.5043 132.728 58.5059C132.738 58.5062 132.748 58.5026 132.757 58.4994C132.78 58.492 132.785 58.4688 132.768 58.4518C132.761 58.4442 132.752 58.4407 132.741 58.4393C132.726 58.4372 132.71 58.4339 132.694 58.4308C132.65 58.4217 132.631 58.393 132.642 58.3488C132.647 58.3288 132.656 58.3097 132.672 58.2966C132.696 58.2766 132.704 58.2522 132.697 58.2233C132.692 58.2036 132.703 58.1965 132.717 58.1906C132.75 58.1769 132.785 58.1744 132.819 58.1796C132.861 58.186 132.902 58.1873 132.943 58.1737C132.966 58.1664 132.982 58.188 132.972 58.2103C132.964 58.2275 132.952 58.2425 132.938 58.2548C132.919 58.2707 132.911 58.2922 132.903 58.3142C132.897 58.3317 132.899 58.3412 132.919 58.3448C132.947 58.3497 132.973 58.3546 133.001 58.348C133.03 58.3411 133.059 58.3406 133.085 58.358C133.11 58.3751 133.139 58.3781 133.167 58.3842C133.207 58.393 133.235 58.357 133.22 58.318C133.211 58.2939 133.209 58.2708 133.221 58.2467C133.239 58.2101 133.238 58.2094 133.201 58.1948C133.17 58.1825 133.164 58.1679 133.166 58.1354C133.168 58.0912 133.193 58.0536 133.198 58.0101C133.202 57.984 133.2 57.9649 133.178 57.9496C133.169 57.943 133.159 57.9359 133.16 57.9221C133.162 57.8975 133.145 57.8887 133.126 57.884C133.078 57.8718 133.065 57.8357 133.063 57.7922C133.062 57.7662 133.064 57.74 133.063 57.7139C133.062 57.6692 133.049 57.6285 133.02 57.5937C132.998 57.5672 132.99 57.5656 132.963 57.5866C132.929 57.6131 132.893 57.6372 132.855 57.6596C132.831 57.6745 132.803 57.6725 132.783 57.6551C132.765 57.6392 132.762 57.6225 132.775 57.592C132.778 57.5853 132.782 57.579 132.785 57.5724C132.797 57.5458 132.795 57.5342 132.772 57.5216C132.751 57.5101 132.736 57.4934 132.72 57.4767C132.704 57.4606 132.688 57.4417 132.664 57.4386C132.618 57.4327 132.572 57.4285 132.525 57.4282C132.509 57.4281 132.493 57.4331 132.481 57.444C132.452 57.4715 132.441 57.511 132.42 57.5439C132.426 57.5954 132.396 57.6211 132.352 57.6365C132.348 57.6379 132.344 57.6391 132.34 57.6413C132.318 57.6543 132.316 57.6652 132.331 57.6862C132.357 57.7206 132.357 57.7305 132.335 57.767C132.319 57.7922 132.298 57.8103 132.273 57.8264C132.234 57.851 132.189 57.859 132.149 57.8795C132.131 57.889 132.117 57.8993 132.118 57.9214C132.121 57.9571 132.096 57.9864 132.096 58.0223C132.097 58.036 132.082 58.0468 132.069 58.0539C132.057 58.0602 132.046 58.0659 132.034 58.0716C132.005 58.0857 131.989 58.0808 131.976 58.0512C131.966 58.028 131.963 58.0042 131.979 57.9808C131.997 57.953 132.006 57.9202 132.029 57.8949C132.04 57.883 132.035 57.8725 132.021 57.868C131.998 57.86 131.974 57.8548 131.949 57.8548C131.897 57.8549 131.852 57.8288 131.817 57.7963C131.785 57.7656 131.75 57.7465 131.71 57.7364C131.686 57.7304 131.676 57.7176 131.672 57.6955C131.669 57.6786 131.67 57.6603 131.659 57.6455C131.643 57.623 131.653 57.605 131.668 57.5872C131.686 57.5657 131.71 57.5521 131.732 57.5353C131.791 57.4896 131.855 57.4542 131.931 57.4448C131.969 57.44 131.998 57.4193 132.025 57.3948C132.043 57.378 132.063 57.3703 132.087 57.3685C132.126 57.3656 132.162 57.3744 132.191 57.4013C132.206 57.4147 132.219 57.4135 132.234 57.4055C132.256 57.3941 132.278 57.383 132.3 57.3716C132.315 57.3636 132.329 57.3626 132.345 57.373C132.358 57.3819 132.373 57.3884 132.389 57.3876C132.402 57.387 132.412 57.3826 132.418 57.3707C132.422 57.3598 132.418 57.3504 132.409 57.344C132.393 57.3319 132.386 57.3151 132.381 57.2966C132.372 57.2621 132.378 57.2502 132.413 57.2481C132.438 57.2466 132.458 57.2374 132.477 57.2234C132.509 57.1998 132.547 57.1836 132.565 57.1436C132.569 57.1337 132.581 57.127 132.589 57.1188C132.6 57.1075 132.611 57.0966 132.619 57.0818C132.632 57.0551 132.655 57.0454 132.683 57.0498C132.705 57.0532 132.726 57.0524 132.748 57.052C132.779 57.0515 132.81 57.0598 132.828 57.0862C132.841 57.1035 132.854 57.1155 132.873 57.1251C132.901 57.1394 132.902 57.1576 132.879 57.1796C132.861 57.1963 132.841 57.2106 132.818 57.2215C132.805 57.2277 132.79 57.2333 132.786 57.2488C132.779 57.2757 132.757 57.2785 132.735 57.2812C132.71 57.2844 132.687 57.2789 132.663 57.2714C132.625 57.2596 132.585 57.2802 132.573 57.3167C132.567 57.3322 132.571 57.3424 132.589 57.344C132.636 57.3484 132.684 57.3596 132.731 57.3482C132.75 57.3438 132.763 57.351 132.772 57.3648C132.78 57.3754 132.787 57.3871 132.79 57.3994C132.798 57.428 132.818 57.442 132.844 57.4515C132.872 57.4621 132.901 57.4726 132.929 57.4837C132.955 57.494 132.977 57.4926 133.001 57.474C133.027 57.4539 133.052 57.4316 133.08 57.4139C133.118 57.3908 133.124 57.3549 133.104 57.3157C133.097 57.3028 133.091 57.29 133.085 57.2768C133.081 57.2672 133.079 57.2563 133.089 57.2496C133.099 57.2436 133.108 57.2479 133.117 57.2543C133.134 57.2665 133.143 57.2859 133.157 57.3C133.18 57.3227 133.2 57.3243 133.226 57.3044C133.245 57.2893 133.265 57.2739 133.284 57.2583C133.311 57.2363 133.314 57.2236 133.302 57.1903C133.295 57.172 133.286 57.1573 133.267 57.148C133.225 57.1271 133.197 57.0969 133.203 57.0458C133.206 57.0214 133.194 57.0045 133.176 56.9898C133.148 56.9658 133.114 56.9526 133.078 56.9458C133.038 56.9381 133.009 56.9148 132.996 56.8767C132.988 56.8523 132.972 56.8428 132.95 56.8374C132.891 56.8232 132.831 56.8238 132.773 56.8308C132.732 56.8356 132.692 56.8383 132.652 56.8387C132.624 56.8387 132.597 56.8367 132.569 56.8393C132.542 56.8419 132.514 56.8426 132.491 56.86C132.463 56.8808 132.435 56.9018 132.409 56.9242C132.375 56.9528 132.372 56.9657 132.387 57.0076C132.39 57.0172 132.396 57.0262 132.391 57.0364C132.38 57.0568 132.363 57.0701 132.34 57.0719C132.318 57.0736 132.295 57.0737 132.282 57.0505C132.268 57.0251 132.258 56.9985 132.254 56.969C132.251 56.9426 132.231 56.9258 132.211 56.9313C132.177 56.941 132.141 56.9495 132.111 56.9711C132.079 56.9946 132.046 57.0178 132.062 57.0697C132.071 57.0992 132.061 57.1044 132.035 57.1207C132.014 57.1334 131.995 57.127 131.976 57.1228C131.945 57.1159 131.911 57.1119 131.882 57.1233C131.86 57.1322 131.838 57.1349 131.815 57.1352C131.789 57.1354 131.764 57.1363 131.738 57.1407C131.701 57.1468 131.666 57.1442 131.638 57.1135C131.619 57.0934 131.59 57.0879 131.565 57.0929C131.52 57.1018 131.474 57.1058 131.429 57.1182C131.359 57.1376 131.29 57.148 131.227 57.0959C131.214 57.0851 131.199 57.0822 131.184 57.082C130.496 57.7382 130.001 58.5946 129.791 59.5577C129.816 59.5929 129.821 59.6384 129.847 59.6736C129.85 59.6784 129.849 59.6876 129.849 59.6946Z" fill="#8FD9FF"/>
<path d="M129.811 59.8563C129.818 59.8369 129.812 59.8195 129.8 59.8036C129.783 59.7834 129.774 59.7604 129.766 59.7353C129.763 59.7277 129.761 59.72 129.76 59.7122C129.752 59.7525 129.745 59.7929 129.739 59.8335C129.749 59.844 129.758 59.8548 129.767 59.8656C129.782 59.8832 129.803 59.878 129.811 59.8563Z" fill="#8FD9FF"/>
<path d="M133.744 61.6353C133.703 61.6302 133.672 61.6094 133.645 61.5782C133.635 61.5661 133.624 61.5544 133.611 61.5448C133.575 61.5173 133.539 61.4901 133.489 61.5018C133.424 61.513 133.368 61.4807 133.318 61.4511C133.233 61.4017 133.141 61.3712 133.053 61.3321C133.013 61.3145 132.992 61.2908 132.982 61.2527C132.978 61.2388 132.979 61.2235 132.969 61.212C132.944 61.1839 132.933 61.15 132.926 61.1138C132.921 61.0888 132.915 61.0604 132.892 61.0457C132.867 61.0308 132.849 61.0111 132.831 60.9904C132.824 60.9828 132.817 60.9754 132.807 60.973C132.759 60.9618 132.714 60.9401 132.663 60.9448C132.595 60.9511 132.548 60.9151 132.515 60.8592C132.496 60.8267 132.473 60.8003 132.436 60.7892C132.411 60.7818 132.399 60.7618 132.392 60.739C132.387 60.7226 132.398 60.7084 132.401 60.6931C132.405 60.6763 132.412 60.6572 132.39 60.6477C132.371 60.6389 132.35 60.6283 132.328 60.6351C132.302 60.6431 132.276 60.6426 132.25 60.6426C132.231 60.6426 132.214 60.6453 132.198 60.6585C132.173 60.6792 132.143 60.6806 132.117 60.6646C132.094 60.651 132.071 60.6468 132.047 60.6442C132.02 60.6414 131.997 60.6314 131.976 60.6151C131.946 60.5921 131.91 60.5788 131.877 60.5619C131.853 60.5493 131.822 60.5492 131.793 60.545C131.782 60.5433 131.771 60.545 131.762 60.5552C131.733 60.5864 131.697 60.5982 131.656 60.6073C131.608 60.6179 131.564 60.639 131.551 60.6967C131.542 60.7374 131.488 60.7653 131.445 60.7567C131.429 60.7534 131.413 60.7537 131.397 60.755C131.39 60.7556 131.382 60.7585 131.381 60.7669C131.38 60.7845 131.37 60.8053 131.393 60.8168C131.403 60.8214 131.406 60.8286 131.405 60.8376C131.404 60.8548 131.413 60.8688 131.422 60.8817C131.45 60.9242 131.455 60.9711 131.449 61.0195C131.445 61.0609 131.441 61.1022 131.417 61.1394C131.402 61.1609 131.381 61.1732 131.365 61.1912C131.345 61.2128 131.335 61.2426 131.312 61.2594C131.268 61.291 131.254 61.3385 131.244 61.386C131.237 61.4162 131.234 61.4514 131.251 61.4797C131.276 61.5219 131.268 61.5564 131.237 61.5894C131.224 61.6025 131.216 61.6182 131.217 61.6364C131.222 61.6894 131.233 61.7395 131.281 61.7726C131.323 61.8011 131.343 61.8447 131.355 61.8916C131.362 61.9172 131.372 61.9404 131.391 61.9595C131.429 61.9969 131.456 62.0426 131.479 62.0886C131.499 62.1281 131.522 62.1662 131.539 62.208C131.558 62.2558 131.601 62.2898 131.637 62.327C131.64 62.3298 131.645 62.3302 131.649 62.3318C131.68 62.3446 131.711 62.3564 131.741 62.3705C131.799 62.3973 131.845 62.4387 131.887 62.4845C131.897 62.4952 131.9 62.5098 131.904 62.5238C131.926 62.5926 131.923 62.6643 131.927 62.7346C131.932 62.8357 131.935 62.9368 131.946 63.0376C131.947 63.0547 131.948 63.0728 131.944 63.0895C131.934 63.1342 131.939 63.1781 131.943 63.2231C131.948 63.277 131.971 63.3259 131.98 63.3788C131.989 63.4338 131.993 63.4869 131.981 63.5422C131.971 63.5857 131.97 63.6309 131.965 63.6753C131.964 63.6854 131.964 63.6958 131.969 63.7052C131.998 63.7597 132.008 63.8195 132.019 63.8795C132.026 63.9216 132.04 63.962 132.07 63.9967C132.12 64.0544 132.14 64.1252 132.147 64.2003C132.149 64.2221 132.155 64.2429 132.167 64.2614C132.181 64.2824 132.187 64.3055 132.191 64.3304C132.197 64.3748 132.205 64.4191 132.234 64.4561C132.239 64.4628 132.241 64.4719 132.245 64.4793C132.28 64.537 132.303 64.6028 132.353 64.6509C132.386 64.6826 132.419 64.71 132.471 64.6903C132.51 64.6758 132.564 64.7054 132.574 64.7465C132.581 64.7739 132.596 64.7803 132.62 64.7827C132.639 64.7847 132.658 64.7822 132.676 64.7898C132.709 64.8037 132.744 64.8019 132.778 64.8019C132.796 64.802 132.812 64.7995 132.815 64.7796C132.817 64.7606 132.802 64.7517 132.788 64.7435C132.784 64.7408 132.777 64.7404 132.771 64.7405C132.749 64.7405 132.728 64.7327 132.709 64.7222C132.671 64.7004 132.628 64.6808 132.61 64.6362C132.6 64.6109 132.585 64.5927 132.565 64.5748C132.512 64.5281 132.522 64.5114 132.542 64.4702C132.545 64.4651 132.548 64.4592 132.548 64.4542C132.544 64.4218 132.566 64.4045 132.585 64.3845C132.62 64.3479 132.612 64.3103 132.566 64.2878C132.526 64.2681 132.512 64.2204 132.536 64.1832C132.551 64.1594 132.563 64.1354 132.553 64.1059C132.547 64.0901 132.556 64.0768 132.565 64.0664C132.583 64.0474 132.592 64.0254 132.595 64.0004C132.599 63.9756 132.609 63.9535 132.624 63.9331C132.638 63.9131 132.649 63.8913 132.653 63.8661C132.657 63.8343 132.679 63.8154 132.707 63.8033C132.717 63.7987 132.729 63.7965 132.74 63.7925C132.79 63.7737 132.835 63.7491 132.837 63.6858C132.837 63.6803 132.84 63.6747 132.842 63.6693C132.859 63.6231 132.876 63.5774 132.919 63.5465C132.941 63.5306 132.96 63.5096 132.972 63.4844C132.99 63.4479 133.005 63.4105 133.021 63.373C133.035 63.3383 133.043 63.3003 133.077 63.2775C133.111 63.2542 133.103 63.2074 133.131 63.1809C133.137 63.175 133.143 63.1684 133.149 63.1629C133.165 63.15 133.172 63.1331 133.172 63.1133C133.172 63.0902 133.173 63.0676 133.166 63.0446C133.139 62.9538 133.155 62.9168 133.236 62.8675C133.25 62.8592 133.264 62.8534 133.279 62.8487C133.293 62.8444 133.307 62.8405 133.319 62.8318C133.351 62.8093 133.385 62.7987 133.424 62.7971C133.458 62.7956 133.498 62.7964 133.513 62.7515C133.514 62.7469 133.521 62.7434 133.526 62.7406C133.543 62.7306 133.549 62.715 133.547 62.6964C133.545 62.6718 133.554 62.6519 133.567 62.6318C133.584 62.6068 133.6 62.5797 133.599 62.5478C133.597 62.5167 133.598 62.4875 133.618 62.4615C133.626 62.4519 133.624 62.4392 133.624 62.4277C133.625 62.4132 133.622 62.3978 133.627 62.3844C133.636 62.3538 133.632 62.3261 133.623 62.2955C133.609 62.246 133.606 62.1939 133.642 62.1506C133.691 62.0915 133.718 62.0179 133.774 61.964C133.777 61.961 133.78 61.9575 133.782 61.9538C133.829 61.8743 133.847 61.7912 133.817 61.7004C133.804 61.6635 133.783 61.6402 133.744 61.6353Z" fill="#8FD9FF"/>
<path d="M134.965 57.0543C135.031 57.0406 135.053 57.0048 135.037 56.9379C135.028 56.8972 135.036 56.8845 135.074 56.8701C135.142 56.8444 135.198 56.8035 135.223 56.7312C135.227 56.7204 135.229 56.7085 135.238 56.7001C135.258 56.6819 135.263 56.6585 135.261 56.6329C135.26 56.6119 135.267 56.5931 135.286 56.586C135.333 56.568 135.375 56.5384 135.426 56.5295C135.466 56.5225 135.506 56.5178 135.542 56.4977C135.55 56.4933 135.558 56.4889 135.556 56.4782C135.554 56.4697 135.546 56.4677 135.54 56.4656C135.513 56.4576 135.485 56.4589 135.458 56.4605C135.405 56.4635 135.352 56.4612 135.303 56.4456C135.248 56.428 135.191 56.4165 135.135 56.4062C135.042 56.3893 134.948 56.386 134.855 56.4038C134.818 56.4107 134.782 56.4161 134.743 56.4122C134.691 56.4069 134.637 56.4066 134.583 56.4152C134.492 56.4299 134.401 56.444 134.308 56.4451C134.283 56.4454 134.259 56.4556 134.235 56.4509C134.141 56.4332 134.052 56.4727 133.959 56.4664C133.954 56.466 133.948 56.4683 133.942 56.4704C133.913 56.4828 133.882 56.49 133.85 56.4933C133.797 56.4989 133.748 56.525 133.694 56.5274C133.68 56.5279 133.663 56.5298 133.656 56.5454C133.649 56.5652 133.631 56.5678 133.615 56.5733C133.568 56.5895 133.518 56.5876 133.47 56.5934C133.441 56.5969 133.413 56.6024 133.385 56.609C133.365 56.6136 133.359 56.6251 133.359 56.6432C133.359 56.6736 133.384 56.7095 133.417 56.7224C133.446 56.7339 133.477 56.7377 133.507 56.7314C133.57 56.7181 133.63 56.7299 133.692 56.7406C133.741 56.7493 133.773 56.786 133.776 56.8362C133.778 56.8615 133.773 56.8855 133.76 56.9072C133.745 56.9322 133.746 56.9575 133.761 56.9812C133.774 57.0033 133.783 57.0279 133.8 57.0483C133.823 57.0756 133.816 57.0904 133.78 57.0967C133.703 57.1103 133.662 57.1571 133.663 57.2354C133.658 57.2681 133.675 57.3011 133.671 57.3364C133.668 57.373 133.675 57.4085 133.69 57.4418C133.7 57.4628 133.712 57.4829 133.722 57.5033C133.738 57.5328 133.743 57.5358 133.777 57.5279C133.809 57.5207 133.834 57.5298 133.855 57.5528C133.906 57.6069 133.934 57.5877 133.964 57.5551C133.993 57.5248 134.027 57.499 134.045 57.4593C134.049 57.4492 134.057 57.439 134.067 57.4331C134.098 57.4133 134.12 57.3859 134.138 57.3533C134.162 57.309 134.196 57.2824 134.251 57.2797C134.282 57.2782 134.314 57.2738 134.345 57.2681C134.413 57.2557 134.475 57.2302 134.53 57.1863C134.551 57.1691 134.574 57.1503 134.602 57.1497C134.656 57.1486 134.707 57.1312 134.76 57.1243C134.799 57.1193 134.836 57.106 134.871 57.0893C134.902 57.0753 134.932 57.061 134.965 57.0543Z" fill="#8FD9FF"/>
<path d="M138.536 62.1909C138.531 62.1605 138.518 62.1329 138.505 62.1056C138.495 62.0855 138.481 62.0841 138.468 62.102C138.447 62.133 138.425 62.1641 138.41 62.1979C138.378 62.2662 138.336 62.3179 138.257 62.3324C138.238 62.3359 138.215 62.3395 138.206 62.3604C138.191 62.3929 138.167 62.4233 138.173 62.4618C138.176 62.4833 138.174 62.5059 138.18 62.5262C138.196 62.5799 138.173 62.6238 138.145 62.6638C138.125 62.6931 138.113 62.7214 138.118 62.7524C138.116 62.796 138.126 62.8341 138.135 62.8719C138.146 62.9171 138.199 62.9576 138.237 62.9499C138.263 62.9446 138.289 62.9334 138.314 62.9233C138.322 62.9203 138.33 62.9135 138.333 62.9063C138.346 62.8773 138.364 62.8503 138.371 62.8192C138.389 62.7502 138.417 62.6852 138.442 62.6187C138.462 62.5632 138.49 62.5097 138.497 62.4506C138.502 62.4166 138.513 62.3861 138.53 62.3582C138.553 62.3228 138.558 62.2862 138.547 62.2462C138.541 62.2282 138.539 62.2094 138.536 62.1909Z" fill="#8FD9FF"/>
<path d="M135.591 57.8618C135.609 57.8815 135.631 57.8941 135.654 57.9062C135.674 57.9168 135.687 57.9363 135.687 57.9586C135.686 57.9815 135.663 57.9798 135.647 57.9828C135.626 57.9865 135.613 57.9978 135.611 58.0198C135.609 58.0298 135.606 58.0395 135.605 58.0494C135.601 58.0828 135.588 58.1134 135.579 58.1454C135.571 58.175 135.588 58.1894 135.617 58.1808C135.622 58.1796 135.626 58.178 135.629 58.1756C135.673 58.1444 135.724 58.1441 135.775 58.1417C135.803 58.1402 135.828 58.1302 135.853 58.1196C135.862 58.1156 135.872 58.1092 135.872 58.0977C135.873 58.081 135.884 58.0726 135.894 58.0623C135.924 58.0319 135.921 58.0112 135.882 57.999C135.856 57.9908 135.844 57.9749 135.84 57.9516C135.835 57.929 135.827 57.9108 135.807 57.8984C135.801 57.8948 135.796 57.8887 135.793 57.8826C135.772 57.8388 135.745 57.7982 135.75 57.7445C135.753 57.698 135.712 57.6624 135.658 57.662C135.629 57.6556 135.605 57.6696 135.584 57.6996C135.566 57.7262 135.551 57.7483 135.557 57.7852C135.563 57.8153 135.57 57.8396 135.591 57.8618Z" fill="#8FD9FF"/>
<path d="M135.212 57.2187C135.191 57.2213 135.17 57.2208 135.148 57.2244C135.093 57.2336 135.037 57.2466 134.982 57.226C134.939 57.2097 134.907 57.2272 134.876 57.254C134.862 57.2663 134.861 57.2782 134.876 57.2895C134.894 57.3032 134.904 57.3209 134.911 57.3421C134.919 57.3636 134.933 57.3779 134.958 57.3801C134.995 57.3835 135.033 57.383 135.069 57.3983C135.071 57.3994 135.074 57.3988 135.08 57.3992C135.084 57.3978 135.092 57.3969 135.098 57.3934C135.15 57.3636 135.207 57.3493 135.264 57.333C135.281 57.3278 135.294 57.3165 135.305 57.3032C135.316 57.2905 135.317 57.2773 135.305 57.2644C135.28 57.2378 135.254 57.2135 135.212 57.2187Z" fill="#8FD9FF"/>
<path d="M131.418 59.9654C131.441 59.9901 131.47 60.0068 131.499 60.0236C131.511 60.0308 131.516 60.0406 131.52 60.0544C131.527 60.0845 131.533 60.091 131.56 60.0828C131.587 60.0745 131.607 60.0808 131.629 60.0945C131.651 60.108 131.674 60.1043 131.695 60.0909C131.719 60.0752 131.72 60.0611 131.696 60.0452C131.682 60.0357 131.666 60.0292 131.651 60.0196C131.622 60.0002 131.586 59.9927 131.562 59.9668C131.523 59.923 131.472 59.9013 131.418 59.8817C131.386 59.8697 131.354 59.8542 131.316 59.8584C131.287 59.8528 131.259 59.8689 131.229 59.8739C131.2 59.8788 131.179 59.8949 131.159 59.914C131.148 59.9243 131.13 59.9374 131.139 59.9539C131.15 59.9739 131.168 59.9555 131.182 59.9534C131.209 59.9493 131.231 59.9283 131.26 59.9296C131.309 59.9317 131.356 59.9467 131.404 59.9563C131.409 59.9574 131.414 59.9613 131.418 59.9654Z" fill="#8FD9FF"/>
<path d="M135.565 57.8723C135.538 57.8532 135.472 57.8574 135.447 57.8783C135.429 57.8925 135.414 57.9105 135.389 57.915C135.36 57.9202 135.356 57.9246 135.36 57.9561C135.364 57.9825 135.36 58.0055 135.345 58.0256C135.331 58.0428 135.335 58.0569 135.345 58.0729C135.356 58.0882 135.366 58.101 135.386 58.0982C135.401 58.0986 135.413 58.0933 135.423 58.0857C135.449 58.0677 135.476 58.0559 135.508 58.0543C135.521 58.0536 135.529 58.0469 135.534 58.0352C135.541 58.0193 135.55 58.004 135.55 57.986C135.549 57.9674 135.555 57.9547 135.57 57.942C135.595 57.9217 135.591 57.8907 135.565 57.8723Z" fill="#8FD9FF"/>
<path d="M131.751 60.1461C131.732 60.1482 131.714 60.1514 131.696 60.1551C131.687 60.1569 131.679 60.1624 131.68 60.1728C131.68 60.181 131.687 60.1862 131.694 60.1871C131.75 60.1941 131.805 60.2163 131.86 60.2053C131.901 60.1973 131.942 60.1901 131.983 60.182C131.996 60.1794 132.009 60.177 132.012 60.1613C132.015 60.1441 132.002 60.1365 131.99 60.1277C131.957 60.1039 131.914 60.103 131.882 60.0771C131.875 60.0721 131.862 60.0751 131.852 60.0753C131.839 60.0755 131.826 60.0766 131.821 60.0769C131.807 60.076 131.801 60.0744 131.796 60.0754C131.78 60.0785 131.76 60.0614 131.748 60.0799C131.737 60.0977 131.759 60.1064 131.766 60.1197C131.773 60.1353 131.769 60.1441 131.751 60.1461Z" fill="#8FD9FF"/>
<path opacity="0.1" d="M139.378 60.5967C139.378 63.2781 137.206 65.4518 134.528 65.4518C133.432 65.4518 132.421 65.0877 131.608 64.4734C131.825 64.4788 132.036 64.4765 132.239 64.4671C132.343 64.4624 132.446 64.4557 132.547 64.4472C134.344 64.297 135.604 63.5765 136.487 62.6468C137.166 61.9325 137.622 61.0947 137.929 60.2973C137.954 60.2335 137.977 60.17 138 60.1069C138.327 59.1951 138.463 58.3546 138.519 57.8374V57.837C138.632 58.001 138.736 58.1723 138.828 58.3501C138.85 58.3914 138.871 58.4331 138.891 58.4752C138.898 58.4891 138.905 58.5032 138.911 58.5173C138.918 58.5314 138.925 58.5455 138.931 58.5596C138.958 58.6162 138.983 58.6734 139.007 58.7312C139.031 58.789 139.054 58.8475 139.076 58.9063C139.103 58.9799 139.129 59.0545 139.152 59.1297C139.157 59.1447 139.162 59.1598 139.166 59.175C139.19 59.2504 139.211 59.3269 139.23 59.4039C139.242 59.4501 139.253 59.4967 139.263 59.5435C139.27 59.5727 139.276 59.6021 139.282 59.6315C139.282 59.6354 139.283 59.6394 139.284 59.6433C139.345 59.9516 139.378 60.2704 139.378 60.5967Z" fill="black"/>
<path d="M134.768 57.2788C134.759 57.2725 134.738 57.2739 134.729 57.2808C134.723 57.2854 134.718 57.2914 134.71 57.2928C134.701 57.2946 134.699 57.296 134.701 57.3064C134.702 57.3151 134.701 57.3227 134.695 57.3293C134.691 57.335 134.692 57.3396 134.696 57.3449C134.699 57.35 134.703 57.3542 134.709 57.3533C134.714 57.3534 134.718 57.3516 134.721 57.3491C134.73 57.3432 134.739 57.3393 134.749 57.3388C134.753 57.3386 134.756 57.3363 134.758 57.3325C134.76 57.3272 134.763 57.3222 134.763 57.3163C134.763 57.3101 134.765 57.306 134.77 57.3018C134.778 57.2951 134.777 57.2848 134.768 57.2788Z" fill="#8FD9FF"/>
<path d="M90.3904 54.5337H65.4946V70.2984H90.3904V54.5337Z" fill="#E3E9F7"/>
<path d="M89.0297 55.9443H66.855V68.8864H89.0297V55.9443Z" fill="#F4F6FC"/>
<path d="M90.3901 51.6962H65.5039V54.5401H90.3901V51.6962Z" fill="#C8B0FF"/>
<path d="M66.9448 53.4408C67.2088 53.4408 67.4228 53.2371 67.4228 52.9858C67.4228 52.7345 67.2088 52.5308 66.9448 52.5308C66.6808 52.5308 66.4668 52.7345 66.4668 52.9858C66.4668 53.2371 66.6808 53.4408 66.9448 53.4408Z" fill="#E3E9F7"/>
<path d="M68.3388 53.4408C68.6028 53.4408 68.8168 53.2371 68.8168 52.9858C68.8168 52.7345 68.6028 52.5308 68.3388 52.5308C68.0748 52.5308 67.8608 52.7345 67.8608 52.9858C67.8608 53.2371 68.0748 53.4408 68.3388 53.4408Z" fill="#E3E9F7"/>
<path d="M69.7324 53.4408C69.9963 53.4408 70.2103 53.2371 70.2103 52.9858C70.2103 52.7345 69.9963 52.5308 69.7324 52.5308C69.4684 52.5308 69.2544 52.7345 69.2544 52.9858C69.2544 53.2371 69.4684 53.4408 69.7324 53.4408Z" fill="#E3E9F7"/>
<path d="M77.7935 67.6174C80.663 67.6174 82.9891 65.2885 82.9891 62.4158C82.9891 59.543 80.663 57.2141 77.7935 57.2141C74.9241 57.2141 72.5979 59.543 72.5979 62.4158C72.5979 65.2885 74.9241 67.6174 77.7935 67.6174Z" fill="#8FD9FF"/>
<path d="M77.7936 66.9392C76.5868 66.9392 75.4521 66.4686 74.5987 65.6143C73.7454 64.7599 73.2754 63.624 73.2754 62.4157C73.2754 61.2075 73.7454 60.0715 74.5987 59.2172C75.4521 58.3628 76.5868 57.8923 77.7936 57.8923C79.0005 57.8923 80.1351 58.3628 80.9885 59.2172C81.8419 60.0715 82.3118 61.2075 82.3118 62.4157C82.3118 63.624 81.8419 64.7599 80.9885 65.6143C80.1351 66.4686 79.0005 66.9392 77.7936 66.9392Z" fill="white"/>
<path d="M77.794 66.2611C76.768 66.2611 75.8035 65.8611 75.0781 65.1348C74.3526 64.4085 73.9531 63.4429 73.9531 62.4158C73.9531 61.3887 74.3526 60.4231 75.0781 59.6968C75.8035 58.9705 76.768 58.5706 77.794 58.5706C78.8199 58.5706 79.7844 58.9705 80.5098 59.6968C81.2353 60.4231 81.6348 61.3887 81.6348 62.4158C81.6348 63.4429 81.2353 64.4086 80.5098 65.1349C79.7844 65.8611 78.8198 66.2611 77.794 66.2611Z" fill="#8FD9FF"/>
<path d="M77.7938 65.5828C76.9488 65.5828 76.1544 65.2534 75.5569 64.6552C74.9594 64.057 74.6304 63.2617 74.6304 62.4157C74.6304 61.5698 74.9594 60.7745 75.5569 60.1763C76.1544 59.5781 76.9488 59.2487 77.7938 59.2487C78.6388 59.2487 79.4332 59.5781 80.0307 60.1763C80.6282 60.7745 80.9572 61.5698 80.9572 62.4157C80.9572 63.2617 80.6281 64.057 80.0307 64.6552C79.4332 65.2534 78.6387 65.5828 77.7938 65.5828Z" fill="white"/>
<path d="M77.7936 64.9048C77.1296 64.9048 76.5053 64.6459 76.0358 64.1758C75.5662 63.7057 75.3076 63.0807 75.3076 62.4159C75.3076 61.7511 75.5662 61.1261 76.0358 60.6559C76.5053 60.1858 77.1296 59.9269 77.7936 59.9269C78.4577 59.9269 79.082 60.1858 79.5515 60.6559C80.0211 61.126 80.2797 61.751 80.2797 62.4159C80.2797 63.0807 80.0211 63.7057 79.5515 64.1758C79.082 64.6459 78.4577 64.9048 77.7936 64.9048Z" fill="#8FD9FF"/>
<path d="M77.7938 64.2265C77.3107 64.2265 76.8564 64.0382 76.5149 63.6962C76.1732 63.3541 75.9851 62.8994 75.9851 62.4158C75.9851 61.9321 76.1732 61.4774 76.5149 61.1354C76.8564 60.7934 77.3107 60.605 77.7938 60.605C78.2769 60.605 78.731 60.7934 79.0727 61.1354C79.4143 61.4774 79.6024 61.9321 79.6024 62.4158C79.6024 62.8994 79.4143 63.3542 79.0727 63.6962C78.731 64.0381 78.2769 64.2265 77.7938 64.2265Z" fill="white"/>
<path d="M77.7936 63.5484C77.4915 63.5484 77.2074 63.4306 76.9937 63.2167C76.78 63.0028 76.6624 62.7184 76.6624 62.4159C76.6624 62.1134 76.78 61.8289 76.9937 61.615C77.2073 61.4011 77.4914 61.2833 77.7936 61.2833C78.0957 61.2833 78.3798 61.4011 78.5935 61.6151C78.8071 61.829 78.9248 62.1134 78.9248 62.4159C78.9248 62.7184 78.8072 63.0028 78.5935 63.2167C78.3799 63.4306 78.0958 63.5484 77.7936 63.5484Z" fill="#8FD9FF"/>
<path d="M77.7934 62.8702C77.6704 62.8702 77.5595 62.8242 77.4725 62.7371C77.3856 62.6501 77.3396 62.5389 77.3396 62.4158C77.3396 62.2927 77.3856 62.1816 77.4726 62.0945C77.5595 62.0075 77.6705 61.9614 77.7934 61.9614C77.9164 61.9614 78.0274 62.0075 78.1143 62.0945C78.2013 62.1816 78.2473 62.2927 78.2473 62.4158C78.2473 62.5389 78.2013 62.65 78.1143 62.7371C78.0274 62.8242 77.9164 62.8702 77.7934 62.8702Z" fill="white"/>
<path d="M78.0955 62.195L82.2359 59.4619" stroke="#040C2B" stroke-width="0.175771" stroke-miterlimit="10"/>
<path d="M78.1332 62.17C78.1667 62.0067 78.0854 61.7812 78.0004 61.6437C77.985 61.9139 77.914 62.1875 77.7605 62.416C78.0282 62.361 78.306 62.4182 78.564 62.4996C78.4573 62.3627 78.3065 62.2105 78.1332 62.17Z" fill="#040C2B"/>
<path d="M82.6879 59.6441L82.6623 59.6369L82.2114 59.5462L83.0272 59.0078L83.5084 59.1026L82.6879 59.6441Z" fill="#040C2B"/>
<path d="M83.0744 58.4436L82.9654 58.914L82.1497 59.4525C82.2033 59.3027 82.2378 59.1449 82.2564 58.9836L83.0744 58.4436Z" fill="#040C2B"/>
<path d="M122.265 83.3502C121.159 80.7308 119.575 78.3791 117.559 76.3604C115.543 74.3418 113.194 72.7565 110.577 71.6486C107.867 70.5007 104.989 69.9187 102.025 69.9187C99.0613 69.9187 96.184 70.5007 93.4733 71.6486C90.8569 72.7565 88.5079 74.3418 86.4917 76.3604C84.4754 78.3791 82.8919 80.7308 81.7852 83.3502C80.6387 86.064 80.0574 88.9446 80.0574 91.9121C80.0574 94.8796 80.6387 97.7602 81.7852 100.474C82.8919 103.093 84.4754 105.445 86.4917 107.464C88.508 109.482 90.8569 111.068 93.4733 112.176C96.184 113.324 99.0613 113.906 102.025 113.906C104.989 113.906 107.867 113.324 110.577 112.176C113.194 111.068 115.543 109.482 117.559 107.464C119.575 105.445 121.159 103.093 122.265 100.474C123.412 97.7602 123.993 94.8796 123.993 91.9121C123.993 88.9446 123.412 86.064 122.265 83.3502ZM102.025 110.209C91.9318 110.209 83.7494 102.017 83.7494 91.9121C83.7494 81.807 91.9318 73.6151 102.025 73.6151C112.119 73.6151 120.301 81.807 120.301 91.9121C120.301 102.017 112.119 110.209 102.025 110.209Z" fill="#C8B0FF"/>
<path d="M86.7725 85.4624C87.0932 84.4407 87.5604 83.4624 88.1313 82.548C88.7035 81.6338 89.3832 80.7845 90.1466 80.02C90.9097 79.2553 91.7581 78.5747 92.6712 78.0018C93.5846 77.4302 94.5619 76.9625 95.5826 76.642C94.6427 77.1515 93.7388 77.7023 92.8877 78.3231C92.0359 78.9419 91.2366 79.6261 90.4945 80.3684C89.7526 81.1109 89.0692 81.9111 88.451 82.764C87.8309 83.616 87.2808 84.5211 86.7725 85.4624Z" fill="#8FD9FF"/>
<path d="M136.508 126.236L117.301 109.701C115.469 108.124 115.261 105.358 116.836 103.524C118.412 101.69 121.174 101.482 123.006 103.059L142.213 119.593C144.045 121.17 144.253 123.936 142.678 125.77C141.102 127.604 138.34 127.813 136.508 126.236Z" fill="#C8B0FF"/>
<path d="M117.502 100.151H102.318V97.6399C102.318 94.1423 105.15 91.3069 108.643 91.3069H111.176C114.67 91.3069 117.502 94.1423 117.502 97.6399L117.502 100.151Z" fill="#8FD9FF" stroke="white" stroke-width="0.801" stroke-miterlimit="10"/>
<path d="M113.828 90.9371C115.993 88.7697 115.993 85.2556 113.828 83.0881C111.663 80.9207 108.153 80.9207 105.988 83.0881C103.823 85.2556 103.823 88.7697 105.988 90.9371C108.153 93.1046 111.663 93.1046 113.828 90.9371Z" fill="#8FD9FF" stroke="white" stroke-width="0.801" stroke-miterlimit="10"/>
<path d="M102.317 100.152H87.1328V97.6403C87.1328 94.1427 89.9649 91.3073 93.4585 91.3073H95.9916C99.4852 91.3073 102.317 94.1427 102.317 97.6403L102.317 100.152Z" fill="#8FD9FF" stroke="white" stroke-width="0.801" stroke-miterlimit="10"/>
<path d="M98.644 90.9374C100.809 88.7699 100.809 85.2558 98.644 83.0883C96.479 80.9209 92.9689 80.9209 90.804 83.0883C88.6391 85.2558 88.6391 88.7699 90.804 90.9374C92.969 93.1048 96.479 93.1048 98.644 90.9374Z" fill="#8FD9FF" stroke="white" stroke-width="0.801" stroke-miterlimit="10"/>
<path d="M109.909 104.125H94.7249V101.614C94.7249 98.116 97.557 95.2807 101.05 95.2807H103.584C107.077 95.2807 109.909 98.1161 109.909 101.614L109.909 104.125Z" fill="#8FD9FF" stroke="white" stroke-width="0.801" stroke-miterlimit="10"/>
<path d="M106.236 94.9107C108.401 92.7433 108.401 89.2291 106.236 87.0617C104.071 84.8942 100.561 84.8942 98.396 87.0617C96.2311 89.2291 96.2311 92.7433 98.396 94.9107C100.561 97.0781 104.071 97.0781 106.236 94.9107Z" fill="#8FD9FF" stroke="white" stroke-width="0.801" stroke-miterlimit="10"/>
<path d="M83.291 82.9987H77.9521V71.8975" stroke="#8FD9FF" stroke-width="0.1602" stroke-miterlimit="10"/>
<path d="M105.09 71.8974V55.9308" stroke="#8FD9FF" stroke-width="0.1602" stroke-miterlimit="10"/>
<path d="M121.313 82.2152H138.049" stroke="#8FD9FF" stroke-width="0.1602" stroke-miterlimit="10"/>
<path d="M113.99 75.7692H134.524V70.287" stroke="#8FD9FF" stroke-width="0.1602" stroke-miterlimit="10"/>
<path d="M77.9424 72.9939C78.3677 72.9939 78.7124 72.6487 78.7124 72.2229C78.7124 71.7972 78.3677 71.452 77.9424 71.452C77.5171 71.452 77.1724 71.7972 77.1724 72.2229C77.1724 72.6487 77.5171 72.9939 77.9424 72.9939Z" fill="#8FD9FF"/>
<path d="M105.089 57.1642C105.514 57.1642 105.859 56.8191 105.859 56.3933C105.859 55.9675 105.514 55.6224 105.089 55.6224C104.664 55.6224 104.319 55.9675 104.319 56.3933C104.319 56.8191 104.664 57.1642 105.089 57.1642Z" fill="#8FD9FF"/>
<path d="M134.529 71.1779C134.954 71.1779 135.299 70.8328 135.299 70.407C135.299 69.9812 134.954 69.6361 134.529 69.6361C134.103 69.6361 133.759 69.9812 133.759 70.407C133.759 70.8328 134.103 71.1779 134.529 71.1779Z" fill="#8FD9FF"/>
<path d="M138.168 82.9867C138.593 82.9867 138.938 82.6416 138.938 82.2158C138.938 81.79 138.593 81.4449 138.168 81.4449C137.743 81.4449 137.398 81.79 137.398 82.2158C137.398 82.6416 137.743 82.9867 138.168 82.9867Z" fill="#8FD9FF"/>
<defs>
<linearGradient id="paint0_linear_12189_817" x1="42.8931" y1="70.0405" x2="175.24" y2="70.0405" gradientUnits="userSpaceOnUse">
<stop stop-color="#1E87F2"/>
<stop offset="1" stop-color="#9651FF"/>
</linearGradient>
</defs>
</svg>
