<svg width="20" height="21" viewBox="0 0 20 21" fill="none" xmlns="http://www.w3.org/2000/svg">
<g id="Frame">
<path id="Vector" d="M15.2087 9.25H16.3669C17.9098 9.25 18.3684 9.47125 18.3312 10.5698C18.2697 12.3895 17.4491 14.5039 14.1666 15.0833" stroke="#3D505C" stroke-width="1.5" stroke-linecap="round"/>
<path id="Vector_2" d="M4.95518 17.6787C2.14317 15.5166 1.72886 12.4501 1.66782 9.25006C1.64145 7.86773 2.04268 7.58331 3.88262 7.58331H12.784C14.6239 7.58331 15.0251 7.86773 14.9988 9.25006C14.9377 12.4501 14.5234 15.5166 11.7114 17.6787C10.9111 18.294 10.2359 18.4166 9.09946 18.4166H7.56716C6.43068 18.4166 5.75544 18.294 4.95518 17.6787Z" stroke="#3D505C" stroke-width="1.5" stroke-linecap="round"/>
<path id="Vector_3" d="M9.42412 2.58331C8.96854 2.86549 8.33437 3.83331 8.33437 5.08331M6.28313 3.83331C6.28313 3.83331 5.83337 4.24998 5.83337 5.08331M11.6677 3.83331C11.44 3.9744 11.25 4.66665 11.25 5.08331" stroke="#3D505C" stroke-width="1.5" stroke-linecap="round" stroke-linejoin="round"/>
</g>
</svg>
