<svg width="20" height="20" viewBox="0 0 20 20" fill="none" xmlns="http://www.w3.org/2000/svg">
<g id="Frame">
<path id="Vector" d="M7.5 12.5L5 18.3333" stroke="#3D505C" stroke-width="1.5" stroke-linecap="round"/>
<path id="Vector_2" d="M12.5 12.5L15 18.3333" stroke="#3D505C" stroke-width="1.5" stroke-linecap="round"/>
<path id="Vector_3" d="M10 12.5V18.3333" stroke="#3D505C" stroke-width="1.5" stroke-linecap="round"/>
<path id="Vector_4" d="M12.963 4.99999C13.4567 4.53976 13.4567 3.79356 12.963 3.33332C12.4691 2.87309 12.4691 2.12689 12.963 1.66666M9.99996 4.99999C10.4938 4.53976 10.4938 3.79356 9.99996 3.33332C9.50613 2.87309 9.50613 2.12689 9.99996 1.66666M7.03699 4.99999C7.53083 4.53976 7.53083 3.79356 7.03699 3.33332C6.54317 2.87309 6.54317 2.12689 7.03699 1.66666" stroke="#3D505C" stroke-width="1.5" stroke-linecap="round"/>
<path id="Vector_5" d="M6.25 15.8333H13.75" stroke="#3D505C" stroke-width="1.5" stroke-linecap="round"/>
<path id="Vector_6" d="M9.99996 12.5C12.9475 12.5 15.386 10.3257 15.7904 7.49752C15.8422 7.13512 15.8681 6.95391 15.7431 6.81028C15.6182 6.66666 15.4167 6.66666 15.0136 6.66666H4.98628C4.58323 6.66666 4.3817 6.66666 4.25676 6.81028C4.13182 6.95391 4.15773 7.13512 4.20955 7.49752C4.61395 10.3257 7.05233 12.5 9.99996 12.5Z" stroke="#3D505C" stroke-width="1.5" stroke-linecap="round" stroke-linejoin="round"/>
<path id="Vector_7" d="M15.8334 8.33334H16.6667M4.16671 8.33334H3.33337" stroke="#3D505C" stroke-width="1.5" stroke-linecap="round"/>
</g>
</svg>
