<svg width="20" height="20" viewBox="0 0 20 20" fill="none" xmlns="http://www.w3.org/2000/svg">
<g id="Metric Icon" clip-path="url(#clip0_12090_2847)">
<path id="Icon" d="M7.08329 12.2222C7.08329 13.2961 7.95385 14.1667 9.02774 14.1667H10.8333C11.9839 14.1667 12.9166 13.2339 12.9166 12.0834C12.9166 10.9328 11.9839 10 10.8333 10H9.16663C8.01603 10 7.08329 9.06728 7.08329 7.91669C7.08329 6.76609 8.01603 5.83335 9.16663 5.83335H10.9722C12.0461 5.83335 12.9166 6.70391 12.9166 7.7778M9.99996 4.58335V5.83335M9.99996 14.1667V15.4167M18.3333 10C18.3333 14.6024 14.6023 18.3334 9.99996 18.3334C5.39759 18.3334 1.66663 14.6024 1.66663 10C1.66663 5.39765 5.39759 1.66669 9.99996 1.66669C14.6023 1.66669 18.3333 5.39765 18.3333 10Z" stroke="#3D505C" stroke-width="2" stroke-linecap="round" stroke-linejoin="round"/>
</g>
<defs>
<clipPath id="clip0_12090_2847">
<rect width="20" height="20" fill="white"/>
</clipPath>
</defs>
</svg>
