<svg width="20" height="20" viewBox="0 0 20 20" fill="none" xmlns="http://www.w3.org/2000/svg">
<g id="Frame">
<path id="Vector" d="M11.6666 2.91666C14.8093 2.91666 16.3807 2.91666 17.357 3.95399C18.3333 4.99131 18.3333 6.66087 18.3333 9.99999C18.3333 13.3391 18.3333 15.0087 17.357 16.046C16.3807 17.0833 14.8093 17.0833 11.6666 17.0833H8.33329C5.19059 17.0833 3.61925 17.0833 2.64293 16.046C1.66663 15.0087 1.66663 13.3391 1.66663 9.99999C1.66663 6.66087 1.66663 4.99131 2.64293 3.95399C3.61925 2.91666 5.19059 2.91666 8.33329 2.91666H11.6666Z" stroke="#3D505C" stroke-width="1.5" stroke-linejoin="round"/>
<path id="Vector_2" d="M4.16663 12.9167C5.50717 11.1355 8.62821 11.0383 9.99996 12.9167M8.54079 8.54175C8.54079 9.34717 7.88789 10.0001 7.08248 10.0001C6.27707 10.0001 5.62414 9.34717 5.62414 8.54175C5.62414 7.73635 6.27707 7.08344 7.08248 7.08344C7.88789 7.08344 8.54079 7.73635 8.54079 8.54175Z" stroke="#3D505C" stroke-width="1.5" stroke-linecap="round"/>
<path id="Vector_3" d="M12.5 7.91666H15.8333" stroke="#3D505C" stroke-width="1.5" stroke-linecap="round"/>
<path id="Vector_4" d="M12.5 11.25H14.1667" stroke="#3D505C" stroke-width="1.5" stroke-linecap="round"/>
</g>
</svg>
