<svg width="20" height="20" viewBox="0 0 20 20" fill="none" xmlns="http://www.w3.org/2000/svg">
<g id="Frame" clip-path="url(#clip0_12090_2902)">
<path id="Vector" d="M3.33337 11.6667H18.3334" stroke="#3D505C" stroke-width="1.5" stroke-linecap="round" stroke-linejoin="round"/>
<path id="Vector_2" d="M4.16663 18.3333L4.94209 17.5578C5.38273 17.1172 5.60305 16.8969 5.88066 16.7717C6.15827 16.6463 6.46924 16.6269 7.09118 16.5881L9.80154 16.4187C11.1336 16.3354 11.7997 16.2937 12.3858 16.0123C12.972 15.7308 13.4209 15.237 14.3186 14.2494L16.6666 11.6667H13.75L12.2559 13.1607C12.1565 13.2601 12.1068 13.3098 12.0551 13.3537C11.7893 13.5795 11.4593 13.7162 11.1117 13.7445C11.044 13.75 10.9738 13.75 10.8333 13.75M10.8333 13.75C10.8333 13.3627 10.8333 13.1692 10.8013 13.0082C10.6698 12.347 10.153 11.8302 9.49179 11.6987C9.33079 11.6667 9.13721 11.6667 8.74996 11.6667H8.0987C7.22783 11.6667 6.7924 11.6667 6.38408 11.7717C6.07995 11.8498 5.78839 11.9706 5.51805 12.1303C5.1551 12.3448 4.8472 12.6527 4.23141 13.2686L1.66663 15.8333M10.8333 13.75H7.91663" stroke="#3D505C" stroke-width="1.5" stroke-linecap="round" stroke-linejoin="round"/>
<path id="Vector_3" d="M4.16663 9.58332C4.16663 5.90141 7.15138 2.91666 10.8333 2.91666M10.8333 2.91666C14.5152 2.91666 17.5 5.90141 17.5 9.58332M10.8333 2.91666V1.66666" stroke="#3D505C" stroke-width="1.5" stroke-linecap="round" stroke-linejoin="round"/>
</g>
<defs>
<clipPath id="clip0_12090_2902">
<rect width="20" height="20" fill="white"/>
</clipPath>
</defs>
</svg>
