<svg width="16" height="16" viewBox="0 0 16 16" fill="none" xmlns="http://www.w3.org/2000/svg">
<g id="Pin Icon">
<path id="Icon" d="M8.00025 9.99998L8.00025 14.6666M5.33358 4.87207V6.29248C5.33358 6.43116 5.33358 6.5005 5.31997 6.56682C5.30789 6.62566 5.28792 6.6826 5.26059 6.73609C5.22979 6.79639 5.18647 6.85053 5.09984 6.95882L4.05332 8.26697C3.60949 8.82175 3.38758 9.09914 3.38733 9.33259C3.38711 9.53562 3.47942 9.72768 3.63809 9.85434C3.82055 9.99998 4.17578 9.99998 4.88625 9.99998H11.1142C11.8247 9.99998 12.1799 9.99998 12.3624 9.85434C12.5211 9.72768 12.6134 9.53562 12.6132 9.33259C12.6129 9.09914 12.391 8.82175 11.9472 8.26697L10.9007 6.95882C10.814 6.85053 10.7707 6.79639 10.7399 6.73609C10.7126 6.6826 10.6926 6.62566 10.6805 6.56682C10.6669 6.5005 10.6669 6.43116 10.6669 6.29248V4.87207C10.6669 4.79532 10.6669 4.75694 10.6713 4.7191C10.6751 4.68548 10.6815 4.6522 10.6904 4.61956C10.7004 4.58281 10.7147 4.54718 10.7432 4.47592L11.4151 2.79613C11.6111 2.30607 11.7092 2.06104 11.6683 1.86434C11.6325 1.69233 11.5303 1.54139 11.3839 1.44432C11.2165 1.33331 10.9526 1.33331 10.4247 1.33331H5.57575C5.04794 1.33331 4.78403 1.33331 4.61658 1.44432C4.47015 1.54139 4.36796 1.69233 4.33221 1.86434C4.29134 2.06104 4.38935 2.30607 4.58537 2.79613L5.25729 4.47592C5.28579 4.54718 5.30004 4.58281 5.31007 4.61956C5.31898 4.6522 5.32539 4.68548 5.32924 4.7191C5.33358 4.75694 5.33358 4.79532 5.33358 4.87207Z" stroke="#919BA1" stroke-width="1.5" stroke-linecap="round" stroke-linejoin="round"/>
</g>
</svg>
